<?xml version="1.0" encoding="UTF-8"?>
<svg xmlns="http://www.w3.org/2000/svg" version="1.1" xmlns:xlink="http://www.w3.org/1999/xlink" viewBox="0 0 159 159">
  <!-- Generator: Adobe Illustrator 29.8.3, SVG Export Plug-In . SVG Version: 2.1.1 Build 3)  -->
  <defs>
    <style>
      .st0 {
        fill: #dba47c;
      }

      .st1 {
        fill: #cec45b;
      }

      .st2 {
        fill: #a9a28e;
      }

      .st3 {
        fill: #c4bca7;
      }

      .st4 {
        fill: #e99612;
      }

      .st5 {
        fill: #fff;
      }

      .st6 {
        fill: none;
      }

      .st7 {
        fill: #888988;
      }

      .st8 {
        fill: #9f2324;
      }

      .st9 {
        clip-path: url(#clippath-1);
      }

      .st10 {
        fill: #595858;
      }

      .st11, .st12 {
        isolation: isolate;
      }

      .st13 {
        fill: #f2d5a8;
      }

      .st14 {
        fill: #dcd3c2;
      }

      .st15 {
        fill: #cbcbcb;
      }

      .st16 {
        fill: #070203;
      }

      .st17 {
        mix-blend-mode: multiply;
      }

      .st18 {
        fill: #a6b0a5;
      }

      .st19 {
        clip-path: url(#clippath-2);
      }

      .st20 {
        fill: #d1d7d1;
      }

      .st21 {
        fill: #a09e9c;
        mix-blend-mode: darken;
        opacity: .5;
      }

      .st12 {
        fill: #cd8638;
        font-family: LXGWWenKaiTC-Regular, 'LXGW WenKai TC';
        font-size: 9.8px;
      }

      .st22 {
        clip-path: url(#clippath);
      }

      .st23 {
        fill: #978e88;
      }
    </style>
    <clipPath id="clippath">
      <rect class="st6" x="117.9" y="68.8" width="19" height="21.5"/>
    </clipPath>
    <clipPath id="clippath-1">
      <rect class="st6" x="117.9" y="68.8" width="19" height="21.5"/>
    </clipPath>
    <clipPath id="clippath-2">
      <rect class="st6" x="9" y="58.5" width="37.5" height="64"/>
    </clipPath>
  </defs>
  <g class="st11">
    <g id="_圖層_1" data-name="圖層_1">
      <rect class="st3" x="-72.2" y="125.8" width="338.5" height="33.2" rx="6.2" ry="6.2"/>
      <rect class="st2" x="-73.2" y="117.6" width="338.5" height="33.2" rx="6.2" ry="6.2"/>
      <rect class="st23" x="-76.2" y="115.4" width="338.5" height="27" rx="13.5" ry="13.5"/>
      <rect class="st14" x="-75.1" y="115.2" width="338.5" height="23.7" rx="11.9" ry="11.9"/>
      <g class="st11">
        <g id="uuid-4977994d-3786-4d9b-ad19-ed68209e7453">
          <path class="st10" d="M78.7,103.5c-.7,1.8-1.6,3.4-2.7,5-4.1,6.2-9.7,10.5-16.8,12.7-3.4,1-6.9,1.2-10.4,1-11.6-.7-23.8-7.2-31.1-14.7-2.3-2.4-4.3-4.9-5.6-8-1-2.3-1.6-4.7-1.9-7.2-.7-5.8.1-11.4,1.8-16.9,0,0,0-.1,0-.2,0,0,0,0,0,.1,1.6,2.6,3.7,4.9,5.9,6.9,2.5,2.3,5.3,4.4,8.2,6.3,4.1,2.8,8.5,5.2,13,7.3,3.3,1.6,6.6,2.9,10,4.1,3.7,1.3,7.4,2.4,11.2,3.2,2.8.6,5.7,1.1,8.6,1.2,1.5,0,3,.1,4.6,0,.6,0,1.2-.1,1.7-.2,1.2-.1,2.3-.4,3.4-.7"/>
          <path class="st8" d="M78.7,103.5c-1.1.3-2.2.6-3.4.7-.6,0-1.2.1-1.7.2-1.5.1-3,0-4.6,0-2.9-.2-5.8-.6-8.6-1.2-3.8-.8-7.5-1.9-11.2-3.2-3.4-1.2-6.8-2.5-10-4.1-4.5-2.1-8.8-4.6-13-7.3-2.9-1.9-5.6-4-8.2-6.3-2.3-2.1-4.3-4.3-5.9-6.9,0,0,0,0,0-.1-.5-1-1-2-1.3-3.1-1.2-4.1.2-8,3.8-10.7,1.8-1.3,3.9-2.1,6.1-2.5,2.9-.5,5.9-.5,8.9-.2,6.2.6,12.1,2.3,18,4.3,8.9,3.1,17.4,7.3,25.2,12.6,3.3,2.2,6.4,4.7,9.1,7.7,1.7,1.9,3.2,4,4.1,6.4,2.1,5.6-.5,11.2-6.2,13.4-.3.1-.6.2-.9.3M20.7,82c1.1,1.1,2.2,2,3.4,2.9,3,2.3,6.1,4.4,9.4,6.2,4.8,2.7,9.7,5.1,14.9,6.8,5.1,1.7,10.3,3.3,15.7,4.2,1.2.2,2.5.4,3.8.4.1,0,.2,0,.3,0,2.4.2,4.8.1,7.1-.4,1.9-.4,3.6-1.1,5.1-2.4,2.8-2.6,3.6-5.8,2.6-9.5-.7-2.5-2.2-4.6-3.9-6.6-2.2-2.6-4.7-4.7-7.4-6.7-5.6-4.1-11.6-7.4-18-10.1-7-2.9-14.2-5.1-21.8-6-2.9-.4-5.9-.5-8.9,0-2,.3-3.9.9-5.6,2.1-2.3,1.6-3.6,3.8-3.7,6.7,0,1.6.4,3.1,1,4.5,1.4,3,3.6,5.5,6.1,7.7"/>
          <path class="st18" d="M20.7,82c-2.4-2.2-4.6-4.7-6.1-7.7-.7-1.4-1.1-2.9-1-4.5.1-2.8,1.4-5.1,3.7-6.7,1.7-1.2,3.6-1.8,5.6-2.1,2.9-.5,5.9-.4,8.9,0,7.5.9,14.8,3.1,21.8,6,6.4,2.7,12.4,6,18,10.1,2.7,2,5.2,4.1,7.4,6.7,1.7,2,3.1,4.1,3.9,6.6,1,3.7.2,6.9-2.6,9.5-1.4,1.3-3.2,2-5.1,2.4-2.3.5-4.7.6-7.1.4-.1,0-.2,0-.3,0,0,0,0-.2,0-.3-.5-1.1-1-2.1-1.6-3-1.5-2.3-3.3-4.3-5.3-6.2-1.4-1.3-3-2.5-4.6-3.6-3-2.1-6.3-3.8-9.6-5.3-3.3-1.5-6.7-2.7-10.2-3.4-2-.4-4.1-.7-6.2-.8-1.1,0-2.2,0-3.3.1-1.2.2-2.5.4-3.7.8-.8.3-1.7.6-2.5,1M42.1,75.9c0,.6,0,1.2,0,1.9.2,1,.6,1.2,1.4.6.5-.4.9-.8,1.4-1.2.5-.4.9-.8,1.5-1,.2,0,.4-.1.6,0,.2.2,0,.4,0,.6-.2.5-.4,1-.5,1.6-.3.8-.4,1.7-.4,2.6,0,.3,0,.6.3.8.3.2.5,0,.8-.2.5-.3.9-.8,1.3-1.2,1.2-1.4,2.3-3,3.2-4.7.4-.7.8-1.5.9-2.4.1-1,0-2-.9-2.6-.8-.6-1.7-.6-2.6-.2-.3.2-.7.3-1,.4-1.2.3-2.1,0-2.9-.9-.6-.7-1-1.4-1.4-2.2-.2-.3-.4-.7-.6-1-.5-.7-1.2-.9-2-.6-2,.8-2.9,2.4-2.8,4.5,0,.7.5,1,1.1,1.1.6.1,1.2,0,1.9-.1.5,0,.7,0,.8.6,0,.2,0,.4,0,.6,0,1.1-.1,2.2-.1,3.2M33.5,70.4c-1.1,0-1.9.8-1.9,1.9s.8,1.9,1.9,1.9c1,0,2-.9,2-1.9,0-1-.9-1.9-1.9-1.9M65.9,83.5c-.2,0-.2.2,0,.4.2.4.5.8.8,1.1,1,.8,2.1,1.6,3.3,2.2.2.1.5.4.8.2.2-.2-.2-.5-.4-.7-1.1-1.1-2.5-2-3.8-2.9-.2-.1-.4-.2-.6-.3M69.2,90.5c-.1-.4-.4-.7-.7-.9-.8-.7-1.7-1.3-2.5-1.9-.4-.3-.8-.6-1.3-.8-.1,0-.3,0-.4,0,0,0,0,.2,0,.3.1.3.3.5.5.7.8.8,1.7,1.3,2.6,1.9.5.3.9.6,1.5.8.1,0,.3.1.3-.2M62.8,90c-.2,0-.2.1-.2.3.1.3.3.5.5.7,1.1,1.1,2.4,1.8,3.7,2.6.2.1.5.4.7.1.2-.2-.2-.5-.3-.6-1.1-1.1-2.4-2-3.8-2.9-.2-.1-.4-.3-.7-.3M72.3,84c0-.2-.2-.3-.3-.5-1.2-1.2-2.6-2.1-4-3-.1,0-.3-.2-.5-.2-.2,0-.3,0-.2.3.1.3.3.5.5.8.9.9,2,1.6,3,2.2.4.2.8.5,1.2.6.1,0,.3,0,.3-.1"/>
          <path class="st7" d="M20.7,82c.8-.3,1.6-.7,2.5-1,1.2-.4,2.4-.6,3.7-.8,1.1-.1,2.2-.2,3.3-.1,2.1,0,4.1.3,6.2.8,3.5.8,6.9,2,10.2,3.4,3.4,1.5,6.6,3.2,9.6,5.3,1.6,1.1,3.1,2.3,4.6,3.6,2,1.8,3.8,3.9,5.3,6.2.6,1,1.2,2,1.6,3,0,0,0,.2,0,.3-1.3,0-2.5-.2-3.8-.4-5.4-.9-10.5-2.4-15.7-4.2-5.2-1.8-10.1-4.1-14.9-6.8-3.3-1.9-6.4-3.9-9.4-6.2-1.2-.9-2.3-1.8-3.4-2.9M44,88.4h0c.5,0,1,0,1.6,0,.6,0,1.2,0,1.7.3.4.2.4.4.1.7-.2.2-.4.3-.6.5-.5.3-1.1.6-1.7.8-.5.2-.9.4-1.3.7-.5.3-.5.7,0,1,.5.3,1.1.5,1.7.6,2.1.5,4.3.6,6.5.9.9.1,1.8.3,2.7.6.3.1.7.3.9.7,0,.2,0,.3,0,.5-.6.6-.4,1.1.4,1.4.1,0,.2,0,.4,0,1.5.2,3-.2,4.5-.4.6-.1.8-.6.5-1.1-.3-.5-.7-.9-1.1-1.2-1.9-1.6-3.8-3.1-5.9-4.5-2.5-1.6-5.1-2.9-8-3.7-1.4-.4-2.8-.4-4.1.3-.2.1-.5.3-.6.5-.2.3-.2.6,0,.8.3.3.7.6,1.2.5.4,0,.9,0,1.3,0"/>
          <path class="st5" d="M42.1,75.9c0-1.1.1-2.2.1-3.2,0-.2,0-.4,0-.6,0-.5-.3-.7-.8-.6-.6.1-1.2.2-1.9.1-.6-.1-1.1-.5-1.1-1.1,0-2,.8-3.7,2.8-4.5.8-.3,1.5,0,2,.6.2.3.4.7.6,1,.4.8.8,1.6,1.4,2.2.8.9,1.8,1.2,2.9.9.3,0,.7-.2,1-.4.9-.4,1.8-.5,2.6.2.9.7,1.1,1.6.9,2.6,0,.9-.5,1.6-.9,2.4-1,1.6-2,3.2-3.2,4.7-.4.4-.8.9-1.3,1.2-.2.2-.5.4-.8.2-.3-.2-.3-.5-.3-.8,0-.9.2-1.8.4-2.6.2-.5.4-1,.5-1.6,0-.2.1-.4,0-.6-.2-.2-.4,0-.6,0-.6.2-1,.6-1.5,1-.5.4-.9.8-1.4,1.2-.8.6-1.2.5-1.4-.6-.1-.6,0-1.2,0-1.9"/>
          <path class="st5" d="M33.5,70.4c1,0,1.9.9,1.9,1.9s-.9,1.9-2,1.9-1.9-.9-1.9-1.9.9-1.9,1.9-1.9"/>
          <path class="st20" d="M65.9,83.5c.2,0,.5.1.6.3,1.3.9,2.7,1.7,3.8,2.9.2.2.5.5.4.7-.2.3-.5,0-.8-.2-1.2-.6-2.3-1.3-3.3-2.2-.3-.3-.6-.7-.8-1.1,0-.2-.1-.3,0-.4"/>
          <path class="st20" d="M69.2,90.5c0,.3-.2.2-.3.2-.5-.2-1-.5-1.5-.8-.9-.6-1.9-1.1-2.6-1.9-.2-.2-.4-.4-.5-.7,0-.1-.1-.2,0-.3,0-.1.2,0,.4,0,.5.2.9.5,1.3.8.9.6,1.7,1.2,2.5,1.9.3.3.6.6.7.9"/>
          <path class="st20" d="M62.8,90c.3,0,.5.2.7.3,1.3.9,2.6,1.7,3.8,2.9.2.2.5.4.3.6-.2.2-.5,0-.7-.1-1.3-.8-2.7-1.5-3.7-2.6-.2-.2-.4-.5-.5-.7,0-.2,0-.3.2-.3"/>
          <path class="st20" d="M72.3,84c0,.2-.1.2-.3.1-.4-.2-.8-.4-1.2-.6-1-.7-2.2-1.3-3-2.2-.2-.2-.4-.5-.5-.8,0-.2,0-.3.2-.3.2,0,.3.1.5.2,1.4.9,2.8,1.8,4,3,.1.1.3.3.3.5"/>
          <path class="st5" d="M44,88.4c-.4,0-.9,0-1.3,0-.5,0-.9-.2-1.2-.5-.3-.2-.2-.5,0-.8.2-.2.4-.3.6-.5,1.3-.7,2.7-.7,4.1-.3,2.9.8,5.5,2,7.9,3.7,2.1,1.4,4,2.9,5.9,4.5.4.4.8.7,1.1,1.2.3.6.2,1-.5,1.1-1.5.2-2.9.6-4.5.4-.1,0-.3,0-.4,0-.8-.3-.9-.8-.4-1.4.2-.2.2-.3,0-.5-.2-.3-.5-.5-.9-.7-.8-.3-1.8-.5-2.7-.6-2.2-.3-4.4-.4-6.5-.9-.6-.1-1.2-.3-1.7-.6-.5-.3-.5-.6,0-1,.4-.3.9-.5,1.3-.7.6-.3,1.2-.5,1.7-.8.2-.1.5-.3.6-.5.3-.3.3-.6-.1-.7-.5-.2-1.1-.3-1.7-.3-.5,0-1,0-1.6,0h0s0,0,0,0Z"/>
          <path class="st13" d="M106.8,60.2c3-1.7,6.1-3.4,9.1-5.1.7-.4,1.5-.5,2.3-.8,1.4-.4,2.8-.8,4.2-1.3.7-.2,1.3-.8,1.9-1.3,1.6-1.3,3.1-2.7,4.7-4.1,1.7-1.5,3.3-3.1,5-4.7,1.4-1.3,2.8-2.6,4.1-4,2.4-2.3,4.7-4.6,7-6.9,0,0,30.2-38.3,30.2-38.4l.9,38.3v7.8c0,.3,0,.5-.3.6-4.8,3.5-11.6,7.1-16.4,10.7-4.1,3-8.1,6-12.2,9-3.2,2.3-6.5,4.7-9.8,6.9-.9.6-1.9,1-2.8,1.5-.1,0-.3,0-.3.2-.1,0-.2,0-.3,0-1.1.4-1.7,1.2-2.2,2.1-.5.4-.8.9-1.2,1.4-1.3,1.6-2.6,3.2-3.9,4.8-.6.7-1.2,1.4-1.7,2.2-.1,0-.2.2-.3.3-.9,1.2-1.9,2.4-2.8,3.6-.7.9-1.3,1.9-1.6,3-.2.8-.7,1.6-1.2,2.3-.3.4-.8.7-1.2,1.2-.4.2-.8.4-1.2.6-1.2.4-2.3.2-3.3-.6,0-.5.1-1,.2-1.5.4-2,1.5-3.6,2.7-5.2.2-.2.3-.4.2-.7,0-.2-.2-.4-.4-.5-.4,0-.7,0-.9.3-.6.8-1.3,1.7-1.8,2.7-.7,1.2-1.2,2.5-1.3,4,0,.7,0,.9.5,1.2-.2.5-.5.8-1,1.1-1.4.6-3.1.2-4.1-.8-.2-.2-.4-.4-.4-.7,0-.2.3-.3.4-.6.7-1.9,1.7-3.6,2.6-5.4.4-.7.8-1.5,1.2-2.2.2-.5.1-.9-.2-1.1-.3-.2-.7,0-.9.3-.5.8-.9,1.6-1.4,2.4-.9,1.5-1.7,3.1-2.3,4.7-.2.4-.4.9-.3,1.4-.8.5-1.6.8-2.6.7-1.1,0-1.7-.8-2.2-1.7-.2-.3-.3-.6-.4-.9.3,0,.4-.4.5-.6.5-1.3,1.2-2.5,1.8-3.7.8-1.4,1.5-2.8,2.2-4.2.2-.4,0-.8-.2-1-.3-.2-.8,0-1,.4-1.4,2.4-2.7,4.8-3.9,7.3-.2.4-.4.9-.4,1.4-1.5.9-3.2.7-4.2-1.1-1.1-1.9-1.1-3.9-.2-5.9,0,0,.2-.2,0-.3.1,0,.2-.2.3-.3.2-.4.4-.8.6-1.2.4-.9,1-1.8,1.4-2.7.3-.5.7-.9.9-1.4.6-.9,1.1-1.9,1.6-2.9.8-1.4,1.6-2.9,2.5-4.3.8-1.3,1.5-2.6,2.3-3.9.5-.9,1-1.8,1.6-2.7"/>
          <path class="st1" d="M117.9,89.7c.4-.4.8-.7,1.2-1.2.6-.7,1-1.4,1.2-2.3.3-1.1.9-2.1,1.6-3,.9-1.2,1.9-2.4,2.8-3.6,0,0,.2-.2.3-.3,0,.9-.3,1.8-.4,2.7-.3,1.7-.7,3.4-1.3,5,0,.2,0,.3.2.3,2.2.2,4.4.5,6.6.8,2.4.3,4.9.6,7.3.9,3.2.4,6.3.8,9.5,1.3,1,.2,2,.3,3,.6.3,0,.4,0,.5-.2.2-.7.5-1.4.6-2.1,1.2-4.8,1.6-9.6,1.6-14.5,0-.2-.1-.3-.3-.3-.5,0-1-.1-1.5-.2-3.1-.4-6.2-.9-9.4-1.3-3.2-.4-6.4-.9-9.6-1.3.6-.9,1.2-1.7,2.2-2.1.1,0,.2,0,.3,0,.5.2,1,.2,1.5.2.9,0,1.8.2,2.6.3,1,.1,2,.2,3,.4,2,.4,4,.5,6,.8,1.1.2,2.2.3,3.3.5,2.1.3,4.1.5,6.1.9.9.2,1.9.2,2.8.3,2.1.3,4.2.5,6.3,1,.7.2,1.1.6,1.4,1.2.4.9.5,1.9.6,2.8.2,1.3.3,2.7.3,4,0,3.9-.6,7.8-2.4,11.4-.4.8-.9,1.7-1.5,2.4-.3.4-.8.6-1.3.7-.8.2-1.6,0-2.4-.1-1.4-.2-2.9-.3-4.3-.5-1.9-.2-3.7-.5-5.6-.7-1.9-.2-3.7-.5-5.6-.8-1.5-.2-2.9-.4-4.4-.6-2.2-.3-4.3-.6-6.5-.9-2.2-.3-4.4-.6-6.6-.9-2.4-.3-4.8-.7-7.2-1.1-.9-.1-1.9-.2-2.8-.5"/>
          <path class="st13" d="M97.9,75.5c0-.1,0-.3,0-.4,0-.5,0-.5-.4-.4-1.1.1-2,0-2.7-.9-.7-.9-.8-1.9-.4-2.9,0,0,.2-.2,0-.3.3-.2.4-.6.6-.8.4-.4.8-.7,1.2-1.1,1.3-1.2,2.2-2.7,2.9-4.4.4-1,1-1.5,2-1.8,1-.3,2.1-.6,3.1-1,.8-.3,1.6-.7,2.3-1,0,0,.2,0,.3,0-.5.9-1,1.8-1.6,2.7-.8,1.3-1.5,2.6-2.3,3.9-.8,1.4-1.7,2.9-2.5,4.3-.5,1-1.1,1.9-1.6,2.9-.3.5-.6.9-.9,1.4"/>
          <path class="st1" d="M85.3,73.4c.6,0,1.2,0,1.8.2.7,0,.8.2.7.8,0,.7-.4,1.3-1,1.8-.5.3-1,.7-1.4,1.2-1.2,1-2.2,2.1-3.2,3.3-.8.8-1.4,1.8-2.2,2.6-.8.9-1.7,1.5-2.9,1.5-1,0-1.6-.7-1.3-1.7.3-1.2,1.1-2.1,2-2.9,1.7-1.5,3.6-2.6,5.6-3.6.5-.3.9-.5,1.4-.8.1,0,.2-.2.4-.3.1,0,0-.2,0-.3,0-.1-.2,0-.3,0-.6,0-1.1.2-1.7.4-1.2.5-2.4,1.1-3.8,1.4-.6.1-1.2.3-1.9.1-.1,0-.3,0-.4,0-.7-.2-.8-.8-.3-1.3.3-.4.7-.7,1.2-.9,1.3-.7,2.7-.9,4.2-1.1,1.1-.1,2.2,0,3.2,0"/>
          <path class="st0" d="M100.1,86.9c0-.5.1-1,.4-1.4,1.2-2.5,2.5-4.9,3.9-7.3.2-.4.6-.5,1-.4.3.2.4.6.2,1-.7,1.4-1.5,2.8-2.2,4.2-.7,1.2-1.3,2.4-1.8,3.7-.1.3-.2.5-.5.6-.3,0-.6-.1-.9-.3"/>
          <path class="st0" d="M106.1,89.1c-.2-.5,0-1,.3-1.4.7-1.6,1.5-3.2,2.3-4.7.5-.8.9-1.6,1.4-2.4.2-.4.6-.5.9-.3.4.2.5.6.2,1.1-.4.7-.8,1.5-1.2,2.2-.9,1.8-2,3.5-2.6,5.4,0,.2-.3.3-.4.6-.3,0-.7,0-.9-.3"/>
          <path class="st0" d="M112.6,89.9c-.5-.3-.5-.5-.5-1.2,0-1.4.6-2.7,1.3-4,.5-.9,1.1-1.8,1.8-2.7.2-.3.6-.4.9-.3.3,0,.4.3.4.5,0,.3,0,.5-.2.7-1.2,1.6-2.2,3.2-2.7,5.2-.1.5-.1,1-.2,1.5-.3,0-.5.1-.8.2"/>
          <path class="st5" d="M131.8,70.9c3.2.4,6.4.9,9.6,1.3,3.1.4,6.3.9,9.4,1.3.5,0,1,.1,1.5.2.2,0,.3,0,.3.3,0,4.9-.3,9.8-1.6,14.5-.2.7-.4,1.4-.6,2.1-.1.3-.2.3-.5.2-1-.3-2-.4-3-.6-3.2-.5-6.3-.9-9.5-1.3-2.4-.3-4.9-.6-7.3-.9-2.2-.3-4.4-.5-6.6-.8-.2,0-.2-.1-.2-.3.6-1.6,1-3.3,1.3-5,.2-.9.3-1.8.4-2.7.5-.8,1.1-1.5,1.7-2.2,1.3-1.6,2.6-3.2,3.9-4.8.4-.5.8-1,1.2-1.4M129.9,79.5c-.3-.2-.6-.4-.8-.6-.1,0-.3,0-.4,0,0,.2,0,.3.1.4.2.2.4.3.6.4.3.2.4.4.3.8,0,.3-.1.6-.2.9,0,.5.1.8.6.9,1.7.3,3.3.5,5,.8.5,0,.8-.1.9-.6.3-1.7.5-3.3.8-5,0-.5-.1-.8-.6-.9-1.7-.3-3.4-.5-5.1-.8-.4,0-.7.1-.8.5,0,.3,0,.5-.1.8-.1.8-.2,1.6-.4,2.4M140.2,83.4c0,.5,0,.7.6.8.2,0,.3,0,.5,0,1.4.2,2.8.4,4.2.7.6,0,.8,0,.9-.5.1-.7.2-1.4.3-2.1,0-.5-.1-.7-.6-.8-1.5-.2-3.1-.5-4.6-.7-.6,0-.8,0-.9.7,0,.2,0,.2-.2.2-.9,0-.9,0-.8-.9,0,0,0,0,0-.2,0-.2,0-.3-.2-.3-.2,0-.2,0-.2.2,0,.4-.1.8-.2,1.2-.1.7-.2,1.3-.3,2,0,.1,0,.3.2.3.2,0,.3,0,.3-.2,0,0,0,0,0-.2.1-.8.1-.7.9-.6.2,0,.4,0,.3.4M144.1,77.1c-.5,0-.7.1-.7.5-.1.7-.2,1.4-.3,2.1,0,.5,0,.7.6.8.8.1,1.7.3,2.5.4.4,0,.6,0,.7-.5.1-.8.2-1.5.4-2.3,0-.3-.1-.6-.5-.6-.9-.2-1.8-.3-2.6-.4M140.9,76.7c0-.1,0-.3-.2-.3-.2,0-.2.1-.3.3,0,0,0,0,0,.1,0,.4-.2.5-.6.4-.2,0-.5-.2-.5.2,0,.3.3.2.4.3,0,0,0,0,0,0,.3,0,.4.2.3.5,0,0,0,.2,0,.2,0,.4-.3.6-.7.6-.2,0-.4,0-.4.2,0,.2.2.3.3.3.4,0,.5.3.5.7,0,.1,0,.3.2.3.2,0,.2,0,.3-.2q.1-.5.7-.5c0,0,.2,0,.3,0,.4,0,.6.3.5.7,0,.2,0,.3.2.4.2,0,.2-.1.2-.3.2-1.2.4-2.4.6-3.6,0-.2,0-.3-.2-.4-.2,0-.2.2-.3.3,0,.5-.4.7-.8.6-.7-.1,0,0,0,0-.4,0-.6-.3-.6-.7"/>
          <path class="st4" d="M129.9,79.5c.1-.8.2-1.6.4-2.4,0-.3,0-.5.1-.8,0-.4.4-.6.8-.5,1.7.3,3.4.5,5.1.8.5,0,.7.4.6.9-.2,1.7-.5,3.3-.8,5,0,.5-.4.7-.9.6-1.7-.2-3.3-.5-5-.8-.5,0-.7-.4-.6-.9,0-.3,0-.6.2-.9.1-.3,0-.6-.3-.8-.2-.2-.4-.3-.6-.4-.1,0-.2-.2-.1-.4s.2-.2.4,0c.3.2.5.4.8.6M136.4,77.5c0-.3-.1-.5-.4-.5-.7-.1-1.3-.2-2-.3-.2,0-.2,0-.3.2-.2,1.7-.5,3.3-.8,5,0,.3,0,.4.3.4.6,0,1.2.2,1.8.3.4,0,.6,0,.7-.4,0-.4.1-.9.2-1.3.2-1.1.3-2.2.5-3.3M131.3,76.3c-.4,0-.5.2-.6.5-.2,1.5-.5,3-.7,4.4,0,.4,0,.6.4.6.6,0,1.1.2,1.7.3.2,0,.3,0,.3-.3.1-.8.2-1.5.3-2.2.1-.9.3-1.8.4-2.7,0-.2,0-.3-.2-.4-.6,0-1.2-.2-1.7-.3"/>
          <path class="st4" d="M140.2,83.4c.1-.3,0-.3-.3-.4q-.8-.1-.9.6c0,0,0,0,0,.2,0,.2,0,.3-.3.2-.2,0-.2-.2-.2-.3.1-.7.2-1.3.3-2,0-.4.1-.8.2-1.2,0-.2,0-.3.2-.2.2,0,.2.1.2.3,0,0,0,0,0,.2,0,.8,0,.8.8.9.2,0,.2,0,.2-.2.1-.6.3-.7.9-.7,1.6.2,3.1.5,4.6.7.5,0,.6.3.6.8,0,.7-.2,1.4-.3,2.1,0,.5-.3.6-.9.5-1.4-.2-2.8-.4-4.2-.7-.2,0-.3,0-.5,0-.5,0-.6-.3-.6-.8M144.3,84.3c.1,0,.1-.2.1-.3.1-.6.2-1.3.3-1.9,0-.2,0-.3-.2-.3s-.3,0-.4,0c-.2,0-.3,0-.4.2-.1.5-.3.6-.8.5-.6,0-1.2-.2-1.8-.3-.2,0-.3,0-.4.2,0,.3,0,.4.3.4,0,0,.2,0,.3,0,.8.1,1.6.3,2,1,.2.4.5.3,1,.4M146.1,82.4c0-.4,0-.4-.6-.5-.2,0-.3,0-.4.3,0,.6-.2,1.2-.3,1.8,0,.2-.1.4.2.4s.7.2.8-.3c.1-.6.2-1.2.3-1.7M143,82.1c.3,0,.4-.1.4-.3,0-.3-.2-.2-.4-.2,0,0-.2,0-.2,0-.5,0-1-.2-1.5-.2-.3,0-.4,0-.4.3,0,.3.2.2.3.2.6.1,1.2.2,1.8.3M143,84.1c-.3-.3-.5-.5-.8-.6-.4-.1-.8-.2-1.2-.2-.1,0-.3-.1-.3.1,0,.2,0,.4.2.4.7.1,1.3.2,2.1.3M139.5,81.9s0,0-.2,0c-.2.2,0,.6.2.6.2,0,.4,0,.6,0,.2,0,.2,0,.3-.2,0-.3,0-.4-.3-.4-.2,0-.4,0-.6,0"/>
          <path class="st4" d="M144.1,77.1c.8.1,1.7.3,2.6.4.3,0,.5.3.5.6-.1.8-.2,1.6-.4,2.3,0,.4-.3.5-.7.5-.8-.1-1.7-.2-2.5-.4-.5,0-.7-.3-.6-.8,0-.7.2-1.4.3-2.1,0-.4.3-.6.7-.5M146.8,78.5c0-.2,0-.4-.2-.4-.3,0-.6-.1-1-.2-.2,0-.1.1-.2.2-.1.7-.2,1.4-.3,2.1,0,0,0,.2,0,.2.3,0,.6.1,1,.1.2,0,.2-.1.3-.3.1-.6.2-1.2.3-1.7M144.5,80.2c.2,0,.2,0,.2-.2,0-.5.2-1,.2-1.5.1-.8.1-.8-.8-.9-.3,0-.4,0-.4.3,0,.4-.1.8-.2,1.2-.1,1-.3.9.8,1.1h0"/>
          <path class="st4" d="M140.9,76.7c0,.4.2.7.6.7.7,0,0,0,0,0,.5,0,.8-.1.8-.6,0-.2,0-.3.3-.3.2,0,.2.2.2.4-.2,1.2-.4,2.4-.6,3.6,0,.1,0,.3-.2.3-.2,0-.2-.2-.2-.4q0-.6-.5-.7c0,0-.2,0-.3,0q-.5,0-.7.5c0,.2,0,.3-.3.2-.2,0-.2-.2-.2-.3,0-.4-.2-.6-.5-.7-.2,0-.4,0-.3-.3,0-.2.2-.2.4-.2.4,0,.6-.1.7-.6,0,0,0-.2,0-.2,0-.3,0-.5-.3-.5h0c-.2,0-.5,0-.4-.3,0-.3.3-.2.5-.2.4,0,.6,0,.6-.4,0,0,0,0,0-.1,0-.2,0-.3.3-.3.2,0,.2.2.2.3M140.6,78.9c0,.2,0,.2.2.2.2,0,.3,0,.5,0,.5,0,.8-.1.9-.6,0-.4-.1-.6-.4-.6-1-.2-1.1-.2-1.1.9"/>
          <path class="st5" d="M136.4,77.5c-.2,1.1-.3,2.2-.5,3.3,0,.4-.1.9-.2,1.3,0,.4-.2.5-.7.4-.6,0-1.2-.2-1.8-.3-.3,0-.3-.2-.3-.4.3-1.7.5-3.3.8-5,0-.2,0-.2.3-.2.7.1,1.3.2,2,.3.3,0,.4.2.4.5"/>
          <path class="st5" d="M131.3,76.3c.6,0,1.2.2,1.7.3.3,0,.2.2.2.4-.1.9-.3,1.8-.4,2.7-.1.8-.2,1.5-.3,2.2,0,.2,0,.3-.3.3-.6,0-1.1-.2-1.7-.3-.4,0-.5-.2-.4-.6.2-1.5.5-3,.7-4.4,0-.3.2-.6.6-.5"/>
          <path class="st5" d="M144.3,84.3c-.4,0-.7,0-1-.4-.4-.7-1.2-.9-2-1,0,0-.2,0-.3,0-.3,0-.3-.1-.3-.4,0-.3.2-.3.4-.2.6,0,1.2.2,1.8.3.5,0,.7,0,.8-.5,0-.2.1-.3.4-.2.1,0,.3,0,.4,0,.2,0,.3,0,.2.3-.1.6-.2,1.3-.3,1.9,0,.1,0,.3-.1.3"/>
          <path class="st5" d="M146.1,82.4c0,.6-.2,1.2-.3,1.7,0,.5-.5.3-.8.3s-.2-.2-.2-.4c0-.6.2-1.2.3-1.8,0-.2.1-.3.4-.3.5,0,.6.1.6.5"/>
          <path class="st5" d="M143,82.1c-.6,0-1.2-.2-1.8-.3-.1,0-.4,0-.3-.2,0-.2.2-.4.4-.3.5,0,1,.2,1.5.2,0,0,.2,0,.2,0,.1,0,.4,0,.4.2,0,.2-.2.4-.4.3"/>
          <path class="st5" d="M143,84.1c-.8-.1-1.4-.2-2.1-.3-.2,0-.2-.2-.2-.4,0-.2.2-.1.3-.1.4,0,.8.1,1.2.2.3.1.6.3.8.6"/>
          <path class="st5" d="M139.5,81.9c.2,0,.4,0,.6,0,.3,0,.4.2.3.4,0,.2,0,.3-.3.2-.2,0-.4,0-.6,0-.3,0-.4-.4-.2-.6,0,0,.1,0,.2,0"/>
          <path class="st5" d="M146.8,78.5c0,.5-.2,1.1-.3,1.7,0,.2-.1.3-.3.3-.3,0-.6,0-1-.1-.1,0-.1-.1,0-.2.1-.7.2-1.4.3-2.1,0,0,0-.2.2-.2.3,0,.6,0,1,.2.2,0,.2.2.2.4"/>
          <path class="st5" d="M144.5,80.2h0c-1.2-.2-1,0-.8-1.1,0-.4.1-.8.2-1.2,0-.3.2-.3.4-.3q.9,0,.8.9c0,.5-.2,1-.2,1.5,0,.2,0,.3-.2.2"/>
          <path class="st5" d="M140.6,78.9c0-1.1,0-1.1,1.1-.9.4,0,.5.3.4.6,0,.5-.4.7-.9.6-.2,0-.3,0-.5,0-.2,0-.3,0-.2-.2"/>
          <polygon class="st5" points="128.9 84.8 127.1 78.6 132.3 72.4 150.4 76.7 147.7 86.5 128.9 84.8"/>
          <path class="st16" d="M97.9,75.5c-.4.9-.9,1.8-1.4,2.7-.2.4-.4.8-.6,1.2,0,.1-.1.2-.3.3-1-.2-2.1-.2-3.1-.4-1.3-.2-2.5-.2-3.8-.5-.4,0-.9-.1-1.3-.2-.9-.1-1.7-.5-2.2-1.3.4-.5.9-.8,1.4-1.2.6-.4.9-1,1-1.8,0-.7,0-.8-.7-.8-.6,0-1.2,0-1.8-.2,0-.6.2-1.1.3-1.7,0-.2,0-.3-.2-.4-1.6-.7-3.2-1.6-4.6-2.7-.8-.6-1.3-1.4-1.5-2.4-.3-1.1.6-2.3,1.7-2.3,3.6,0,5.9,1.7,7.6,4.7.2,1.2,1.2,1.1,2.1,1.2,1.2.2,2.5.3,3.8.5.2.1,0,.2,0,.3-.4,1.1-.3,2.1.4,2.9.7.8,1.7,1,2.7.9.5,0,.5,0,.4.4,0,.1,0,.3,0,.4"/>
          <g class="st17">
            <g class="st22">
              <g class="st9">
                <path class="st15" d="M134.4,68.8s-1.2.4-2.2,1.6-10.6,13.9-11.3,14-1.1,5.3-3,5.3l2.8.5,3.2-5.2,10.8-13.4,2.3-2.6-2.5-.2h0Z"/>
              </g>
            </g>
          </g>
          <path class="st13" d="M119.1,88.5s6.9-9.9,9.3-13.8c2.4-3.9,4.7-7.5,4.7-7.5l-10.3,5.9-5.1,11.1s1.3,4.3,1.3,4.4Z"/>
          <polygon class="st16" points="88.2 69.4 100.5 71.2 96.6 78.2 87.5 72.4 88.2 69.4"/>
          <g class="st19">
            <g>
              <path class="st10" d="M78.3,103.6c-.7,1.8-1.6,3.4-2.7,5-4.1,6.2-9.7,10.5-16.8,12.7-3.4,1-6.9,1.2-10.4,1-11.6-.7-23.8-7.2-31.1-14.7-2.3-2.4-4.3-4.9-5.6-8-1-2.3-1.6-4.7-1.9-7.2-.7-5.8.1-11.4,1.8-16.9,0,0,0-.1,0-.2,0,0,0,0,0,.1,1.6,2.6,3.7,4.9,5.9,6.9,2.5,2.3,5.3,4.4,8.2,6.3,4.1,2.8,8.5,5.2,13,7.3,3.3,1.6,6.6,2.9,10,4.1,3.7,1.3,7.4,2.4,11.2,3.2,2.8.6,5.7,1.1,8.6,1.2,1.5,0,3,.1,4.6,0,.6,0,1.2-.1,1.7-.2,1.2-.1,2.3-.4,3.4-.7"/>
              <path class="st8" d="M78.3,103.6c-1.1.3-2.2.6-3.4.7-.6,0-1.2.1-1.7.2-1.5.1-3,0-4.6,0-2.9-.2-5.8-.6-8.6-1.2-3.8-.8-7.5-1.9-11.2-3.2-3.4-1.2-6.8-2.5-10-4.1-4.5-2.1-8.8-4.6-13-7.3-2.9-1.9-5.6-4-8.2-6.3-2.3-2.1-4.3-4.3-5.9-6.9,0,0,0,0,0-.1-.5-1-1-2-1.3-3.1-1.2-4.1.2-8,3.8-10.7,1.8-1.3,3.9-2.1,6.1-2.5,2.9-.5,5.9-.5,8.9-.2,6.2.6,12.1,2.3,18,4.3,8.9,3.1,17.4,7.3,25.2,12.6,3.3,2.2,6.4,4.7,9.1,7.7,1.7,1.9,3.2,4,4.1,6.4,2.1,5.6-.5,11.2-6.2,13.4-.3.1-.6.2-.9.3M20.2,82.1c1.1,1.1,2.2,2,3.4,2.9,3,2.3,6.1,4.4,9.4,6.2,4.8,2.7,9.7,5.1,14.9,6.8,5.1,1.7,10.3,3.3,15.7,4.2,1.2.2,2.5.4,3.8.4.1,0,.2,0,.3,0,2.4.2,4.8.1,7.1-.4,1.9-.4,3.6-1.1,5.1-2.4,2.8-2.6,3.6-5.8,2.6-9.5-.7-2.5-2.2-4.6-3.9-6.6-2.2-2.6-4.7-4.7-7.4-6.7-5.6-4.1-11.6-7.4-18-10.1-7-2.9-14.2-5.1-21.8-6-2.9-.4-5.9-.5-8.9,0-2,.3-3.9.9-5.6,2.1-2.3,1.6-3.6,3.8-3.7,6.7,0,1.6.4,3.1,1,4.5,1.4,3,3.6,5.5,6.1,7.7"/>
              <path class="st18" d="M20.2,82.1c-2.4-2.2-4.6-4.7-6.1-7.7-.7-1.4-1.1-2.9-1-4.5.1-2.8,1.4-5.1,3.7-6.7,1.7-1.2,3.6-1.8,5.6-2.1,2.9-.5,5.9-.4,8.9,0,7.6.9,14.8,3.1,21.8,6,6.4,2.7,12.4,6,18,10.1,2.7,2,5.2,4.1,7.4,6.7,1.7,2,3.1,4.1,3.9,6.6,1,3.7.2,6.9-2.6,9.5-1.4,1.3-3.2,2-5.1,2.4-2.3.5-4.7.6-7.1.4-.1,0-.2,0-.3,0,0,0,0-.2,0-.3-.5-1.1-1-2.1-1.6-3-1.5-2.3-3.3-4.3-5.3-6.2-1.4-1.3-3-2.5-4.6-3.6-3-2.1-6.3-3.8-9.6-5.3-3.3-1.5-6.7-2.7-10.2-3.4-2-.4-4.1-.7-6.2-.8-1.1,0-2.2,0-3.3.1-1.2.2-2.5.4-3.7.8-.8.3-1.7.6-2.5,1M41.6,76c0,.6,0,1.2,0,1.9.2,1,.6,1.2,1.4.6.5-.4.9-.8,1.4-1.2.5-.4.9-.8,1.5-1,.2,0,.4-.1.6,0,.2.2,0,.4,0,.6-.2.5-.4,1-.5,1.6-.3.8-.4,1.7-.4,2.6,0,.3,0,.6.3.8.3.2.5,0,.8-.2.5-.3.9-.8,1.3-1.2,1.2-1.4,2.3-3,3.2-4.7.4-.7.8-1.5.9-2.4.1-1,0-2-.9-2.6-.8-.6-1.7-.6-2.6-.2-.3.2-.6.3-1,.4-1.2.3-2.1,0-2.9-.9-.6-.7-1-1.4-1.4-2.2-.2-.3-.4-.7-.6-1-.5-.7-1.2-.9-2-.6-2,.8-2.9,2.4-2.8,4.5,0,.7.5,1,1.1,1.1.6.1,1.2,0,1.9-.1.5,0,.7,0,.8.6,0,.2,0,.4,0,.6,0,1.1-.1,2.2-.1,3.2M33,70.5c-1.1,0-1.9.8-1.9,1.9s.8,1.9,1.9,1.9c1,0,2-.9,2-1.9,0-1-.9-1.9-1.9-1.9M65.4,83.6c-.2,0-.2.2,0,.4.2.4.5.8.8,1.1,1,.8,2.1,1.6,3.3,2.2.2.1.5.4.8.2.2-.2-.2-.5-.4-.7-1.1-1.1-2.5-2-3.8-2.9-.2-.1-.4-.2-.6-.3M68.7,90.6c-.1-.4-.4-.7-.7-.9-.8-.7-1.7-1.3-2.5-1.9-.4-.3-.8-.6-1.3-.8-.1,0-.3,0-.4,0,0,0,0,.2,0,.3.1.3.3.5.5.7.8.8,1.7,1.3,2.6,1.9.5.3.9.6,1.5.8.1,0,.3.1.3-.2M62.3,90.1c-.2,0-.2.1-.2.3.1.3.3.5.5.7,1.1,1.1,2.4,1.8,3.7,2.6.2.1.5.4.7.1.2-.2-.2-.5-.3-.6-1.1-1.1-2.4-2-3.8-2.9-.2-.1-.4-.3-.7-.3M71.8,84.1c0-.2-.2-.3-.3-.5-1.2-1.2-2.6-2.1-4-3-.1,0-.3-.2-.5-.2-.2,0-.3,0-.2.3.1.3.3.5.5.8.9.9,2,1.6,3,2.2.4.2.8.5,1.2.6.1,0,.3,0,.3-.1"/>
              <path class="st7" d="M20.2,82.1c.8-.3,1.6-.7,2.5-1,1.2-.4,2.4-.6,3.7-.8,1.1-.1,2.2-.2,3.3-.1,2.1,0,4.1.3,6.2.8,3.5.8,6.9,2,10.2,3.4,3.4,1.5,6.6,3.2,9.6,5.3,1.6,1.1,3.1,2.3,4.6,3.6,2,1.8,3.8,3.9,5.3,6.2.6,1,1.2,2,1.6,3,0,0,0,.2,0,.3-1.3,0-2.5-.2-3.8-.4-5.4-.9-10.5-2.4-15.7-4.2-5.2-1.8-10.1-4.1-14.9-6.8-3.3-1.9-6.4-3.9-9.4-6.2-1.2-.9-2.3-1.8-3.4-2.9M43.5,88.5h0c.5,0,1,0,1.6,0,.6,0,1.2,0,1.7.3.4.2.4.4.1.7-.2.2-.4.3-.6.5-.5.3-1.1.6-1.7.8-.5.2-.9.4-1.3.7-.5.3-.5.7,0,1,.5.3,1.1.5,1.7.6,2.1.5,4.3.6,6.5.9.9.1,1.8.3,2.7.6.3.1.7.3.9.7,0,.2,0,.3,0,.5-.6.6-.4,1.1.4,1.4.1,0,.2,0,.4,0,1.5.2,3-.2,4.5-.4.6-.1.8-.6.5-1.1-.3-.5-.7-.9-1.1-1.2-1.9-1.6-3.8-3.1-5.9-4.5-2.5-1.6-5.1-2.9-8-3.7-1.4-.4-2.8-.4-4.1.3-.2.1-.5.3-.6.5-.2.3-.2.6,0,.8.3.3.7.6,1.2.5.4,0,.9,0,1.3,0"/>
              <path class="st5" d="M41.6,76c0-1.1.1-2.2.1-3.2,0-.2,0-.4,0-.6,0-.5-.3-.7-.8-.6-.6.1-1.2.2-1.9.1-.6-.1-1.1-.5-1.1-1.1,0-2,.8-3.7,2.8-4.5.8-.3,1.5,0,2,.6.2.3.4.7.6,1,.4.8.8,1.6,1.4,2.2.8.9,1.8,1.2,2.9.9.3,0,.7-.2,1-.4.9-.4,1.8-.5,2.6.2.9.7,1.1,1.6.9,2.6,0,.9-.5,1.6-.9,2.4-1,1.6-2,3.2-3.2,4.7-.4.4-.8.9-1.3,1.2-.2.2-.5.4-.8.2-.3-.2-.3-.5-.3-.8,0-.9.2-1.8.4-2.6.2-.5.4-1,.5-1.6,0-.2.1-.4,0-.6-.2-.2-.4,0-.6,0-.6.2-1,.6-1.5,1-.5.4-.9.8-1.4,1.2-.8.6-1.2.5-1.4-.6-.1-.6,0-1.2,0-1.9"/>
              <path class="st5" d="M33,70.5c1,0,1.9.9,1.9,1.9s-.9,1.9-2,1.9c-1,0-1.9-.9-1.9-1.9s.9-1.9,1.9-1.9"/>
              <path class="st20" d="M65.4,83.6c.2,0,.5.1.6.3,1.3.9,2.7,1.7,3.8,2.9.2.2.5.5.4.7-.2.3-.5,0-.8-.2-1.2-.6-2.3-1.3-3.3-2.2-.3-.3-.6-.7-.8-1.1,0-.2-.1-.3,0-.4"/>
              <path class="st20" d="M68.7,90.6c0,.3-.2.2-.3.2-.5-.2-1-.5-1.5-.8-.9-.6-1.9-1.1-2.6-1.9-.2-.2-.4-.4-.5-.7,0-.1-.1-.2,0-.3,0-.1.2,0,.4,0,.5.2.9.5,1.3.8.9.6,1.7,1.2,2.5,1.9.3.3.6.6.7.9"/>
              <path class="st20" d="M62.3,90.1c.3,0,.5.2.7.3,1.3.9,2.6,1.7,3.8,2.9.2.2.5.4.3.6-.2.2-.5,0-.7-.1-1.3-.8-2.7-1.5-3.7-2.6-.2-.2-.4-.5-.5-.7,0-.2,0-.3.2-.3"/>
              <path class="st20" d="M71.8,84.1c0,.2-.1.2-.3.1-.4-.2-.8-.4-1.2-.6-1-.7-2.2-1.3-3-2.2-.2-.2-.4-.5-.5-.8,0-.2,0-.3.2-.3.2,0,.3.1.5.2,1.4.9,2.8,1.8,4,3,.1.1.3.3.3.5"/>
              <path class="st5" d="M43.5,88.5c-.4,0-.9,0-1.3,0-.5,0-.9-.2-1.2-.5-.3-.2-.2-.5,0-.8.2-.2.4-.3.6-.5,1.3-.7,2.7-.7,4.1-.3,2.9.8,5.5,2,7.9,3.7,2.1,1.4,4,2.9,5.9,4.5.4.4.8.7,1.1,1.2.3.6.2,1-.5,1.1-1.5.2-2.9.6-4.5.4-.1,0-.3,0-.4,0-.8-.3-.9-.8-.4-1.4.2-.2.2-.3,0-.5-.2-.3-.5-.5-.9-.7-.8-.3-1.8-.5-2.7-.6-2.2-.3-4.4-.4-6.5-.9-.6-.1-1.2-.3-1.7-.6-.5-.3-.5-.6,0-1,.4-.3.9-.5,1.3-.7.6-.3,1.2-.5,1.7-.8.2-.1.5-.3.6-.5.3-.3.3-.6-.1-.7-.5-.2-1.1-.3-1.7-.3-.5,0-1,0-1.6,0h0s0,0,0,0Z"/>
            </g>
          </g>
          <g>
            <g class="st11">
              <text class="st12" transform="translate(147.8 85.9) rotate(-81)"><tspan x="0" y="0">醋</tspan></text>
            </g>
            <g class="st11">
              <text class="st12" transform="translate(136.8 84.6) rotate(-81)"><tspan x="0" y="0">白</tspan></text>
            </g>
          </g>
        </g>
      </g>
      <ellipse class="st21" cx="38.4" cy="122.5" rx="27.6" ry="4.7"/>
    </g>
  </g>
</svg>