<?xml version="1.0" encoding="UTF-8"?>
<svg id="uuid-e38d3c86-3297-45a2-89df-c020e596e19c" data-name="Stomach" xmlns="http://www.w3.org/2000/svg" viewBox="0 0 159 159">
  <defs>
    <style>
      .uuid-d8da46ce-f630-4447-8173-f4a58a3e1790 {
        fill: #f3d899;
      }

      .uuid-2ca4ce00-1e91-4db7-91dc-5e27bafd1753 {
        fill: #ebbc45;
      }

      .uuid-522d67a7-27bc-4119-9f52-d5a9aa391f5f {
        fill: #da8376;
      }

      .uuid-a8ed17dc-b093-47cf-aea1-916cf362398d {
        fill: #fff;
      }

      .uuid-41e3abd5-f5ca-4bc6-b179-bbf1f39f6f22 {
        fill: #c7e4e6;
      }

      .uuid-06d068dc-f17d-49d5-bee0-8c97d99c17ea {
        fill: #af432f;
      }
    </style>
  </defs>
  <g id="uuid-eea22d3c-4083-41b2-8f10-13775f249754" data-name="Stomach">
    <polygon class="uuid-06d068dc-f17d-49d5-bee0-8c97d99c17ea" points="64.04 161.36 63.95 161.43 46.97 151.76 38.44 137.41 41.16 116.9 39.5 114.58 29.68 121.3 23.82 135.23 34.72 158.21 49.61 171.09 64.04 170.11 64.04 161.36"/>
    <path class="uuid-06d068dc-f17d-49d5-bee0-8c97d99c17ea" d="M66.93,35.74c-.92-.74-11.02-11.87-11.02-11.87L48.11-1.43l16.27-1.45,6.77,22.06-4.22,16.56Z"/>
    <path class="uuid-06d068dc-f17d-49d5-bee0-8c97d99c17ea" d="M58.37,15.7l4.46,19.35,19.79,20.89-3.67,17.44-27.77,22.55-9.74,12.82-2.67,9.29,1.49,4.18,7.23-4.62,36.04,11.41s23.75-3.24,31.07-7.27c7.31-4.02,23.61-21.98,24.1-31.72.48-9.74-.39-34.36-5.54-36.14-5.15-1.78-14.61-22.8-21.9-23.02-7.29-.21-32.16-4.19-32.16-4.19l-17.71-14.52-3.01,3.55Z"/>
    <path class="uuid-2ca4ce00-1e91-4db7-91dc-5e27bafd1753" d="M126.92,92.08c-8.33-2.33-7.67,6.33-16-.67-8.33-7-12,.67-21,.33-1.19-.04-2.14-.23-2.9-.53.88-7.67,11.65-21.97,7.06-33.31-6.33-15.67-21.33-24.67-25.67-27.67-4.33-3-5.67-1.33-5.59,4.8,0,0-.07,3.53,7.26,7.2,7.33,3.67,13,16.67,14,21.33,1,4.67-6.67,13.33-6.67,13.33l-12,8.33-15,13.67-11,13.67,2,7,3.33-2,10.67.67s-7,3.33,23.33,10c30.33,6.67,49.67-19,49.67-19,0,0,.16-.41-.47-1.88.84-.3,1.61-.62,2.3-.95,10.33-5,5-12-3.33-14.33"/>
    <path class="uuid-2ca4ce00-1e91-4db7-91dc-5e27bafd1753" d="M93.75,70.92c-1.67,5.67-7.33,18-.33,20s1.67,16.33-5.67,12.67c-7.33-3.67-10.67-9.33-10.33-11.67.33-2.33,3.67-7.67,3.67-7.67l11-14.33,1.67,1Z"/>
    <path class="uuid-522d67a7-27bc-4119-9f52-d5a9aa391f5f" d="M140.34,73.74c-1.4-11.36-5.74-21.55-12.08-30.93-8.62-12.77-21.14-17.48-36.01-16.74-9.51.47-17.75-4.31-21.46-13.21-4.27-10.26-7.85-20.73-9.26-31.82-.22-1.74-.77-2.33-2.59-2.04-4.49.73-8.99,1.4-13.51,1.83-2.4.23-3.02,1.04-2.6,3.45,2.1,12.11,4.86,24.03,9.42,35.49,3.56,8.96,7.89,17.32,15.84,23.36,2.93,2.23,5.48,5.05,7.92,7.85,5.43,6.21,5.93,12.18,1.7,18.96-1.68,2.7-3.66,5.2-5.87,7.51-5.28,5.51-11.89,9.24-18.06,13.56-5.56,3.88-11.16,8.03-13.71,14.44-2.13,5.36-5.44,9.35-9.8,12.72-6.31,4.89-8.35,11.39-7.55,19.05,1.25,11.96,8.31,20.42,16.79,28.07,7.17,6.48,15.92,8.11,25.08,8.66v-4.77c-2.02-.08-4.06-.31-6.11-.58-9.97-1.3-16.98-7.27-23.11-14.59-3.34-3.99-5.87-8.43-7.38-13.49-1.21-4.07-1.05-8.07-.24-12.1.55-2.76,2.7-4.49,4.73-6.12,1.97-1.58,4.19-2.86,6.3-4.27.14-.24.3-.48.58-.17.04.04-.15.28-.24.43-2.61,4.65-3.38,9.76-3.44,14.96-.08,6.67,2.82,12.34,6.9,17.37,5.61,6.92,12.77,11.02,21.92,10.67.03,0,.06,0,.09,0v-4.82c-3.84.48-7.84-.41-11.74-2.7-2.94-1.73-5.44-3.99-7.44-6.71-5.26-7.12-7.23-14.87-3.4-23.27,2.22-4.87,7.09-6.14,11.62-3.44,2.03,1.21,4.04,2.45,6.12,3.58,17.43,9.47,35.17,9.5,52.87,1.11,12.23-5.79,20.28-15.57,24.92-28.28,2.73-7.5,3.79-15.08,2.81-23.02M40.36,116.85c-.05.13-.11.26-.16.39-.39-.33,0-.31.16-.39M134.16,92.32c-1.76,3.28-1.52,7.33-4.26,10.12-.31,2.76-1.56,4.88-4.2,6.02-.15.06-.3.1-.46.13-.08,1.24-.68,2.08-1.88,2.47-.17.2-.34.39-.5.59.1,3.02-2.62,3.23-4.39,4.38-.33.08-.65.17-.98.25-.02.68-.33,1.09-1.03,1.15h0c-.17.82-.66,1.24-1.49,1.24-3.84,2.14-7.71,4.28-12.01,5.33-5.63,1.37-11.32,3.07-17.1,2.94-3.96-.09-7.94-1.63-11.8-2.88-6.41-2.08-12.83-4.14-18.73-7.59-1.95-1.14-4.5-1.25-6.77-1.84-2.43.29-4.88.53-7.17,1.52-.18.45-.54.65-1.01.67.09-.55.47-.71.96-.71,1.2-3.17,2.23-6.43,4.82-8.85.8-6.98,6.22-9.51,11.57-12.2,3.97-1.99,7.19-5.09,10.25-8.2,3.48-3.54,7.39-6.56,11.01-9.92,3.57-3.3,4.91-7.87,7.61-11.64.25-.35,0-1.06-.02-1.6l-.27-1.55c-.7-2.16-1.2-4.35-1.54-6.61-.35-2.29-1.41-4.24-3.34-5.72-2.04-1.56-3.34-3.71-4.64-5.94-2.41-4.14-5-8.3-9.79-10.18-4.45-1.75-5.64-6.03-7.33-9.71-4.47-9.74-7.84-19.87-9.84-30.45-.68-3.57-1.37-7.12-1.94-10.71-.22-1.39.2-1.89,1.59-2.16,7.26-1.41,7.05-1.41,8.43,5.85,2.4,12.53,6.42,24.55,12.61,35.74,5.24,9.47,9.9,11.3,20.73,8.64,2.52-.62,4.98-.64,7.49,0,3.95,1,8.04,1.6,11.87,2.93,7.68,2.68,12.28,8.7,15.82,15.67.45.89,1.03,1.7,1.55,2.55.24.47.48.94.72,1.41,4.46,5.57,7.56,11.62,7.11,19.05-.11,1.78.26,3.63.65,5.39,1.13,5.12.05,9.96-2.32,14.37"/>
    <path class="uuid-d8da46ce-f630-4447-8173-f4a58a3e1790" d="M87.09,79.92c-.65,1.2-1.45,2.58-2.21,4.03-1.99,3.77-3.72,7.99-1.79,10.64,2.67,3.67,8,5,8,5,0,0-.67-2.33-3.67-5.67-3-3.33-.33-14-.33-14"/>
    <path class="uuid-d8da46ce-f630-4447-8173-f4a58a3e1790" d="M113.42,99.58c4.25-5.95,12-2.67,8.33.67-3.67,3.33-5.67,4.67-7.67,3.67s-2.33-2-.67-4.33"/>
    <path class="uuid-d8da46ce-f630-4447-8173-f4a58a3e1790" d="M96.64,95.27c0,1.11-.83,1.9-1.68,1.6-.76-.27-1.13-1.11-.94-2.11.13-.68.69-1.12,1.35-1.08.73.05,1.27.73,1.27,1.59"/>
    <path class="uuid-a8ed17dc-b093-47cf-aea1-916cf362398d" d="M110.75,75.92l-5.67-6.33s-1.4-9.34,14.96-13c0,0,7.37,1.67,5.37,8.34-2,6.67-6.33,11.67-14.67,11"/>
    <path class="uuid-a8ed17dc-b093-47cf-aea1-916cf362398d" d="M105.52,71.44l-.23-.29s-.05-.07-.07-.1c-1.18-1.19-1.33-2.59-.86-4.12.52-1.71,1.51-3.13,2.73-4.39,2.8-2.89,6.13-4.89,10.1-5.75.95-.2,1.9-.27,2.86-.2,1.65.13,2.98.81,3.79,2.33.39,1.95-.26,3.64-1.29,5.24-.32.5-.62.76-1.32.58-3.82-.98-7.66-1.86-11.48-2.83-.73-.18-1.11.03-1.47.6-.19.3-.1.4.17.49.43.14.87.27,1.31.39,3.24.85,6.25,2.46,9.64,2.77.28.02.8-.13.83.25.03.33-.2.73-.55.97-.11.08-.2.19-.31.28-1.86,1.5-3.87,2.76-6.14,3.56-1.86.65-3.76,1.12-5.76.8-.68-.11-1.28-.47-1.96-.56"/>
    <path class="uuid-41e3abd5-f5ca-4bc6-b179-bbf1f39f6f22" d="M105.52,71.44c.68.09,1.28.45,1.96.56,2.01.31,3.9-.15,5.76-.8,2.27-.8,4.28-2.05,6.14-3.56.11-.09.19-.2.31-.28.34-.24.58-.64.55-.97-.03-.38-.55-.23-.83-.25-3.39-.31-6.41-1.93-9.64-2.77-.44-.12-.88-.25-1.31-.39-.26-.08-.36-.19-.17-.49.36-.57.74-.79,1.47-.6,3.82.97,7.66,1.86,11.48,2.83.7.18,1-.08,1.32-.58,1.02-1.6,1.68-3.29,1.29-5.24,1.12,1.11,1.64,2.57,2.26,3.96.04.08.04.18.09.26,1.21,2.13.7,4.06-.65,5.93-1.67,2.33-3.83,4.09-6.26,5.56-1.89,1.15-3.89,2.03-6.09,2.36-1.37.21-2.59,0-3.67-1.01-1.38-1.29-2.69-2.61-3.81-4.12-.09-.13-.23-.23-.2-.42"/>
  </g>
</svg>