<?xml version="1.0" encoding="UTF-8"?>
<svg id="uuid-9edfbc44-24ad-4dd2-9799-6b1a99aa81fa" data-name="mosq" xmlns="http://www.w3.org/2000/svg" xmlns:xlink="http://www.w3.org/1999/xlink" viewBox="0 0 159 159">
  <defs>
    <style>
      .uuid-bbe88c97-5f5f-4922-a464-792d249a4cbf {
        fill: #b0894d;
      }

      .uuid-c5428a3c-927c-444d-aa40-bde885e7bf20 {
        fill: #d26b28;
      }

      .uuid-c394f24c-b7cf-4d3b-a2a8-b4252c482a26 {
        fill: #eed1a5;
      }

      .uuid-6aefe0c3-c756-453c-83bb-2f21d70880fc {
        fill: #dba47c;
      }

      .uuid-0d181830-b376-488a-a570-7a03d7e72a9a {
        clip-path: url(#uuid-d9a0027e-8cb3-4e0b-8f1c-fa27e93ec4d2);
      }

      .uuid-2bfda8b1-bdc5-4408-be5c-2ff9600b9867 {
        fill: #fff;
      }

      .uuid-ab6b9d1d-e1c1-4cbb-9783-fb5486c9d74b {
        fill: #805b25;
      }

      .uuid-133709f7-4214-4b92-9252-a233bacf1891 {
        fill: #765324;
      }

      .uuid-c83666eb-1eea-4545-8d93-0ec6d9177178 {
        fill: none;
      }

      .uuid-22a611ff-fcaa-4145-acd3-8f4795ebfc15 {
        fill: #bd551e;
      }

      .uuid-0c14756f-e458-4367-a1d5-2354b1b758fa {
        clip-path: url(#uuid-9c6eb857-1317-481c-851f-24ce633ce93e);
      }

      .uuid-2bfdf8bb-d513-4cee-9572-24ae7c96ebbe {
        fill: #efc796;
      }

      .uuid-d34d0da7-ed8a-464a-a7c0-b0f6208e421f {
        fill: #d3ba93;
      }

      .uuid-7870bbb7-61af-4dc3-bdd9-b41c38c1a9d0 {
        fill: #e99e63;
      }

      .uuid-0d24b4cc-4f67-418c-8bd7-9cfdd7c1a691 {
        fill: #e5894b;
      }

      .uuid-3411c789-d329-464a-ae69-b663deed7502 {
        isolation: isolate;
      }

      .uuid-9db30224-750f-41b3-a0f7-8c2458d391ed {
        clip-path: url(#uuid-5ee4a75d-21dc-4176-85db-df3a5052cab9);
      }

      .uuid-5acebc58-2b2b-4998-a988-b245e37cfd05 {
        fill: #7c5825;
      }

      .uuid-b1777eb1-6da2-4760-8282-db569682de9e {
        fill: #e79558;
      }

      .uuid-c460eff6-8b49-4a58-9e8d-f8a44c5a6997 {
        fill: #584b3b;
      }

      .uuid-5919067f-4239-472a-8e3d-1ec4c98b9aeb {
        clip-path: url(#uuid-b95a55d7-3502-436c-8a92-fd0d920ea98c);
      }

      .uuid-831ce059-a58d-49fe-84c5-64826786ebf9 {
        fill: #7d5725;
      }

      .uuid-12cce305-524d-407c-a249-491bef3a4222 {
        fill: #c6ab80;
      }

      .uuid-d76cb81d-f015-40b1-863d-137afe67bdb6 {
        fill: #e3a76f;
      }

      .uuid-ea809bde-93e2-40f2-9227-17fef41fcc75 {
        mask: url(#uuid-d5c359c9-8133-4235-be92-915cfeebc95d);
      }

      .uuid-03ba8741-112f-45c6-9160-e979bffb80e9 {
        fill: #cf611e;
      }

      .uuid-65cef264-b1e5-4a14-b14d-48e6e0001f62 {
        fill: #eacda0;
      }

      .uuid-640d6b81-ce78-419b-b0a2-2e1281bf0e0e {
        fill: #865f26;
      }

      .uuid-6693507a-a46e-4798-a3fc-d08858b862cb {
        fill: #5c4f3e;
      }

      .uuid-45908859-abb0-44c2-ba78-07e64eb819c7 {
        fill: #ebb37b;
      }

      .uuid-7c4deccb-14d9-4e3b-b51e-fcf2b1b8a44b {
        fill: #e9a065;
      }

      .uuid-8ac8fecf-cf51-4b07-a52b-55ac9a65f059 {
        fill: #d16623;
      }

      .uuid-de84f039-c174-4bf3-bd73-e593a609eafc {
        fill: #d36e2b;
      }

      .uuid-ddf6dabd-93f9-4851-aa89-92bbe47318b4 {
        fill: #43382b;
      }

      .uuid-9b828608-781d-465c-ba29-8561823b70ad {
        fill: #d8813e;
      }

      .uuid-8189e113-8ad4-46ae-b6d1-00c7dfdf6ea6 {
        fill: #dd5419;
      }

      .uuid-b851c8bd-84c0-4329-88b5-3bbeb68d17cb {
        fill: #f1d2a4;
      }

      .uuid-a17fcaaf-9323-44ad-81c6-d40a907dbb92 {
        fill: #edb981;
      }

      .uuid-ad3007f3-5f7f-4f24-9058-ba205dcf0269 {
        fill: #eaa96f;
      }

      .uuid-daa91777-b063-410b-ba8a-b7d07e4236f1 {
        fill: #44392b;
      }

      .uuid-9840c5da-3242-49c7-9603-f87b6c42ba63 {
        fill: #977233;
      }

      .uuid-2b5f2129-5cf6-43b6-8bc1-a3c91d5bee75 {
        fill: #e99211;
      }

      .uuid-d3fba03d-99eb-44ae-b682-fea378360933 {
        fill: #43372a;
      }

      .uuid-603ae3ec-0d28-458a-931c-5e141e17d50f {
        fill: #805a25;
      }

      .uuid-e2e19f47-01a4-4275-8e72-fed3fff858c4 {
        fill: #ce5d1b;
      }

      .uuid-94d5aa70-6122-4ac7-b4e0-7bb13cc3ad50 {
        fill: #443a2c;
      }
    </style>
    <clipPath id="uuid-9c6eb857-1317-481c-851f-24ce633ce93e">
      <rect class="uuid-c83666eb-1eea-4545-8d93-0ec6d9177178" x="-9.63" y="7.29" width="165.61" height="136.2"/>
    </clipPath>
    <clipPath id="uuid-d9a0027e-8cb3-4e0b-8f1c-fa27e93ec4d2">
      <rect class="uuid-c83666eb-1eea-4545-8d93-0ec6d9177178" x="-10.19" y="7.14" width="166.38" height="136.77"/>
    </clipPath>
    <mask id="uuid-d5c359c9-8133-4235-be92-915cfeebc95d" data-name="mask" x="-10.19" y="-20.54" width="192.24" height="221.1" maskUnits="userSpaceOnUse">
      <g class="uuid-0c14756f-e458-4367-a1d5-2354b1b758fa">
        <rect x="-10.19" y="7.14" width="166.38" height="136.77"/>
        <g class="uuid-3411c789-d329-464a-ae69-b663deed7502">
          <g class="uuid-0d181830-b376-488a-a570-7a03d7e72a9a">
            <rect class="uuid-2bfda8b1-bdc5-4408-be5c-2ff9600b9867" x=".69" y="-20.54" width="181.36" height="221.1"/>
          </g>
        </g>
      </g>
    </mask>
    <clipPath id="uuid-5ee4a75d-21dc-4176-85db-df3a5052cab9">
      <rect class="uuid-c83666eb-1eea-4545-8d93-0ec6d9177178" x="-9.63" y="7.29" width="165.61" height="136.2"/>
    </clipPath>
    <clipPath id="uuid-b95a55d7-3502-436c-8a92-fd0d920ea98c">
      <rect class="uuid-c83666eb-1eea-4545-8d93-0ec6d9177178" x="-9.63" y="7.29" width="165.61" height="136.2"/>
    </clipPath>
  </defs>
  <path class="uuid-8189e113-8ad4-46ae-b6d1-00c7dfdf6ea6" d="M112.14,83.56c.92.24,1.9.81,2.74.64.87-.18,1.22-1.37,1.77-2.13,1.71-2.34,3.4-4.71,5.09-7.07.27-.37.51-.77.9-1.36-5.44.14-10.65.27-16.05.41,1.08-9.06,2.14-18.02,3.22-27.05-.66.17-.98.61-1.37.93-7.11,5.93-14.21,11.87-21.31,17.81-.22.18-.43.37-.66.55-.3.24-.59.28-.89,0-.24-.22-.49-.44-.74-.66-3.6-3.2-7.2-6.39-10.8-9.58-.31-.27-.53-.66-1.12-.72.12,1.52.23,2.99.34,4.47.32,4.18.66,8.36.93,12.54.05.81.34,1.19,1.12,1.33.89.16,1.75.41,2.63.62.66-.31.43-.89.38-1.36-.12-1.17-.22-2.34-.47-3.62,1.58,1.63,3,3.2,4.48,4.72,1.11,1.14,1.36,1.19,2.78.16,4.26-3.08,8.56-6.11,12.81-9.2.99-.72,1.97-1.45,3.04-2.07.36.63.18,1.16.14,1.66-.33,4.28-.39,8.58-.75,12.86-.14,1.72.06,1.89,1.79,1.8,3.43-.17,6.87-.28,10.3-.41,1.37-.05,1.47.1.82,1.3-.39.71-.7,1.45-1.06,2.18-.2.41-.53.84-.05,1.28"/>
  <path class="uuid-2b5f2129-5cf6-43b6-8bc1-a3c91d5bee75" d="M112.14,83.56c.27-1.2.93-2.25,1.49-3.33.28-.54.6-1.06.69-1.87-4.58.18-9.08.36-13.7.54.33-5.57.65-11.06.98-16.51-.44-.32-.71-.05-.96.13-5.25,3.79-10.5,7.58-15.75,11.37-.08.06-.15.12-.23.17-1.09.73-1.08.72-1.96-.21-1.48-1.58-2.96-3.16-4.46-4.73-.18-.19-.33-.47-.81-.37.16,1.28.3,2.57.47,3.85.07.56.25,1.1.02,1.66,2.51.87,5.11,1.48,7.67,2.19,8.34,2.32,16.68,4.62,25.03,6.92.49.13.97.43,1.52.18"/>
  <g>
    <g class="uuid-ea809bde-93e2-40f2-9227-17fef41fcc75">
      <g class="uuid-9db30224-750f-41b3-a0f7-8c2458d391ed">
        <g class="uuid-5919067f-4239-472a-8e3d-1ec4c98b9aeb">
          <path class="uuid-c394f24c-b7cf-4d3b-a2a8-b4252c482a26" d="M107.49,126.65c.17,1.31,1.39,1.53,2.24,2.08,3.32,2.15,6.2,4.76,8.67,7.84.61.77.99,1.61.99,2.61-.98,1.77-2.53,2-4.24,1.44-4.14-1.36-7.41-4.31-11.2-6.32-3.31-1.76-6.48-3.8-10.11-4.81-6.27-1.74-12.62-3.24-18.9-4.96-6.63-1.81-12.9-4.34-18.66-8.27-6.86-4.68-13.79-9.25-19.99-14.8-5.15-4.61-10.5-8.98-15.88-13.29-5.74-4.6-11.55-9.11-16.71-14.36-3.05-3.11-6.01-6.31-9.22-9.26-.27-.25-.53-.6-.61-.95-.95-3.92-2.55-7.71-2.48-11.84.01-14.25.02-28.51.05-42.76,0-.58-.38-1.44.39-1.69.54-.17.92.57,1.31.97C-.88,14.44,4.64,20.99,9.99,27.69c4,5.01,8.34,9.74,12.55,14.57,6.47,7.43,13.19,14.62,20.08,21.66,5.88,6,12.12,11.55,19.72,15.38,3.6,1.82,7.55,2.62,11.23,4.19,5.21,2.22,10.84,2.46,16.32,3.46,8.48,1.56,17.03,2.91,25.06,6.18,4.58,1.86,8.89,4.37,13.42,6.35,6.36,2.77,12.04,6.5,17.17,11.14,1.7,1.53,3.43,3.03,5,4.68,1.59,1.67,1.68,2.61.44,4.53-1.68.21-2.96-.52-4.34-1.45-5.15-3.47-10.44-6.7-15.97-9.54-4.6-2.36-9.73-3.27-14.37-5.49-1.67-.8-3.42-1.35-5.27-1.52-.38-.04-.9-.57-1.14.09-.22.61.31.9.77,1.13.28.14.59.24.88.35,7.59,2.6,14.68,6.28,21.75,10.01,5.05,2.67,10.09,5.35,15.13,8.02-.08.95.77,1.08,1.33,1.39,3.04,1.68,5.49,3.81,6.09,7.47.1.62.35,1.24-.25,1.75-.33-.13-.4-.62-.93-.51-2.36.5-4.49-.44-6.64-1.16-5.72-1.92-10.52-5.57-15.68-8.52-9.4-5.39-19.24-9.73-29.49-13.18-.96-.32-1.67-.26-2.05.66-.39.94.41,1.33,1.05,1.76.65.43,1.43.38,2.13.76,3.84,2.09,7.74,4.06,11.6,6.1,4.85,2.57,10.47,3.47,14.9,6.94,2.15,1.43,4.27,2.89,6.44,4.27,2.61,1.66,5.21,3.3,7.06,5.88.62.86,1.1,1.69.91,2.77-.83.02-1.35.89-2.29.75-3.33-.51-6.52-1.22-9.46-3.09-4.55-2.88-9.03-5.94-14.16-7.76-4.24-1.51-8.48-2.99-12.72-4.5-3.89-1.39-7.56-3.29-11.34-4.91-.45-.19-1.09-.73-1.45.11-.26.61.08,1.14.58,1.48.78.54,1.58,1.07,2.43,1.49,3.41,1.66,6.84,3.28,10.26,4.91.14.37.44.45.8.43l-.02-.02Z"/>
          <path class="uuid-6aefe0c3-c756-453c-83bb-2f21d70880fc" d="M-8.62,51.76c-.07,4.13,1.53,7.92,2.48,11.84.08.35.34.7.61.95,3.21,2.95,6.17,6.16,9.22,9.26,5.16,5.25,10.97,9.76,16.71,14.36,5.39,4.31,10.73,8.68,15.88,13.29,6.2,5.55,13.13,10.11,19.99,14.8,5.76,3.93,12.03,6.46,18.66,8.27,6.28,1.72,12.63,3.21,18.9,4.96,3.62,1.01,6.8,3.05,10.11,4.81,3.79,2.01,7.06,4.96,11.2,6.32,1.71.56,3.26.33,4.24-1.44,1.08,1.04.7,1.97-.31,2.71-1.88,1.37-3.97,2.03-6.28,1.32-3.4-1.04-6.8-2.11-9.78-4.16-7.79-5.34-16.59-7.78-25.84-8.95-1.95-.25-3.89-.65-5.78-1.19-4.08-1.18-8.11-2.54-12.19-3.74-3.82-1.12-6.45-3.99-9.32-6.41-2.95-2.49-5.45-5.5-8.2-8.24-3.88-3.88-8.77-6.57-12.71-10.33-7.47-7.12-15.65-13.35-23.67-19.8-4.36-3.51-8.62-7.12-12.61-11.03-1.83-1.79-2.89-3.56-2.01-6.56.77-2.63.1-5.67.09-8.52,0-.88-.12-1.8.61-2.5"/>
          <path class="uuid-6aefe0c3-c756-453c-83bb-2f21d70880fc" d="M130.47,124.86c-4.43-3.47-10.05-4.37-14.9-6.94-3.86-2.04-7.76-4.02-11.6-6.1-.7-.38-1.49-.32-2.13-.76-.64-.43-1.44-.81-1.05-1.76.38-.92,1.09-.98,2.05-.66,10.25,3.45,20.09,7.8,29.49,13.19,5.16,2.95,9.96,6.6,15.68,8.52,2.15.72,4.28,1.66,6.64,1.16.53-.11.6.38.93.51-.36,1.45-1.49,1.81-2.76,1.85-3.34.11-6.51-.3-9.47-2.19-3.53-2.25-7.28-4.16-10.95-6.19-.59-.33-1.18-.79-1.94-.65"/>
          <path class="uuid-6aefe0c3-c756-453c-83bb-2f21d70880fc" d="M106.71,126.24c-3.42-1.63-6.85-3.25-10.26-4.91-.85-.41-1.65-.95-2.43-1.49-.49-.34-.84-.87-.58-1.48.37-.84,1-.31,1.45-.11,3.79,1.62,7.45,3.53,11.34,4.91,4.24,1.51,8.48,3,12.72,4.5,5.14,1.83,9.61,4.88,14.16,7.76,2.94,1.86,6.13,2.58,9.46,3.09.95.14,1.46-.72,2.29-.75.01,2.29-2.36,3.91-5.07,3.65-4.35-.43-8.13-2.19-11.66-4.66-3.64-2.55-7.68-4.36-11.63-6.37-2.37-1.2-4.78-2.26-7.22-3.27-.57-.24-1.21-.33-1.82-.48l.02.02c-.27-.14-.53-.29-.8-.43"/>
          <path class="uuid-6aefe0c3-c756-453c-83bb-2f21d70880fc" d="M148.42,121.42c-5.04-2.67-10.08-5.36-15.13-8.02-7.07-3.73-14.16-7.41-21.75-10.01-.3-.1-.6-.2-.88-.35-.47-.23-1-.52-.77-1.13.24-.67.75-.13,1.14-.09,1.85.18,3.6.73,5.27,1.52,4.64,2.22,9.78,3.13,14.37,5.49,5.53,2.84,10.83,6.07,15.97,9.54,1.38.93,2.66,1.66,4.34,1.45-.19,1.6-1.34,1.65-2.56,1.59"/>
        </g>
      </g>
    </g>
    <path class="uuid-6693507a-a46e-4798-a3fc-d08858b862cb" d="M60.69,95.24c.79.22,1.57.41,2.17-.4.02-.03.27.1.42.15.54.17.61-.29.79-.58,1.17-1.94,1.42-1.95,2.53-.05.98.09,1.89-.27,2.82-.47.46-.33.82-.75,1.21-1.15.21-.74.65-1.44.48-2.26-.34.09-.58.02-.81-.3-1.09-1.49-2.67-1.82-4.4-1.69-1.62.12-3.22.3-4.1,1.96-.04.08-.29.06-.44.09-.42.43.15.91-.12,1.49-.99-.35-1.9-1.01-2.97-1.12-.78-.08-1.8-.2-1.31,1.18.43.24.84.51.98,1.02.72.96,1.59,1.74,2.76,2.13"/>
    <path class="uuid-d3fba03d-99eb-44ae-b682-fea378360933" d="M57.14,92.11c-.37-.76.08-1,.71-.92.85.11,1.62.5,2.4.84.5.22,1.07.91,1.55.47.63-.57-.19-1.11-.41-1.65-.04-.1-.04-.2-.05-.31-.57-1.18-1.57-1.64-2.85-1.75-3.94-.37-7.08,1.28-8.8,4.68-.53,1.06-.52,1.13.59,1.68.92.45,1.87.83,2.92.89.31.09.69.27.93.02,1.17-1.19,2.56-2.22,3-3.95"/>
    <path class="uuid-ddf6dabd-93f9-4851-aa89-92bbe47318b4" d="M69.58,93.65c-1.06.03-2.12.06-3.02.7-.05.05-.09.1-.14.15-.08.21-.03.4.1.58.21,1.15.44,1.38,1.36,1.12.66-.19,1.28-.54,1.92-.81.34-.07.53-.4.88-.45.26.1.4.31.55.51.32.46.63.93,1.04,1.32.16.16.34.29.54.4.5.27,1.02.43,1.6.31.49-.14.86-.44,1.19-.82.56-.66.4-1.52.66-2.27.1-.46.15-.93,0-1.39-.05-.13-.14-.25-.24-.35-.14-.09-.3-.04-.45-.06.08-.11.23-.17.28-.32.06-.21,0-.4-.09-.58-1.02-1.92-2.65-2.34-4.65-1.22-.57.66-.75,1.43-.65,2.28.23.79-.6.56-.87.88"/>
    <path class="uuid-2bfdf8bb-d513-4cee-9572-24ae7c96ebbe" d="M71.75,105.26s.08.11.12.11c1.5-.1,2.73.73,4.08,1.13,2.91.87,5.88,1.33,8.91.61,1.32-.31,2.59-.75,3.54-1.8.94-1.03,1.07-2.11.57-3.37-.67-1.7-2.03-2.69-3.53-3.57-.37-.22-.76-.42-1.16-.57-1.23-.44-2.31-1.08-3.04-2.18-.22.02-.4.13-.57.26-1.05.32-2.08-.14-3.13-.03-.45.05-.95-.22-1.35.19-.1.37.06.61.37.78,2.19.52,4.47.63,6.58,1.6,1.36.62,2.55,1.38,3.56,2.44,1.74,1.85,1.33,3.88-1.06,4.82-2.83,1.11-5.7.89-8.6.15-1.98-.51-3.57-1.73-5.35-2.59-1.23.71.2,1.35.06,2.03"/>
    <path class="uuid-daa91777-b063-410b-ba8a-b7d07e4236f1" d="M66.56,94.35c0-.31,0-.63,0-.94-.02-.6-.48-.78-.94-.91-.5-.15-.94-.01-1.25.44-.44.65-.55,1.46-1.08,2.06-.3.69-.65,1.36-.7,2.13-.12.58,0,1.01.7,1.1,1.21-.8,1.99-1.95,2.65-3.19.22-.22.46-.42.63-.69h0Z"/>
    <path class="uuid-133709f7-4214-4b92-9252-a233bacf1891" d="M57.14,92.11c-.95,1.12-1.93,2.23-2.84,3.38-.31.39-.69.45-1.09.54.39.79-.54,1.12-.61,1.75.14.28.39.25.64.23.91-.38,1.47-1.2,2.26-1.75,1.34-.7,2.12-1.83,2.6-3.2q0-1.24-.96-.96"/>
    <path class="uuid-94d5aa70-6122-4ac7-b4e0-7bb13cc3ad50" d="M58.1,93.07c-.87,1.07-1.73,2.14-2.6,3.2,1.83.15,3.6-.01,5.19-1.02-.71-.9-1.75-1.43-2.59-2.18"/>
    <path class="uuid-831ce059-a58d-49fe-84c5-64826786ebf9" d="M70.8,94.38c-.71-.02-.77.58-1.01,1.01.02,1.58-.33,3.16.05,4.73.28.46.24,1.35,1.22.86.81-1.03.41-2.23.5-3.37.02-.61.01-1.23-.16-1.83-.27-.44-.4-.94-.6-1.4"/>
    <path class="uuid-5acebc58-2b2b-4998-a988-b245e37cfd05" d="M63.28,98.23c-.23-.37-.47-.73-.7-1.1-1.61.76-3.32,1.29-4.87,2.16-.08.55.04.93.73.81,1.75-.27,3.33-.97,4.83-1.87"/>
    <path class="uuid-9840c5da-3242-49c7-9603-f87b6c42ba63" d="M75.75,91.71c-.04.21-.08.42-.12.64.06.16.18.24.35.25.58.2,1.09-.08,1.61-.23.53-.29,1.05-.64,1.69-.27,1.02.23,1.65,1.12,2.57,1.53.09-.08.12-.17.09-.25-.03-.09-.06-.13-.08-.13-.14-.15-.27-.32-.42-.46-1.34-1.32-2.88-1.91-4.75-1.2-.31.12-.61.16-.94.13"/>
    <path class="uuid-8ac8fecf-cf51-4b07-a52b-55ac9a65f059" d="M58.45,100.1c-.36-.17-.66-.39-.73-.81-.52,1.46-1.93,1.85-3.12,2.53,1.62.3,2.37-.03,3.85-1.72"/>
    <path class="uuid-03ba8741-112f-45c6-9160-e979bffb80e9" d="M53.24,98.01c-.21-.08-.43-.15-.64-.23-1.13.55-1.9,1.72-3.6,1.82,2.19.79,3.17-.49,4.24-1.59"/>
    <path class="uuid-e2e19f47-01a4-4275-8e72-fed3fff858c4" d="M70.76,101.01c-.49-.12-.57-.63-.92-.89-.17,1.39.33,2.61.97,3.8.53.12.41-.31.5-.57.08-.22.15-.44.15-.68,0-.24-.04-.46-.11-.69-.13-.36-.23-.74-.59-.97"/>
    <path class="uuid-c5428a3c-927c-444d-aa40-bde885e7bf20" d="M77.45,92.11l-1.45.33c-.14.08-.17.18-.11.33l.08.03c.98.4,1.98.75,2.97,1.11.18-.02.32-.09.44-.22-.38-.41-.76-.83-1.14-1.24-.19-.28-.47-.37-.8-.34"/>
    <path class="uuid-9b828608-781d-465c-ba29-8561823b70ad" d="M79.38,93.69c-.16,0-.32.02-.49.02.11,1.21,1,1.74,1.97,2.2.19-.02.3-.13.37-.3-.59-.67-1.13-1.38-1.85-1.93"/>
    <path class="uuid-de84f039-c174-4bf3-bd73-e593a609eafc" d="M71.14,103.26c-.03.26-.06.52-.33.67.11.59.47,1,.95,1.34.19-.1.83.06.35-.46-.4-.44-.73-.87-.7-1.48-.04-.04-.07-.09-.11-.13-.05.02-.11.05-.16.07"/>
    <path class="uuid-b851c8bd-84c0-4329-88b5-3bbeb68d17cb" d="M77.45,92.11c.27.11.53.23.8.34.24-.4.66-.33,1.04-.36-.62-.44-1.23-.39-1.83.02"/>
    <path class="uuid-bbe88c97-5f5f-4922-a464-792d249a4cbf" d="M82.15,93.86c.29.35.57.72,1.27.75-.4-.56-.75-.96-1.28-1.18-.12.15-.12.29,0,.44"/>
    <path class="uuid-6693507a-a46e-4798-a3fc-d08858b862cb" d="M66.56,94.35c-.31.14-.57.33-.63.69.2.02.39.03.59.05.02-.24.03-.49.05-.74"/>
    <path class="uuid-640d6b81-ce78-419b-b0a2-2e1281bf0e0e" d="M82.15,93.86c0-.15,0-.29,0-.44-.09-.06-.19-.12-.28-.18v.38c.09.08.19.16.29.24"/>
    <path class="uuid-d34d0da7-ed8a-464a-a7c0-b0f6208e421f" d="M69.58,93.65q.99.06.87-.88c-.54.05-.9.28-.87.88"/>
    <path class="uuid-b851c8bd-84c0-4329-88b5-3bbeb68d17cb" d="M80.87,95.92c-.66-.73-1.31-1.47-1.97-2.2-.83-.75-1.73-1.28-2.93-.92l-.07,1.6c.13.52-.58,1.25.41,1.55.35.14.68.32,1.07.32,1.02.01,2.03-.06,3.03.28.57.19.62-.2.46-.63"/>
    <path class="uuid-45908859-abb0-44c2-ba78-07e64eb819c7" d="M70.76,101.01c.09.34,0,.73.31,1.01.85.91,1.32,2.31,2.95,2.22.19-.64-.31-.96-.65-1.35-1.53-1.74-1.57-2.21-.29-4.13.12-.18.2-.37.24-.58.08-.54-.22-.91-.54-1.29-.11-.11-.22-.22-.33-.33-.46.3-.79.75-1.3.98-.23,1.14.2,2.36-.39,3.47"/>
    <path class="uuid-603ae3ec-0d28-458a-931c-5e141e17d50f" d="M72.78,96.89c-.11.47.27.85.27,1.3.19.24.06.57.26.81.29.38.64.66,1.16.69.91-.15.61-.75.49-1.28-.17-.43-.2-.94-.69-1.2-.54.09-.98-.27-1.49-.32"/>
    <path class="uuid-c460eff6-8b49-4a58-9e8d-f8a44c5a6997" d="M71.84,92.75c.16.46.24,1.07.85,1.15.53.07.68-.4.67-.85-.02-.58-.33-1.03-.9-1.1-.45-.06-.49.44-.63.81"/>
    <path class="uuid-ab6b9d1d-e1c1-4cbb-9783-fb5486c9d74b" d="M76.31,95.95c-.52-.42-.33-1.02-.41-1.56-.5.65-.03,1.55-.56,2.2-.24.68.18,1.16.5,1.68.45.4.83.45,1.08-.2.04-.15.06-.3.07-.46,0-.16,0-.31-.03-.46-.06-.23-.17-.43-.41-.52-.2-.19-.24-.42-.24-.68"/>
    <path class="uuid-65cef264-b1e5-4a14-b14d-48e6e0001f62" d="M71.15,97.55c1,.18,1.1.1,1.3-.98-.34-.42-.67-.84-1.01-1.26-.32-.07-.48.04-.4.38l.11,1.87Z"/>
    <path class="uuid-d76cb81d-f015-40b1-863d-137afe67bdb6" d="M76.02,98.14c-.1-.57-.39-1.06-.68-1.55-.36.21-.71.42-1.07.63.04.46.03.93.41,1.28.56.3,1.13.61,1.33-.36"/>
    <path class="uuid-22a611ff-fcaa-4145-acd3-8f4795ebfc15" d="M75.89,92.77c.04-.11.07-.22.11-.32-.12-.03-.25-.06-.37-.1-.43.09-.97-.07-1.26.52.57.44,1.02-.16,1.51-.09"/>
    <path class="uuid-12cce305-524d-407c-a249-491bef3a4222" d="M71.05,95.68c.13-.13.27-.25.4-.38-.12-.37-.25-.73-.64-.92-.02.45-.07.91.24,1.29"/>
    <path class="uuid-a17fcaaf-9323-44ad-81c6-d40a907dbb92" d="M76.55,96.62c.04.2.08.4.13.6.61.65,1.43.66,2.24.76,2.41.29,4.63,1.04,6.39,2.78,1.88,1.86,1.26,3.89-1.36,4.63-2.22.63-4.38.28-6.56-.16-.54-.07-1.09-.09-1.59-.34-.11-.06-.22-.1-.34-.15-.16-.07-.32-.13-.48-.2-.1-.05-.2-.1-.3-.14-.15-.06-.31-.11-.47-.14,0,0-.16,0-.16,0-.68,0-.99-.54-1.42-.91-.52-.44-.88-1.05-1.55-1.32.03.21.05.43.08.64.17.19.1.47.25.67v-.02c2.23,1.74,4.71,2.94,7.55,3.34,2.38.34,4.72.25,6.99-.6.84-.32,1.45-.92,1.95-1.62.66-.92.48-2.4-.37-3.38-2.17-2.51-5.03-3.71-8.27-4.15-.9-.12-1.77-.52-2.71-.3"/>
    <path class="uuid-45908859-abb0-44c2-ba78-07e64eb819c7" d="M71.4,103.34c.03-.27,0-.51-.25-.67,0,.2-.01.39-.02.59.09.04.17.06.27.08"/>
    <path class="uuid-ad3007f3-5f7f-4f24-9058-ba205dcf0269" d="M76.96,105.53c2.2.47,4.39.95,6.66.35.69-.18,1.34-.41,1.93-.76,1.34-.79,2.02-2.59.57-4.18-1.9-2.07-4.35-3.03-7.07-3.36-.8-.1-1.57-.36-2.37-.36,0,.11.02.22.02.33.06.14.13.27.21.4.1.11.22.21.35.28,1.96.45,4.04.5,5.79,1.66.12.09.24.18.36.28.11.1.22.2.34.3.32.29.64.57.91.91.93,1.19.68,2.32-.66,3.03-2.73,1.46-8.34.25-10.25-2.21-.5-.64-.67-1.33-.43-2.09.14-.45.41-.88.12-1.36-.04-.24-.14-.44-.36-.57-.4.49-.97.93-1.16,1.49-.36,1.04-.18,2.08.64,2.94.51.54,1.14.97,1.51,1.64.18.18.48.13.65.32.18.18.48.12.65.32.52.26,1.11.35,1.62.64"/>
    <path class="uuid-b1777eb1-6da2-4760-8282-db569682de9e" d="M76.02,98.14c-.34.5-.86.33-1.33.36-.13.33.74.98-.34,1.01-1.13.83-1.28,1.57-.55,2.64,1.74,2.54,6.81,3.83,9.66,2.47,1.51-.72,1.88-2.46.77-3.72-.39-.44-.85-.82-1.3-1.19-1.34-.61-2.69-1.18-4.22-1.23-.62-.02-1.28-.11-1.76-.61h0s-.12-.1-.12-.1l-.12.1c-.06.5-.28.63-.69.27"/>
    <path class="uuid-7870bbb7-61af-4dc3-bdd9-b41c38c1a9d0" d="M82.81,99.78c.23.5.7.8,1.05,1.19,1.13,1.26.78,2.81-.79,3.46-1.84.76-3.67.53-5.5-.05-1.21-.38-2.17-1.09-3.02-2.01-1.09-1.17-1.14-1.45-.2-2.87-.31-.25-.62-.5-.93-.75-1.09,2.68-.86,3.61,1.77,5.15,2.67,1.57,5.56,2.08,8.61,1.03.31-.11.59-.22.85-.42,1.32-1.03,1.44-2.14.34-3.38-.35-.39-.7-.81-1.2-1.04-.1-.11-.22-.21-.33-.32-.22-.18-.43-.18-.65,0"/>
    <path class="uuid-7c4deccb-14d9-4e3b-b51e-fcf2b1b8a44b" d="M76.71,97.87c.08,0,.16,0,.25,0-.09-.1-.17-.21-.26-.31-.04.11-.03.21.02.31"/>
    <path class="uuid-45908859-abb0-44c2-ba78-07e64eb819c7" d="M76.96,105.53c-.42-.51-.99-.66-1.62-.64.42.51.99.66,1.62.64"/>
    <path class="uuid-45908859-abb0-44c2-ba78-07e64eb819c7" d="M74.69,104.57c-.14-.26-.38-.31-.65-.32.14.26.38.31.65.32"/>
    <path class="uuid-45908859-abb0-44c2-ba78-07e64eb819c7" d="M75.34,104.89c-.14-.26-.38-.31-.65-.32.14.26.38.31.65.32"/>
    <path class="uuid-7c4deccb-14d9-4e3b-b51e-fcf2b1b8a44b" d="M82.81,99.78c.22,0,.43,0,.65,0-1.36-1.02-2.92-1.53-4.61-1.58-.66-.02-1.26-.25-1.89-.33.08.87.9.73,1.37.78,1.56.18,2.99.75,4.48,1.13"/>
    <path class="uuid-7c4deccb-14d9-4e3b-b51e-fcf2b1b8a44b" d="M83.46,99.78c.11.11.22.21.32.32-.11-.11-.22-.21-.32-.32"/>
    <path class="uuid-0d24b4cc-4f67-418c-8bd7-9cfdd7c1a691" d="M80.48,103.93c.11,0,.38.02.65,0,.86-.09,1.59-.43,1.83-1.31.23-.85-.37-1.38-1-1.81-1.65-1.14-3.41-1.73-5.39-.83-1.54.7-1.57,1.63-.26,2.7,1.2.96,2.52,1.3,4.17,1.25"/>
  </g>
</svg>