<?xml version="1.0" encoding="UTF-8"?>
<svg id="uuid-efa11594-b737-4269-93f9-a827dda311cd" xmlns="http://www.w3.org/2000/svg" version="1.1" viewBox="0 0 159 159">
  <!-- Generator: Adobe Illustrator 29.8.3, SVG Export Plug-In . SVG Version: 2.1.1 Build 3)  -->
  <defs>
    <style>
      .st0 {
        fill: #a18961;
      }

      .st1 {
        fill: #6c411e;
      }

      .st2 {
        fill: #ab9480;
      }

      .st3 {
        fill: #663d1c;
      }

      .st4 {
        fill: #e2b68c;
      }

      .st5 {
        fill: #b07c40;
      }

      .st6 {
        fill: #d7d7d7;
      }

      .st7 {
        fill: #663e1d;
      }

      .st8 {
        fill: #f2d4a8;
      }

      .st9 {
        fill: #c9e5ec;
      }

      .st10 {
        fill: #eca75a;
      }

      .st11 {
        fill: #b7b6b6;
      }

      .st12, .st13 {
        fill: #fff;
      }

      .st14 {
        fill: #6a6352;
      }

      .st13 {
        stroke: #e8e8e8;
        stroke-miterlimit: 10;
      }

      .st15 {
        fill: #673d1c;
      }

      .st16 {
        fill: #6a3e1d;
      }

      .st17 {
        fill: #d7d7d8;
      }

      .st18 {
        fill: #6a3d1d;
      }

      .st19 {
        fill: #982827;
      }

      .st20 {
        fill: #adc189;
      }

      .st21 {
        fill: #693f1d;
      }

      .st22 {
        fill: #dededf;
      }

      .st23 {
        fill: #e0e0e0;
      }

      .st24 {
        fill: #88b7b3;
      }

      .st25 {
        fill: #31383b;
      }

      .st26 {
        fill: #66401d;
      }

      .st27 {
        fill: #c7a162;
      }

      .st28 {
        fill: #67441f;
      }

      .st29 {
        fill: #534135;
      }

      .st30 {
        fill: #a28961;
      }

      .st31 {
        fill: #6b461f;
      }

      .st32 {
        fill: #7a8b2e;
      }

      .st33 {
        fill: #67411e;
      }

      .st34 {
        fill: #696251;
      }

      .st35 {
        fill: #6a3f1d;
      }

      .st36 {
        fill: #846b54;
      }

      .st37 {
        fill: #c8a166;
      }

      .st38 {
        fill: #f5cc9c;
      }

      .st39 {
        fill: #afc389;
      }

      .st40 {
        fill: #c6944f;
      }

      .st41 {
        fill: #876d49;
      }

      .st42 {
        fill: #6d421e;
      }

      .st43 {
        fill: #b48743;
      }

      .st44 {
        fill: #664e48;
      }

      .st45 {
        fill: #6e441f;
      }

      .st46 {
        fill: #6a6251;
      }

      .st47 {
        fill: #69411e;
      }

      .st48 {
        fill: #6c431f;
      }

      .st49 {
        fill: #69421e;
      }

      .st50 {
        fill: #663f1d;
      }

      .st51 {
        fill: #6e534b;
      }

      .st52 {
        fill: #e28255;
      }

      .st53 {
        fill: #4a3b30;
      }

      .st54 {
        fill: #a8907c;
      }

      .st55 {
        fill: #798b2f;
      }

      .st56 {
        fill: #6c421e;
      }

      .st57 {
        fill: #6e431f;
      }

      .st58 {
        fill: #d6d6d7;
      }

      .st59 {
        fill: #43a468;
      }

      .st60 {
        fill: #6b524a;
      }

      .st61 {
        fill: #876c49;
      }

      .st62 {
        fill: #b0c38a;
      }

      .st63 {
        fill: #524135;
      }

      .st64 {
        fill: #6b3f1d;
      }

      .st65 {
        fill: #6f6655;
      }

      .st66 {
        fill: #67421e;
      }

      .st67 {
        fill: #67401d;
      }

      .st68 {
        fill: #818f31;
      }

      .st69 {
        fill: #6d534b;
      }

      .st70 {
        fill: #070404;
      }

      .st71 {
        fill: #5c4845;
      }
    </style>
  </defs>
  <path class="st30" d="M238.6,153.1c-5.8-.4-11.6-.4-17.4,1.1-3,.8-6.1,1.6-9.2,2.3-2.7.6-5.4.9-8.2.9-4,0-7.9.3-11.9.4-2.3,0-4.6-.2-6.9-.5-6.4-.9-12.8-1.4-19.2-1.1-2.9.1-5.9.3-8.8.7-2.1.3-3.7,1.4-5,3"/>
  <path class="st30" d="M152,160.1h-13.9c-1.5-.9-2.7-2.3-3.9-3.5-2.1-2-4.4-3.7-7-4.9-1.3-.6-2.2-1.7-3.3-2.6-2.7-2.3-5.2-4.9-8-7.2-1.1-.9-2.2-1.7-3.3-2.6-.5-.4-1.1-.8-1.1-1.5,0,0,0-.2,0-.2,1.4-3.9,1-7.9,1-11.8,0-.7-.1-1.4.3-2,.5-.4,1.2-.5,1.8-.5,5-.6,10.1-1,15.1-1.4,1.5-.1,3-.2,4.5-.3,3.1.5,6.2.4,9.3.7.4,0,.9,0,1.1.6.1.6-.3.9-.7,1.1-.2.2-.5.3-.7.5-.4.3-.9.6-.7,1.1.2.5.7.7,1.1.7,1,.2,2-.1,3-.2.2,0,.4,0,.5.1.6.6,1,.4,1.5-.2,2.1-.2,4.3-.5,6.4-.9.8-.1,1.6-.3,2.3-.6,1-.5,1.1-1,.4-1.9-.3-.5-.9-.8-.7-1.6.6-.9,1.6-.7,2.4-.6.9.4,1.2,1.3,1.8,2,1.3,1.6,2.9,2.7,5,2.5.2,0,.4,0,.6,0,1.6-.3,2.1-.2,2.7,1.4.5,1.2.7,2.5,0,3.8-2,.6-4,.7-6,.9-4.3.5-8.6,0-12.9,0-3.1,0-6.1.3-9.2.8-1.8,0-3.5-.3-5.2.1-.3,0-.4.2-.7.4-1,.6-2.2.3-3.3.3-.9,0-1.8,0-2.7,0-.4,0-.9.2-1,.7-.1.5.2.8.6,1.1,1.7,1,3.5,1.6,5.5,1.7,1,0,2.1-.1,3.1.1.6.2.9.8,1.3,1.2,1.7,2.2,3.8,3.7,6.8,2.7.6-.2,1.1.2,1.4.7.8,1,1.1,2.2.9,3.5,0,.6-.2,1.3-.3,1.9-.3,1.9-.3,1.9,1.6,1.9,4.1.1,8.2-.3,12.3-.3,1.8,0,3.7-.2,5.5-.2,5.3-.1,10.6.4,15.9,1.1,5.2.7,10.4.5,15.7.2,5.8-.3,11.6-1.6,17.4-2.1,2.7-.2,5.4-.5,8.1-.6,2.8-.1,5.6-.3,8.4-.5"/>
  <path class="st20" d="M234.6,120.7c-3.7-.2-7.4-.1-11.1-.3-8.4-.4-16.7-.1-25.1-.2-5.7,0-11.4,0-17.2,0-.3-.7.4-1.1.5-1.6.2-.7.9-1.2.5-2.1-1.5,0-3.1-.3-4.6-.1-2.2.3-3.8,1.3-5,3.1-.3.4-.5,1-1.1,1.2-.9.1-1.7.2-2.6,0-.4-.2-.6-.5-.9-.8-2.1-3.2-5.3-4.2-9.7-3.4-.5.3-.2.7,0,1.1.3.7.6,1.4,1,2.1.2.3.5.6.3,1.1"/>
  <path class="st20" d="M159.7,120.7c-.8.1-1.7-.2-2.4.5-1.2-.6-2.4-.9-3.7-.9-.6,0-.7-.4-.3-.9.8-1.2.6-1.7-.7-2.3-.5-.3-1.1-.4-1.7-.6-3.9-.7-7.9-1.3-11.9-1.2-.8,0-1.5.2-2,.8-.5.6-1.3.8-2,1-.8.3-1.6.7-2.4,1.1-.6.3-1,.8-1,1.5,0,.7.7.9,1.1,1.3.6.4,1.5,0,1.9.9-2.6.2-5.2.3-7.7.6-3,.3-6,.4-9,.9-1.6.2-3.2.3-4.9.5-.4-.3-.4-.8-.4-1.3,0-3,0-6,0-9,0-.4,0-.9.3-1.2.4-.3.8-.3,1.2-.3,6.4,0,12.8,0,19.2,0,.2,0,.4,0,.6,0,.8.2.6,1,1.1,1.6.4-.6.2-1.1.2-1.7,0-.5,0-1.1,0-1.6,0-1.2-.3-2.4.9-3.2.7-.3,1.5-.2,2.2-.2h48.9c.5,0,1,0,1.4,0,.8-.2,0-.4,0-.6-.4-1.2-.1-1.8,1.1-2.4.6-.1,1.2,0,1.8,0h135.4"/>
  <path class="st30" d="M-25.4,160.1h-.2c-.1-.2-.1-.4-.1-.6,0-10.3,0-20.5,0-30.8.2-.6.8-.6,1.3-.7,1.8-.2,3.6-.3,5.4-.3,3.9,0,7.7.3,11.6-.4.5,0,1,0,1.4.2.3.4.3.8.3,1.2,0,2.8,0,5.7,0,8.5,0,.5,0,1-.2,1.5-.8.7-1.8.3-2.6.4-.4,0-.9-.2-1.1.3-.2.5.1.8.5,1.1,1.4,1.5,2.9,2.7,5.3,2.5,3.2-.2,6.4,0,9.6,0,.5,0,1,.1,1.1-.5.8-.9.8-2,.7-3,0-.8,0-1.5,0-2.3,0-3.2,0-6.4,0-9.6,0-.4,0-.9.3-1.3,1.7-.8,3.5-.8,5.2-.8,2,0,4.1,0,6.1,0,1.3,0,2.7.2,3.7-.8.3.4.3.9.3,1.4-.2,5.8.4,11.6.2,17.5,0,.6,0,1.1-.1,1.7-.4.9-1.3.6-2,.6-1.6,0-1.8.2-2.2,1.6-.2.7,0,1.2.6,1.6,2.3,1.3,4.4,3.1,6.9,4.1.2,0,.4.2.4.5-.1.6-.6.6-1,.7-5.6,1.5-11.2,2.7-16.9,3.4-1.2.2-2.5,0-3.7-.2-6.5-.5-13-.4-19.6.4-3.1.4-6.2,1-9.3.4-1.3-.2-1.3.9-1.7,1.5"/>
  <path class="st41" d="M-25.4,160.1v-.2c0-1.8,0-2,1.9-1.6,2.1.4,4.2,0,6.3-.2.4,0,.9,0,1.3,0,1.2,0,2.4-.2,3.6-.4,1.1-.2,2.2-.2,3.2-.3,2.1,0,4.3-.5,6.4-.3,2.2.2,4.4,0,6.6.3,1.3.1,2.6,0,3.9.4.7.2,1.4-.1,2.1-.2,2.9-.4,5.8-.9,8.7-1.5,2.6-.6,5.1-1.2,7.7-1.8.3,0,.4-.2.5-.5.4-.4.9-.2,1.4-.1,1.5.3,3.1.5,4.6.9,2.5.6,5,.4,7.4-.1,2.9-.6,5.8-1.4,8.8-1.3.8,0,1.6.2,2.4.1,1.8,0,3-.9,3.4-2.7,0-.4,0-.9.7-.8.5.6,1.3.6,2,.6,6-.4,12.1-.2,18.1-.2,2.2,0,4.4.3,6.5.6,4.9.7,9.9,1.2,14.8,2,.6.1,1.3,0,1.8-.3,1.7-1,3.4-.9,5.2-.7,1.2.2,2.4.2,3.6-.2,5.2-1.6,9.8-.3,13.9,3,1.2,1,2.6,1.9,4.1,2.5,1.4.6,2.5,1.6,3.6,2.4.2.2.5.4.4.8H-25.4Z"/>
  <path class="st61" d="M304.9,160.1h-152.9c.3-1.3,1.3-2.1,2.4-2.6,1.4-.6,2.8-.8,4.3-1,2-.2,4,0,5.9-.4.4,0,.9,0,1.3,0h7c2.7,0,5.3.3,7.9.7,1.8.3,3.6.2,5.3.6,1.6.3,3.3,0,4.9.4.3,0,.6,0,.9,0,1.4-.4,2.9,0,4.3-.2,3.1-.3,6.1,0,9.2-.2,3.3-.2,6.5-.9,9.7-1.7,3.4-.9,6.8-1.8,10.2-2.5,1.1-.2,2.2-.3,3.3-.3"/>
  <path class="st6" d="M-25.8,77h.5c.2.5.1,1,.1,1.5v14.3c0,1.8,0,1.9,1.9,1.9H21.8c.8,0,1.7-.2,2.4.5.5,1.4.4,2.8-.3,4.1-.7.4-1.5.3-2.2.3H-22.1c-.4,0-.8,0-1.2,0-1.1,0-1.7.3-1.7,1.4,0,.2-.2.4-.3.6-.1,0-.3,0-.4,0v-24.5h0Z"/>
  <path class="st62" d="M129.4,160.1c-1.1-1.2-2.5-2-3.8-2.9-4.4-2.7-8.3-6.2-12.3-9.4-1-.8-2.1-1.5-3.2-2.3-.4-.3-.9-.6-.9-1.2.1-.3.5-.5.6-.8.5-.9.6-2,1-2.9.1-.4.1-.9.6-1.1.4,0,.6.2.8.4,1.8,1.7,3.9,3.2,5.8,4.8,3.6,3.2,6.6,7,10.1,10.4,1.5,1.4,3,2.8,4.7,3.9.4.3,1,.5.9,1.1h-4.1,0Z"/>
  <path class="st63" d="M133.5,160.1c-.4-.6-1-.9-1.6-1.3-3.4-2.6-6.5-5.6-9.2-9-.8-.9-1.6-1.8-2.5-2.5-.3-.2-.7-.5-.9-.8-1.8-2.2-4.3-3.7-6.3-5.7-.5-.5-1.1-.9-1.6-1.4-.4-.5-.3-.9.3-1.2,3,2.5,6.1,5,9,7.7,1.4,1.4,2.9,2.7,4.5,4,1.2,1,2.4,1.8,3.8,2.4,2.7,1.4,4.9,3.6,7.1,5.6.7.7,1.6,1.3,2.1,2.1h-4.6Z"/>
  <path class="st59" d="M322.3,96.4h-134.4c-1.8,0-1.8.2-1.8,1.6,0,1.9-.7,2.5-3,2.5h-54c-.8,0-1.6,0-2.4,0-1.1.5-.4,1.3-.3,1.9-.2,1-.8,1.5-1.8,1.4-.3,0-.5,0-.8.1-.6,0-1.2,0-1.8.2-3.1.2-6.2.2-9.3.3-.4,0-.7,0-1.1,0-.4-.2-.6-.7-.6-1.1-.4-1.4-.7-2.8-.9-4.3,0-1.3.5-2.4.8-3.6.3-1.4.2-1.6-1.2-1.6-5.1,0-10.2,0-15.2,0h-18.3c-.6,0-1.1,0-1.7-.2-.3-.2-.4-.4,0-.6.4-.3,1-.3,1.5-.4,7.2-1.4,14.6-2.7,21.9-3.8,6.5-.9,12.5-3.3,18.1-6.6,3.9-2.3,7.8-4.7,12.1-6.4,4-1.6,8.2-2.4,12.5-2.4.9,0,1.7.1,2.6.4"/>
  <path class="st59" d="M143.1,73.9c2.4-1.2,4.9-2,7.5-2.7,0,0,.2,0,.2,0,2,0,4-.6,6.1-.6.7,0,1.4,0,2,0,3.5-.2,7,.4,10.5,1,2.6.5,5.2,1.1,7.9,1.4.8,0,1.6.3,2.4.6,3.6,1,7.2,1.7,10.9,2.2,3,.4,5.9,1.2,8.7,2.1,1.7.5,3.4.7,5.2.5,2.1-.3,4-.9,6-1.6,4.3-1.4,8.6-3,13.1-3.7,2-.3,4-.8,6.1-.6"/>
  <path class="st24" d="M143.1,73.9c-.1,0-.2.2-.3.2-5.9-.7-11.5.6-16.8,3.1-3.6,1.6-6.9,3.7-10.2,5.7-4.2,2.4-8.5,4.5-13.2,5.5-2,.5-4.1.8-6.1,1.1-2.7.4-5.5.9-8.2,1.4-3,.5-6,1-9,1.5-1.7.3-3.3.7-5,1.1-.3.6-.9.4-1.4.4-1.3,0-2.6,0-3.8,0-.7,0-1.3.2-1.6.8-1.2.6-2.5,1.1-3.9.9-.8-.3-1.6-.3-2.3-.3-2.7,0-5.5,0-8.2,0-.4,0-.8,0-1.2-.2-.3-.4-.3-1-.3-1.5v-8.4c0-.6,0-1.3.5-1.8.5-1.3.4-2.6.3-3.9-.4-3.5-1.1-6.9-1.9-10.3-.4-1.6-.5-3.2-.7-4.8-.3-2-.5-3.9-.8-6,.7,0,1.3.2,1.9.4,1.9.5,3.8,1.1,5.7,1.9.7.3,1.4.7,2.1,1.2,1.5.9,3.1,1.2,4.7.7,3.9-1.3,7.8-2.5,11.6-3.9.6-.2,1.3-.5,1.4-1.3.3-.5.8-.5,1.2-.5,1.2,0,2.3,0,3.5,0,1.3,0,2.5-.2,3.6-1,.8-.6,1.6-1,2.4-1.5.3-.2.9-.4.8-.9-.1-.5-.7-.2-1.1-.4-.1,0-.2-.1-.3-.2,0-.7.8-.9,1.2-1.4.2-.3.7-.5.5-.9-.2-.5-.6-.4-1-.3-.5,0-1.2.7-1.5.1-.3-.6.6-.9,1-1.3.3-.3.8-.6.5-1.1-.3-.5-.8-.5-1.3-.4-.5,0-.9.3-1.3.5-.2,0-.4.1-.6,0-.2-.2-.1-.4,0-.7.2-.5.5-.9.7-1.4.2-.6,0-.9-.7-.8-.8.1-1.4.5-1.9,1.1-1.1,1.4-2.6,1.8-4.2,1.6-.4,0-.9,0-1.1-.5-.2-.5,0-.9.3-1.3.3-.4.7-.5,1.1-.8.6-.3,1-.8.7-1.4-.4-.8-1-.4-1.6-.2-1.7.7-2.6,2.2-3.2,3.8-.2.5-.2,1.1-.8,1.4-.4-.2-.8-.1-1.3,0-3.7.9-7.4,1.7-11.1,2.6-.8.2-1.4.2-2-.3-.9-.7-1.8-1.3-2.8-1.9-1-.7-2-1.3-2.8-2.2-.6-.7-1.5-1.2-2.3-1.7-.7-.5-1.5-.9-2.2-1.5-1.6-1.2-3.3-1.5-5.2-.9-.3.1-.6.2-.9.2-.8-.8-1.8-1.3-2.8-1.8,0-.7,0-1.5.9-1.8,1.2-1.1,2.4-2.3,3.8-3.3,2.1-1.5,4.2-2.7,6.8-3.2,2.9-.6,5.6,0,8.2,1.3,1.7.9,3.4,1.5,5.3,1.8,2.7.5,5.3.2,8-.1,2-.3,4-.6,6.1-.6,3.7,0,7.1,1,10.2,3,1.8,1.2,3.4,2.5,4.9,4.1,5,5.4,11,9.6,17.3,13.3,5.2,3,10.6,5.8,15.9,8.7,5.1,2.9,10.1,6,15.3,8.8.3.2.5.4.8.6"/>
  <path class="st24" d="M24,95.2c-.5,0-1,0-1.5,0H-24.6c-.9,0-.9,0-.9-1v-16.1c0-.4,0-.7.2-1,2.8-1,5.7-2.1,8.4-3.4,9.1-4.3,18.6-8.1,28-11.8.2,0,.3-.1.5,0,0,1.6,0,3.2.3,4.8.3,1.7.8,3.4,1.8,4.9.9,1.3,2.1,2.2,3.7,2.4.3.2.6,0,.9.2h1c.5-.2,1-.1,1.3.4,1,1.7,2,3.3,3.4,4.6,0,0,0,.2,0,.3-.2,1.3-.5,2.7-.7,4-.1.8-.3,1.6.7,2.1.4.2.4.5.4.9-.1,2.4,0,4.9,0,7.3,0,.5,0,1.1-.4,1.4"/>
  <path class="st25" d="M24,95.2c0-2.6,0-5.2,0-7.8,0-.6.4-1.2,0-1.9,4.4.5,8.8.4,13.3.2,3.6-.2,7.2-.4,10.7-1,1.4-.2,2.7-.6,4-1.2,0,.5,0,1,0,1.5,0,3.4,0,6.7,0,10.1.5,1,.3,2.1.2,3.2,0,.7-.2,1.4-.2,2.1,0,1.3,0,2.6-.2,3.9,0,.8,0,1.6,0,2.4-.4,1.2,0,2.5-.4,3.7,0,.6,0,1.3,0,1.9-.4,3.8-.7,7.6-1.2,11.3,0,.3-.2.5-.3.8-.6.7-1.5.9-2.4,1-2.3.3-4.7.3-7-.5-.5-.2-.9-.3-1.1-.8-.2-.7-.3-1.4-.4-2.1-.1-5.5-.6-10.9-.8-16.4,0-.5-.1-1.1,0-1.4,0,1.4-.3,3-.6,4.6-.8,5-1.7,9.9-2.6,14.9,0,.5,0,1.1-.6,1.5-2.2.4-4.2,1.2-6.5,1-1.2-.1-2.4-.3-3.5-.6-.5-.1-.9-.3-1.1-.8-.2-.7-.2-1.5-.1-2.3.3-1.9.2-3.8.2-5.8,0-4.8.4-9.5.3-14.3,0-.4,0-.8,0-1.1,0-.7-.2-1.5.3-2.2.2-1.3.3-2.6.2-3.9"/>
  <path class="st27" d="M19.3,7.9c1.1-1.9,2.7-3,4.9-3.2,1.8-.2,3.5-.2,5.2.4,1,.3,1.9.8,2.6,1.6.4.5.7.5,1.2.3,1.9-.7,3.8-1.3,5.8-1.6,2.2-.3,4.5-.4,6.6.6,3.8,1.7,5.6,4.7,5.8,8.8.2,3-.8,5.8-2.2,8.3-1.8,3.2-4.3,5.8-7.6,7.7-.6-.1-.6-.7-.7-1.1-.5-1.9-.3-3.7.3-5.5,1.1,0,1.2-.7,1.1-1.7-.1-1,0-1.9,0-2.9,0-.9-.3-1.5-1-2.1-1.9-1.5-4-2.7-6.1-3.9-1.5-.8-3.1-.5-4.7-.3-2.9.4-5.7,1.4-8.2,2.9-2.4,1.4-3.7,3.7-4.8,6.1-1,2.1-1,4.1.3,6,.7,1.1,1,2.3,1.5,3.5.4,1.1,1,2.2,1.7,3.2.3.4.7.7.4,1.3-.4,0-.8,0-1.2.2-.4.2-.9.2-1.3,0-3.3-.8-6.7-1.5-9.9-2.8-1.7-.7-3.2-1.5-4.6-2.7C.8,28-.3,24,1.6,19.7c2.4-5.4,6.5-8.6,12.4-9.4,1.2-.2,2.5-.1,3.7-.2.5-.3,1.1-.3,1.6-.3,3.8,0,7.5-.6,11.3-2.2-3.4-.3-6.6-.5-9.8.4-.5.1-1,.4-1.5,0"/>
  <path class="st8" d="M41.4,24c0,.6,0,1.2-.2,1.8-.5,1.2,0,2.4,0,3.6,0,.4,0,1,.4,1.3.2,2.8-.6,5.4-1.1,8.1,0,.3-.2.5.1.8-.5.6-.4,1.3-.8,2,0,.9-.9,1.3-1.6,1.6-.7.4-1.5.7-2.3,1-1.7,0-3.1-.7-4.5-1.4-1.1-.5-2-1.1-3.1-1.5-.3-.2-.7-.2-.9-.6,0-.6-.7-.7-1-.9-1-.5-1.7-1.2-2-2.3,0-.2-.2-.4-.3-.7-.8-1-2-1.6-2.9-2.4-1.3-1.1-1.6-2.2-1-3.5.5-1,.9-1,1.7-.2.3.4.6,1,1.2,1.1,0-.7.2-1.4.3-2.1.2-2.2,1-4.2,2.4-6,1.3-1.8,3.3-2.6,5.5-2.8,1.4-.1,2.8-.2,3.7-1.6.3-.4.7-.3,1,.1.3.5.4,1,.2,1.5-.2.6-.6,1.2-1,1.8,1.7.4,2.7-.3,3.3-2.1.2-.5,0-1.3.8-1.3.6,0,.9.6,1.2,1.1.6,1.1,1.4,2.1,1.2,3.5"/>
  <path class="st71" d="M41.4,24c-.6-1.6-1.2-3.2-2.5-4.6-.8,3.4-2,4.4-4.5,3.8.7-1.2,2.1-2.2,1-3.9-.3,0-.4.1-.4.2-.2.9-.9,1.3-1.7,1.5-.9.3-1.9.3-2.8.5-2.2.3-3.8,1.5-5,3.3-1.4,2.1-1.9,4.4-2,6.8,0,.3,0,.6-.2,1-.7-.2-1.3-.6-1.6-1.3-.2-.4-.5-.7-.9-1-.4.5-.5,1.1-.8,1.6-.2.5,0,.9.3,1.3.7,1,1.6,1.7,2.6,2.2.6.3,1,.8,1,1.5-.5.5-.8,1.2-1.4,1.7-.4.3-.8.7-1.4.8.4-1,.7-2,.2-3-.1-.2-.2-.5-.4-.7-1-1.2-1.7-2.6-2.2-4.1-.5-1.3-2-1.6-2.7-2.8-.8-1.5.1-3.9.7-5.5.9-2.3,1.9-4.4,3.7-6.1.2-.2.5-.5.8-.7,3.8-2.2,7.8-3.7,12.2-3.6.6,0,1.2.1,1.7.4,2,1.2,4.2,2.4,6.1,3.9.9.7,1.4,1.6,1.2,2.8-.1,1-.1,2,0,3,.2.8-.1,1.3-.7,1.7-.5,0-.3-.5-.6-.7"/>
  <path class="st38" d="M24.1,79.4c-1.6-1.2-2.7-2.8-3.6-4.6-.3-.6-.6-.9-1.2-.8.5-.2.8-.4.5-1-.3-.7-.5-1.5-.5-2.3,0-.2-.2-.5-.2-.7,0-2.3,1.3-3.9,3.5-4.1.8.1,1.1.9,1.6,1.4,1.4.7,2.8.5,4.2,0,.7-.3,1.3-.2,1.9.1.9.5,1.8.9,2.8,1.3.4.2.7.4.9.8.7,1.2.7,1.2-.6,1.5,0,0-.1,0-.2.2-.9-.1-1.4-1.1-2.5-1,.9.9,1.9,1.2,3,1.3,1.1.7,2.4.9,3.7,1.3.3,0,.8,0,.9.5,0,.6.2,1.2,0,1.8-.1.3-.5.2-.8.2-1.7,0-3.4,0-5.1-.5-.1,0-.2,0-.5,0,.8.8,1.2,1.5.7,2.5-.2.5-.5.8-1,.8-.6,0-.9.2-1.2.7-.6.9-1.6,1.2-2.7,1.3-1.1,0-2.2,0-3.3-.5"/>
  <path class="st38" d="M73,48.9c.2-.9.6-1.8,1-2.7.6-1.4,1.7-2.2,2.9-2.9,0,0,.2,0,.2,0,.9-.3,1.6-.2,1.8.3.3.6,0,1.4-.8,1.9-.1,0-.3.2-.4.2-.8.3-1.2.9-1.1,1.8,1,.2,2,.2,3,0,.4,0,.8-.3,1.1-.7.5-.5,1-1.1,1.7-1.6.5-.4,1.1-.6,1.8-.5.7,0,1,.4.7,1-.3.7-.7,1.3-1.1,2.1.6-.3,1.2-.5,1.7-.7.6-.2,1.1-.2,1.6.1.6.4.7.8.2,1.4-.5.5-1.1,1-1.6,1.6.4-.2.9-.3,1.3-.5.3-.1.7-.2,1.1,0,.7.3.8.8.3,1.3-.3.3-.6.5-.9.8-.3.3-.7.5-1,.9-.9.2-1.8.4-2.6.8-.7.4-1.3,0-1.9-.4-.8-.6-1.7-1-2.8-.9-.4,0-.9,0-1.2.6,1.7-.5,3.1,0,4.3,1,.6.5,1.2.4,1.8,0,.8-.4,1.6-.8,2.4-1.3.3,0,.7-.1,1.1-.1s.6.2.8.5c.2.4,0,.6-.4.8-1.6,1-3.1,2-4.7,3-.4.2-.8.2-1.3.3-1.5,0-3,0-4.6,0-.4,0-.9-.2-1.2.2,0-.2-.1-.4-.4-.4-.6,0-1.2-.2-1.8-.2-.8,0-1.3-.5-1.6-1.2-.6-1.5-.4-3-.1-4.4.2-.7.4-1.4.6-2.2"/>
  <path class="st36" d="M27.4,40.7c.3,0,.7,0,.9.3.4.7.8,1.3,1.3,1.9-.2.5-.6.3-.9.3-.5,0-.9,0-1.3.2-.6.3-.8.6-.1,1,2.2,1.5,4.4,3,6.7,4.5.8.5,1.7.4,2.5.1.7-.2,1.3-.5,2.1-.6.4,0,1.1-.1.8.7,0,0,0,.1,0,.2-.2.5,0,1.1-.1,1.6,0,1-.6,1.3-1.5.9-.7-.4-1.5-.5-2.3-.5-.2,0-.4,0-.6,0-.8.7,0,1.6-.2,2.5,0,.4.2.7.6.7s.9,0,1.2.3c0,.3-.1.8-.4.9-.5.2-1.2.2-1.7.1-.5,0-.6-.6-.5-1,.2-.9-.2-1.7-.7-2.4-1.1-.5-2.2-1.2-3.6-1-.4,0-.7-.2-.9-.5-.5-1-1.5-1.5-2.3-2.2-.4-.3-.8-.3-1.1,0-.3.4-.6.8,0,1.2.9.7,1.5,1.5,1.9,2.6.3.7,1,.7,1.7.6.5,0,1.1-.2,1.7-.2,1.1,0,1.5.7,1.4,1.7-.4.3-.8.3-1.2,0-.4-.4-.8-.3-1.3-.3-1,.1-2.1,0-2.9-.8-.3-.2-.5-.5-.5-.9,0-.5-.3-.9-.7-1.2-.4-.4-.8-.8-1.2-1.2-.4-.4-.4-.8,0-1.3.5-.5,1.3-1,1.2-1.7,0-.6-.6-1.2-1-1.8-.6-.8-.8-1.6-.4-2.6.4-1,1.1-1.6,2.1-2,.5-.2,1-.4,1.6-.6"/>
  <path class="st2" d="M39.5,49.2c0-.6-.5-.5-.9-.4-.7.2-1.4.5-2,.7-1.1.4-2.1.3-3.1-.4-2.1-1.5-4.2-2.9-6.3-4.3-.2-.1-.3-.2-.5-.3-.3-.3-.4-.5,0-.8.8-.4,1.6-.9,2.6-.5,0,0,.2,0,.3-.1.6-.2,1,.2,1.3.5,1.6,1.4,3.3,1.6,5.2.4.6-.3,1.1-.5,1.7-.8.8-.3,1.5-.9,2-1.6,1.3-.2,2.2.5,2.7,1.6-1.4,1.8-1.8,4.1-3.1,6"/>
  <path class="st70" d="M19.3,7.9c.8-.2,1.6-.3,2.4-.5,3.2-.8,6.3-.5,9.5,0,0,0,0,0,.2.2-4.4,2.1-9,2.8-13.8,2.6.5-.7,1.1-1.4,1.7-2.2"/>
  <path class="st2" d="M31.8,54.9c-.3-1.2-.8-1.6-2-1.4-.6.1-1.2.2-1.8.2-.6,0-1.2-.3-1.3-1-.2-.9-.6-1.5-1.4-2-.3-.2-.5-.5-.8-.8-.1-.1-.2-.3-.1-.4.4-.5.8-1,1.2-1.4.1-.1.3,0,.4,0,.6.6,1.3,1,2,1.5.2.2.6.4.6.7.2,1,.9,1.1,1.6.9,1.3-.3,2,.5,2.8,1.2-.3.3-.3.8-.4,1.2-.2.5-.4,1-1,1.2"/>
  <path class="st22" d="M21.1,62.3c1.7.6,2.9,1.6,4,3,.1.2.2.3.3.5.2.2,0,.5-.2.6-.2.1-.4,0-.5-.2-.2-.4-.5-.8-.8-1.2-1.4-1.7-3.3-2.6-5.4-3-.7-.2-1.3.2-1.9.3.8-.9,1.9-.6,2.9-.5,1,0,1,.1,1.3-.7.5-1.5.8-3.1.2-4.5-.4-.9-.9-1.9-1.9-2.5-.4-.2-.8-.5-1.2-.8-.6-.4-.5-.8,0-1.2.3-.2.6-.2.9-.1.5.1.9.5,1.3.8,0-.5-.2-.7-.4-1-.1-.2-.2-.4,0-.5.2-.1.4,0,.5.1.8,1,1.4,2.2,1.3,3.5,0,.4,0,.8,0,1.3.5,1.9.2,3.7-.4,5.5,0,.2,0,.4-.2.7"/>
  <path class="st2" d="M36.6,54.9c-.7,0-1.3,0-2.1.2,0-1.2,0-2.3-.3-3.4,0-.4.1-.7.6-.7,1.2,0,2.4-.2,3.4.7.4.4.9,0,1-.7,0-.6-.2-1.2.2-1.7,0,1,0,2-.2,3-.2.6-.4,1.2-1.1,1.5-.6.3-1.1.7-1.5,1.1"/>
  <path class="st23" d="M19.2,70v.8c-.7-.4-1.5-.7-1.8-1.6-.5-1.2,0-2.5,1.2-3.1,1-.5,2-1.9,3.2-1.9,1.4,0,1.7,1.3,2.1,2.6,0,.2.1.4.2.6-.6-.3-.9-.9-1.5-1.2-.8-.5-1.6-.3-2.4,0-1.8.7-2.5,2.2-1,3.9"/>
  <path class="st10" d="M33.4,71.5c-1.1.4-2.8-.2-3.4-1.2-.2-.4,0-.5.3-.5.9,0,1.7.5,2.3,1.1.1.1.2.2.3.3.2,0,.3.2.4.3"/>
  <path class="st38" d="M18.3,74.1c-.3,0-.7,0-.9-.2.3,0,.7,0,.9.2"/>
  <path class="st5" d="M111.7,138.2c-.2.4-.3.8-.3,1.2-.4.6-.4,1.2-.6,1.9-.2.8-.4,1.6-.8,2.4-.5.4-1.1.6-1.8.6-12.6,0-25.1,0-37.7,0-1.2,0-2.2-.4-2.5-1.7-.9-3.2-1.8-6.3-2.5-9.5-.1-2.2,0-4.5,0-6.7,0-4.7,0-9.3,0-13.9,0-.7,0-1.4,0-2,0-.2,0-.3.2-.4.2-.5.7-.7,1.2-.7.4,0,.8,0,1.2,0h42.9c.6,0,1.2,0,1.8.2.3.2.4.5.4.8,0,.7.2,1.4-.3,2v11.5c0,2.8,0,5.7,0,8.5,0,1.1-.2,2.1-.5,3.2-.3.9-.5,1.8-.7,2.8"/>
  <path class="st41" d="M233.9,145.7c-2.4.2-4.8.3-7.1.5-2.1.1-4.3.1-6.4.4-2,.3-4.1.4-6.2.6-2.8.4-5.5.9-8.2,1.2-1.1.1-2.1.2-3.2.4-1.5.1-3,.3-4.5.4-2.8,0-5.5.5-8.2.3-1.9-.2-3.9-.1-5.8-.4-1.6-.2-3.2-.3-4.7-.6-1.1-.2-2.1-.2-3.2-.3-3.1-.4-6.2-.3-9.3-.3-3.1,0-6.3.2-9.4.3-2.7.1-5.4,0-8.1.1-.4-1.3-.6-2.7,0-4,.7-.5,1.5-.6,2.3-.6,2.6-.2,5.2-.4,7.8-.5,4.6-.3,9.2-.3,13.9-.3,2.9,0,5.8.2,8.7.6,1.6.2,3.1,0,4.6.3.6.4.5,1,.4,1.6,0,.6-.2,1.1-.2,1.6,0,.3-.1.8.4.8.5,0,.8-.3.8-.8,0-.4-.1-.8-.1-1.2,0-.7-.2-1.4.3-1.9"/>
  <path class="st41" d="M234.7,133.9c-3,0-5.9,0-8.9,0-2,0-3.9.2-5.8.4-1.3.1-2.5.3-3.8.3-.6,0-1.2,0-1.8.2-.3.1-.6,0-.9,0-1.4-.3-2.7-.1-4,0s-2.7.3-4.1.3c-2.3,0-4.6,0-6.8,0-.2-.7.4-1.1.5-1.7.1-.5.7-.9.2-1.5-1.5-.1-3-.4-4.6-.2-1.7.2-3.1,1-4.2,2.2-.4.4-.7,1-1.4,1.1-1.3,0-2.6-.2-3.9-.4-.2,0-.3-.2-.4-.3,0-1-.3-1.9-.8-2.8-.6-1-.9-1.1-1.8-.2-.2.2-.4.5-.7.6-1.5,0-2.9-.5-4.4-.3-.6,0-1.1,0-1.6.2-.6.6,0,1.1.1,1.6.1.5.6,1,0,1.5-1.8.7-3.7.7-5.5.9-3.5.5-7.1.4-10.6,0-.6-.2-.4-.6-.2-1,.3-.6.7-1.2.9-1.9.1-.3.5-.7,0-1.1-1.5-.1-2.9-.4-4.4-.2-1.8.2-3.2,1-4.4,2.3-.5.5-.8,1.2-1.5,1.5-1,.2-2,.1-3,0-.4,0-.6-.3-.9-.6-1.1-1.5-2.4-2.6-4.2-3.2-.2,0-.4-.2-.4-.4,1.2-.4,2.4-.5,3.6-.7,3.1-.4,6.2-.3,9.3-.2,1.9,0,3.8.3,5.7.2,2.4-.2,4.8,0,7.1-.6.8-.2,1.7,0,2.6-.3.5.5,0,1.1,0,1.7,0,.4-.3,1,.4,1,.6,0,.9-.4.9-1,0-.5-.2-.9-.1-1.4,0-.2.1-.4.3-.5"/>
  <path class="st61" d="M135.7,132c.5,1.6,1.4,2.9,2.1,4.3-1.1,0-2.2,0-3.4,0-2,0-3.9-.8-5.6-1.7-.6-.4-1-1.1-.8-1.5.3-.6.7-.9,1.4-.9,1.4,0,2.8,0,4.2,0,.7,0,1.4,0,2-.2"/>
  <path class="st11" d="M327.6,103.3h-135.7c-.9,0-1.9-.2-2.5.8-.4.3-.7.6-.7,1.2,0,.2,0,.5-.2.7-.4.6-1.1.5-1.8.5-3.2,0-6.5,0-9.7,0h-39.3c-.4,0-.9,0-1.3,0-.6,0-.6.4-.5.8-.7.9-.4,2.1-.6,3.1-.4.5-.9.5-1.5.6-5.6,0-11.2,0-16.9,0-1.4,0-2.8,0-4.1-.6"/>
  <path class="st11" d="M112.9,110.4c0-.2,0-.5,0-.7-.5-1.1-1.3-2.2-.5-3.6,1.6-.3,3.2-.2,4.8-.1,5,.3,9.9.1,14.9.1s1.9-.7,2.1-2c.2-1.7.2-1.8,1.9-1.8,7.4,0,14.8,0,22.2,0h25.9q1.5,0,1.8-1.4c.2-1,.8-1.6,1.9-1.7.5,0,1,0,1.4,0h147.6"/>
  <path class="st46" d="M135.9,107.3c-.2,0-.5,0-.7-.3-.4-.4-.3-.9.3-1,.4,0,.9,0,1.3,0h50.1c.5,0,1,0,1.6,0,.3,0,.6,0,.9.1.2,0,.4.2.4.5,0,.3-.2.6-.4.6-.3,0-.6,0-.9,0-17.4,0-34.7,0-52.1,0-.2,0-.3,0-.5,0"/>
  <path class="st14" d="M112.9,110.4c6.9.4,13.8.2,20.7.2.6,0,1.2,0,1.8-.2,0,.5,0,1.1,0,1.6-.4-.1-.9-.1-1.2.3-.5,0-.9,0-1.4,0-6.6,0-13.2,0-19.8,0,0-.6,0-1.2,0-1.9"/>
  <path class="st62" d="M23.8,102.3c0,2.6.1,5.3-.2,7.9,0,.2,0,.4,0,.6,0,3.2,0,6.4,0,9.6,0,1.5-.3,2.9-.1,4.4-.2.2-.5.2-.8,0-.3.8-.9,1.2-1.9,1.2-2.3,0-4.5,0-6.8,0-1.6,0-3.2.2-4.7.4-.5,0-1,0-1.4,0-.6-.8-.3-1.7-.3-2.5,0-1.3,0-2.6-.6-3.9-.5-1-1.3-1.5-2.4-1.5-.8,0-1.4-.3-1.2-1.3,0-.2.2-.4.2-.7.3-1.4,0-1.8-1.4-1.8-.9,0-1.8,0-2.6,0-1.6,0-1.9.5-1.5,2,0,.2.1.3.2.4.2.9-.3,1.3-1.1,1.4-1,0-1.7.6-2.2,1.4-.3.6-.4,1.2-.5,1.9-.2,1.4,0,2.8,0,4.2,0,.6,0,1.1-.4,1.6-1.2,0-2.5.2-3.7.4-.4,0-.9,0-1.3,0-2.9,0-5.7,0-8.6,0-1.7,0-3.4.3-5.1.3-.2,0-.5.1-.7.2,0-.5,0-1,0-1.4v-23.4c0-.5,0-1,0-1.6,0,0,0,0,.1,0,.5-.4,1-.4,1.6-.4H22.1c.6,0,1.2,0,1.7.4"/>
  <path class="st19" d="M22.7,124.8c.2,0,.5.1.8,0,3.1,1.2,6.2,1.4,9.3.3.5-.2.9-.6,1.4,0,.2.2.2.3.2.6-.6,4.7-1.1,9.3-1.1,14,0,1.6.5,2.7,1.8,3.5,1,.7,2,1.4,2.7,2.5,1,1.5,1.7,3,1.6,4.8-.1,2.2-1.5,3.7-3.8,3.9-1.3.1-2.6-.2-3.8-.7-2.6-1.2-5.1-2.5-7.5-4-1.4-.9-1.9-2.2-1.3-3.9,0-3,.1-6.1,0-9.1-.2-3.9-.2-7.9-.2-11.8"/>
  <path class="st53" d="M22.9,145.7c0,.8.3,1.6.2,2.4,0,.5.3.7.7.9,2.4,1.4,4.8,2.9,7.3,4,1.5.6,2.9,1.2,4.5,1.1,1.6,0,3.1-1.2,3.3-2.6.2-1.2.3-2.6-.3-3.7-.3-.6-.6-1.2-1-1.8.5-.4,1-.4,1.5-.2.1,0,.3.2.3.4,0,1.6,1.1,2.2,2.2,2.8,2.3,1.2,4.4,2.7,6.9,3.6.3.1.6.2.6.6-.6.4-1.2.3-1.9.2-1.5-.1-2.9.2-4.3.6-1.5.4-3.1.8-4.7.8-.6,0-1.2.2-1.9.2-2,.1-3.9-.5-5.9-.8-1.2-.2-2.4-.4-3.6-.6-.6,0-1.1-.3-1.7-.6-2.1-1.1-4-2.6-6.1-3.8-.6-.3-.7-.7-.5-1.4.7-2.2.7-2.2,2.9-2.2.5,0,1,0,1.4,0"/>
  <path class="st30" d="M65.8,126.5v6.7c-.5.4-1.1.3-1.6.3h-7c2.4,2.2,5,4.1,7.4,6.2,1.7,1.5,3.3,3.2,4.9,4.7.5.5,1.1.8,1.8.7,1.6-.2,3.2,0,4.8.3,3.4.7,6.8.5,10.2,0,2.4-.4,4.8-.2,7.2-.4,4.4-.5,8.8-.6,13.2-.5.9,0,1.7-.3,2.6,0,.5.7,1.3,1.1,2,1.7,2.1,1.6,4.2,3.2,6.2,4.9,2.1,1.7,4.3,3.3,6.4,4.9.6.5,1.3.8,1.7,1.4-1.6-.5-3-1.4-4.2-2.4-1.7-1.4-3.5-2.5-5.6-3.2-2.4-.8-4.8-.8-7.2-.2-1.3.3-2.6.8-4,.5-1-.2-2-.2-3-.2-.9,0-1.9.1-2.6.7-.8.6-1.6.6-2.5.5-1.7-.2-3.4-.6-5.2-.8-1.5-.2-3.1-.4-4.6-.6-2-.2-4-.2-6-.9-.1,0-.2,0-.3,0-1.4.1-2.8-.3-4.3-.3-4.5,0-9,0-13.6,0-2.2,0-4.3.4-6.4.2-.8,0-.8,0-1-1-.3-.2-.4-.5-.5-.8-.3-2.5-1.9-4.1-3.7-5.5-.5-.4-1-.7-1.5-1.2-.7-.8-.9-1.6-.9-2.6,0-3.2.3-6.3.6-9.4.1-1.4.2-2.8.4-4.2,0-.4-.2-1.1.7-.9.4.7,1,1,1.8,1.1.8.1,1.5.1,2.3.1h9.7c.6,0,1.2,0,1.7.4"/>
  <path class="st19" d="M50.2,124.7c-.2.2-.2.4-.2.7-.1,3.3-.6,6.6-.8,9.9,0,1.4-.1,2.9-.2,4.3,0,1.2.5,2.1,1.4,2.7,1,.7,1.9,1.4,2.7,2.3,1.1,1.2,1.8,2.4,1.9,4,0,.3.1.5.2.8-.3.2-.2.6-.2.9-.1,1.7-1.8,2.8-3.2,2.9-.9,0-1.9,0-2.8-.2-1.1-.5-2.2-.9-3.2-1.4-1.8-1-3.6-2.1-5.5-3.1-.9-.5-1.4-1.1-1.2-2.2,0-.1,0-.3,0-.5-.3-.4-.3-.9-.3-1.4-.4-5.1-.2-10.2-.2-15.3,0-1.2-.2-2.4-.2-3.6.1-.6-.4-1.7,1-1.6.3.6,1,.6,1.6.7,2.3.7,4.7.7,7,.2.6-.1,1.2-.2,1.6-.7.2-.2.3-.4.6-.3.3.2.3.5,0,.7"/>
  <path class="st11" d="M23.8,99.1c0,.7,0,1.4,0,2.2-.5.4-1,.4-1.6.4H-23.8c-.5,0-1.1,0-1.6-.4v-1.6c0-.4.2-.6.6-.6H23.8"/>
  <path class="st65" d="M-25.4,101.2c.4,0,.7,0,1.1,0H23c.3,0,.6,0,.8,0,0,.3,0,.7,0,1H-24c-.5,0-1,0-1.5,0,0-.2,0-.5,0-.7,0,0,.2-.2.2-.3"/>
  <path class="st29" d="M109.3,144.3c-.9.3-1.9.4-2.8.4-1,0-2,0-3,0-3.8.1-7.7.2-11.5.7-.5,0-1,0-1.4,0-2.2-.2-4.4.3-6.7.6-2.5.3-4.9.2-7.4-.2-1.9-.3-3.8-.6-5.7-.2-.5.1-.8-.2-1.1-.5-.8-1.1-1.9-1.8-2.8-2.8-2.3-2.3-4.9-4.3-7.5-6.4-1-.8-2-1.7-3.2-2.7h9.6c.8,2.9,1.6,5.9,2.4,8.9.4,1.6.8,1.9,2.5,1.9h37.5c.6,0,1.2,0,1.8-.3,0,.4-.4.4-.7.6"/>
  <path class="st6" d="M338,99.6h-150.1c-.6,0-1.1-.1-1.5.7-.2.6-.5,1-.1,1.7.3.6.2.7-.5.8-.3,0-.6,0-1,0h-50.4c0,.6,0,1.1,0,1.6,0,1.4-.9,2.2-2.3,2.2-4.6,0-9.3.1-13.9,0-2,0-4.1-.1-6.1-.2-.6-.6-.8-1.2-.5-2,1.9-.1,3.9-.2,5.9-.2,1.2,0,2.5-.1,3.7-.2.4,0,.8,0,1.2.2.8.1,1.1,1.2,2.1,1.1.1-.6-.7-.7-.6-1.3,0-.3.2-.5.6-.4,1.3.3,1.4.2,1.9-1,.4-.2.6.3,1,0,0-.9-.8-1.3-1.1-2,0-.2,0-.4.3-.4.4,0,.7,0,1.1,0h55.2c.5,0,1,0,1.4,0,1,0,1.3-.3,1.4-1.3,0-.7,0-1.4,0-2,0-.8,0-.8.8-.8.3,0,.6,0,.8,0,17.2,0,34.4,0,51.6,0"/>
  <path class="st40" d="M111.7,104.3c.2.7.3,1.3.5,2,.2,1.1.6,2.2.7,3.4-15.2,0-30.4,0-45.6,0-.6,0-1.2,0-1.4.7-.6-.8,0-1.5.1-2.2.3-1.3.6-2.5.8-3.8.4-1.4.8-2.9,1.1-4.4.1-.5.2-1.1.8-1.3.5-.2,1.1-.2,1.7-.2,12.7,0,25.3,0,37.9,0,.8,0,1.8-.3,2.1.8.4,1.7.8,3.3,1.3,5"/>
  <path class="st43" d="M110.4,99.3c-.2-.3-.5-.5-.9-.5-.2,0-.4,0-.6,0h-40.4c-1-1.2-1.2-2.6-1.2-4.1.2-1.2.2-1.2,1.3-1.2,1.9,0,3.8,0,5.7,0,.5,0,.9,0,1.4,0h34c2.1,0,2.1,0,1.6,2.1-.3,1.2-.8,2.4-.9,3.7"/>
  <path class="st59" d="M67.2,94.8c.4,1.1.7,2.3,1,3.4,0,.2.2.4.2.7-.5,1.8-.8,3.7-1.4,5.5-.5.4-1,.4-1.6.4h-12.3c-.6,0-1.1,0-1.6-.4,0-1.3,0-2.5.3-3.8,1.9-1.5,4.1-2.5,6.4-3.4,1.3-.5,2.8-.8,4-1.4.5-.2,1-.3,1.5-.3.8,0,1.5-.3,2.3-.5.4-.1.8-.3,1.3-.2"/>
  <path class="st58" d="M63.7,95.5c-1.7.7-3.3,1.6-5.1,1.9-.6,0-1.1.4-1.7.7-1.4.7-2.9,1.3-4.2,2.2-.3.2-.6.2-.9.4,0-1.8,0-3.6.2-5.4,3.5,0,7,0,10.5,0,.4,0,.9,0,1.2.4"/>
  <path class="st62" d="M50.2,124.7c0-.2.1-.5-.2-.7-.2,0-.3,0-.3-.3.2-2,.4-4.1.6-6.1.1-1.4.3-2.9.4-4.4,0-.4,0-.7.2-1,.5-.4,1-.4,1.6-.4,3.9,0,7.9,0,11.8,0,.5,0,1,0,1.5.3v14.2h-11.6c-.9,0-1.8,0-2.7-.2-1.2-.3-1.2-.2-1.3-1.5"/>
  <path class="st39" d="M39.4,124c-.3,0-.6,0-.6.4s0,.7,0,1c-1.4.7-2.8.3-4.3.4-.2,0-.3-.2-.3-.4,0-.1,0-.3,0-.4.5-.9.5-1.9.7-2.9,1-5.9,2.1-11.7,3-17.7,0-.4.2-.8.4-1.1,0,1.6.2,3.2.3,4.8.2,2.7.3,5.4.4,8.1,0,2,.2,4,.3,6,0,.6.3,1.2.2,1.8"/>
  <path class="st17" d="M51.6,104.4c5.2,0,10.3,0,15.5,0-.2,1.3-.6,2.6-.8,3.8-.5.4-1,.4-1.6.4-3.9,0-7.8,0-11.6,0-1.7,0-1.8-.1-1.6-1.9,0-.8,0-1.6.2-2.3"/>
  <path class="st11" d="M51.4,106.7c0,1,.7,1.5,1.7,1.5,4.4,0,8.7,0,13.1,0-.1.7-.4,1.4-.4,2.2h0c-.5.5-1,.4-1.6.4-3.8,0-7.7,0-11.6,0-.6,0-1.2,0-1.7-.4.2-.9.2-1.8.2-2.7,0-.3,0-.6.2-.9"/>
  <path class="st34" d="M51,110.3c.5,0,.9,0,1.4,0,4.5,0,8.9,0,13.4,0,0,.6,0,1.2,0,1.8-4.5,0-9,0-13.4,0-.5,0-1,0-1.4,0v-2c0,0,0,0,0,0Z"/>
  <path class="st30" d="M49.7,123.8c0,0,.2.2.3.3-.1.1-.3.2-.4.2,0-.2,0-.3.2-.5"/>
  <path class="st4" d="M36.1,43.9c-.5.8-1.6.8-2.3,1.3-.2.2-.5-.1-.8-.2-1.2-.6-2.3-1.4-3.4-2-.8-.4-1.4-1-1.2-1.9.6,0,1,.4,1.5.6,1.7.8,3.4,1.7,5.3,2.1.3,0,.6,0,.9.1"/>
  <path class="st37" d="M38.2,36.5h-.1c-.4,0-1.1.1-1.1-.4,0-.6.7-.2,1-.3.1,0,.2,0,.4,0,.6,0,.7-.2.3-.7-.8-1.2-1.2-2.7-1.9-4,0-.2-.3-.5,0-.6.3-.1.4.1.5.4.4.9.8,1.7,1.2,2.6.2.4.3.9.7,1.2.4.4.2.9.2,1.4,0,.3-.2.4-.5.4h-.7"/>
  <path class="st60" d="M32.2,26.6c.3.1,1-.3,1,.3,0,.7-.7.4-1,.4-1.2,0-2.3.4-3,1.4,0,0,0,.1-.1.2-.1.2-.3.2-.5,0-.2-.1-.2-.3,0-.5.4-.6.9-1.1,1.6-1.4.7-.3,1.3-.5,2.2-.4"/>
  <path class="st52" d="M33.2,38.4c1.7.5,3.5.5,5.2.3-1.2,1-4.1.8-5.2-.3"/>
  <path class="st51" d="M39.2,25.4c.2,0,.4,0,.7.1.3.1.8.2.6.7-.2.4-.5.1-.8,0-.6-.2-1.2,0-1.7.3-.2.1-.5.2-.6,0-.2-.3,0-.4.3-.5.5-.3,1-.4,1.6-.5"/>
  <path class="st69" d="M32.5,31.5c0,.3-.2.5-.5.5-.3,0-.5-.2-.5-.5,0-.4.2-.6.6-.6.3,0,.5.3.5.6"/>
  <path class="st44" d="M40,30.7c0,.4-.2.6-.6.5-.4,0-.6-.3-.5-.6,0-.3.3-.5.6-.4.3,0,.4.3.5.5"/>
  <path class="st12" d="M19.2,70c-1.2-.6-1.6-2.2-.7-3.1.8-.9,1.8-1.2,3-1.3.5,0,.9.2,1.2.6-2.1.3-3.2,1.5-3.4,3.8"/>
  <path class="st10" d="M86.5,52.8c-.8,1.1-2,1.4-3.2,1.9-.5.2-.9-.2-1.3-.5-.5-.4-1-.8-1.6-1-.7-.2-1.4-.3-2.1,0-.3.1-.6.3-.8,0-.2-.4.2-.6.4-.8.9-.6,1.9-.5,2.9-.2.5.2,1.1.4,1.5.8.7.7,1.4.6,2.1,0,.7-.5,1.4-.6,2.1-.3h0Z"/>
  <path class="st54" d="M27.6,46.2c1.5,1,2.8,1.9,4.1,3-1.6,0-3.6-1.3-4.1-3"/>
  <path class="st55" d="M89.4,110.9c4.1,0,7.7.6,11.2,1.8,2.7,1,5.2,2.4,7.1,4.7,1.8,2,2.3,5.2.8,7.8-1.1,1.8-2.6,3.1-4.3,4.1-2.9,1.7-6.1,2.7-9.5,3.1-1.8.2-3.6.5-5.3.4-4.4-.2-8.7-.8-12.7-2.8-2.6-1.3-4.8-2.9-6.1-5.6-1-2-.7-4,.4-5.9,1.4-2.4,3.6-3.8,6-4.9,2.9-1.4,5.9-2.1,9.1-2.4,1.3-.1,2.6-.2,3.4-.2"/>
  <path class="st30" d="M154.7,140.1c1.3-.5,2.1-1.5,3-2.5.6-.7,1.1-1.4,1.6-2.1,2-.2,4,.3,5.9.2,2.3-.1,4.6-.3,7-.6,1.2-.2,2.4-.3,3.6-.6.8,1.1,1.6,2.2,2.4,3.3.7,1,1.7,1.8,2.8,2.3,1.2.6,2.5.6,3.7.1.6-.2.9-.2,1.3.4.7,1,1,2.1.9,3.3-2.4,0-4.8,0-7.1-.4-1.4-.2-2.8-.3-4.3-.3-3.1,0-6.3,0-9.4,0-2.7,0-5.5.1-8.2.4-.6,0-1.2,0-1.8,0-1.8.2-3.6,0-5.4.5-.4,0-.8.2-1.2.2-.5-1.3-.1-2.6.4-3.8.2-.4.5-.6,1-.4.3.1.6.2.9.3,1.1.5,2.1-.2,3.1-.5"/>
  <path class="st0" d="M150,135.3c-.6,1.3-.9,2.6-.5,4.1-.7.4-.7,1.3-1.1,1.9-.5-.7-.7-1.5-1.4-1.9.7-1.4.3-2.7-.3-4,1.1,0,2.2,0,3.3,0"/>
  <path class="st9" d="M.8,120c-2.1,0-4.1,0-6.2,0,.4-1.2,1.3-1.6,2.5-1.6.8,0,.8,0,.9-.9,1.2-.8,2.6-.3,4-.4.5,0,1.1,0,1.5.4.1.9.1.9,1.1.9s2.1.4,2.5,1.6c-2.1,0-4.1,0-6.2,0"/>
  <path class="st30" d="M34.1,125.5c.2.2.4.3.6.2,1.3-.4,2.7-.1,4-.2.4,4.4.2,8.8.2,13.1,0,2.4.4,4.8.2,7.3-.5,0-1,0-1.6,0-.8-1.1-1.8-1.9-2.9-2.6-1.2-.8-1.8-1.8-1.8-3.4,0-2.6.2-5.2.3-7.9.2-2.2.4-4.4.9-6.6"/>
  <path class="st12" d="M101.4,121.7c0,.4,0,.8,0,1.1-.3,2.1-1.8,3.5-3.9,3.6s-3.7-1.1-4.2-3.2c-.2-.9-.2-1.9,0-2.8.5-2.1,2-3.2,4.2-3.2,2,0,3.5,1.3,3.9,3.4,0,.4,0,.8,0,1.2"/>
  <path class="st12" d="M80,121.7c0,.4,0,.8.2,1.2.5,1.5,1.7,1.9,3,1.2.2-.1.5-.6.8-.2.3.3.7.6.8,1,0,.3-.2.5-.5.6-1.8,1.4-4.8.8-5.9-1.2-1-1.8-.9-3.7.2-5.5,1.2-1.9,3.8-2.3,5.6-1.1.4.3.6.5.2,1-.6.7-.6.7-1.4.4-1.1-.5-2.1-.1-2.6.9-.3.5-.4,1-.3,1.6"/>
  <path class="st12" d="M89.8,125.6c-.5.3-1,.6-1.6.7-1,.2-1.9-.3-2.2-1.2-.4-1-.1-1.9.7-2.5.7-.5,1.4-.7,2.2-.8.2,0,.6,0,.6-.4,0-.3-.3-.5-.6-.5-.5,0-.9,0-1.4.2-.8.3-.8.3-1.2-.5,0-.2-.2-.3-.2-.6,1-.7,2-.9,3.2-.9,1.4,0,2.3.8,2.4,2.3.1,1.4,0,2.9,0,4.3s0,.4-.3.4c-.6,0-1.4.3-1.7-.6"/>
  <path class="st32" d="M95.4,121.8c0-.6,0-1.2.3-1.7.3-.7.8-1.1,1.6-1.1.8,0,1.4.4,1.7,1.1.5,1.1.4,2.3,0,3.4-.3.7-.9,1.1-1.6,1-.7,0-1.2-.4-1.5-1-.3-.6-.4-1.1-.4-1.7"/>
  <path class="st68" d="M89.5,123.1c.2,1.1-.1,1.6-.9,1.5-.3,0-.6,0-.6-.4,0-.3,0-.6.3-.7.4-.3.8-.4,1.3-.4"/>
  <path class="st0" d="M134.7,136s10-1.1,15.3-.6c5.3.4,15.4.2,17.4.2s-5.7,8-9.7,8.2c-4,.2-8.8.3-16.8,2.3s-9.8-7-8.5-8.4,2.3-1.7,2.3-1.7"/>
  <path class="st41" d="M128.2,132.3s2.5,4,4.5,3.9,12.2-.4,15.8-.5,12.8.2,14.4.2,1.5-5.3-.6-5.2c-2.2,0-5.8.2-10.2.2s-8.9.4-10.2.1-6.2-1.1-9-.4-4.5,1.6-4.5,1.6"/>
  <path class="st41" d="M142.6,146.8c2.5-1.8,5.9-3.2,8.6-2.5s3.1,3.9-.4,3.9-7.8,1-8.1-.5-.1-.9-.1-.9"/>
  <path class="st30" d="M133.1,121.8s46.1-2.5,51.9-1.6,8,4.4,2,5.8-13.4,3.4-13.4,3.4c0,0-10,1.6-13.1,1.4s-20-.6-23.4-2.5-7.1-6.4-4-6.4"/>
  <path class="st20" d="M129.3,122.1s50.4-3.1,59.1-1.6,8.4-8.9,1.5-8-21.5,1.9-25.4,1.9-22-2.5-22-2.5l-10.9,2.2-2.4,8h0Z"/>
  <path class="st57" d="M147,126.2c-.3-.4-.8-.9-.4-1.3.5-.4.9.2,1.3.5.3.2.5.5.7.8,0,.3.2.7-.1.9-.3.2-.6,0-.9-.2-.2-.2-.4-.4-.7-.7"/>
  <path class="st18" d="M159.5,128.8c0,0,0,.2,0,.4,0,.3-.2.4-.5.2-.6-.3-1.2-1.9-.9-2.6.1-.4.4-.3.7,0,.4.4.8,1.2.8,2"/>
  <path class="st16" d="M138.6,124.6c-.8,0-1.4-.1-1.9-.6-.4-.3-.3-.7.1-.8.5-.2,2.1.3,2.4.8.1.2.1.5-.2.6-.2,0-.4,0-.4,0"/>
  <path class="st48" d="M152.3,114.3v.4c0,.5,0,1.1-.6,1.1-.5,0-.6-.7-.6-1.2,0-.4,0-.8,0-1.2,0-.3.1-.6.5-.6.4,0,.4.3.6.5.1.3.1.7.1.9"/>
  <path class="st16" d="M140.4,111.1c0,.3,0,.6-.3.7-.3.1-.4,0-.6-.2-.5-.6-.8-1.3-.8-2.1,0-.2,0-.4.3-.5.2,0,.3,0,.4.2.6.5.8,1.2,1,1.9"/>
  <path class="st56" d="M126.8,119.3c0-.4.2-.6.6-.4.8.4,1.3,1,1.6,1.8,0,.2,0,.4-.1.6-.2.2-.4,0-.5,0-.8-.4-1.3-1.1-1.5-1.9"/>
  <path class="st35" d="M134.2,112.3c0-.1,0-.2,0-.3,0-.3.1-.6.4-.6.3,0,.4.2.5.4s.1.2.2.3c0,.6,0,1.1,0,1.7,0,.2-.1.5-.4.5-.3,0-.4-.2-.5-.4-.3-.5-.3-1-.3-1.5"/>
  <path class="st31" d="M127.3,96.5c.2-.8.5-1.4,1.1-1.9.1-.1.3-.3.5-.1.2.1.3.4.2.6-.2.7-.4,1.4-1,1.9-.2.2-.4.3-.6.2-.3-.1-.2-.4-.2-.6"/>
  <path class="st47" d="M110.8,86.9c.7,0,1.8,1.3,1.8,2s0,.4-.3.4c-.7,0-2-1.3-1.9-2,0-.2.2-.4.4-.4"/>
  <path class="st1" d="M126.3,100.5c.7.5,1.2,1.1,1.4,1.9,0,.2.2.6-.1.7-.2.1-.5,0-.6-.2-.2-.2-.4-.4-.6-.6-.1-.3-.4-.7-.4-1.1-.1-.4-.2-.8.4-.9"/>
  <path class="st49" d="M118.4,96.8c-.4-.1-1,.1-1.1-.4,0-.6.5-.6.9-.7.4-.2.8-.1,1.2-.1.4,0,.8,0,.8.5,0,.4-.4.5-.8.6-.3,0-.7.1-1,.2"/>
  <path class="st21" d="M123.5,90.7c0,.2,0,.4,0,.6,0,.4-.3.5-.6.2-.7-.6-.9-1.5-.8-2.4,0-.4.4-.5.7-.2.6.5.7,1.2.8,1.9"/>
  <path class="st21" d="M116.4,103.2c-.3,0-.6,0-.7-.3-.1-.4.2-.6.5-.7.5-.3,1-.5,1.6-.5.3,0,.7,0,.8.3,0,.3-.2.5-.4.6-.5.3-1.1.5-1.7.5"/>
  <path class="st64" d="M123.8,103.9c.3.3.8.6,1.1,1,.1.2.3.4.1.6-.2.2-.4.2-.7.1-.8-.2-1.5-.7-1.9-1.5,0-.4.3-.5.6-.4.3,0,.5.1.8.2"/>
  <path class="st28" d="M88.8,64c-.2,0-.3,0-.4,0-.4,0-.8-.1-.8-.5,0-.3.4-.5.7-.6.6-.2,1.1-.4,1.8-.2.2,0,.5.2.5.4s-.2.5-.4.5c-.4.2-.9.4-1.3.3"/>
  <path class="st28" d="M102.4,86.8c-.6-.1-1.2-.3-1.7-.7-.2-.1-.3-.3-.3-.5,0-.3.3-.4.5-.4.7,0,1.3.2,1.9.5.2.1.5.3.4.7-.1.4-.5.4-.8.4"/>
  <path class="st67" d="M104,73.9c-.1,0-.2-.1-.3-.2-.6-.6-.9-1.3-1-2.1,0-.2,0-.4.3-.5.2-.1.4,0,.5.2.6.5.8,1.2,1,2,0,.3-.1.5-.4.6"/>
  <path class="st26" d="M97,64.8c-.2,0-.3,0-.5,0-.3-.1-.4-.3-.2-.6.5-.6,1.8-1,2.5-.7.3.1.4.5,0,.8-.6.4-1.2.6-1.9.7"/>
  <path class="st66" d="M95.8,68.1c0,.4-.3.6-.7.4-.7-.5-1.1-1.1-1.3-1.9,0-.2,0-.4.1-.5.2-.1.4,0,.6,0,.8.5,1.1,1.2,1.3,2"/>
  <path class="st50" d="M100.5,81.4c0,.2-.2.3-.4.3-.7,0-2-.9-2.1-1.6,0-.3,0-.6.4-.5.6,0,1.8.9,2,1.5,0,0,0,.2,0,.2"/>
  <path class="st67" d="M116.3,76.6c0,.4,0,1-.5,1.2-.3.1-.7-.5-.7-1.3,0-.4,0-.8.1-1.2,0-.2.2-.5.5-.5.3,0,.4.2.5.4.1.3.2.5.2,1.3"/>
  <path class="st33" d="M93,83c0,.4-.2.6-.6.4-.7-.4-1.3-1-1.6-1.8-.1-.4,0-.7.4-.6.7.2,1.7,1.3,1.7,2"/>
  <path class="st7" d="M91.1,70.5h-.4c-.2,0-.4,0-.4-.3,0-.2,0-.3.2-.4.7-.5,1.4-.8,2.2-.7.2,0,.4,0,.5.3.1.3,0,.4-.3.6-.5.4-1.1.6-1.8.6"/>
  <path class="st50" d="M86.9,65.7c.6,0,1.9.9,2.1,1.5.1.3,0,.5-.3.5-.7,0-2-.8-2.2-1.4,0-.3,0-.5.4-.5"/>
  <path class="st15" d="M99.4,75.3c0,.2.1.8-.4.9-.6,0-.6-.5-.7-.9,0-.5,0-.9,0-1.4,0-.2.2-.4.3-.4.3,0,.4.1.6.3.2.4.3.9.3,1.5"/>
  <path class="st42" d="M136.5,119.3c0,.3-.2.4-.5.4-.9-.2-1.6-.7-2-1.5-.1-.2-.1-.5.2-.6.6-.2,2.3,1,2.3,1.7"/>
  <path class="st3" d="M154.7,140.1c-.6.8-1.5,1.1-2.5,1-.3,0-.5-.2-.6-.5.4-.5,1-.8,1.6-.9.5-.1,1.1-.3,1.5.4"/>
  <path class="st16" d="M127,108.5c-.1,0-.3,0-.4,0-.4,0-.4-.3-.2-.6.4-.5,1.8-.9,2.4-.8.4.1.5.4.2.7-.5.5-1.2.7-2,.7"/>
  <path class="st45" d="M134.6,101.2c.2,0,.5,0,.6.3.1.3,0,.4-.3.6-.6.4-1.3.6-2,.6-.3,0-.5,0-.6-.3-.1-.3.1-.5.4-.7.6-.4,1.2-.5,1.9-.5"/>
  <path class="st62" d="M-9.8,128s20.5-.4,24.8-1.9-2.8-10.8-2.8-10.8l-14.8-6-9,6.5s1.7,12.2,1.7,12.2Z"/>
  <path class="st30" d="M-13.5,128.4s27.8-3.8,30.5-2-6.2,16.5-6.2,16.5c0,0-16.8,4.8-18,4.5s-10.2-8.8-10.2-8.8c0,0,4-10.2,4-10.2Z"/>
  <path class="st13" d="M52.1,83.7c.5-.6.6-1.3.6-2,0-2.2-.2-4.4-.7-6.5-1.1-4.8-2-9.7-2.5-14.6-.2-1.7-.2-1.7,1.5-1.3,2.7.7,5.3,1.6,7.7,3,1.7,1,3.4,1.2,5.3.4.7-.3,1.4-.5,2.2-.7,3-.9,5.9-2,8.8-3.1.7-.3,1.4-.6,1.5-1.5-.2-1-1.1-.8-1.7-1-1.5-.3-1.7-.5-2.1-2-.2-.7-.2-1.3,0-2,.1-1.2.6-2.2.6-3.4-.5-.8-1.2-.5-1.8-.3-3.3.8-6.7,1.5-10,2.4-1.1.3-2,0-2.9-.5-3.4-2-6.1-4.9-9.4-7-2.1-1.3-4.1-1.5-6.3-.6-.4.3-.6.6-.8,1-1,1.6-1.5,3.5-2.5,5.2,0,.1,0,.2,0,.4,0,.2,0,.5,0,.7,0,1.7-.3,3-1.9,3.9-.3.2-.6.4-.8.7-.3.7-1,.9-1.7.8-.8-.2-.5-.9-.5-1.4-.1-.7-.3-1.4-1-1.8-.5,0-.5.5-.6.9-.2.5-.4,1-1,1.3-1.3-.3-2.7-.2-4.1-.5-.6-.2-1.2-.5-1.4-1.2-.2-.8-.7-1.3-1.3-1.8-1-1-1-1.2,0-2.3.7-.7.8-1.4.2-2.2-.2-.2-.3-.5-.5-.8,0,0-.2,0-.3,0-13.5,4.7-13.1,16-13.1,16l-1.8,1c.3,0,.5-.2.8-.3,1.2-.5,1.3-.4,1.2.8,0,2.2.2,4.3,1,6.3.9,2.3,2.3,4.1,5,4.5.4,0,.7,0,1.1.2.3,0,.6,0,.9,0,.8-.2,1-.7.7-1.4-.2-.7-.4-1.4-.6-2-.2-.5-.7-.6-1.1-.9-1-.8-1.1-2.4-.2-3.2,1.2-.9,2.5-2.3,4-2.2,1.2,0,1.2,2.2,1.7,2.9,1,.8,2.2.8,3.2.4,1.8-.8,3.2-.1,4.7.7.1,0,.3.2.4.2.6.3,1.2.6,1.5,1.3.2.8-.9.5-.8,1.1,0,.2.3.4.5.6,1,.6,2,.9,3.1,1.2.7.2,1.3.4,1.2,1.3-.2,1-1,.7-1.5.6-1.2-.2-2.3-.1-3.5-.4-.3,0-.8-.2-1,0-.3.3,0,.6.2.9.5,1,.2,1.7-.8,2.1-.3.1-.7.2-1,.5-1.3,1.7-3.2,1.6-5,1.3-.4,0-.8-.3-1.1,0-.5,1.4-.7,2.8-.9,4.3-.1.8.2,1.6,1,1.9,1.4.4,2.9.5,4.4.5,5.6,0,11.2,0,16.7-.8,2.4-.3,4.9-.4,7-1.8"/>
</svg>