<?xml version="1.0" encoding="UTF-8"?>
<svg id="_圖層_2" xmlns="http://www.w3.org/2000/svg" version="1.1" viewBox="0 0 69.5 99.5">
  <!-- Generator: Adobe Illustrator 30.0.0, SVG Export Plug-In . SVG Version: 2.1.1 Build 123)  -->
  <defs>
    <style>
      .st0 {
        fill: #e6f9f2;
      }

      .st1 {
        fill: #e9ac29;
      }

      .st2 {
        fill: #e1e2b4;
      }

      .st3 {
        fill: #ebe9e5;
      }

      .st4 {
        fill: #f19d17;
      }
    </style>
  </defs>
  <g id="Layer_1">
    <path class="st3" d="M5.3,28.3c-.4-3-.7-6.1-1.3-9.1,0-.7-1-1.4-1.6-2-1.6-1.3-2.4-3-2.4-5,0-2.9,2.7-4.8,5.8-4.2,1.2.2,1.9,0,2.2-1.2.4-1.5.4-3.4,2-4.1,1.9-.9,4-1.4,6.1-1.7,2.2-.3,4.3.3,6,1.8.9.8,1.6.8,2.6,0,2.8-2.1,6-2.4,9.4-1.5,1.2.3,2.1.8,2.8,1.9.4.7,1.1,1.2,1.7,1.8,1.9-.7,3.7-1.5,5.5-2.1,3.3-1.1,6.1,0,8.3,2.6.9,1.1,2.1,2.2,3.3,2.9,2.4,1.4,3.6,3.4,4,5.9,0,1-.3,2.6-1.1,3-3.1,1.9-4,4.8-4.8,8.1-3.2,0-5.9-.2-8.7-.3-.5,0-1.1.6-1.3,1-.3.7,0,1.4.9,1.7-.2,2.1-.3,3.9-.5,6.1h3.1c.9,0,1.8,0,2.1,1h-.7c-.6,0-1-.2-1.3,0-2.1,0-4.5-.6-6.2,1.3-.2.2-1.2,0-1.7-.2-.5-.3-.9-.8-1.3-1.4.2-.5.5-.9.4-1.2-.2-1.6-.2-3.4-1-4.7-.4-.6-2.3-.5-3.5-.5H5.3"/>
    <path class="st0" d="M5.3,28.4c9.6-.2,19.2-.3,28.8-.2,1.2,0,3.1,0,3.5.6.8,1.4.8,3.2,1,4.8,0,.3-.2.7-.7,1.2-7.8.2-15.3.2-22.8.2s-1.9,0-3-.3c-.9-.8-1.7-.8-2.2.4,0,0-.3.2-.5.3-.5,2.2-1.1,4.3.1,6.6v44.9c0,1.1.2,2.3.4,3.6.3.2.5.3.9.3,4.3,1.4,8.5,2.9,12.9,3.3,1.9.2,3.7,0,5.8.2h3.7c.5,0,.9.2,1.5.2,1.4,0,2.7.6,3.8-.6h.5c1.4.2,2.4,0,3.3-1.1h.9c.5-.2.8-.3,1.3-.6h.8c.3-.2.5-.3.7-.6,0,0,0-.3.2-.3h.9c.2,0,.3-.2.4-.4,0,0,0-.3,0-.3.3,0,.4-.3.5-.4h.2c.4,0,.6,0,.9-.2.2-1.1,0-2.1,0-3.3,0-7.9,0-15.5,0-23.1v-28.6c-.5-.9-1.3-1.1-2.2-1h-3.1c.2-2.2.3-4.1.7-6.2,3.1-.3,6-.3,8.9-.3,0,1,0,2,.2,3.1,4.9.3,9.7.5,14.8.8.3,6.3,0,19.4.2,26-.9-.6-1.3-.8-1.7-1.1-.8-.8-1.8-8.5-2.3-9.5-.8-1.3-1.6-2.8-1.9-4.3-.1-5.5-.5-4.5-5.2-4.6h-3.3v36.2h6.3c1.5,0,2-.9,2.2-2.8.2-2,.5-4.1.9-6.1.6-2.7-1.8-23.8-.3-27.1,0,.2,5.2.8,5.2,1,.2,4.3.6,31.6.5,35.9,0,4.9-.7,5.6-5.6,5.6h-9.3c0,1.2-.2,2.1-.2,3v8.6c0,1.3-.3,2.4-1.5,2.9-1.9.8-3.7,1.7-5.7,2.2-3.1.8-6.2,1.5-9.4,2-2,.3-4.1,0-6.2.2-7.6.4-15-1.1-22.2-3.4-1-.3-2-.9-2.8-1.5-.9-.6-1.5-1.5-1.4-2.8V28.4h.6Z"/>
    <path class="st2" d="M53.9,27.3c-2.9.2-5.8.3-8.9.3-1.2-.1-1.5-.8-1.2-1.5.2-.5.9-1.1,1.3-1.1,2.8,0,5.5.2,8.5.4.2.6.2,1.1.2,1.9h.1Z"/>
    <path class="st4" d="M49.5,53.5v33.5c0,1.2-.2,1.9-.5,2.7-.3.2-.5.4-.6.6h0c-.3.2-.4.3-.6.5v.3c0,.1-.3.3-.3.3h-1c-.6-.9-1-1.7-1.1-2.6,0-1.9,0-3.8,0-5.6s-.4-2-.6-2.9c-1.4.2-2,.6-2.1,1.7,0,2.6-.4,5.2-.5,7.7,0,1.3,0,2.4-1.2,3.5-.6.2-1.1.3-1.6.2-.4,0-.7.2-1.2.4-1.2,0-2.1.2-3.1,0-.6,0-1,0-1.5.3-1.1,0-2.2,0-3.6,0-3.5-.7-6.7-1.2-9.8-1.7-2.1-.3-2.1-.4-2.2-2.6-.2-3.3-.4-6.6-.6-9.9,0-.3-.3-.6-.4-.9q-2.1,1.5-2.2,3.4c-.1,2.6-.3,5.3-.5,8-.9,0-2.1-.2-3.2-.6,0-18.4,0-36.5.1-54.8.6-.2,1-.2,1.4-.3,1,0,1.9.2,2.9.2h22.7c.7.4,1.1,1,1.6,1.2s1.4.4,1.7.2c1.8-2,4.1-1.2,6.2-1.4.3,0,.7,0,1.4.2.4.3.5.4.7.4v3.2c-.2,4.8-.3,9.2-.3,13.7s.3.6.4.9M15.5,48.3c-.1,0-.3.3-.3.4-1.2,5.1-.7,10.3,0,15.4,0,.4.6.7,1,1.1.5-5.6.5-10.9.4-16.3,0-.2-.4-.5-1.1-.6M44.7,55.9c-.3-2.5.7-5.2-1-7.9-1.7,4.7-1.6,14.3.3,17.4.3-1.4.6-2.5.7-3.6,0-1.8,0-3.6,0-5.9h0Z"/>
    <path class="st1" d="M49.6,35.5c-.2,0-.3,0-.5-.2,0,0,0-.2.4-.2s0,.2,0,.4h0Z"/>
    <path class="st1" d="M10.7,35.2v54.7q0,.3-.2.3h-.4c-.1-1.1-.4-2.3-.4-3.4v-51.6h1Z"/>
    <path class="st1" d="M10.8,90.1c1.1,0,2.3.2,3.2.4.2-2.8.3-5.4.5-8,.1-1.9,0-1.9,2.2-3.4.2.3.4.6.4.9.2,3.3.4,6.6.6,9.9.1,2.1,0,2.2,2.2,2.6,3.2.5,6.3.9,9.6,1.6-1.8,0-3.6.2-5.5,0-4.4-.4-8.6-1.9-12.9-3.5-.2,0-.4-.3-.4-.3h0v-.2Z"/>
    <path class="st1" d="M41,92.9c1-.9,1-2.1,1.1-3.3,0-2.6.4-5.2.5-7.7,0-1.1.7-1.6,2.1-1.7.2,1,.6,1.9.6,2.9v5.6c0,.8.5,1.6.9,2.6.2,0,.2.3,0,.5-.3.3-.5.4-.7.6h-.8c-.6.2-1,.4-1.3.6h-.9c-.7,0-1.1,0-1.5,0h0v-.2Z"/>
    <path class="st1" d="M49.6,53.2c-.2,0-.5-.4-.5-.7,0-4.4,0-8.8.3-13.5.2,4.5.2,9.2.2,14.1h0Z"/>
    <path class="st3" d="M9.6,35.3c.2,1.9.2,3.9.1,6.1-1.2-1.8-.7-3.9-.1-6.1Z"/>
    <path class="st3" d="M10.9,35.1c-.3,0-.4,0-.6,0,.3-1.2,1.1-1.1,2-.4-.3.2-.8.3-1.4.5Z"/>
    <path class="st3" d="M40.8,93.1c.5,0,.9-.2,1.5-.2-.6,1-1.6,1.2-3,.9-.2-.2,0-.4,0-.4.5,0,.9-.2,1.5-.3h0Z"/>
    <path class="st3" d="M35,94c.9,0,1.9,0,3.2,0,.4,0,.5,0,.6,0-1,1.1-2.3.4-3.7.4-.2-.2,0-.4,0-.4h0Z"/>
    <path class="st3" d="M49.3,89.7c0-.7.2-1.5.4-2.4,0,.8,0,1.8,0,2.7-.2,0-.3-.2-.3-.3h-.1Z"/>
    <path class="st1" d="M34.9,93.8v.5h-1.3c.3-.2.8-.4,1.4-.4h-.1Z"/>
    <path class="st1" d="M38.9,93.9c-.2,0-.3,0-.5-.2.2-.2.5-.4.9-.4v.5c0,.2-.2,0-.3,0h-.1Z"/>
    <path class="st1" d="M49.2,89.7c.2,0,.2,0,.3.4-.2.2-.4.2-.7.3,0-.2.2-.4.5-.6h0Z"/>
    <path class="st3" d="M43.6,92.8c0-.2.5-.4,1-.5,0,.2-.5.4-1,.5Z"/>
    <path class="st1" d="M48,90.7c0-.2.2-.3.5-.4,0,.2-.2.3-.5.4Z"/>
    <path class="st3" d="M47.5,91.4s0-.3.3-.3c0,0,0,.2-.3.3Z"/>
    <path class="st3" d="M45.7,92.3c0,0,.2-.3.5-.4,0,0-.2.3-.5.4Z"/>
    <path class="st3" d="M10.6,90.2c.1,0,.3.2.3.4-.1,0-.4,0-.6-.2,0-.2.1-.2.3,0h0Z"/>
    <path class="st1" d="M15.7,48.3c.5.2.9.4.9.7,0,5.3,0,10.7-.4,16.3-.4-.4-.9-.7-1-1.1-.7-5.1-1.2-10.3,0-15.4,0-.2.2-.3.5-.5h0Z"/>
    <path class="st1" d="M44.7,56.2v5.6c0,1.1-.4,2.2-.7,3.6-1.9-3-2-12.7-.3-17.4,1.7,2.6.7,5.4,1,8.1h0Z"/>
  </g>
</svg>