<?xml version="1.0" encoding="UTF-8"?>
<svg id="_圖層_2" data-name="圖層 2" xmlns="http://www.w3.org/2000/svg" viewBox="0 0 69.53 99.49">
  <defs>
    <style>
      .cls-1 {
        fill: #e6f9f2;
      }

      .cls-2 {
        fill: #e9ac29;
      }

      .cls-3 {
        fill: #e1e2b4;
      }

      .cls-4 {
        fill: #ebe9e5;
      }

      .cls-5 {
        fill: #f19d17;
      }
    </style>
  </defs>
  <g id="Layer_1" data-name="Layer 1">
    <path class="cls-4" d="M5.31,28.1c-.4-3.09-.72-6.2-1.27-9.27-.14-.75-.98-1.43-1.63-2.01C.83,15.43-.05,13.63,0,11.62c.07-2.99,2.73-4.88,5.84-4.27,1.24.24,1.86,0,2.16-1.24.37-1.55.41-3.5,1.97-4.24,1.9-.9,4.04-1.46,6.13-1.78,2.19-.34,4.29.34,5.97,1.88.89.82,1.63.84,2.59.1C27.5-.13,30.68-.43,34.06.55c1.17.34,2.13.81,2.78,1.92.39.67,1.07,1.18,1.72,1.86,1.87-.75,3.65-1.55,5.49-2.17,3.33-1.12,6.1-.09,8.27,2.68.91,1.17,2.07,2.26,3.34,3.01,2.37,1.4,3.63,3.48,3.98,6.03.13.99-.33,2.63-1.08,3.09-3.13,1.93-3.95,4.91-4.77,8.29-3.15-.05-5.91-.25-8.68-.29-.45,0-1.1.6-1.31,1.07-.34.76-.01,1.41.93,1.78-.15,2.12-.31,4-.49,6.23,1.23,0,2.17.02,3.11,0,.93-.02,1.77.09,2.1,1.05-.23.04-.32.07-.66.04-.6-.09-.95-.16-1.31-.13-2.14.15-4.46-.6-6.25,1.38-.23.25-1.17.06-1.66-.19-.53-.27-.91-.83-1.31-1.47.17-.54.45-.89.4-1.2-.25-1.65-.25-3.47-1.03-4.84-.37-.65-2.28-.55-3.5-.56-9.61-.04-19.23-.02-28.84-.03"/>
    <path class="cls-1" d="M5.31,28.36c9.62-.25,19.23-.27,28.84-.23,1.22,0,3.13-.09,3.5.56.78,1.37.78,3.19,1.03,4.84.05.31-.23.67-.65,1.22-7.79.22-15.28.22-22.78.21-.97,0-1.95-.13-2.99-.35-.92-.76-1.66-.85-2.19.4-.07.09-.28.16-.48.28-.52,2.21-1.05,4.32.15,6.6.04,15.12.04,30,.06,44.88,0,1.14.24,2.29.45,3.58.29.21.49.28.89.34,4.34,1.44,8.49,2.91,12.89,3.34,1.85.18,3.72.09,5.81.21,1.32.02,2.43-.04,3.69-.01.52.13.89.16,1.49.24,1.42-.06,2.73.6,3.84-.55.09-.04.28-.02.49.02,1.38.17,2.44-.03,3.34-1.08.3-.06.49-.04.87,0,.52-.15.85-.32,1.29-.56.3-.04.47-.02.82,0,.33-.15.49-.3.68-.56.02-.12.07-.35.24-.34.4,0,.62-.02.91.06.17-.04.28-.16.38-.39-.01-.1-.04-.31.12-.31.3-.14.44-.28.55-.44-.03-.02,0,.04.16.05.36-.04.57-.09.94-.24.15-1.08.13-2.06.05-3.3-.07-7.87-.09-15.48-.11-23.1-.01-3.4-.06-6.8-.03-10.45.03-4.93,0-9.62,0-14.53.02-1.16-.02-2.1,0-3.17.04-.24.04-.34.04-.44-.47-.94-1.32-1.06-2.25-1.03-.94.02-1.89,0-3.11,0,.18-2.23.33-4.11.74-6.24,3.12-.27,6-.3,8.87-.33.06.97.13,1.95.21,3.08,4.9.27,9.7.54,14.82.83.33,6.27.1,12.39.16,19.01-.88-.56-1.34-.76-1.68-1.09-.83-.79-1.78-1.54-2.34-2.5-.8-1.35-1.56-2.83-1.86-4.35-1.1-5.48-.51-4.55-5.21-4.63-1.05-.02-2.1,0-3.32,0v36.17c2.18,0,4.22.08,6.26-.03,1.55-.09,2.04-.93,2.23-2.79.22-2.03.49-4.07.93-6.07.59-2.73,1.57-3.45,4.64-3.81.1.22.28.45.3.69.21,4.29.61,8.59.54,12.88-.08,4.88-.74,5.61-5.63,5.62-3.03,0-6.06,0-9.27,0-.07,1.22-.15,2.09-.16,2.97-.02,2.88-.05,5.76.01,8.63.03,1.3-.31,2.36-1.52,2.9-1.86.82-3.73,1.71-5.68,2.23-3.1.83-6.25,1.51-9.41,1.99-2.03.31-4.13.08-6.19.2-7.63.43-14.96-1.12-22.17-3.4-1.01-.32-1.96-.91-2.84-1.52-.92-.63-1.5-1.53-1.37-2.75.05-.44,0-.9,0-1.35,0-20.6,0-41.2,0-62.05Z"/>
    <path class="cls-3" d="M53.86,27.28c-2.88.23-5.75.26-8.87.3-1.2-.13-1.52-.78-1.18-1.53.22-.48.87-1.08,1.31-1.07,2.77.05,5.53.25,8.51.43.22.58.23,1.13.23,1.88Z"/>
    <path class="cls-5" d="M49.5,53.48c.03,3.4.08,6.8.1,10.21.03,7.62.04,15.23.05,23.31-.12,1.2-.23,1.93-.47,2.69-.29.23-.45.43-.61.63,0,0-.03-.06-.13-.07-.26.15-.42.31-.58.46,0,0,.03.21-.09.33-.12.12-.32.29-.32.29-.23.01-.45.02-1.04-.08-.61-.93-1.04-1.73-1.09-2.56-.11-1.88.03-3.77-.07-5.64-.05-.99-.41-1.96-.62-2.92-1.41.16-2,.62-2.06,1.73-.14,2.58-.42,5.15-.51,7.73-.05,1.26-.03,2.45-1.21,3.47-.6.19-1.06.27-1.6.23-.39.05-.7.2-1.22.45-1.15.14-2.09.18-3.11.1-.57.01-1.05.14-1.53.28-1.1.06-2.2.12-3.63-.06-3.49-.71-6.66-1.15-9.81-1.66-2.12-.35-2.11-.44-2.21-2.57-.16-3.31-.36-6.62-.58-9.92-.02-.3-.27-.58-.43-.89-2.14,1.5-2.12,1.5-2.23,3.45-.15,2.63-.32,5.26-.49,8.02-.92-.11-2.05-.25-3.21-.64-.05-18.39-.06-36.54.12-54.75.61-.16,1.02-.25,1.43-.35.97.07,1.95.2,2.92.21,7.5.02,14.99.01,22.74,0,.7.42,1.08.98,1.6,1.25.48.24,1.43.44,1.66.19,1.79-1.98,4.11-1.23,6.25-1.38.35-.02.71.04,1.36.24.38.3.51.39.66.43.03.93.06,1.87-.1,3.19-.25,4.82-.31,9.25-.34,13.68,0,.31.27.62.42.94M15.46,48.31c-.11.14-.27.26-.31.42-1.21,5.13-.69,10.27-.03,15.4.05.4.65.73,1,1.1.46-5.6.47-10.94.43-16.29,0-.24-.43-.48-1.09-.63M44.73,55.93c-.32-2.51.73-5.23-1.01-7.87-1.72,4.7-1.61,14.34.29,17.36.28-1.4.62-2.49.69-3.59.11-1.78.03-3.57.03-5.89Z"/>
    <path class="cls-2" d="M49.57,35.52c-.2.1-.32,0-.46-.23.04-.13.13-.16.36-.2.14.09.14.19.1.43Z"/>
    <path class="cls-2" d="M10.7,35.15c.02,18.15.03,36.3.06,54.72,0,.27-.04.33-.18.31-.22-.01-.31,0-.41,0-.13-1.14-.37-2.29-.37-3.43-.03-14.88-.02-29.75-.02-45.12,0-2.49,0-4.47,0-6.46,0,0,.21-.08.42-.1.3.01.4.05.49.09Z"/>
    <path class="cls-2" d="M10.79,90.12c1.15.11,2.28.25,3.2.36.17-2.76.34-5.39.49-8.02.11-1.95.09-1.95,2.23-3.45.16.31.41.59.43.89.22,3.31.41,6.61.58,9.92.1,2.13.09,2.22,2.21,2.57,3.16.52,6.33.95,9.59,1.58-1.76.13-3.63.22-5.48.04-4.4-.43-8.55-1.9-12.94-3.46-.25-.12-.39-.34-.39-.34,0,0,.05-.06.08-.09Z"/>
    <path class="cls-2" d="M40.97,92.94c1.05-.9,1.03-2.09,1.08-3.35.09-2.58.37-5.15.51-7.73.06-1.12.65-1.58,2.06-1.73.21.96.57,1.93.62,2.92.1,1.88-.04,3.77.07,5.64.05.82.47,1.63.92,2.55.19.11.15.35-.04.47-.35.27-.52.41-.68.56-.18-.02-.35-.04-.84-.02-.64.21-.97.38-1.3.55-.18-.02-.37-.03-.87.02-.72.08-1.12.1-1.52.11Z"/>
    <path class="cls-2" d="M49.56,53.23c-.21-.07-.48-.38-.48-.69.03-4.43.09-8.85.29-13.45.18,4.52.21,9.21.19,14.14Z"/>
    <path class="cls-4" d="M9.59,35.28c.2,1.87.2,3.86.15,6.1-1.2-1.78-.67-3.89-.15-6.1Z"/>
    <path class="cls-4" d="M10.9,35.1c-.3.02-.39-.02-.62-.12.32-1.22,1.06-1.14,1.98-.38-.34.24-.75.34-1.36.5Z"/>
    <path class="cls-4" d="M40.84,93.05c.53-.13.93-.15,1.53-.15-.58.99-1.63,1.18-2.97.9-.17-.16-.09-.4-.09-.4.46-.07.93-.15,1.53-.34Z"/>
    <path class="cls-4" d="M34.99,93.96c.94-.04,1.87-.08,3.15-.14.44.03.54.07.63.11-1.03,1.11-2.33.45-3.69.4-.18-.15-.09-.38-.09-.38Z"/>
    <path class="cls-4" d="M49.31,89.66c.11-.73.22-1.47.39-2.41.09.77.11,1.75-.07,2.7-.24-.12-.28-.2-.32-.29Z"/>
    <path class="cls-2" d="M34.9,93.84c.09.12,0,.35-.06.46-.42.07-.79.04-1.31-.09.32-.22.8-.36,1.37-.37Z"/>
    <path class="cls-2" d="M38.86,93.9c-.18,0-.28-.04-.51-.17.18-.24.49-.39.88-.44.08.11,0,.35-.04.47s-.24.1-.33.14Z"/>
    <path class="cls-2" d="M49.17,89.69c.17.06.21.14.29.36-.17.19-.38.24-.74.28,0-.21.16-.41.46-.64Z"/>
    <path class="cls-4" d="M43.56,92.83c.13-.2.46-.36.98-.51-.14.19-.46.37-.98.51Z"/>
    <path class="cls-2" d="M48,90.71c0-.16.17-.31.45-.44-.02.17-.16.31-.45.44Z"/>
    <path class="cls-4" d="M47.5,91.42c-.06-.09.14-.26.27-.27.02.11-.09.24-.27.27Z"/>
    <path class="cls-4" d="M45.68,92.27c0-.14.16-.28.49-.43,0,.14-.16.28-.49.43Z"/>
    <path class="cls-4" d="M10.58,90.19c.13.02.27.24.33.36-.15.05-.36-.01-.65-.22,0-.15.1-.15.32-.14Z"/>
    <path class="cls-2" d="M15.68,48.26c.45.19.87.43.88.67.04,5.35.03,10.69-.43,16.29-.35-.36-.94-.7-1-1.1-.67-5.13-1.18-10.27.03-15.4.04-.16.2-.28.53-.47Z"/>
    <path class="cls-2" d="M44.73,56.2c0,2.05.08,3.85-.03,5.63-.07,1.11-.41,2.2-.69,3.59-1.9-3.02-2.01-12.66-.29-17.36,1.74,2.64.69,5.36,1.01,8.14Z"/>
  </g>
</svg>