<?xml version="1.0" encoding="UTF-8"?>
<svg id="_圖層_2" data-name="圖層 2" xmlns="http://www.w3.org/2000/svg" viewBox="0 0 100.55 86.44">
  <defs>
    <style>
      .cls-1 {
        fill: #e04636;
      }

      .cls-2 {
        fill: #cadbdf;
      }

      .cls-3 {
        fill: #970507;
      }

      .cls-4 {
        fill: #2b2509;
      }

      .cls-5 {
        fill: #391236;
      }

      .cls-6 {
        fill: #ebe9e5;
      }

      .cls-7 {
        fill: #be152c;
      }

      .cls-8 {
        fill: #d9e6f3;
      }

      .cls-9 {
        fill: #f4f8fa;
      }

      .cls-10 {
        fill: #ebedec;
      }

      .cls-11 {
        fill: #8f9d9e;
      }
    </style>
  </defs>
  <g id="Layer_1" data-name="Layer 1">
    <path class="cls-3" d="M13.6,4.59c-1.74-.21-3.47-.43-5.35-.66.69-1.54,1.88-2,3.02-2.5,4.49-1.97,8.85-2.07,13.09.76,4.01,2.67,7.44,5.94,10.4,9.72,4.49,5.73,7.37,12.32,10.09,18.98.95,2.32,1.74,4.73,2.29,7.17.49,2.16.54,4.42.82,6.93,1.74.38,3.64.79,5.6,1.22.3,1.12.04,1.76-1.28,1.55-1.4-.22-2.8-.44-4.43-.7-.37,1.91-.7,3.64-1.1,5.7,1.82.59,3.48,1.54,5.17,1.58,3.25.08,6.03,1.53,9.24,2.63.07,2-1.22,1.42-2.12,1.29-1.28-.18-2.53-.59-3.8-.91-2.98-.91-5.95-1.82-9.03-2.77-1.69,2.56-2.46,5.7-5.16,7.47-2.47,1.62-4.92,3.25-6.92,4.57-1.22,4.02-2.32,7.61-3.47,11.39,2.69.42,5.5-.48,7.1,2.54-1.72,3.71-5.09,4.52-8.1,2.26-.49-.37-.92-.81-1.4-1.41-.58-1.67,0-2.99.52-4.34,1.19-3.07,2.22-6.18,2.7-9.74-1.13.13-1.99.24-2.85.33-1.24.14-2.5.44-3.73.36-1.31-.08-1.91.53-2.55,1.51-1.47,2.25-3.07,4.42-4.61,6.62-.4.57-.75,1.17-1.22,1.92,1.02.35,1.91.52,2.66.94,1.64.91,3.48,1.75,2.81,4.28-1.22,1.3-2.55,1.38-4.05,1.17-2.24-.32-3.53-1.85-4.81-3.45-.3-1.56.43-2.76,1.35-3.91,1.62-2.03,3.24-4.06,4.82-6.13.64-.84,1.15-1.78,1.68-2.61-3.38-1.27-6.6-2.49-9.96-4.01-.46-.62-.74-.97-1.08-1.24-2.96-2.37-5.31-5.27-5.76-9.07-.4-3.35-.18-6.79-.07-10.18.06-1.9.8-3.66,2.03-5.17,2.73-3.33,5.37-6.72,8.21-9.95,2.87-3.27,5.31-6.78,6.99-10.79,1.07-2.55,1.44-5.27.4-7.87-1.43-3.58-4.31-5.34-8.15-5.51M23.64,35.83c-.32.15-.78.23-.93.48-.33.57-.65,1.22-.67,1.85,0,.25.88.82,1.21.72.59-.17,1.13-.68,1.57-1.16.2-.21.12-.69.6-1.02.78-.08,1.6-.06,2.35-.26,1.38-.37,1.61-1.46,1.52-2.74-.08-1.12-.63-1.87-1.66-2.17-1.24-.36-2.41-.04-2.94,1.17-.41.93-.45,2.03-1.05,3.12M42.69,35.7c-.1-.78-.08-1.61-.34-2.34-.57-1.57-1.69-2.17-3.1-1.84-1.27.3-1.93,1.33-1.82,2.85.12,1.6.85,2.29,2.61,2.38.53.03,1.07-.03,1.67.36.02.17-.02.43.08.51.5.41,1.01.82,1.58,1.1.1.05.63-.53.76-.89.33-.87-.25-1.28-.96-1.56-.16-.06-.34-.1-.47-.57M35.76,43.04q1.23-1.71-.21-2.79c-.69.62-1.38,1.25-2.13,1.92-.71-.76-1.29-1.38-1.88-2.01-1.29,1.39-1.36,1.94-.5,2.94,1.21,1.39,2.66,1.46,4.71-.06Z"/>
    <path class="cls-8" d="M28.27,81.61c.46.41.89.86,1.38,1.22,3.01,2.26,6.38,1.45,8.21-2.11,6.81.02,13.54.13,20.27.44,3.38.16,6.76.64,10.13,1.06.84.1,1.64.52,2.58,1.36-.8.42-1.56,1.07-2.41,1.22-2.72.48-5.48,1.04-8.23,1.1-11.77.29-23.54.55-35.31.53-5.9-.01-11.81-.5-17.68-1.12-2.28-.24-4.86-.15-7.2-2.22,1.2-.35,2.07-.77,2.97-.85,2.85-.26,5.72-.39,8.57-.6.44-.03.86-.18,1.44-.45,1.43,1.42,2.72,2.96,4.96,3.28,1.49.21,2.83.14,4.23-1.23,2.86-2.72,3.49-2.89,6.1-1.64Z"/>
    <path class="cls-3" d="M74.66,54.64c-2.31-.95-4.62-1.9-6.93-2.86-2.04-.85-4.08-1.71-6.41-2.78-1.67-.81-3.05-1.4-4.44-2,0-.15-.04-.29-.28-.68-.14-.67-.24-1.16-.06-1.5,1.87-3.62,5.01-5.1,8.89-3.9,1.62.5,2.73.29,3.88-.91.59.05,1.05.05,1.5.05,0,0,.1.03.1.21-.21,1.05-.41,1.92-.61,2.74,5.08,2.03,6.69,6.01,4.86,10.4-.17.41-.34.82-.51,1.22Z"/>
    <path class="cls-5" d="M13.72,4.71c3.73.05,6.6,1.81,8.03,5.39,1.04,2.59.67,5.31-.4,7.87-1.68,4.01-4.12,7.52-6.99,10.79-2.84,3.23-5.48,6.62-8.21,9.95-1.23,1.5-1.97,3.26-2.03,5.17-.11,3.39-.33,6.83.07,10.18.45,3.8,2.8,6.7,5.76,9.07.34.27.62.61.95,1.1C1.38,60.33-1.81,47.56,3.25,40.34c2.67-3.82,5.79-7.32,8.54-11.08,2.43-3.32,4.73-6.76,6.88-10.27.77-1.25,1.09-2.85,1.32-4.33.6-4-.95-7.01-4.45-9-.54-.31-1.13-.55-1.81-.94Z"/>
    <path class="cls-3" d="M49.86,58.96c.41-1.25,1.24-1,2.11-.6,3.08,1.4,6.16,2.78,9.23,4.19,1.94.89,3.88,1.78,5.79,2.73.75.37,1.77.59,1.5,2.07-3,3-6.14,3.73-9.72,1.8-.79-.43-1.61-.79-2.42-1.18-5.63-2.73-5.69-2.81-6.5-9.01Z"/>
    <path class="cls-1" d="M70.87,39.89c-.5.18-.96.18-1.54-.06-.06-.6,0-.97.06-1.34,1.22-.32,1.11-1.52,1.47-2.37.91-2.1,2.05-3.98,4.17-5.21,1.65.58,2.43,1.69,2.35,3.44-.03.54-.08,1.09.02,1.61.28,1.53,1.73,2.31,3.01,1.42.99-.68,1.81-1.71,2.47-2.74.99-1.53,1.99-2.97,3.71-3.68,3.03,1.47,3.6,2.71,2.78,5.78-.3,1.12-.77,2.27-.75,3.39.02.87.49,2,1.14,2.48.42.31,1.66-.17,2.33-.61.88-.58,1.56-1.48,2.35-2.21,1.32-1.22,2.63-2.44,4-3.6.59-.49,1.28-1.1,2.1-.3-.03.19.01.42-.08.5-1.96,1.68-3.95,3.33-5.92,5-.68.58-1.29,1.26-2,1.8-1.05.79-2.23,1.24-3.5.52-1.3-.74-1.87-1.98-1.73-3.41.11-1.15.54-2.26.77-3.4.36-1.72.46-3.39-1.37-4.87-.79.85-1.59,1.63-2.3,2.5-.85,1.04-1.53,2.23-2.44,3.21-1.3,1.38-2.66,1.57-4.13.9-1.31-.6-2.04-1.49-1.61-2.97.35-1.22.26-2.3-.75-3.23-1.31-.03-1.79.99-2.33,1.89-.73,1.23-1.42,2.49-2.17,4.06-.02.41,0,.51.03.6-.03.24-.05.48-.12.9Z"/>
    <path class="cls-10" d="M74.81,54.77c.02-.53.19-.94.36-1.35,1.84-4.39.22-8.38-4.86-10.4.19-.82.4-1.69.65-2.78,3.41-.07,6.07,1.88,8.9,3.35.43.22.69,1.24.63,1.84-.11,1.05-.41,2.12-.85,3.07-1.67,3.63-3.43,7.22-5.33,10.92-.17.09-.17.09-.17.09.22-.81.5-1.61.65-2.44.13-.71.12-1.45.02-2.3Z"/>
    <path class="cls-6" d="M49.66,59c1,6.17,1.06,6.24,6.69,8.98.81.39,1.63.75,2.42,1.18,3.58,1.93,6.72,1.2,9.72-1.61,1.41,1.26,1.57-.3,2.27-.91.14-.1.14-.1.14-.1.03,1.31.05,2.59-1.76,2.74-.31.03-.72.27-.87.53-.74,1.36-2.06,1.67-3.39,1.86-2.38.33-4.77.7-7.16.75-2.69.05-4.38-1.73-5.75-3.83-.82-1.25-1.6-2.54-2.48-3.76-1.46-2.02-1.49-3.36.18-5.82Z"/>
    <path class="cls-10" d="M69.19,38.46c.14.39.08.76,0,1.32-1.03,1.43-2.14,1.64-3.76,1.14-3.88-1.2-7.02.28-8.89,3.9-.18.34-.08.83-.03,1.43-1.31.02-1.43-1.03-1.23-2.01.62-3.12,2.05-5.89,3.94-8.42.79-1.06,1.73-1.35,3.03-.65,2.2,1.18,4.48,2.19,6.93,3.29Z"/>
    <path class="cls-5" d="M55.36,57.5c1.15.18,2.4.6,3.68.78.89.12,2.19.71,2.3-1.19.34.45.72,1.07,1.2,1.85.27-.15.76-.41,1.11-.6,2.09,1.11,4.08,2.17,6.27,3.33-.28.68-.57,1.38-.82,2-3.01.6-4.32-2.37-6.92-2.79-2.35-.38-4.47-2.11-6.82-3.38Z"/>
    <path class="cls-2" d="M61.18,49.78c1.22.71,2.44,1.43,3.92,2.29-.25.61-.52,1.28-1,2.46-1.35-2.46-3.17-3.22-5.55-3.11,1.55,1.44,3.1,2.89,5.07,4.73-3.62-.22-5.54-2.7-8.2-3.41-.44-1.61.61-2.65,1.39-3.91,1.38.31,2.48.7,3.59,1.04.23.07.52-.05.78-.08Z"/>
    <path class="cls-7" d="M4.76,4.54c1.37.83.88,1.7.28,2.54-.57.8-1.46.83-2.1.32-.53-.43-1-1.22-1.04-1.88-.07-.95.72-1.32,1.65-1.21.35.04.7.11,1.21.24Z"/>
    <path class="cls-11" d="M69.29,58.19c-.22.19-.56.57-.65.52-.73-.41-1.42-.9-2.31-1.48,1.11-1.12,1.07-2.85,2.8-2.74.02,1.42.09,2.56.16,3.7Z"/>
    <path class="cls-7" d="M5.37.52c1.32-.11,1.91.61,1.65,1.58-.35,1.32-1.45.9-2.76.55.35-.77.65-1.42,1.11-2.13Z"/>
    <path class="cls-7" d="M9.01,6.08c.8.59,1.09,1.27.34,1.79-.4.27-1.18.26-1.66.06-.31-.13-.6-.86-.52-1.25.19-.9.95-.86,1.84-.6Z"/>
    <path class="cls-10" d="M61.19,49.62c-.27.2-.56.32-.79.25-1.11-.34-2.21-.72-3.45-1.17-.11-.48-.09-.89-.07-1.5,1.39.39,2.77.99,4.25,1.75.08.28.08.39.06.66Z"/>
    <path class="cls-5" d="M69.43,58.07c-.21-1.02-.28-2.16-.2-3.43,2.34,1.08,2.35,1.24.2,3.43Z"/>
    <path class="cls-10" d="M73.6,60.58c-.07.48-.14.97-.21,1.45-.15-.04-.3-.07-.45-.11.13-.39.26-.78.53-1.26.13-.09.13-.09.13-.09Z"/>
    <path class="cls-10" d="M71.44,65.45c.06-.24.13-.47.19-.71,0,.19.02.38-.08.64-.11.07-.11.07-.11.07Z"/>
    <path class="cls-10" d="M74.14,59.5c-.09.3-.18.6-.41.99-.13.09-.13.09-.13.09.09-.3.18-.6.41-.99.13-.09.13-.09.13-.09Z"/>
    <path class="cls-10" d="M72.33,63.14c0,.14-.08.22-.16.29.03-.12.06-.24.16-.29Z"/>
    <path class="cls-10" d="M70.9,66.53c.09-.3.18-.6.41-.99.13-.09.13-.09.13-.09-.09.3-.18.6-.41.99-.13.09-.13.09-.13.09Z"/>
    <path class="cls-10" d="M71.07,38.93c-.1-.04-.12-.13-.12-.37.09,0,.14.16.12.37Z"/>
    <path class="cls-9" d="M28.25,81.42c-2.58-1.06-3.22-.89-5.91,1.75.32-2.4-1.53-3.23-3.16-4.14-.75-.42-1.64-.59-2.66-.94.48-.75.83-1.35,1.22-1.92,1.54-2.21,3.14-4.37,4.61-6.62.64-.98,1.24-1.59,2.55-1.51,1.23.08,2.48-.22,3.73-.36.86-.1,1.72-.2,2.85-.33-.49,3.56-1.51,6.68-2.7,9.74-.53,1.35-1.1,2.67-.52,4.34Z"/>
    <path class="cls-4" d="M41.63,36.7c-.53.02-1.07.08-1.6.05-1.76-.09-2.49-.78-2.61-2.38-.11-1.52.55-2.55,1.82-2.85,1.41-.33,2.53.27,3.1,1.84.26.72.23,1.55.2,2.62-.4.43-.66.57-.91.72Z"/>
    <path class="cls-4" d="M24.04,35.76c.21-1.02.25-2.12.66-3.05.53-1.22,1.7-1.54,2.94-1.17,1.03.3,1.58,1.05,1.66,2.17.1,1.27-.13,2.36-1.52,2.74-.75.2-1.56.18-2.65.15-.57-.35-.83-.59-1.09-.83Z"/>
    <path class="cls-5" d="M35.62,43.18c-1.91,1.38-3.36,1.31-4.57-.08-.87-1-.79-1.55.5-2.94.59.63,1.17,1.25,1.88,2.01.74-.67,1.44-1.3,2.13-1.92q1.44,1.08.07,2.93Z"/>
    <path class="cls-1" d="M23.84,35.79c.46.2.72.44,1.07.78.04.46.12.94-.08,1.15-.44.48-.98.99-1.57,1.16-.33.1-1.22-.47-1.21-.72.02-.63.34-1.28.67-1.85.15-.25.61-.33,1.13-.52Z"/>
    <path class="cls-1" d="M41.66,36.91c.22-.35.48-.49.86-.71.29-.03.46.01.63.08.71.28,1.29.69.96,1.56-.14.36-.66.93-.76.89-.57-.28-1.08-.69-1.58-1.1-.1-.08-.06-.33-.11-.71Z"/>
  </g>
</svg>