<?xml version="1.0" encoding="UTF-8"?>
<svg id="_圖層_2" data-name="圖層 2" xmlns="http://www.w3.org/2000/svg" viewBox="0 0 63.32 157.26">
  <defs>
    <style>
      .cls-1 {
        fill: #a6b2b2;
      }

      .cls-2 {
        fill: #f0f2c9;
      }

      .cls-3 {
        fill: #e1e2b4;
      }

      .cls-4 {
        fill: #90cd6f;
      }

      .cls-5 {
        fill: #78b25f;
      }

      .cls-6 {
        fill: #8f9d9e;
      }
    </style>
  </defs>
  <g id="Layer_1" data-name="Layer 1">
    <path class="cls-5" d="M63.2,142.84c.03,2.97.11,5.93.09,8.9-.02,2.72-1.53,4.55-4.23,5.07-1.4.27-2.86.44-4.29.44-11.79.03-23.58.02-35.38-.02-1.25,0-2.52-.15-3.75-.38-2.88-.53-4.04-1.85-4.08-4.79-.07-5.76-.04-11.52-.04-17.28,0-23.22,0-46.45-.02-69.67,0-3.36.28-6.63,1.68-9.75,2.48-5.54,6.43-9.47,12.69-11.41,2.09.07,3.73.14,5.29.2.08.53.18.73.13.87-2,6.09-3.63,12.27-4.54,18.62-.52,3.69-.88,7.4-1.29,11.14.02.04.06.13-.19.09-2.72.09-5.25-.51-7.97.61,0,1.08,0,2.14,0,3.19,0,15.08,0,30.17,0,45.25,0,.54-.01,1.08.02,1.62.12,1.89.32,2.18,2.27,2.18,5.74.03,11.49-.03,17.43,0,.6.12.99.19,1.43.44,2.04,3.02,4.22,5.66,6.92,7.95,5.19,4.42,10.91,7.09,17.84,6.73Z"/>
    <path class="cls-4" d="M25.45,74.73c.43-3.7.78-7.41,1.31-11.1.9-6.35,2.54-12.53,4.54-18.62.05-.15-.04-.34-.13-.87-1.56-.06-3.2-.12-5.1-.22.03-1.1-.17-2.41,1.63-3.01,4.01-.13,7.63-.13,11.41.02.85.23,1.54.39,2.22.35,1.91-.12,3.81-.34,5.71-.51.9.45,1.67.89,1.78,2.12.05.56.7,1.37,1.23,1.52,3.36.93,5.94,2.99,8.07,5.58,3.03,3.68,5.17,7.86,5.17,12.74.05,26.54.01,53.08-.05,79.87-6.98.6-12.7-2.07-17.89-6.49-2.7-2.3-4.88-4.93-6.67-8.03,3.71-.28,7.22-.31,10.72-.36,3.21-.04,3.64-.44,3.64-3.53,0-15.36-.01-30.73-.03-46.09,0-.87-.11-1.74-.19-2.83-9.27-.96-18.34-.16-27.38-.53Z"/>
    <path class="cls-6" d="M29.75,5.11c-4.11-.4-8.21-.94-12.33-1.18-5.29-.31-10.35.95-15.28,2.77-.64.23-1.31.39-2.01.59C-.21,3.52-.09,3.2,3.09,2.14,8.07.46,13.21-.34,18.47.14c7.43.68,14.83,1.56,22.27,2.13,2.47.19,5-.28,7.5-.5.87-.08,1.73-.31,2.79-.5.11.93.24,1.62.25,2.32.02,1.11-.41,1.85-1.66,2.05-1.59.27-3.16.69-5.19,1.07-2.21-.16-3.97-.34-5.73-.54-2.99-.34-5.97-.7-8.96-1.06Z"/>
    <path class="cls-1" d="M47.05,40.51c-1.91.43-3.81.64-5.72.77-.68.04-1.38-.12-2.31-.51-1.47-1.6-2.75-2.84-3.89-4.19-.55-.65-.98-1.48-1.24-2.3-.53-1.69-.96-3.41-1.35-5.14-.53-2.36-.5-2.37-2.8-1.93.22-1.73,1.62-1.84,3.31-2.02,2.67.73,4.94.45,7.55.2,0-2.69-.05-5.26.03-7.82.03-.93.34-1.85.53-2.77.13,1.93.26,3.87.37,5.8.03.53,0,1.07,0,1.61q.02,3.03,3,3.6c.2.42.3,1.14.67,1.32,2.21,1.04,1.83,3,1.84,4.83,0,2.77,0,5.53,0,8.55Z"/>
    <path class="cls-1" d="M29.79,5.36c2.95.11,5.93.47,8.92.81,1.76.2,3.52.38,5.53.58.33,1.88.42,3.74.51,5.75-1.13.25-2.07.47-3.49.69-2.39-.16-4.3-.37-6.22-.45-.53-.02-1.08.38-1.62.59q-3.58-.51-3.55-4.25c0-1.16-.03-2.32-.08-3.73Z"/>
    <path class="cls-6" d="M29.57,27.3c2.48-.52,2.45-.52,2.98,1.84.39,1.73.81,3.45,1.35,5.14.26.82.68,1.64,1.24,2.3,1.14,1.35,2.42,2.59,3.74,4.03-3.53.16-7.15.16-11.02.17-.27-3.44-.2-6.89-.31-10.33-.05-1.53.35-2.57,2.04-3.14Z"/>
    <path class="cls-6" d="M33.42,13.57c.53-.45,1.08-.85,1.62-.83,1.92.07,3.84.29,6.02.47.22.41.19.8.12,1.39-.21,1.12-.52,2.04-.55,2.97-.07,2.56-.03,5.12-.03,7.82-2.61.25-4.88.53-7.35-.22-.08-3.85.05-7.6.16-11.6Z"/>
    <path class="cls-2" d="M25.47,74.77c9.02.33,18.1-.46,27.37.49.08,1.09.19,1.96.19,2.83.02,15.36.04,30.73.03,46.09,0,3.1-.44,3.49-3.64,3.53-3.5.04-7.01.08-10.75.19-.64,0-1.04-.07-1.64-.39-.29-.59-.32-.96-.46-1.28-1.85-4.17-4.16-8.19-5.47-12.52-1.76-5.79-2.78-11.8-4.05-17.73-1.49-6.95-1.05-14.06-1.5-21.09,0,0-.04-.08-.06-.13Z"/>
    <path class="cls-3" d="M25.27,74.86c.71,7.07.27,14.18,1.76,21.13,1.27,5.93,2.3,11.94,4.05,17.73,1.31,4.33,3.62,8.35,5.47,12.52.14.32.18.69.27,1.23-5.74.22-11.49.28-17.23.25-1.95,0-2.15-.29-2.27-2.18-.03-.54-.02-1.08-.02-1.62,0-15.08,0-30.17,0-45.25,0-1.06,0-2.12,0-3.19,2.72-1.11,5.25-.52,7.97-.61Z"/>
  </g>
</svg>