<?xml version="1.0" encoding="UTF-8"?>
<svg id="_圖層_2" data-name="圖層 2" xmlns="http://www.w3.org/2000/svg" viewBox="0 0 61.27 129.72">
  <defs>
    <style>
      .cls-1 {
        fill: #98f0f9;
      }

      .cls-2 {
        fill: #cadbdf;
      }

      .cls-3 {
        fill: #fff;
      }

      .cls-4 {
        fill: #ebe9e5;
      }

      .cls-5 {
        fill: #eb4d2e;
      }

      .cls-6 {
        fill: #50d5f2;
      }

      .cls-7 {
        fill: #5fe0e8;
      }

      .cls-8 {
        fill: #ebedec;
      }
    </style>
  </defs>
  <g id="Layer_1" data-name="Layer 1">
    <path class="cls-8" d="M41.45,32.44c2.1,3.42,2.61,7.36,3.65,11.14.71,2.59,1.37,5.23,2.47,7.65,2.34,5.14,4.98,10.13,7.45,15.21,1.89,3.88,3.27,7.95,4.13,12.19,1.21,5.99,1.64,12.05,1.65,18.15,0,1.33.53,2.67.46,3.98-.23,4.1-.75,8.19-.92,12.3-.12,3-.7,5.85-1.7,8.66-1.65,4.62-6.21,7.92-11.08,7.92-6.21.01-12.42-.12-18.63.04-5.81.15-11.62-.3-17.42,0-2.1.11-3.4-.83-4.52-2.34-2.53-3.42-3.71-7.36-3.98-11.52-.34-5.37-.3-10.76-.62-16.13-.37-6.3,1.45-12.04,4.09-17.61,2.89-6.09,6.49-11.78,10.24-17.37,1.2-1.79,2.26-3.67,3.3-5.55.38-.69.64-1.52.71-2.3.26-2.85.44-5.71.59-8.57.22-4.3.35-8.6.58-12.89.05-.88.34-1.75.79-2.83,6.43-.18,12.59-.16,18.75-.14M43.65,56.72c-5.85,0-11.7.06-17.55-.04-1.85-.03-2.83.77-3.48,2.35-.62,1.49-1.16,3.04-1.99,4.41-3.01,4.98-6.25,9.82-9.16,14.86-2.82,4.88-5.57,9.85-5.79,15.73-.13,3.4-.47,6.79-.5,10.19-.02,2.41.44,4.81.47,7.22.07,5.05,1,9.92,2.54,14.98,2.7.18,5.36.34,8.02.53,2.05.15,4.09.43,6.14.48,1.69.04,3.39-.17,5.08-.28.71-.05,1.43-.2,2.14-.16,2.46.13,4.91.48,7.37.45,3.4-.03,6.81-.22,10.19-.56,1.84-.19,3.75-.56,5.41-1.34,3.84-1.79,4.5-5.49,4.97-9.2.19-1.5.36-3.01.44-4.53.16-2.86.43-5.72.35-8.58-.14-4.92-.56-9.83-.76-14.75-.2-4.95-.78-9.86-2.52-14.48-1.86-4.95-4.31-9.67-6.35-14.55-.9-2.15-2.21-3.13-5.02-2.74Z"/>
    <path class="cls-6" d="M10.45,12.51c-.44-.32-.88-.63-1.42-1.32-.07-3.9-.04-7.42,0-10.95,1.43-.07,2.87-.19,4.3-.19,6.84-.02,13.67.11,20.51-.05,5.28-.12,10.14,1.14,14.77,3.51,1.92.98,3.79,2.06,5.7,3.05,1.15.6,1.81,1.54,1.81,2.79,0,2.15-.1,4.3-.3,6.44-.13,1.43-1.41,1.78-2.54,2.06-3.66.93-7.33,1.78-10.99,2.68-.68.17-1.34.43-2.37.85-3.02.38-5.69.51-8.35.77-2.18.21-4.04-.3-5.48-2.01-.39-.37-.78-.74-1.36-1.36-1.61-1.21-3.04-2.16-4.46-3.12-.94-.48-1.88-.96-3.17-1.56-2.32-1.19-4.38-1.85-6.65-1.58Z"/>
    <path class="cls-1" d="M26.09,20.31c1.45,1.54,3.31,2.05,5.49,1.83,2.66-.26,5.33-.39,8.2-.62,1.41,2.45,2.48,4.98,1.53,8.02-6.51.19-12.64.21-18.76.23-.04-.8-.05-1.6-.12-2.4-.24-2.68.15-5.01,3.13-6.03.25-.08.36-.57.54-1.04Z"/>
    <path class="cls-1" d="M10.47,12.73c2.26-.49,4.31.17,6.46,1.35-1.36,4.12-2.93,8.12-4.43,12.14-1.5,4.03-3.12,7.99-5.65,11.49-2.26-.84-2.55-1.28-1.91-3.27,1.18-3.66,2.61-7.26,3.59-10.98.9-3.44,1.33-7.01,1.96-10.74Z"/>
    <path class="cls-1" d="M8.81.2c.19,3.57.16,7.1.12,10.87-2.14.06-4.28-.16-6.42-.32C1.05,10.65.03,9.95.01,8.49c-.03-2.04-.05-4.14.42-6.1C.77,1,2.43.76,3.78.6c1.6-.19,3.2-.3,5.03-.4Z"/>
    <path class="cls-7" d="M22.5,29.99c6.17-.23,12.3-.25,18.69-.26.27.76.28,1.51.27,2.49-6.17.2-12.33.18-18.74.13-.25-.74-.26-1.44-.22-2.35Z"/>
    <path class="cls-4" d="M20.18,15.8c1.53.81,2.95,1.76,4.42,2.9-1.48-.2-3.05-.45-4.51-.99-1.04-.39-.91-1.16.09-1.9Z"/>
    <path class="cls-2" d="M43.91,56.72c2.55-.39,3.87.6,4.77,2.74,2.04,4.88,4.49,9.6,6.35,14.55,1.74,4.62,2.31,9.53,2.52,14.48.2,4.92.62,9.83.76,14.75.08,2.85-.18,5.72-.35,8.58-.09,1.51-.25,3.02-.44,4.53-.47,3.71-1.13,7.42-4.97,9.2-1.66.77-3.57,1.15-5.41,1.34-3.38.34-6.79.53-10.19.56-2.45.02-4.91-.32-7.37-.45-.71-.04-1.42.11-2.14.16-1.69.11-3.39.32-5.08.28-2.05-.05-4.09-.33-6.14-.48-2.66-.19-5.33-.35-8.02-.53-1.54-5.05-2.48-9.93-2.54-14.98-.03-2.41-.49-4.82-.47-7.22.03-3.4.38-6.79.5-10.19.22-5.88,2.96-10.85,5.79-15.73,2.91-5.03,6.15-9.88,9.16-14.86.83-1.37,1.38-2.92,1.99-4.41.65-1.58,1.64-2.38,3.48-2.35,5.85.09,11.7.04,17.8.04M8.44,112.4c.03,3.3,1.06,6.33,2.51,9.25.93,1.87,2.29,2.73,4.51,2.6,4.48-.26,8.97-.33,13.46-.33,5.66,0,11.31.1,16.97.27,3.28.1,5.49-1.27,6.77-4.25,2.51-5.84,3.99-11.89,3.75-18.8.21-4.64-.9-9.1-2.23-13.45-1.64-5.36-5.37-8.71-10.91-10.07-4.03-.99-8.09-1.64-12.22-1.42-6.58.35-12.81,1.74-17.28,7.22-.17.21-.39.38-.56.59-3.08,3.86-5.34,8.11-5.39,13.17-.05,4.93-.33,9.88.61,15.21Z"/>
    <path class="cls-3" d="M8.44,111.96c-.92-4.89-.65-9.84-.6-14.77.05-5.06,2.3-9.31,5.39-13.17.17-.21.39-.38.56-.59,4.47-5.48,10.7-6.87,17.28-7.22,4.13-.22,8.19.43,12.22,1.42,5.54,1.36,9.27,4.71,10.91,10.07,1.33,4.35,2.43,8.81,2.04,13.7-.55.29-.9.33-1.39.34-.32,0-.46.11-.75.34-2.38.59-4.54,1.18-6.73,1.64-12.97,2.76-25.95,5.49-38.92,8.23M35.74,83.86c.59-.2,1.26-.29,1.75-.63.53-.37,1.23-.99,1.22-1.49-.02-.47-.79-1.12-1.36-1.31-1.44-.47-2.93-.83-4.43-1.05-2.56-.38-4.96.48-7.32,1.29-.97.34-1.02,1.26-.3,1.94.5.47,1.18.81,1.84,1.04,2.69.95,5.43,1.04,8.61.2Z"/>
    <path class="cls-6" d="M8.44,112.18c12.97-2.96,25.95-5.69,38.92-8.45,2.19-.47,4.35-1.06,6.85-1.64.5-.09.65-.18.75-.32.36-.04.72-.08,1.25-.12.44,6.4-1.04,12.45-3.55,18.29-1.28,2.98-3.49,4.35-6.77,4.25-5.65-.17-11.31-.27-16.97-.27-4.49,0-8.98.07-13.46.33-2.23.13-3.58-.73-4.51-2.6-1.45-2.92-2.48-5.95-2.51-9.47Z"/>
    <path class="cls-5" d="M35.53,83.91c-2.97.79-5.71.7-8.4-.25-.66-.23-1.34-.57-1.84-1.04-.72-.68-.67-1.61.3-1.94,2.36-.81,4.76-1.68,7.32-1.29,1.5.22,2.99.58,4.43,1.05.57.19,1.35.85,1.36,1.31.02.49-.69,1.11-1.22,1.49-.49.34-1.16.43-1.96.69Z"/>
    <path class="cls-2" d="M54.83,101.75c.02.17-.12.26-.42.29-.04-.18.1-.28.42-.29Z"/>
  </g>
</svg>