<?xml version="1.0" encoding="UTF-8"?>
<svg id="_圖層_2" data-name="圖層 2" xmlns="http://www.w3.org/2000/svg" viewBox="0 0 60.24 90.28">
  <defs>
    <style>
      .cls-1 {
        fill: #a6b2b2;
      }

      .cls-2 {
        fill: #bb966d;
      }

      .cls-3 {
        fill: #cadbdf;
      }

      .cls-4 {
        fill: #e1e2b4;
      }

      .cls-5 {
        fill: #2b2509;
      }

      .cls-6 {
        fill: #391236;
      }

      .cls-7 {
        fill: #d5c09b;
      }

      .cls-8 {
        fill: #f9fbf0;
      }

      .cls-9 {
        fill: #f1ebd5;
      }

      .cls-10 {
        fill: #9a7b51;
      }

      .cls-11 {
        fill: #8f9d9e;
      }
    </style>
  </defs>
  <g id="Layer_1" data-name="Layer 1">
    <path class="cls-5" d="M56.08,27.07c-.63,8.59-1.25,17.18-1.89,25.78-.26,3.49-.55,6.98-1.09,10.71-1.59.37-2.91.58-4.24.6-5.7.07-11.41.08-17.36.07-3.12-.12-5.98-.23-8.85-.26-5.28-.06-10.56-.07-15.84-.11-.25-2.7-.49-5.41-.69-8.54-.1-1.24-.25-2.04-.41-2.84-.04-.39-.08-.78-.06-1.58-.13-1.73-.33-3.05-.53-4.37-.03-.38-.07-.76-.04-1.54-.09-1.56-.25-2.71-.4-3.87-.12-1.48-.25-2.97-.3-4.78-.03-.79-.12-1.24-.22-1.7-.13-1.66-.26-3.33-.31-5.36.14-.97.2-1.57.52-2.16,1.24,0,2.22.02,3.21.01,8.04-.03,16.08-.07,24.37-.06,8.21.03,16.16.02,24.11.01M40.78,62.12q2.34-.64,1.49-2.35c-.64.45-1.26.89-2.07.96-.16-.68-.32-1.36-.49-2.12.51-.27.91-.44,1.28-.68.38-.25.73-.55,1.35-1.02-1.37-.19-2.36-.33-3.35-.46-.05-.18-.09-.36-.14-.54.87-.69,1.74-1.37,2.61-2.06-.08-.17-.16-.35-.24-.52-1.41.34-2.82.68-4.26,1.04.18,2.06.32,3.76.47,5.45.19,2.15.43,2.34,3.36,2.32M28.05,54.66c-.91.14-1.83.28-2.64.4-.11,2.24-.19,4.12-.29,6-.06,1.07.18,1.8,1.63,1.48.27-.95.56-1.96.87-3.02,1-.17,1.91-.33,2.82-.49,0-.11-.01-.23-.02-.34-.97-.29-1.94-.59-3.4-1.03.65-.73,1.06-1.19,1.98-1.72h1.88c1.48,2.18-.55,4.95,1.92,7.29.3-1.55.49-2.55.68-3.53.74-.31,1.46-.61,2.42-1.02-1.13-.48-1.91-.8-3.16-1.33,1.08-.98,1.86-1.68,2.74-2.48-1.95-1.11-3.45-.05-4.55.66-1.05-.31-1.74-.52-2.87-.88M48.34,60.62c1.24-.29,1.26-1.19,1.27-2.34-1.02.09-1.82.06-2.14,1.36-.34-.82-.69-1.65-1-2.4,1.06-.68,1.8-1.15,2.53-1.61-.09-.17-.18-.34-.27-.52-.88.2-1.77.41-2.6.6-1.32-2.19,1.84-2.08,1.69-3.92-1.68.59-3.15,1.1-4.7,1.65.45,2,.82,3.75,1.25,5.48.61,2.51,1.04,2.69,3.97,1.69M35.6,33.64s.04,0,.17-.43c-1.01-1.72-2.7-1.89-4.44-1.98-5.14-.26-10.88,5.53-11.37,9.84-.24,2.12-.47,4.33,1.09,6.17,2.05,2.42,4.68,2.93,7.55,2.01,4.66-1.49,7.35-5.01,8.78-9.47.44-1.37.19-3.03-.01-4.52-.11-.8-.35-2.01-1.77-1.63M17.31,55.02c-.27.35-.58.69-.8,1.07-1.33,2.34-.81,4.74,1.21,5.77,2.36,1.2,4.38.49,5.7-2.01.87-1.66.45-3.52-1.14-5-1.57-1.45-2.67-1.48-4.98.17M13.28,59.67c-.33-.13-.71-.2-1-.4-1.23-.83-1.57-1.89-1.18-3.23.38-1.31,1.36-1.51,2.52-1.51.75,0,1.49-.08,2.43-.13-1.62-1.73-3.9-2.08-5.39-1.04-1.61,1.13-2.32,3.53-1.56,5.26.91,2.04,2.91,2.94,5.36,2.28-.31-.38-.58-.7-1.19-1.23Z"/>
    <path class="cls-2" d="M6.78,64.1c5.31-.21,10.59-.2,15.88-.14,2.87.03,5.73.14,8.84.52.24,7.83.21,15.35.25,22.88,0,.95.34,1.9.52,2.85-6.14.22-12.24.09-18.12-1.99-.93-.33-1.85-.69-2.77-1.05-2.16-.86-3.18-2.52-3.34-4.79-.42-6.01-.86-12.01-1.26-18.27Z"/>
    <path class="cls-10" d="M32.51,90.23c-.43-.98-.76-1.92-.76-2.87-.04-7.53-.01-15.05,0-22.83,5.71-.29,11.41-.3,17.12-.37,1.33-.02,2.65-.23,4.2-.38.06,2.12-.11,4.26-.27,6.4-.33,4.21-.75,8.42-.94,12.63-.1,2.23-1.19,3.63-3.09,4.28-2.96,1.02-5.98,1.92-9.05,2.55-2.27.47-4.64.43-7.21.59Z"/>
    <path class="cls-1" d="M55.52,3.22c.34,1.83.66,3.66,1.04,5.48.08.37.43.68.72,1.21-.74.27-1.54.41-2.34.41-16.53.02-33.07.02-49.6.02-.63,0-1.3.1-1.87-.1-.41-.14-.69-.69-1.02-1.05.22-1.39.41-2.79.68-4.17.15-.76.43-1.49.96-2.18,1.19.17,2.06.37,2.94.38,16.16.01,32.33,0,48.49,0Z"/>
    <path class="cls-10" d="M56.22,26.91c-8.09.17-16.05.18-24.25-.1-.25-3.41-.25-6.53-.25-10.01H2.59s-.09-.23.04-.53c.74-.39,1.35-.56,1.97-.56,17.71-.01,35.42,0,53.13,0-.46,3.68-.91,7.36-1.51,11.2Z"/>
    <path class="cls-2" d="M2.56,17.03c9.63-.23,19.22-.23,29.17-.23,0,3.48,0,6.6,0,9.97-8.04.28-16.08.32-24.13.35-.98,0-1.97,0-3.35-.02-.49-.02-.59-.02-.68-.02-.35-3.27-.69-6.54-1.01-10.04Z"/>
    <path class="cls-4" d="M2.3,9.27c.5.28.77.83,1.18.97.57.19,1.24.1,1.87.1,16.53,0,33.07,0,49.6-.02.8,0,1.59-.14,2.54-.38,1.67-.47,2.45.25,2.66,1.68.12.85.13,1.72-.06,2.8-3.68-.23-7.07-.57-10.57-.43-6.99.28-14.01.09-21.01.08-.63,0-1.26-.02-1.88-.05-4.02-.15-8.09-.74-12.05-.34-4.76.48-9.48.27-14.23.31-.7-2.53-.45-3.18,1.95-4.73Z"/>
    <path class="cls-4" d="M55.49,3.02c-16.13.2-32.3.22-48.46.2-.88,0-1.75-.21-2.77-.51.61-1.48,1.93-1.44,3.14-1.56C17.33.16,27.3-.23,37.26.13c5.45.2,10.87.92,16.3,1.51.67.07,1.27.77,1.93,1.37Z"/>
    <path class="cls-1" d="M.33,14.21c4.75-.24,9.47-.04,14.23-.52,3.96-.4,8.03.19,12.05.34.63.02,1.26.05,1.88.05,7.01,0,14.02.19,21.01-.08,3.5-.14,6.9.2,10.54.66.05,1.46-1.15.83-2.13,1.06-17.91-.01-35.62-.02-53.34,0-.61,0-1.23.17-2,.44-.98-.33-2.34-.25-2.26-1.94Z"/>
    <path class="cls-11" d="M5,46.67c.33,1.17.52,2.49.62,4.03-.32-1.15-.53-2.51-.62-4.03Z"/>
    <path class="cls-11" d="M4.59,41.27c.26,1,.41,2.16.47,3.52-.26-.98-.42-2.17-.47-3.52Z"/>
    <path class="cls-11" d="M5.6,52.59c.27.68.42,1.48.48,2.48-.26-.66-.43-1.51-.48-2.48Z"/>
    <path class="cls-11" d="M3.5,27.22c.16-.15.26-.14.49-.13.08.61.02,1.21-.14,1.95-.21-.46-.31-1.07-.35-1.82Z"/>
    <path class="cls-11" d="M4.08,34.74c.19.34.29.8.29,1.37-.19-.34-.29-.8-.29-1.37Z"/>
    <path class="cls-8" d="M35.6,33.62c1.43-.36,1.66.85,1.77,1.66.2,1.49.45,3.15.01,4.52-1.43,4.46-4.12,7.98-8.78,9.47-2.87.92-5.5.41-7.55-2.01-1.56-1.84-1.33-4.05-1.09-6.17.49-4.31,6.23-10.1,11.37-9.84,1.74.09,3.43.26,4.2,2.23-.3.43-.37.62-.56.63-.35-.05-.58.06-.96.28-1.43,1.56-2.71,3.02-4.17,4.54-.4.45-.62.82-.84,1.2l.34.24c.37-.34.73-.69,1.25-1.13,1.4-1.59,2.65-3.07,4.03-4.59.26-.15.36-.29.5-.57.21-.23.34-.34.48-.45M24.06,45.93c1.42-1.35,2.86-2.68,3.84-4.42-1.97.94-3.3,2.56-4.98,4.31-.18.31-.36.63-.54.94.11.08.23.16.34.25.33-.32.66-.64,1.33-1.09M27.95,40.82c.11.07.22.14.32.22-.02-.16-.04-.32-.32-.22Z"/>
    <path class="cls-9" d="M17.45,54.88c2.17-1.51,3.27-1.49,4.84-.03,1.59,1.47,2.01,3.34,1.14,5-1.32,2.51-3.34,3.22-5.7,2.01-2.03-1.03-2.54-3.43-1.21-5.77.22-.38.53-.71.94-1.21M21.03,59.69c.96-2.54.93-2.66-1.18-4.47-2.49,2.42-2.44,4.23.2,5.93.25-.36.51-.72.98-1.46Z"/>
    <path class="cls-9" d="M13.45,59.78c.44.43.7.75,1.02,1.13-2.45.66-4.45-.23-5.36-2.28-.77-1.73-.06-4.13,1.56-5.26,1.49-1.04,3.76-.69,5.39,1.04-.93.05-1.68.13-2.43.13-1.16,0-2.14.2-2.52,1.51-.39,1.34-.05,2.4,1.18,3.23.29.2.66.27,1.17.5Z"/>
    <path class="cls-3" d="M47.91,60.52c-2.51,1.09-2.93.91-3.55-1.6-.42-1.73-.79-3.48-1.25-5.48,1.55-.54,3.02-1.06,4.7-1.65.14,1.84-3.02,1.73-1.69,3.92.83-.19,1.72-.4,2.6-.6.09.17.18.34.27.52-.74.47-1.47.94-2.53,1.61.32.76.66,1.58,1.22,2.52.22.33.22.55.22.76Z"/>
    <path class="cls-4" d="M28.48,54.82c.69.21,1.39.41,2.43.73,1.1-.71,2.6-1.77,4.55-.66-.87.79-1.65,1.5-2.74,2.48,1.25.52,2.03.85,3.16,1.33-.97.41-1.68.71-2.42,1.02-.19.98-.38,1.98-.68,3.53-2.46-2.34-.44-5.1-1.92-7.29-.49,0-1.18,0-2.13-.12-.26-.42-.26-.71-.26-1.01Z"/>
    <path class="cls-9" d="M40.38,62.08c-2.53.06-2.77-.13-2.96-2.28-.15-1.69-.29-3.38-.47-5.45,1.45-.35,2.85-.69,4.26-1.04.08.17.16.35.24.52-.87.69-1.74,1.37-2.61,2.06.05.18.09.36.14.54.99.14,1.97.27,3.35.46-.61.47-.96.78-1.35,1.02-.37.24-.77.41-1.28.68.18.76.33,1.44.57,2.47.08.57.09.79.1,1.01Z"/>
    <path class="cls-9" d="M28.26,54.74c.22.38.22.67.22,1.12-.41.61-.82,1.07-1.47,1.8,1.46.44,2.43.74,3.4,1.03,0,.11.01.23.02.34-.91.16-1.82.32-2.82.49-.3,1.06-.59,2.07-.87,3.02-1.45.32-1.69-.41-1.63-1.48.1-1.88.18-3.75.29-6,.82-.12,1.73-.26,2.86-.33Z"/>
    <path class="cls-7" d="M40.58,62.1c-.21-.24-.22-.46-.21-.84.64-.6,1.26-1.04,1.9-1.49q.85,1.71-1.69,2.33Z"/>
    <path class="cls-4" d="M48.12,60.57c-.22-.26-.22-.48-.21-.85-.13-1.38.67-1.35,1.69-1.43,0,1.15-.03,2.04-1.48,2.29Z"/>
    <path class="cls-6" d="M23.22,45.63c1.38-1.56,2.72-3.17,4.69-4.12-.98,1.74-2.43,3.06-4.13,4.36-.38-.12-.47-.18-.55-.25Z"/>
    <path class="cls-6" d="M34.5,34.67c-1.25,1.49-2.5,2.97-4,4.43-.32-.1-.39-.18-.46-.25,1.28-1.46,2.56-2.91,4.06-4.37.23,0,.4.19.4.19Z"/>
    <path class="cls-6" d="M30.35,39.21c-.27.47-.63.81-1,1.15l-.34-.24c.22-.37.44-.75.84-1.2.25,0,.33.08.5.29Z"/>
    <path class="cls-6" d="M23.6,45.93c-.21.43-.54.75-.87,1.08-.11-.08-.23-.16-.34-.25.18-.31.36-.63.69-1.04.23-.03.32.03.53.21Z"/>
    <path class="cls-6" d="M28.09,40.69c.15.03.17.19.19.35-.11-.07-.22-.14-.19-.35Z"/>
    <path class="cls-6" d="M35.09,34.26c.07-.18.13-.37.37-.58.17-.04.14-.04.14-.05-.14.1-.28.21-.47.46-.06.14-.04.18-.04.18Z"/>
    <path class="cls-6" d="M35.06,34.21c-.08.14-.18.28-.44.43-.13.03-.3-.16-.38-.26.15-.22.38-.33.73-.28.12.17.1.13.09.11Z"/>
    <path class="cls-5" d="M20.92,59.87c-.36.55-.62.91-.87,1.27-2.65-1.71-2.69-3.51-.2-5.93,2.12,1.81,2.15,1.94,1.08,4.66Z"/>
  </g>
</svg>