<?xml version="1.0" encoding="UTF-8"?>
<svg id="_圖層_2" data-name="圖層 2" xmlns="http://www.w3.org/2000/svg" viewBox="0 0 62.52 117">
  <defs>
    <style>
      .cls-1 {
        fill: #e04636;
      }

      .cls-2 {
        fill: #970507;
      }

      .cls-3 {
        fill: #f596b5;
      }

      .cls-4 {
        fill: #391236;
      }

      .cls-5 {
        fill: #d6f2f3;
      }

      .cls-6 {
        fill: #ebe9e5;
      }

      .cls-7 {
        fill: #be152c;
      }

      .cls-8 {
        fill: #ebedec;
      }
    </style>
  </defs>
  <g id="Layer_1" data-name="Layer 1">
    <path class="cls-4" d="M43.38,51.14c.09,1.24.28,2.49.24,3.73-.06,2.46.68,4.61,2.22,6.48,1.72,2.08,3.41,4.19,5.25,6.16,5.34,5.72,8.09,12.63,9.4,20.21.63,3.63,1.27,7.25,1.79,10.9.23,1.59.28,3.23.2,4.84-.2,4-2.96,6.22-6.86,5.65-.27-.04-.55-.06-.79-.17-2.02-.9-3.63-.36-4.96,1.32-1.26,1.59-2.9,2.03-4.81,1.5-1.13-.32-1.89.15-2.58.97-.81.96-1.6,1.95-2.5,2.82-1.97,1.9-4.7,1.97-6.76.13-1.2-1.07-2.37-2.23-3.32-3.52-4.6-6.26-8.33-13.02-11-20.32-.76-2.07-1.15-4.35-1.3-6.56-.24-3.58-.31-7.2-.13-10.78.2-3.97-1.17-7.19-3.83-9.99-.62-.65-1.18-1.36-1.63-2.27,2.58-1.13,5.02-2,7.45-2.91,4.11-1.54,8.21-3.1,12.52-4.66,1.36-.14,2.57-.16,3.12-1.52.02,0,.06-.04.27-.03,1.88-.53,3.58-1.01,5.24-1.63.92-.34,1.76-.91,2.77-.33M29.96,102.05c3.44,4.98,4.66,6.28,6.52,6.85-.05-.49,0-.96-.16-1.32-1.55-3.33-2.84-6.82-4.79-9.9-4.03-6.37-7.34-12.89-7.25-20.74-.46.88-.75,1.77-.86,2.68-.39,3.06-.28,6.13.7,9.06,1.5,4.5,3.02,9.02,5.84,13.38Z"/>
    <path class="cls-7" d="M31.79,54.65c-4.1,1.55-8.2,3.11-12.31,4.65-2.43.91-4.88,1.78-7.5,2.73-7.93-7.74-10.96-17.12-9.32-28.19,3.24-1.26,6.16-2.31,9.09-3.34,3.36-1.19,6.73-2.37,10.25-3.57.31-.16.45-.3.77-.54,1.12-.41,2.07-.73,3.03-.83.18,2.09-1.61,2.99-2.28,4.66-.38.75-.93,1.49-.76,1.98,1.16,3.47,2.44,6.91,3.78,10.32.15.39,1.05.79,1.47.68.45-.11.95-.79,1.04-1.3.11-.56-.18-1.21-.36-1.8-.74-2.38-1.5-4.76-2.07-7.12.77.19,1.36.35,2.03.68.51,1,1.17.96,1.9.66.7-.29,1.4-.56,2.29-.91q-.56,1.59-1.65,2.47c-1.58,1.27-1.83,2.59-.79,4.11.92,1.35,2.23,1.59,3.97.76.72-.35,1.46-.64,2.29-.77,1.14.86,1.77,1.76,1.58,3.2-4.66,4.22-9.79,6.78-16.13,6.35-1.68-.11-3.41-.02-5.09.23-2.72.4-5.18,1.41-6.96,3.94-.74,1.24-1.38,2.34-.68,4.16.58-1.31.99-2.23,1.53-3.28,1.88-1.89,4.03-2.7,6.45-2.71,1.88,0,3.8-.02,5.65.29,4.08.68,7.87.08,11.48-1.76.25,1.04.47,1.87.69,2.7,0,0-.04.03-.25-.03-.68-.2-1.16-.35-1.71-.52-.49.73-.96,1.42-1.42,2.12M6.1,45.26c2,3.54,4.69,4.56,8.26,3.08.79-.33,1.88-.57,1.58-1.79-.33-1.36-1.38-1.11-2.39-.89-.61.13-1.25.29-1.85.22-.58-.06-1.27-.25-1.67-.63-1.32-1.27-1.56-2.96-1.48-4.71.08-1.63,1.38-1.93,2.59-2.28.9-.26,1.45-.75,1.18-1.74-.28-1-1.07-1.05-1.94-.9-2.47.43-4.65,2.51-4.87,5.03-.12,1.38.27,2.81.6,4.62M15.33,39.13c-.68,2.3-.08,4.28,1.62,5.9,1.47,1.4,4.58,1.32,5.92-.1,1.65-1.75,1.35-6.02-.55-7.66-2.09-1.81-5.08-1.18-7,1.86Z"/>
    <path class="cls-2" d="M28.56,33.49c-.59-.16-1.17-.33-2.04-.68-.84-1.34-.88-3-2.84-2.73.5-1.54,2.3-2.45,2.24-4.67,2.09-1.15,4.06-1.96,6.03-2.76,7.3,6.19,11.26,14.04,11.71,23.62.07,1.52-.02,3.05-.16,4.72-1.14-.43-1.98.13-2.9.47-1.65.61-3.35,1.1-5.24,1.63-.42-.84-.64-1.67-.82-2.87,1.84-2.06,3.71-3.68,5.4-5.46.86-.91,1.49-2.12.72-3.73-.91.76-1.64,1.37-2.36,1.98.11-1.3-.51-2.19-1.52-3.18,1.21-.58,1.76-1.21,1.26-2.43-.48-1.16-.99-2.3-1.45-3.46-1.63-4.07-5.93-3.25-8.04-.46Z"/>
    <path class="cls-4" d="M31.88,22.48c-1.89.97-3.87,1.78-5.96,2.72-1.08.46-2.03.78-3.3,1.21-.47.25-.62.38-.78.51-3.36,1.19-6.73,2.37-10.09,3.56-2.93,1.04-5.85,2.08-8.99,3.15-.29-2.51-.04-4.98,1.01-7.34.43-.96.93-1.74,2.4-1.68.23,1.17.48,2.4.72,3.63.17.06.34.11.52.17.53-.95,1.19-1.86,1.56-2.88.45-1.22.99-2.3,2.45-3.14,4.65-1.75,9.01-3.32,13.37-4.89.92.44,1.92.77,2.74,1.36,1.49,1.06,2.86,2.28,4.36,3.61Z"/>
    <path class="cls-5" d="M24.76,17.32c-4.34,1.77-8.7,3.34-13.27,4.92-1.55-1.87-2.71-2.03-4.09-.54-.38.41-.88.72-1.78,1.42-.43-3.13-.61-5.7.38-8.64,1.34-.85,2.52-1.35,3.86-1.88.44-.2.71-.37.96-.51-.02.04.06.08.26.06,2.31-.68,4.43-1.35,6.54-2.02,1,2.49,3.41,3.55,5.27,5.18.64.56,1.22,1.19,1.86,1.99Z"/>
    <path class="cls-7" d="M9.7,12.63c-1.18.5-2.36,1.01-3.66,1.62-.91.28-1.69.44-2.66.65-1.11-2.95-2.19-5.85-3.38-9.01,2.49-.93,4.89-1.82,7.68-2.63.85.84,1.4,1.56,1.75,2.36.58,1.33,1.32,2.32,2.95,2.03-.35,1.67-2.08,2.71-1.48,4.54,0,0-.09-.04-.25-.1-.42.14-.69.34-.95.55Z"/>
    <path class="cls-2" d="M11.09,12.16c-.8-1.81.93-2.85,1.28-4.52-1.63.3-2.37-.7-2.95-2.03-.35-.81-.9-1.53-1.56-2.35,2.35-1.09,4.91-2.12,7.76-3.26,1.33,3.05,2.33,5.98,3.18,8.95.06.19-.64.6-1.08,1.05-2.21.81-4.32,1.48-6.64,2.16Z"/>
    <path class="cls-6" d="M29.85,101.88c-2.71-4.2-4.23-8.71-5.73-13.21-.98-2.93-1.09-6-.7-9.06.12-.91.4-1.8.86-2.68-.08,7.86,3.23,14.38,7.25,20.74,1.95,3.08,3.24,6.58,4.79,9.9.17.36.11.83.16,1.32-1.86-.57-3.08-1.87-6.63-7.01Z"/>
    <path class="cls-2" d="M31.99,54.64c.26-.68.73-1.37,1.22-2.11.56.17,1.03.32,1.69.53-.34,1.41-1.55,1.44-2.91,1.57Z"/>
    <path class="cls-6" d="M38.23,43.17c.8-.76,1.53-1.37,2.44-2.14.77,1.61.15,2.81-.72,3.73-1.69,1.79-3.56,3.41-5.43,5.26-3.65,2.21-7.45,2.82-11.53,2.13-1.85-.31-3.76-.29-5.65-.29-2.43,0-4.58.82-6.6,2.62-.37-.28-.46-.6-.55-.92,1.64-2.4,4.1-3.41,6.81-3.81,1.67-.25,3.4-.35,5.09-.23,6.34.43,11.48-2.13,16.13-6.35Z"/>
    <path class="cls-8" d="M6.02,45.07c-.24-1.61-.63-3.03-.51-4.42.22-2.52,2.4-4.6,4.87-5.03.87-.15,1.66-.1,1.94.9.28.99-.28,1.48-1.18,1.74-1.21.35-2.51.65-2.59,2.28-.09,1.75.16,3.44,1.48,4.71.4.38,1.09.57,1.67.63.6.06,1.24-.09,1.85-.22,1.01-.21,2.05-.47,2.39.89.3,1.23-.79,1.47-1.58,1.79-3.57,1.48-6.26.46-8.34-3.27Z"/>
    <path class="cls-6" d="M15.4,38.93c1.85-2.84,4.84-3.47,6.93-1.66,1.9,1.64,2.2,5.91.55,7.66-1.34,1.42-4.46,1.51-5.92.1-1.7-1.63-2.3-3.6-1.56-6.11M21.11,41.21c-.21-.58-.28-1.31-.67-1.7-.42-.41-1.19-.72-1.74-.63-.34.06-.76.94-.75,1.45.01.67.28,1.42.69,1.96.37.49,1.05,1.04,1.6,1.05,1.06.02,1.16-.86.88-2.13Z"/>
    <path class="cls-6" d="M28.65,33.66c2.03-2.97,6.32-3.79,7.95.29.47,1.16.98,2.3,1.45,3.46.5,1.23-.06,1.86-1.37,2.25-.87.44-1.61.74-2.33,1.08-1.74.84-3.05.6-3.97-.76-1.04-1.52-.78-2.84.79-4.11q1.09-.87,1.65-2.47c-.89.35-1.59.63-2.29.91-.73.3-1.39.34-1.9-.66M34.4,38.55c.73-.77.67-1.52-.09-2.43-.93.45-1.94.76-1.65,1.99.07.31.92.44,1.74.43Z"/>
    <path class="cls-6" d="M23.52,30.21c2.12-.4,2.17,1.26,2.82,2.58.85,2.55,1.61,4.93,2.35,7.31.18.59.47,1.24.36,1.8-.1.5-.6,1.18-1.04,1.3-.42.11-1.32-.3-1.47-.68-1.35-3.41-2.62-6.85-3.78-10.32-.17-.5.38-1.23.76-1.98Z"/>
    <path class="cls-3" d="M10.05,53.69c.24.19.33.51.56.92-.26,1.01-.67,1.93-1.25,3.24-.69-1.82-.06-2.92.68-4.16Z"/>
    <path class="cls-2" d="M22,26.92c0-.12.15-.25.45-.42,0,.11-.14.26-.45.42Z"/>
    <path class="cls-2" d="M9.86,12.61c.09-.18.35-.39.8-.57-.09.2-.36.37-.8.57Z"/>
    <path class="cls-7" d="M21.17,41.4c.23,1.07.13,1.95-.93,1.93-.55,0-1.23-.55-1.6-1.05-.4-.54-.67-1.3-.69-1.96,0-.51.41-1.39.75-1.45.54-.09,1.32.22,1.74.63.4.39.46,1.12.73,1.89Z"/>
    <path class="cls-1" d="M34.24,38.66c-.65-.1-1.5-.23-1.58-.54-.28-1.24.72-1.54,1.65-1.99.75.9.82,1.65-.08,2.54Z"/>
  </g>
</svg>