<?xml version="1.0" encoding="UTF-8"?>
<svg xmlns="http://www.w3.org/2000/svg" viewBox="0 0 3644.32 3600">
  <defs>
    <style>
      .cls-1 {
        opacity: .1;
      }

      .cls-1, .cls-2, .cls-3 {
        fill: #51759c;
      }

      .cls-4 {
        fill: #f7f7f7;
        opacity: .6;
        stroke: #494949;
        stroke-miterlimit: 10;
      }

      .cls-5 {
        fill: #141f28;
      }

      .cls-6 {
        fill: #b0d9ff;
      }

      .cls-7, .cls-8, .cls-9 {
        opacity: .3;
      }

      .cls-10 {
        mix-blend-mode: multiply;
      }

      .cls-10, .cls-11, .cls-12 {
        fill: #e0f0ff;
      }

      .cls-10, .cls-13, .cls-3 {
        opacity: .4;
      }

      .cls-14, .cls-13, .cls-8 {
        fill: #fff;
      }

      .cls-15 {
        fill: #344a63;
      }

      .cls-12 {
        opacity: .13;
      }

      .cls-16 {
        opacity: .8;
      }

      .cls-17 {
        fill: #148eff;
      }

      .cls-17, .cls-18, .cls-19 {
        opacity: .2;
      }

      .cls-20 {
        fill: #6dc1b4;
        opacity: .7;
      }

      .cls-21 {
        isolation: isolate;
      }

      .cls-22 {
        fill: #b1bec9;
      }

      .cls-18 {
        fill: #090d12;
      }

      .cls-8, .cls-9 {
        mix-blend-mode: overlay;
      }

      .cls-19 {
        fill: #1c2836;
      }
    </style>
  </defs>
  <g class="cls-21">
    <g id="_圖層_2" data-name="圖層 2">
      <g id="instrument">
        <g id="pH_measuring">
          <path class="cls-2" d="M2747.96,2080.18h-92.11V768.59c0-373.03-303.41-676.48-676.43-676.48h-199.61c-373.03,0-676.43,303.45-676.43,676.48v518.4h-92.12v-518.4C1011.26,344.78,1356.04,0,1779.81,0h199.61c423.76,0,768.54,344.78,768.54,768.59v1311.59Z"/>
          <rect class="cls-11" x="943.76" y="895.81" width="237.96" height="291.68" rx=".65" ry=".65"/>
          <g>
            <rect class="cls-6" y="982.53" width="1504.47" height="2617.47" rx="1.37" ry="1.37"/>
            <path class="cls-17" d="M1421.29,3565.32H148.19c-63.9,0-115.69-51.79-115.69-115.69V1063.53c0-21.78,7.64-41.01,18.11-58.41-29.85,20.92-50.62,53.88-50.62,93.08v2386.11c0,63.9,51.78,115.69,115.68,115.69h1273.11c42.1,0,77.33-23.65,97.56-57.27-18.78,13.16-40.38,22.6-65.06,22.6Z"/>
            <path class="cls-13" d="M1388.79,982.53H115.68c-51.39,0-93.47,34.07-108.56,80.41,21.22-24.89,51.7-41.55,86.98-41.55h1273.11c63.89,0,115.68,51.79,115.68,115.68v2386.11c0,12.51-3.45,23.99-7.11,35.27,17.21-20.19,28.7-45.52,28.7-74.13V1098.21c0-63.89-51.79-115.68-115.68-115.68Z"/>
            <rect class="cls-11" x="69.08" y="1047.77" width="1366.31" height="2486.99" rx="1.27" ry="1.27"/>
            <path class="cls-13" d="M1327.92,1047.77H176.54c-44.57,0-82.77,27.15-99.05,65.8,16.18-9.75,34.06-16.87,54.32-16.87h1151.38c59.35,0,107.46,48.12,107.46,107.46v2272.06c0,14.78-3.02,28.85-8.41,41.65,31.19-18.8,53.14-51.5,53.14-90.58V1155.23c0-59.35-48.12-107.46-107.47-107.46Z"/>
            <path class="cls-10" d="M372.28,3221.31c-59.35,0-107.46-48.12-107.46-107.46V1047.77h-88.27c-59.35,0-107.46,48.12-107.46,107.46v2272.06c0,59.35,48.12,107.46,107.46,107.46h1151.37c59.36,0,107.47-48.11,107.47-107.46v-205.98H372.28Z"/>
            <rect class="cls-14" x="183.62" y="1219.69" width="1047.76" height="1381.66" rx="1.29" ry="1.29"/>
            <rect class="cls-2" x="232.19" y="1174.42" width="1047.76" height="1381.66" rx="1.29" ry="1.29"/>
            <path class="cls-19" d="M1170.57,1174.42H341.58c-60.41,0-109.39,48.98-109.39,109.39v3.18h825.1c60.41,0,109.39,48.97,109.39,109.39v1159.71h3.89c60.41,0,109.39-48.97,109.39-109.39v-1162.89c0-60.41-48.98-109.39-109.39-109.39Z"/>
            <g class="cls-7">
              <path class="cls-11" d="M232.19,1767.32v625.59c306.46-268.82,693.22-610.6,1047.76-924.66v-184.45c0-60.41-48.98-109.39-109.39-109.39h-431.27l-507.11,592.91Z"/>
              <path class="cls-11" d="M1279.95,2316.6v-279.29c-270.74,178.55-544.59,359.05-786.98,518.77h331.19l455.79-239.48Z"/>
            </g>
            <path class="cls-13" d="M1351.77,3492.49H200.38c-59.36,0-107.46-48.12-107.46-107.46V1112.97c0-11.33,3.19-21.7,6.45-31.96-18.57,19.32-30.3,45.32-30.3,74.23v2272.06c0,59.35,48.12,107.46,107.46,107.46h1151.37c48.02,0,87.23-32.04,101.02-75.48-19.56,20.33-46.74,33.23-77.17,33.23Z"/>
            <path class="cls-2" d="M875.58,2855.92h-264.81c-50.08,0-90.68-40.6-90.68-90.67h0c0-50.08,40.6-90.67,90.68-90.67h264.81c50.08,0,90.68,40.59,90.68,90.67h0c0,50.07-40.6,90.67-90.68,90.67Z"/>
            <path class="cls-2" d="M875.58,3110.5h-264.81c-50.08,0-90.68-40.6-90.68-90.68h0c0-50.07,40.6-90.67,90.68-90.67h264.81c50.08,0,90.68,40.6,90.68,90.67h0c0,50.08-40.6,90.68-90.68,90.68Z"/>
            <path class="cls-2" d="M875.58,3365.08h-264.81c-50.08,0-90.68-40.6-90.68-90.67h0c0-50.08,40.6-90.68,90.68-90.68h264.81c50.08,0,90.68,40.6,90.68,90.68h0c0,50.07-40.6,90.67-90.68,90.67Z"/>
          </g>
          <path class="cls-15" d="M2707.66,2951.39h0c-22.26,0-40.3-18.04-40.3-40.3v-1036.35c0-22.26,18.04-40.3,40.3-40.3h0c22.26,0,40.3,18.04,40.3,40.3v1036.35c0,22.26-18.04,40.3-40.3,40.3Z"/>
          <rect class="cls-3" x="943.76" y="960.9" width="237.96" height="22.39"/>
          <rect class="cls-22" x="2616.47" y="1005.12" width="182.37" height="182.37" rx=".64" ry=".64"/>
          <rect class="cls-2" x="2609.79" y="1664.98" width="195.74" height="1100.27" rx=".95" ry=".95"/>
          <path class="cls-18" d="M2765.36,2699.04h-34.8c-44.44,0-80.47-36.02-80.47-80.46v-939.34c0-.8.44-1.47.47-2.27-23.93,13.94-40.76,38.79-40.76,68.48v939.33c0,44.44,36.03,80.47,80.47,80.47h34.8c43.63,0,78.72-34.86,80-78.18-11.89,6.93-24.96,11.98-39.71,11.98Z"/>
          <rect class="cls-11" x="2536.88" y="1081" width="341.58" height="1124.52" rx="1.27" ry="1.27"/>
          <path class="cls-1" d="M2825.68,2052.96h-126.65c-59.36,0-107.46-48.12-107.46-107.46v-848.67c-32.1,18.58-54.7,51.88-54.7,91.63v909.59c0,59.35,48.12,107.46,107.46,107.46h126.66c59.35,0,107.46-48.12,107.46-107.46v-60.92c-15.82,9.16-33.18,15.83-52.78,15.83Z"/>
        </g>
        <rect id="screen" class="cls-12" x="279.18" y="1316.13" width="964.17" height="1108.17"/>
      </g>
      <g id="cup">
        <path id="shap" class="cls-4" d="M3639.16,1253.01c-38.14,64.64-89.12,131.99-89.12,350v1725.87c0,147.32-111.7,266.77-249.5,266.77h-1189.36c-13.3,0-26.36-1.11-39.1-3.26-119.22-20.06-210.41-130.41-210.41-263.52v-1718.22c0-118.7,29.2-216.76-135.89-216.76-35.81,0-43.18-38.22-26.1-58.25,72.11-84.51,145.44-124.67,313.57-124.67h1551.1c64.39,0,91.09,14.42,74.81,42.02Z"/>
        <path id="liquid" class="cls-20" d="M3478.59,2307.88v994.95c0,119.34-79.88,216.43-178.05,216.43h-1189.36c-98.17,0-178.05-97.09-178.05-216.43v-994.95h1545.46Z"/>
        <path id="Liquid_Shadow" data-name="Liquid Shadow" class="cls-9" d="M3478.59,2307.88v994.95c0,119.34-79.88,216.43-178.05,216.43h-62.51c98.17,0,178.05-97.09,178.05-216.43v-994.95h62.51Z"/>
        <path id="Liquid_bright_part" data-name="Liquid bright part" class="cls-8" d="M1933.13,2307.88v994.95c0,119.34,79.88,216.43,178.05,216.43h62.51c-98.17,0-178.05-97.09-178.05-216.43v-994.95h-62.51Z"/>
        <g id="scale" class="cls-16">
          <path class="cls-5" d="M3346.55,1687.18h-279.64c-3.98,0-7.21-3.45-7.21-7.71h0c0-4.26,3.23-7.71,7.21-7.71h279.64c3.98,0,7.21,3.45,7.21,7.71h0c0,4.26-3.23,7.71-7.21,7.71Z"/>
          <path class="cls-5" d="M3346.55,1830.21h-160.91c-3.98,0-7.21-3.45-7.21-7.71h0c0-4.26,3.23-7.71,7.21-7.71h160.91c3.98,0,7.21,3.45,7.21,7.71h0c0,4.26-3.23,7.71-7.21,7.71Z"/>
          <rect class="cls-5" x="3059.69" y="1957.82" width="294.07" height="15.42" rx="3.63" ry="3.63"/>
          <path class="cls-5" d="M3346.55,2116.28h-160.91c-3.98,0-7.21-3.45-7.21-7.71h0c0-4.26,3.23-7.71,7.21-7.71h160.91c3.98,0,7.21,3.45,7.21,7.71h0c0,4.26-3.23,7.71-7.21,7.71Z"/>
          <path class="cls-5" d="M3346.55,2259.31h-279.64c-3.98,0-7.21-3.45-7.21-7.71h0c0-4.26,3.23-7.71,7.21-7.71h279.64c3.98,0,7.21,3.45,7.21,7.71h0c0,4.26-3.23,7.71-7.21,7.71Z"/>
          <path class="cls-5" d="M3346.55,2402.34h-160.91c-3.98,0-7.21-3.45-7.21-7.71h0c0-4.26,3.23-7.71,7.21-7.71h160.91c3.98,0,7.21,3.45,7.21,7.71h0c0,4.26-3.23,7.71-7.21,7.71Z"/>
          <path class="cls-5" d="M3346.55,2545.37h-279.64c-3.98,0-7.21-3.45-7.21-7.71h0c0-4.26,3.23-7.71,7.21-7.71h279.64c3.98,0,7.21,3.45,7.21,7.71h0c0,4.26-3.23,7.71-7.21,7.71Z"/>
          <path class="cls-5" d="M3346.55,2688.41h-160.91c-3.98,0-7.21-3.45-7.21-7.71h0c0-4.26,3.23-7.71,7.21-7.71h160.91c3.98,0,7.21,3.45,7.21,7.71h0c0,4.26-3.23,7.71-7.21,7.71Z"/>
          <path class="cls-5" d="M3346.55,2831.44h-279.64c-3.98,0-7.21-3.45-7.21-7.71h0c0-4.26,3.23-7.71,7.21-7.71h279.64c3.98,0,7.21,3.45,7.21,7.71h0c0,4.26-3.23,7.71-7.21,7.71Z"/>
          <path class="cls-5" d="M3346.55,2974.47h-160.91c-3.98,0-7.21-3.45-7.21-7.71h0c0-4.26,3.23-7.71,7.21-7.71h160.91c3.98,0,7.21,3.45,7.21,7.71h0c0,4.26-3.23,7.71-7.21,7.71Z"/>
          <path class="cls-5" d="M3346.55,3117.51h-279.64c-3.98,0-7.21-3.45-7.21-7.71h0c0-4.26,3.23-7.71,7.21-7.71h279.64c3.98,0,7.21,3.45,7.21,7.71h0c0,4.26-3.23,7.71-7.21,7.71Z"/>
          <path class="cls-5" d="M3346.55,3260.54h-160.91c-3.98,0-7.21-3.45-7.21-7.71h0c0-4.26,3.23-7.71,7.21-7.71h160.91c3.98,0,7.21,3.45,7.21,7.71h0c0,4.26-3.23,7.71-7.21,7.71Z"/>
        </g>
      </g>
    </g>
  </g>
</svg>