<?xml version="1.0" encoding="UTF-8"?>
<svg id="_圖層_2" data-name="圖層 2" xmlns="http://www.w3.org/2000/svg" viewBox="0 0 78.17 151.81">
  <defs>
    <style>
      .cls-1 {
        fill: #98f0f9;
      }

      .cls-2 {
        fill: #bae4e0;
      }

      .cls-3 {
        fill: #99f5c9;
      }

      .cls-4 {
        fill: #fff;
      }

      .cls-5 {
        fill: #e6f9f2;
      }

      .cls-6 {
        fill: #d6f2f3;
      }

      .cls-7 {
        fill: #50d5f2;
      }

      .cls-8 {
        fill: #5fe0e8;
      }

      .cls-9 {
        fill: #f4f8fa;
      }

      .cls-10 {
        fill: #ebedec;
      }
    </style>
  </defs>
  <g id="Layer_1" data-name="Layer 1">
    <path class="cls-10" d="M52.21,25.38c.67.56,1.49,1.02,1.99,1.71,2.47,3.4,5,6.77,7.23,10.33,2.76,4.4,5.32,8.93,7.84,13.47,3.51,6.32,5.27,13.22,6.87,20.23,1.03,4.51,1.14,9.02,1.56,13.55.82,8.89.3,17.78.38,26.66.03,3.82-.63,7.65-.95,11.47-.4,4.9-.82,9.8-1.13,14.7-.22,3.57-1.06,6.84-3.75,9.41-1.54,1.48-3.5,2.15-5.45,2.66-4.34,1.14-8.81,1.32-13.26,1.75-8.8.84-17.6.33-26.39.4-5.37.04-10.69-.84-15.89-2.21-1.72-.45-3.37-1.26-4.95-2.09-1.99-1.06-2.53-3.24-3.12-5.12-.71-2.27-.94-4.72-1.17-7.12-.81-8.48-.95-16.99-1.25-25.5-.19-5.56.13-11.16-.51-16.66-.65-5.5.17-10.91.26-16.34.1-5.63,2.03-11.06,4-16.36.4-1.09.75-2.19,1.12-3.29,2.66-7.97,7.12-15.01,11.44-22.12,1.21-1.99,2.43-3.99,3.76-5.89.87-1.24,1.96-2.32,3.34-3.55,1-.13,1.6-.17,2.42-.19.93,0,1.64-.02,2.49.01.23.06.33.07.65.09.84,0,1.45-.02,2.27-.05,1.08-.03,1.95-.05,3.05-.02.88,0,1.53-.03,2.36-.03.74.05,1.28.06,2.05.09,1.19,0,2.14-.03,3.3-.03.89-.01,1.58-.05,2.52-.05,1.05.03,1.86.02,2.9,0,1.26-.02,2.3-.05,3.51-.02.28.08.4.1.51.12M44.36,149.6c3.13-.16,6.27-.49,9.4-.45,4.53.05,8.93-.67,13.3-1.73,4.24-1.04,6.23-3.7,6.26-7.87.02-3.04.32-6.09.6-9.12.46-5.08,1.4-10.15,1.43-15.23.07-11.77.49-23.55-.29-35.33-.42-6.26-1.71-12.26-3.64-18.13-2.74-8.33-7.35-15.78-11.87-23.23-.67-1.1-1.63-1.8-3.1-1.8-11.97.04-23.95.03-35.92.01-1.06,0-1.88.23-2.47,1.24-1.91,3.25-4.12,6.33-5.78,9.7-2.13,4.34-3.96,8.85-5.7,13.37-2.53,6.57-4.03,13.38-4.06,20.46-.03,6.12-.09,12.25.09,18.36.17,5.64.89,11.27.93,16.91.06,8.27.42,16.49,1.62,24.68.41,2.78,1.75,4.17,4.24,5.2,6.05,2.5,12.44,2.58,18.77,2.89,5.21.26,10.44.06,16.19.06Z"/>
    <path class="cls-1" d="M27.77,14.39c.04-3.85.08-7.71.13-11.56.03-2.6.2-2.8,2.72-2.81,5.29-.03,10.58-.02,15.87.02,2.23.02,2.43.24,2.45,2.51.03,3.68,0,7.35-.22,11.28-.58.26-.94.27-1.43.13-.97-.06-1.81.02-2.84.11-.77.17-1.36.35-2.12.45-1-.7-1.78-.35-2.71,0-.84-.47-1.5-.66-2.27.06-1.12-.19-2.05-.36-3.18-.52-1,.17-1.8.34-2.74.44-.92-1-1.65-1-2.54.05-.53-.06-.83-.11-1.13-.15Z"/>
    <path class="cls-8" d="M47.42,14.1c.37-.01.73-.02,1.28-.02.69.26,1.19.52,1.87,1.05.62.58,1.05.88,1.49,1.18.04,1.96.07,3.92-.02,6.26-.26,1.13-.38,1.88-.5,2.63-1.04.03-2.08.06-3.46-.11-.46-.78-.69-1.38-.69-1.97-.02-3.01.02-6.01.04-9.02Z"/>
    <path class="cls-8" d="M27.6,14.42c.47.02.77.07,1.28.36.33,3.5.45,6.75.47,10.06-.23.14-.33.24-.41.38-.71.02-1.43.04-2.38-.2-.25-3.48-.27-6.7-.28-9.92.38-.22.77-.43,1.32-.68Z"/>
    <path class="cls-1" d="M26.08,15.14c.22,3.19.23,6.41.27,9.86-.58.28-1.19.32-2.03.37-.22-2.42-.17-4.83-.22-7.25-.03-1.4.36-2.46,1.97-2.98Z"/>
    <path class="cls-2" d="M52.09,16.12c-.47-.11-.91-.42-1.39-.88.44.12.94.41,1.39.88Z"/>
    <path class="cls-2" d="M51.7,25.26c-.04-.81.08-1.56.34-2.45.16.62.18,1.37.19,2.34-.13.21-.25.19-.53.11Z"/>
    <path class="cls-3" d="M44.09,149.6c-5.49,0-10.72.2-15.93-.06-6.33-.31-12.72-.39-18.77-2.89-2.5-1.03-3.84-2.42-4.24-5.2-1.2-8.19-1.56-16.41-1.62-24.68-.04-5.64-.76-11.27-.93-16.91-.18-6.12-.11-12.24-.09-18.36.03-7.07,1.52-13.89,4.06-20.46,1.74-4.52,3.57-9.03,5.7-13.37,1.65-3.37,3.87-6.45,5.78-9.7.59-1.01,1.41-1.25,2.47-1.24,11.97.01,23.95.03,35.92-.01,1.47,0,2.43.69,3.1,1.8,4.52,7.46,9.13,14.9,11.87,23.23,1.93,5.87,3.22,11.86,3.64,18.13.78,11.78.36,23.56.29,35.33-.03,5.08-.97,10.15-1.43,15.23-.28,3.03-.58,6.08-.6,9.12-.03,4.17-2.02,6.83-6.26,7.87-4.36,1.07-8.77,1.78-13.3,1.73-3.13-.03-6.27.29-9.67.46M60.34,123.89c.16-2.97.32-5.93.48-9.36,0-4.03-1.58-7.42-4.14-10.45-1.21-1.43-2.43-2.85-3.5-4.38-3.21-4.56-5.53-9.54-6.96-14.94-.16-.62-.74-1.13-1.07-2.16-.46-4.36-.93-8.71-1.36-13.07-.31-3.13-.95-6.17-2.11-9.12-.79-2-2.15-3.04-4.23-3.13-4.65-.21-9.31-.52-13.96-.49-2.38.02-4.81.51-7.13,1.11-1.74.44-3.22,1.55-3.89,3.39-1.58,4.37-3.38,8.68-3.76,13.38-.24,2.93-.4,5.88-.94,9.16-.12.96-.34,1.92-.36,2.88-.12,9.46.08,18.92,1.11,28.79.16.96.41,1.91.46,2.87.09,1.78.06,3.56.09,5.76.4,1.38.77,2.76,1.2,4.13.47,1.48,1.48,2.55,2.97,2.89,2.87.65,5.77,1.54,8.69,1.62,7.64.22,15.3.2,22.95,0,3.38-.09,6.79-.65,10.1-1.37,3.72-.81,5.27-3.13,5.37-7.51M67.86,82.95c-.38-2.66-.6-5.35-1.17-7.96-1.24-5.63-3.09-11.05-6.26-15.94-1.07-1.65-2.42-2.87-4.24-3.57-1.53-.59-2.26-.4-3.24.95-1.31,1.8-1.88,3.81-1.83,6.06.23,9.06,2.22,17.74,5.48,26.17,1.11,2.88,2.5,5.58,4.55,7.87,1.81,2.03,4.84,1.57,6.02-.87.38-.79.47-1.72.7-2.58.85-3.21.19-6.42,0-10.12Z"/>
    <path class="cls-8" d="M31.59,14.57c.8-.17,1.59-.34,2.6-.26.39,3.12.56,6,.72,9.08-.01.62-.02,1.03-.04,1.54-.02.1-.05.31-.05.31-.86.02-1.73.04-2.88-.13-.43-1.06-.72-1.93-.7-2.8.05-2.58.23-5.16.35-7.74Z"/>
    <path class="cls-2" d="M34.92,23.18c-.17-2.88-.34-5.75-.53-8.87.91-.09,1.84.08,2.98.52.09,3.65-.03,7.02-.15,10.39-.64.04-1.28.08-2.17.07-.24-.04-.21-.25-.04-.45.08-.68,0-1.17-.09-1.66Z"/>
    <path class="cls-2" d="M39.79,14.59c.77-.43,1.54-.77,2.54.15.16,1.03.15,1.77.02,2.6-.04.41.04.73.12,1.3.03,2.39.06,4.52.09,6.66-.95.02-1.9.05-2.99-.14,0-1.08.22-1.94.23-2.81.04-2.58,0-5.17-.02-7.76Z"/>
    <path class="cls-8" d="M42.47,17.24c0-.74.02-1.48.03-2.44.59-.4,1.18-.57,1.97-.51.33,3.8.45,7.36.58,10.93-.69.04-1.38.08-2.27.1-.23-2.17-.26-4.3-.28-6.88,0-.69-.01-.94-.02-1.2Z"/>
    <path class="cls-2" d="M45.29,25.27c-.37-3.61-.49-7.18-.63-10.98.83-.32,1.67-.41,2.64-.34.11,3.16.07,6.16.09,9.17,0,.59.23,1.19.47,1.97-.69.2-1.5.21-2.56.18Z"/>
    <path class="cls-6" d="M31.44,14.5c.02,2.65-.16,5.23-.21,7.82-.02.87.27,1.74.48,2.81-.54.22-1.15.23-1.99.1-.24-.24-.26-.33-.27-.43-.12-3.25-.24-6.51-.34-10,.68-1.3,1.41-1.3,2.33-.3Z"/>
    <path class="cls-8" d="M39.63,14.51c.18,2.66.22,5.25.18,7.83-.01.87-.24,1.73-.47,2.79-.64.19-1.18.17-1.92.12-.08-3.41.05-6.78.15-10.4.56-1.01,1.21-.82,2.05-.34Z"/>
    <path class="cls-1" d="M29.36,24.85c.12.04.13.13.15.37-.09.13-.19.12-.42.06-.06-.18.04-.29.27-.43Z"/>
    <path class="cls-7" d="M8.48,115.04c-.98-9.42-1.18-18.88-1.06-28.34.01-.96.23-1.92.68-2.95.61.15.91.35,1.18.58,8.14,7,19.29,8.41,28.78,3.45,2.49-1.3,4.71-3.13,7.06-4.71.38.56.96,1.07,1.12,1.69,1.42,5.41,3.75,10.38,6.96,14.94,1.07,1.53,2.29,2.95,3.5,4.38,2.56,3.02,4.14,6.42,3.89,10.69-2.72.41-5.19.58-7.69.54-.11-.64-.04-1.21-.29-1.48-.51-.53-1.21-1.26-1.8-1.23-.59.03-1.19.84-1.68,1.4-.19.22-.1.68-.28,1.08-.57,0-1-.03-1.53-.23-2.14-3.03-3.87-3.18-6.34-.67-.25.25-.43.56-.89.86-6.52.16-12.79.31-19.13.29-2.35-2.97-3.14-3-5.54-.43-.18.2-.33.43-.71.63-2.22-.17-4.21-.33-6.21-.5Z"/>
    <path class="cls-4" d="M45.14,82.84c-2.37,1.82-4.59,3.64-7.08,4.95-9.49,4.96-20.64,3.55-28.78-3.45-.27-.23-.57-.43-1-.75.05-3.04.21-5.98.45-8.92.38-4.7,2.18-9.01,3.76-13.38.67-1.84,2.15-2.95,3.89-3.39,2.32-.59,4.75-1.09,7.13-1.11,4.65-.03,9.31.28,13.96.49,2.08.09,3.45,1.14,4.23,3.13,1.16,2.95,1.81,5.98,2.11,9.12.43,4.36.9,8.71,1.33,13.3Z"/>
    <path class="cls-4" d="M67.86,83.2c.19,3.46.86,6.66,0,9.87-.23.86-.32,1.79-.7,2.58-1.18,2.44-4.21,2.9-6.02.87-2.05-2.3-3.43-5-4.55-7.87-3.27-8.43-5.25-17.11-5.48-26.17-.06-2.25.52-4.26,1.83-6.06.98-1.35,1.7-1.54,3.24-.95,1.82.7,3.18,1.92,4.24,3.57,3.17,4.9,5.03,10.31,6.26,15.94.57,2.61.79,5.3,1.18,8.21Z"/>
    <path class="cls-4" d="M60.25,124.36c0,3.91-1.55,6.23-5.27,7.04-3.31.72-6.72,1.28-10.1,1.37-7.64.2-15.3.22-22.95,0-2.91-.08-5.81-.97-8.69-1.62-1.49-.34-2.5-1.41-2.97-2.89-.43-1.37-.81-2.75-1-4.35.73-.13,1.38-.21,1.74.09,1,.82,2.12.74,3.29.82,2.37.16,4.35-.36,6.01-2.17,1.23-1.34,2.71-1.19,4.09-.14.85.65,1.65,1.37,2.44,2.09,1.94,1.79,2.81,1.73,4.31-.35.31-.43.61-.89.98-1.28,2.4-2.58,6.14-2.08,7.82,1.04.34.63.53,1.37.97,1.92.62.78,1.39,1.43,2.39,2.42.62-1.33,1.01-2.21,1.44-3.07,1.55-3.12,4.84-4.75,7.19-2.95,2.63,2.02,5.24,2.58,8.3,2.04Z"/>
    <path class="cls-1" d="M60.29,124.12c-3.11.77-5.72.22-8.35-1.8-2.34-1.81-5.64-.17-7.19,2.95-.43.86-.82,1.73-1.44,3.07-.99-.99-1.77-1.64-2.39-2.42-.44-.55-.63-1.28-.97-1.92-1.69-3.12-5.42-3.62-7.82-1.04-.36.39-.66.84-.98,1.28-1.5,2.07-2.37,2.14-4.31.35-.79-.72-1.59-1.44-2.44-2.09-1.38-1.05-2.86-1.2-4.09.14-1.66,1.81-3.64,2.33-6.01,2.17-1.18-.08-2.29,0-3.29-.82-.36-.29-1.01-.22-1.75-.29-.23-1.76-.21-3.55-.29-5.33-.05-.96-.3-1.91-.48-3.09,1.97-.06,3.97.1,6.21.48.94,2.09,2.05,3.04,3.52,3,1.5-.04,2.19-.84,2.78-3.24,6.27-.15,12.54-.3,19.08-.26.12,2.11,1.4,3.17,2.8,3.91,1.2.64,2.39-.01,3.45-.76,1.24-.87.97-2.18,1.05-3.39.43.04.87.08,1.53.23q1.69,1.53,3.98.28c2.47-.17,4.95-.33,7.66-.52.08,2.95-.08,5.92-.28,9.12M23.32,117.28c-1.07.2-1.64.82-1.08,1.84.2.37,1.05.66,1.52.57,1.02-.2.98-1.07-.44-2.4Z"/>
    <path class="cls-1" d="M34.91,23.39c.1.28.18.77.12,1.35-.14-.32-.14-.73-.12-1.35Z"/>
    <path class="cls-1" d="M42.35,17.33c.13.17.14.42.13.86-.09-.13-.17-.45-.13-.86Z"/>
    <path class="cls-9" d="M47.3,114.85c.02,1.37.29,2.67-.95,3.55-1.06.75-2.25,1.4-3.45.76-1.41-.75-2.68-1.8-2.55-3.92.19-.49.37-.8.61-1.05,2.47-2.51,4.2-2.37,6.34.67Z"/>
    <path class="cls-9" d="M20.94,115.34c-.52,2.57-1.2,3.37-2.7,3.41-1.48.04-2.59-.91-3.3-2.99.13-.42.28-.65.46-.84,2.41-2.58,3.19-2.54,5.54.43Z"/>
    <path class="cls-9" d="M52.89,115.32q-2.27,1.45-3.82-.13c-.06-.51-.14-.97.05-1.19.49-.56,1.09-1.37,1.68-1.4.59-.03,1.29.7,1.8,1.23.25.27.19.84.29,1.48Z"/>
    <path class="cls-5" d="M23.52,117.31c1.22,1.3,1.26,2.18.24,2.37-.47.09-1.32-.19-1.52-.57-.56-1.01.01-1.64,1.28-1.81Z"/>
  </g>
</svg>