<?xml version="1.0" encoding="UTF-8"?>
<svg id="_圖層_2" data-name="圖層 2" xmlns="http://www.w3.org/2000/svg" viewBox="0 0 60.48 134.8">
  <defs>
    <style>
      .cls-1 {
        fill: #a6b2b2;
      }

      .cls-2 {
        fill: #bae4e0;
      }

      .cls-3 {
        fill: #e04636;
      }

      .cls-4 {
        fill: #e95b24;
      }

      .cls-5 {
        fill: #bad3d6;
      }

      .cls-6 {
        fill: #ca4f1d;
      }

      .cls-7 {
        fill: #d4e7ec;
      }

      .cls-8 {
        fill: #d5c09b;
      }

      .cls-9 {
        fill: #be152c;
      }

      .cls-10 {
        fill: #8f9d9e;
      }
    </style>
  </defs>
  <g id="Layer_1" data-name="Layer 1">
    <path class="cls-7" d="M44.8,24.29c.01.12.02.24-.12.7-.23,1.31-.36,2.29-.36,3.27-.01,11.49,0,22.99,0,34.55.01.07.04.21-.21.16-10.78.41-21.21-.59-31.61-2.05-3.99-.56-7.96-1.22-11.94-1.83,0-1.8.04-3.6-.03-5.4-.14-3.85-.3-7.7-.52-11.54-.14-2.48.47-4.73,1.35-7.05,2.2-5.79,5.62-10.52,10.56-14.28,4.27-3.25,8.3-6.82,12.5-10.17,1.17-.93,2.59-1.57,4.1-2.17.57.67.86,1.24,1.29,1.66,3.77,3.7,7.54,7.39,11.35,11.04,1.15,1.1,2.41,2.08,3.61,3.11Z"/>
    <path class="cls-4" d="M.57,59.33c3.98.36,7.95,1.03,11.94,1.58,10.4,1.45,20.83,2.45,31.6,2.29.23,17.86.22,35.45.18,53.11-.02.08-.04.26-.29.25-11.35,1.12-22.46.97-33.51-.54-3.34-.45-6.58-1.61-9.87-2.45v-17.2c2.2,2.33,4,4.95,6.77,6.67,2.73,1.7,5.65,2.77,8.8,3.2,3.29.45,6.46-.24,9.48-1.52,2.94-1.25,5.45-3.15,7.51-5.59,5.69-6.74,6.5-19.67-2.64-27.14-4.75-3.88-10.23-5.18-16.19-4.09-5.89,1.09-10.22,4.55-13.23,9.78-.18-.08-.36-.15-.53-.22,0-5.96,0-11.91,0-18.12Z"/>
    <path class="cls-6" d="M44.3,116.23c.01-17.58.02-35.16.05-52.98.02-.24-.01-.38.21-.41,4.54-.51,8.86-1,13.18-1.45.87-.09,1.76-.03,2.63-.03-.01,16.5-.02,33.01-.12,49.9-.18.83-.27,1.27-.56,1.77-5.06,2.06-10.1,3.26-15.39,3.2Z"/>
    <path class="cls-7" d="M.6,113.83c3.3.58,6.55,1.74,9.89,2.2,11.05,1.5,22.15,1.66,33.53.81.27,4.76.27,9.23.27,13.92-2.67.24-5.05.61-7.44.63-2.59.02-5.17-.35-7.76-.47-4.93-.22-9.87-.18-14.78-.62-4.27-.38-8.56-1.08-11.92-4.26-.51-.48-1.22-.74-1.84-1.1,0-3.62.02-7.24.05-11.11Z"/>
    <path class="cls-5" d="M60.41,61.1c-.92.27-1.8.2-2.67.29-4.32.45-8.63.94-13.19,1.38-.24-11.53-.24-23.03-.23-34.52,0-.98.13-1.95.37-3.09,5.04,4.62,9.9,9.4,14.79,14.15.88.85,1,1.81,1,2.93-.03,6.2-.02,12.4-.07,18.85Z"/>
    <path class="cls-5" d="M.54,125.15c.63.14,1.34.4,1.85.88,3.35,3.17,7.64,3.87,11.92,4.26,4.9.44,9.85.4,14.78.62,2.59.12,5.18.48,7.76.47,2.39-.01,4.77-.39,7.44-.63,0-4.68,0-9.16-.03-13.91-.03-.27,0-.45.02-.53,5.32-.03,10.36-1.22,15.54-3.26.32-.02.57,0,.57,0,.03,4.31.05,8.62.08,12.93.01,1.67-.7,2.84-2.07,3.82-3.17,2.26-6.8,3.12-10.52,3.77-9.16,1.6-18.41,1.29-27.62,1.02-4.53-.14-9.06-.91-13.55-1.64-3.28-.54-5.94-4.05-6.15-7.78Z"/>
    <path class="cls-3" d="M44.9,24.15c-1.31-.89-2.57-1.87-3.72-2.97-3.81-3.65-7.59-7.34-11.35-11.04-.43-.42-.72-.99-1.1-1.67,2.64-2.22,5.29-4.25,8.01-6.33.83.53,1.57.99,2.55,1.66,2.74,2.71,5.2,5.27,7.76,7.72,1.07,1.02,2.36,1.82,3.55,2.72.19.77.39,1.54.59,2.33-2.06,2.48-4.13,4.96-6.29,7.58Z"/>
    <path class="cls-1" d="M21.57,98.59c-2.69.01-5.37.04-8.06.03-4.49-.02-7.34-2.76-7.49-7.26-.08-2.51-.03-5.02.22-7.73,1.57-.05,2.89.17,4.21.25,1.66.1,3.33.09,5.08.13.06,1.04.12,1.74.14,2.45.09,2.43.38,2.72,2.86,2.85.95.05,1.9.1,3.04.17v9.12Z"/>
    <path class="cls-2" d="M20.55,86.11c.47-.19.93-.51,1.42-.56,2.03-.22,4.08-.35,6.12-.52,2.17-.18,2.73.29,2.75,2.48.03,3.31.03,6.62,0,9.93-.02,2.02-.52,2.65-2.52,2.57-1.83-.08-3.64-.56-5.5-1.32-.05-4.36-.05-8.26-.05-12.12-.74-.15-1.47-.3-2.21-.45Z"/>
    <path class="cls-2" d="M5.9,82.27c-.17-.85-.44-1.69-.48-2.55-.08-1.69-.02-3.38-.02-5.16,1.58-.54,9.17-.71,13.9-.21.32,2.48.28,5.03-.41,7.75-4.6.16-8.79.17-12.99.17Z"/>
    <path class="cls-9" d="M50.72,14.08c-1.31-.74-2.6-1.54-3.67-2.56-2.56-2.45-5.02-5.01-7.56-7.69,1.36-1.37,2.76-2.58,4.2-3.83,3.36,3.48,6.79,7.03,10.5,10.87-1.02.93-2.19,1.99-3.47,3.21Z"/>
    <path class="cls-10" d="M5.91,82.45c4.18-.18,8.37-.19,12.83-.18.2.87.13,1.73.08,2.6-.05.89.45,1.23,1.5,1.24.97.15,1.7.3,2.44.46,0,3.86,0,7.76-.03,11.94-.28.24-.53.21-.97.13-.19-2.99-.19-5.94-.19-9.17-1.14-.06-2.09-.12-3.04-.17-2.48-.13-2.77-.42-2.86-2.85-.03-.71-.08-1.41-.14-2.45-1.74-.04-3.41-.03-5.08-.13-1.32-.08-2.64-.3-4.17-.5-.26-.28-.31-.51-.37-.92Z"/>
    <path class="cls-8" d="M60.45,112.84c-.06.21-.31.19-.44.16-.03-.47.06-.92.25-1.5.15.28.2.71.19,1.34Z"/>
  </g>
</svg>