<?xml version="1.0" encoding="UTF-8"?>
<svg id="_圖層_2" data-name="圖層 2" xmlns="http://www.w3.org/2000/svg" viewBox="0 0 101.79 60.2">
  <defs>
    <style>
      .cls-1 {
        fill: #e9ac29;
      }

      .cls-2 {
        fill: #d5c09b;
      }

      .cls-3 {
        fill: #f9fbf0;
      }

      .cls-4 {
        fill: #f1ebd5;
      }
    </style>
  </defs>
  <g id="Layer_1" data-name="Layer 1">
    <path class="cls-4" d="M1.1,53.6c-1.94-3.78-1.12-7.44,1.01-10.69,1.8-2.75,4.12-5.19,6.39-7.6,1.21-1.29,1.69-2.39.77-4.03-1.98-3.5-1.06-6.6,1.66-9.25,2.63-2.56,5.45-4.84,8.84-6.45,4.36-2.07,8.54-4.53,12.88-6.64,1.91-.93,3.98-1.69,6.06-2.09,4.82-.94,9.68-1.63,14.53-2.41,2.47-.4,4.96-.7,7.41-1.19,4.82-.95,9.59-2.3,14.45-2.92,8.09-1.03,15.83.11,22.1,5.94,2.15,2,3.63,4.63,4.34,7.83-2.48,4.76-4.58,9.35-7.98,13.14-3.18,3.54-6.29,7.24-10.44,9.66-5.97,3.48-12.07,6.75-18.2,9.94-3.55,1.85-7.12,3.61-11.48,2.57-2.76-.66-5.46.76-8.08,1.64-10.44,3.53-21.11,5.52-32.18,5.35-4.11-.07-8.08-.15-11.54-2.73-.13-.09-.35-.05-.53-.08M29.7,37.87c2.42,1.55,5.08,2.2,7.94,2.18,6.16-.04,11.61-2.13,16.55-5.69,2.96-2.14,5.36-4.77,6.9-8.14.75-1.64.95-3.28.08-4.92-2.38-4.54-5.91-7.6-11.03-8.73-4.56-1.01-8.92-.07-13.3,1.03-5.15,1.3-9.02,4.34-11.8,8.8-.55.89-1.05,1.99-1.06,3-.02,4.85,1.06,9.29,5.71,12.48Z"/>
    <path class="cls-2" d="M1.12,53.8c.15-.18.38-.22.5-.12,3.46,2.58,7.43,2.66,11.54,2.73,11.07.18,21.74-1.81,32.18-5.35,2.63-.89,5.32-2.3,8.08-1.64,4.37,1.04,7.93-.72,11.48-2.57,6.13-3.19,12.23-6.46,18.2-9.94,4.15-2.42,7.25-6.11,10.44-9.66,3.41-3.79,5.5-8.38,7.97-12.94,1.2,6.01-1.6,10.73-5.56,14.89-5.3,5.56-11.56,9.9-18.08,13.91-6.31,3.89-13.05,6.74-20.03,9.11-1.8.61-3.59.97-5.5.19-.72-.29-1.77-.19-2.53.11-8.05,3.16-16.43,5.24-24.89,6.76-5.26.94-10.71,1.37-16.06.19-3.29-.73-6.4-1.89-7.74-5.68Z"/>
    <path class="cls-1" d="M29.53,37.77c-4.48-3.09-5.56-7.53-5.54-12.38,0-1.01.51-2.11,1.06-3,2.77-4.45,6.65-7.49,11.8-8.8,4.37-1.11,8.74-2.04,13.3-1.03,5.12,1.14,8.65,4.19,11.03,8.73.86,1.65.67,3.28-.08,4.92-1.54,3.37-3.94,6-6.9,8.14-4.94,3.56-10.39,5.65-16.55,5.69-2.86.02-5.52-.63-8.11-2.28M49.23,16.64c-.5-.19-.98-.5-1.49-.56-1.42-.16-2.63.7-3.07,2.05-.45,1.38.29,2.21,1.31,2.9,1.67,1.12,3.51.98,4.6-.32.92-1.1.72-1.91-1.35-4.07Z"/>
    <path class="cls-3" d="M49.4,16.73c1.9,2.07,2.11,2.87,1.18,3.98-1.09,1.3-2.94,1.44-4.6.32-1.02-.69-1.77-1.52-1.31-2.9.45-1.36,1.65-2.22,3.07-2.05.51.06,1,.37,1.66.65Z"/>
  </g>
</svg>