<?xml version="1.0" encoding="UTF-8"?>
<svg id="_圖層_2" data-name="圖層 2" xmlns="http://www.w3.org/2000/svg" viewBox="0 0 89.06 104.08">
  <defs>
    <style>
      .cls-1 {
        fill: #f596b5;
      }

      .cls-2 {
        fill: #f790ac;
      }
    </style>
  </defs>
  <g id="Layer_1" data-name="Layer 1">
    <path class="cls-2" d="M35.13,9.11c-.18-2.39-.45-4.53-.51-6.67-.06-2.12.22-2.35,2.26-2.41,1.42-.04,2.83,0,4.6,0,0,1.41,0,2.55,0,3.69,0,5.15.94,10.16,2.41,15.07,1.8,6.01,6.69,7.2,11.69,3.15,2.3-1.86,4.47-3.87,6.79-5.71,3.83-3.04,8.14-4.41,13.04-3.4,1.22.25,2.49.39,3.63.83,6.07,2.38,8.36,7.54,9.39,13.41,1.49,8.52.29,16.78-2.95,24.76-1.45,3.57-2.71,7.25-4.57,10.59-3.87,6.95-8.83,13.12-15.38,17.74-4.04,2.84-8.55,4.94-13.44,5.92-7.4,1.48-14.66.62-21.67-2.02-3.11-1.17-5.85-3.17-8.17-5.56-1.04-1.07-1.73-2.48-2.76-4.02-3.19,1.44-5.99,3.44-7.3,6.87-1.57,4.09-2.8,8.29-2.16,12.81.16,1.11-.34,2.3-.33,3.46.02,1.42.28,2.84.4,4.27.09,1.04.04,2.15-1.34,2.17-2.78.05-5.57-.02-8.35-.08-.21,0-.41-.3-.37-.27,0-3.72.05-7.2-.01-10.69-.12-6.14,1.44-11.93,3.93-17.45,1.17-2.59,2.87-4.99,5.52-6.46.31-.17.62-.37.9-.58,2.39-1.81,4.9-3.35,7.98-3.6,1.2-.1,2.01-.61,2.45-1.76.59-1.58,1.88-2.31,3.42-2.77,3.43-1.01,6.77-2.3,10.17-3.4,3.86-1.25,7.37-3.88,9.43-7.64,1.66-3.05,3.25-6.22,3.25-9.87,0-.61.28-1.22.4-1.83.31-1.59.08-2.8-1.41-3.95-5.05-3.9-7.68-9.39-9.26-15.4-.77-2.93-1.11-5.97-1.65-9.21M72.89,28.58c-4.08-1.28-7.78-.86-10.81,2.44-.46.5-.92,1.16-1.04,1.8-.63,3.5-1.13,7.03-1.72,10.54-.25,1.49-.42,3.04-.98,4.42-.91,2.23-1.96,4.43-3.24,6.47-1.12,1.79-2.39,3.63-4.02,4.92-1.93,1.52-4.25,2.56-6.8,2.93-2.37.34-4.7.81-6.77,2.23-3.1,2.14-4.08,6.38-1.81,8.86,1.92,2.09,4.27,3.51,7.27,3.46.99-.02,1.98-.07,2.96,0,7.04.56,12.64-3.01,17.89-6.82,3.27-2.38,5.83-5.85,7.89-9.4,3.17-5.48,6.13-11.08,6.94-17.55.69-5.49-.11-10.92-5.77-14.31Z"/>
    <path class="cls-1" d="M73.07,28.68c5.48,3.28,6.27,8.71,5.59,14.2-.81,6.46-3.77,12.07-6.94,17.55-2.06,3.55-4.62,7.02-7.89,9.4-5.25,3.82-10.85,7.39-17.89,6.82-.98-.08-1.98-.02-2.96,0-2.99.05-5.34-1.37-7.27-3.46-2.28-2.48-1.29-6.72,1.81-8.86,2.06-1.43,4.39-1.89,6.77-2.23,2.55-.37,4.87-1.41,6.8-2.93,1.63-1.29,2.9-3.13,4.02-4.92,1.27-2.04,2.33-4.24,3.24-6.47.56-1.38.73-2.93.98-4.42.59-3.51,1.09-7.04,1.72-10.54.12-.65.58-1.3,1.04-1.8,3.03-3.3,6.73-3.72,11-2.34Z"/>
  </g>
</svg>