<?xml version="1.0" encoding="UTF-8"?>
<svg id="_圖層_2" data-name="圖層 2" xmlns="http://www.w3.org/2000/svg" viewBox="0 0 59.4 51.54">
  <defs>
    <style>
      .cls-1 {
        fill: #8edd0c;
      }

      .cls-2 {
        fill: #61ae06;
      }
    </style>
  </defs>
  <g id="Layer_1" data-name="Layer 1">
    <path class="cls-1" d="M38.18,13.58c.81.02,1.62.08,2.42.04,6.24-.28,11.08,2.45,15.11,6.96.18.2.3.49.52.62,3.29,2.01,3.61,4.84,2.82,8.36-.68,3.05-.69,6.28-2.25,9.1-4.33,7.81-10.92,12.21-19.9,12.81-5.15.35-10.03-.63-14.5-3.27-1.3-.77-2.51-1.72-3.66-2.72-1.35-1.17-2.8-1.92-4.8-2.18-.01-1.36.12-2.42.35-3.46.5-2.26,1.22-4.49,1.54-6.77.4-2.81,1.34-5.33,2.85-7.72,1.82-2.88,4.26-5.04,7.15-6.75,3.87-2.28,7.87-4.24,12.35-5.02Z"/>
    <path class="cls-2" d="M38.11,13.4c-4.41.96-8.41,2.91-12.28,5.2-2.9,1.71-5.34,3.87-7.15,6.75-1.51,2.39-2.45,4.91-2.85,7.72-.32,2.28-1.04,4.51-1.54,6.77-.23,1.04-.36,2.1-.53,3.38-1.33.69-2.67,1.15-4.01,1.62-1.11.39-1.88-.24-2.1-1.13-.87-3.52-3.25-6.15-5.1-9.1C.16,30.78-.53,26.46.39,22.13c1.05-4.91,2.53-9.75,5.54-13.92C8.82,4.21,12.49,1.63,17.49.58,20.29-.01,22.89-.23,25.63.3c.35.07.76.17,1.06.06,2.67-1.01,3.98.54,5.07,2.6.29.55.71,1.03,1.11,1.51,2.19,2.64,4.16,5.41,5.23,8.93M18.5,8.01c1.77-.57,2.38-2.04,2.69-3.65.22-1.14-.29-2.05-1.31-2.68-1.09-.67-1.83-.14-2.55.63-.42.45-.86.9-1.31,1.33-1.06,1.04-.43,2.11-.12,3.22.34,1.2,1.1,1.52,2.61,1.16Z"/>
    <path class="cls-1" d="M18.3,8.09c-1.31.28-2.08-.04-2.41-1.24-.31-1.1-.94-2.18.12-3.22.44-.44.88-.88,1.31-1.33.72-.77,1.46-1.29,2.55-.63,1.03.63,1.53,1.54,1.31,2.68-.3,1.61-.92,3.08-2.88,3.73Z"/>
  </g>
</svg>