<?xml version="1.0" encoding="UTF-8"?>
<svg id="_圖層_2" data-name="圖層 2" xmlns="http://www.w3.org/2000/svg" viewBox="0 0 68.97 115.15">
  <defs>
    <style>
      .cls-1 {
        fill: #bae4e0;
      }

      .cls-2 {
        fill: #e04636;
      }

      .cls-3 {
        fill: #4786e5;
      }

      .cls-4 {
        fill: #5bb3e1;
      }

      .cls-5 {
        fill: #d9e6f3;
      }

      .cls-6 {
        fill: #2e6dea;
      }
    </style>
  </defs>
  <g id="Layer_1" data-name="Layer 1">
    <path class="cls-3" d="M.5,106.95c-.02-7.76-.04-15.52-.06-23.28,0-.71.01-1.43.3-2.37,2.69-.08,5.11.13,7.52.22,2.96.11,5.93.08,8.89.18,10.86.34,21.72.71,32.57,1.31.01,3.75-.21,7.28.1,10.75.56,6.18.73,12.32-.07,18.48-.12.95-.02,1.92-.02,2.89-2.85-.09-5.71-.04-8.54-.29-8.32-.74-16.62-1.57-24.93-2.42-4.55-.46-9.1-1.04-14.04-1.62-.64-.06-.89-.07-1.14-.07-.14-.1-.26-.21-.42-.67-.09-1.26-.12-2.19-.16-3.11M40.47,113.04c.03.27.06.54.09.8.24-.06.48-.12.72-.18-.16-.23-.33-.46-.81-.62M46.51,114.36c-.03-.27-.06-.53-.09-.8-.24.06-.48.12-.72.18.16.23.33.46.81.62"/>
    <path class="cls-3" d="M.23,56.74c-.05-7.06-.1-14.12,0-21.57.17-1.03.18-1.65.19-2.28,0,0-.01-.03.24,0,4.9.22,9.54.48,14.18.58,10.83.24,21.66.41,32.48.61.27,0,.54.05.79.32.15,3.88.37,7.52.47,11.16.08,3.21.07,6.43,0,9.64-.02.94-.05,2.1-.58,2.76-.54.68-1.69.88-2.43,1.22.57.24,1.26.54,1.7.87-5.01-.21-9.77-.45-14.53-.72-10.77-.62-21.53-1.26-32.29-1.89,0,0,.02-.1.02-.25-.05-.28-.14-.38-.26-.44M41.54,59.25c.29-.1.58-.2.87-.3-.07-.15-.14-.3-.21-.44-.3.17-.6.34-.67.74Z"/>
    <path class="cls-4" d="M48.14,34.15c-.27-.03-.53-.07-.8-.08-10.83-.2-21.66-.37-32.48-.61-4.64-.1-9.28-.37-14.18-.6.14-1.21.45-2.42.94-3.55,2.62-6.07,5.27-12.12,8.27-18.34,11.01-.18,21.67-.2,32.33-.22,3.76,0,7.52-.04,11.28-.06.15.13.29.25.32.64-.78,2.72-1.44,5.17-2.1,7.62,4.05,2.15,7.76,4.12,11.46,6.09.4.21.78.47,1.2.6.5.15,1.04.18,1.57.26,0,0-.04.02-.04.2-.48,1.7-1.98,1.85-3.13,2.41-1.11.54-2.34.84-3.49,1.29-3.72,1.44-7.43,2.9-11.15,4.35Z"/>
    <path class="cls-5" d="M.49,57.65c10.75.41,21.51,1.05,32.28,1.67,4.76.27,9.52.51,14.71.75.67-.05.91-.1,1.28-.1.23.05.33.06.42.31.17,5.5.35,10.76.52,16.02.03,1.07-.06,2.15.03,3.22.08.87.34,1.72.46,2.71-.2.26-.33.4-.46.53-10.86-.36-21.71-.73-32.57-1.07-2.96-.09-5.93-.07-8.89-.18-2.42-.09-4.83-.3-7.48-.47-.41-.77-.73-1.52-.74-2.27-.04-5.74-.05-11.48,0-17.22.01-1.23.31-2.46.45-3.91M9.41,70.14c-1.03-2.29-2.03-4.6-3.14-6.84-.21-.43-.91-.61-1.39-.91-.28.5-.75.98-.79,1.5-.09,1.16.07,2.33.07,3.5,0,2.24-.11,4.49-.06,6.73.02.81-.17,2.02,1.17,2.03,1.37.01,1.13-1.15,1.12-2,0-.71-.2-1.42-.27-2.13-.08-.85-.13-1.7-.19-2.55.81.28,1.27.67,1.54,1.17.47.87.82,1.8,1.22,2.7.14.33.32.65.41.99.24.85.68,1.65,1.63,1.35.51-.16,1.01-.92,1.18-1.51.52-1.76.96-3.52,2.73-4.83v7.46c1.76.53,2.11-.28,2.09-1.45-.06-3.68-.12-7.36-.25-11.04-.02-.53-.36-1.29-.77-1.5-.8-.4-1.32.25-1.62.96-.86,2.07-1.67,4.16-2.55,6.23-.25.59-.64,1.12-1.12,1.96-.43-.72-.64-1.09-1.02-1.82M36.1,68.47c.09-1.07.29-2.15.22-3.21-.03-.44-.65-.85-1-1.27-.27.41-.75.81-.76,1.22-.06,3.94-.05,7.89-.04,11.83,0,1.48.82,1.52,2.1,1.05-.13-.95-.32-1.82-.35-2.68-.03-.91-.45-1.99,1.03-2.79.51.63,1.1,1.24,1.56,1.93.69,1.04,1.27,2.16,1.94,3.22.65,1.04,1.51,1.38,2.97.54-1.72-2.43-3.35-4.74-5.12-7.24.73-.9,1.58-1.8,2.27-2.82.62-.91,2.07-1.55,1.13-3.45-.87.68-1.64,1.21-2.32,1.83-.92.85-1.76,1.79-2.7,2.62-.11.1-.61-.22-.93-.78M26.52,65.33c.03-1.15-.43-1.69-1.62-1.34-.71,3.01-.75,11.61,0,13.74h7.8c-1.77-2.85-4.83-.95-6.73-2.71.17-2.96.35-6.08.55-9.69M21.6,71.56c0-2.23.03-4.47.02-6.7,0-.97-.18-1.81-1.53-1.46-.1.26-.28.5-.28.75-.03,3.84-.04,7.69-.04,11.53,0,.27-.05.6.08.78.23.32.6.77.88.75.29-.02.76-.52.78-.83.1-1.42.08-2.86.1-4.82Z"/>
    <path class="cls-6" d="M49.72,83.01c.14-.38.27-.52.66-.79,1.87-.88,3.52-1.55,5.08-2.39,4.13-2.22,8.23-4.5,12.33-6.76.3.44.5.73.7,1.01.14,9.23.21,18.45.47,27.68.06,2-.58,3.07-2.29,4.02-4.31,2.38-8.5,4.98-12.76,7.46-1.22.71-2.52,1.29-3.98,1.91-.2-.98-.31-1.96-.18-2.9.8-6.16.63-12.31.07-18.48-.31-3.48-.09-7.01-.1-10.75Z"/>
    <path class="cls-6" d="M48.62,59.93c-.24.04-.48.08-.89.1-.87-.32-1.57-.62-2.13-.86.74-.34,1.89-.54,2.43-1.22.53-.66.56-1.82.58-2.76.06-3.21.08-6.43,0-9.64-.09-3.64-.32-7.28-.47-11.16,3.73-1.69,7.44-3.15,11.16-4.59,1.16-.45,2.38-.75,3.49-1.29,1.15-.55,2.64-.7,3.13-2.43.97.44,1.46,1.28,1.47,2.48.05,6.69.14,13.38-.01,20.37-1.08.79-1.93,1.27-2.78,1.76-5.09,2.94-10.17,5.87-15.41,8.82-.29.14-.43.28-.56.41Z"/>
    <path class="cls-5" d="M53.39,10.58c-3.66.14-7.42.17-11.18.18-10.66.03-21.32.04-32.23.06-.43-1.95-.71-3.9-.74-5.85-.02-1.21.35-2.42.58-3.86,3.39-.2,6.58-.46,9.77-.54,3.85-.1,7.75.32,11.55-.12,6.26-.72,12.52-.23,18.77-.44.63-.02,1.26,0,1.88.02,1.08.04,1.7.64,1.64,1.7-.16,2.79.6,5.64-.53,8.37-.02.06.25.23.48.47Z"/>
    <path class="cls-1" d="M49.33,59.51c5.09-2.94,10.17-5.88,15.26-8.81.85-.49,1.7-.97,2.73-1.51.37,3.35.6,6.74.75,10.14.21,4.75.36,9.5.49,14.5-.25-.03-.45-.32-.76-.76-4.1,2.25-8.2,4.54-12.33,6.76-1.56.84-3.21,1.51-5.01,2.27-.38-.85-.65-1.7-.73-2.57-.09-1.07,0-2.15-.03-3.22-.17-5.26-.35-10.51-.48-16.15.07-.47.09-.55.12-.64Z"/>
    <path class="cls-6" d="M65.89,25.74c-.46.09-1,.06-1.51-.09-.42-.13-.8-.39-1.2-.6-3.71-1.97-7.42-3.94-11.46-6.09.66-2.45,1.32-4.9,2.14-7.48,4.09,4.61,8.03,9.35,12.03,14.26Z"/>
    <path class="cls-5" d="M.36,107.09c.18.79.21,1.71.22,2.87-.91-.67-.58-1.71-.22-2.87Z"/>
    <path class="cls-4" d="M.29,33.02c.13.5.12,1.12-.01,1.9-.12-.49-.12-1.13.01-1.9Z"/>
    <path class="cls-5" d="M1.15,110.85c.18-.11.42-.11.84-.04-.14.1-.46.13-.84.04Z"/>
    <path class="cls-4" d="M.2,56.86c.15-.05.24.05.3.28-.17.1-.28.01-.3-.28Z"/>
    <path class="cls-6" d="M40.63,113.01c.32.2.49.42.65.65-.24.06-.48.12-.72.18-.03-.27-.06-.54.07-.84Z"/>
    <path class="cls-6" d="M46.35,114.4c-.32-.19-.49-.42-.65-.65.24-.06.48-.12.72-.18.03.27.06.53-.07.83Z"/>
    <path class="cls-6" d="M41.42,59.14c.18-.29.48-.46.78-.63.07.15.14.3.21.44-.29.1-.58.2-.99.19Z"/>
    <path class="cls-2" d="M9.48,70.32c.3.55.51.92.94,1.64.48-.83.87-1.37,1.12-1.96.87-2.07,1.69-4.16,2.55-6.23.3-.72.82-1.36,1.62-.96.41.21.75.97.77,1.5.14,3.68.19,7.36.25,11.04.02,1.16-.34,1.98-2.09,1.45v-7.46c-1.77,1.31-2.22,3.07-2.73,4.83-.17.59-.67,1.35-1.18,1.51-.95.3-1.39-.5-1.63-1.35-.1-.34-.27-.66-.41-.99-.4-.9-.75-1.83-1.22-2.7-.27-.5-.73-.89-1.54-1.17.06.85.1,1.7.19,2.55.07.71.26,1.42.27,2.13,0,.85.26,2.01-1.12,2-1.34-.01-1.15-1.22-1.17-2.03-.05-2.24.06-4.49.06-6.73,0-1.17-.16-2.34-.07-3.5.04-.52.51-1,.79-1.5.48.3,1.18.48,1.39.91,1.12,2.25,2.11,4.56,3.22,7.02Z"/>
    <path class="cls-2" d="M36.1,68.69c.32.34.82.67.93.57.94-.83,1.77-1.78,2.7-2.62.68-.62,1.45-1.15,2.32-1.83.94,1.9-.52,2.55-1.13,3.45-.69,1.01-1.54,1.92-2.27,2.82,1.77,2.51,3.4,4.81,5.12,7.24-1.45.84-2.31.49-2.97-.54-.67-1.06-1.25-2.18-1.94-3.22-.46-.69-1.04-1.3-1.56-1.93-1.48.8-1.06,1.88-1.03,2.79.03.87.22,1.73.35,2.68-1.28.47-2.1.43-2.1-1.05-.01-3.94-.02-7.89.04-11.83,0-.41.5-.81.76-1.22.35.42.97.82,1,1.27.07,1.06-.13,2.14-.22,3.43Z"/>
    <path class="cls-2" d="M26.51,65.57c-.19,3.37-.37,6.49-.54,9.45,1.9,1.76,4.97-.14,6.73,2.71h-7.8c-.76-2.13-.72-10.73,0-13.74,1.19-.35,1.64.19,1.61,1.58Z"/>
    <path class="cls-2" d="M21.6,71.82c-.02,1.69,0,3.13-.1,4.55-.02.32-.49.81-.78.83-.28.02-.65-.43-.88-.75-.13-.19-.08-.52-.08-.78,0-3.84.01-7.69.04-11.53,0-.24.18-.48.28-.75,1.35-.35,1.53.49,1.53,1.46,0,2.23,0,4.47-.02,6.97Z"/>
    <path class="cls-3" d="M49.18,59.52c.12.08.1.17.03.39-.13.12-.23.11-.46.06,0-.17.14-.31.43-.45Z"/>
  </g>
</svg>