<?xml version="1.0" encoding="UTF-8"?>
<svg xmlns="http://www.w3.org/2000/svg" version="1.1" viewBox="0 0 1105.7 779.9">
  <!-- Generator: Adobe Illustrator 29.8.3, SVG Export Plug-In . SVG Version: 2.1.1 Build 3)  -->
  <defs>
    <style>
      .st0 {
        fill: #6d4517;
      }

      .st1 {
        fill: #fbfcfa;
        mix-blend-mode: lighten;
        opacity: .3;
      }

      .st2 {
        fill: #c07928;
      }

      .st3 {
        isolation: isolate;
      }

      .st4 {
        fill: #a76723;
      }

      .st5 {
        fill: #482f15;
      }

      .st6 {
        fill: #86c11f;
      }

      .st7 {
        fill: #a86825;
      }
    </style>
  </defs>
  <g class="st3">
    <g id="_圖層_2">
      <g id="Layer_1">
        <g>
          <path class="st5" d="M318.3,686.3c-6.9-4.4-13.5-8.8-20-13.5-.8-.5-1.5-1.3-2.4-1.8-2.5-1.8-4.7-3.8-7.2-5.6-10.3-8-20.3-16.5-29.8-25.5l-1,107.3c-.3,17.8,13.9,32.5,31.7,32.7,29.6.5,54.1-23.2,54.5-52.9l.2-25.5c-.5-.3-1.1-.5-1.6-.8-8.4-4.5-16.4-9.3-24.4-14.5h0Z"/>
          <path class="st5" d="M824.2,659.7c-5.1,4.2-10.4,8.4-15.8,12.2-.4.3-.8.6-1.2,1-5.4,3.9-10.8,7.5-16.4,11-1.1.8-2.1,1.6-3.3,2.4-7.7,4.9-15.5,9.5-23.6,13.9-.8.5-1.7.8-2.6,1.3l.2,25.5c.4,29.7,24.9,53.4,54.5,52.9,17.8-.2,32-14.9,31.7-32.7l-1-107.2c-5.1,4.8-10.2,9.6-15.6,14.1-2.2,2-4.7,3.8-7.1,5.7h0Z"/>
          <path class="st0" d="M944.2,305.5c0-.5,0-1,0-1.5,0,.5,0,1,0,1.5Z"/>
          <path class="st0" d="M931.5,473.6c5.8-12,13.3-22.5,21.5-32.4,4.7-29.7,5.5-59.9,2.1-89.6-1.2-10.4-3-21.7-5.6-33.4-2-2.3-3.5-5-4.4-7.9-.7-1.5-2.2-4.8-2.9-6.2-7.3-14.5-13.6-32.6-14.8-50.2-12.9-26-30.4-48.6-53.6-60.9,28.7,172.8-67.7,389.3-222.6,470.3-169.2,88.6-410.2-41.4-410.2-41.4,1.2,1.3,2.4,2.6,3.5,3.8,2.6,2.8,5.1,5.5,7.8,8.1,2.2,2.2,4.5,4.1,6.7,6.2,9.5,8.9,19.5,17.5,29.8,25.5,2.5,1.8,4.7,3.8,7.2,5.6.9.5,1.6,1.3,2.4,1.8,6.5,4.7,13.2,9.1,20,13.5,8,5.1,16.1,10,24.4,14.5.5.3,1.1.5,1.6.8,63.5,34.2,136.2,52.4,208.5,52.4s145-18.2,208.5-52.5c.8-.5,1.7-.8,2.6-1.3,8-4.4,15.9-9,23.6-13.9,1.2-.8,2.2-1.6,3.3-2.4,5.6-3.5,11-7.2,16.4-11,.4-.3.8-.6,1.2-1,5.4-3.9,10.6-8,15.8-12.2,2.4-1.9,4.8-3.6,7.1-5.7,5.3-4.5,10.5-9.3,15.6-14.1.4-.4.8-.8,1.2-1.2,1.4-1.4,2.9-2.6,4.3-4,.9-.8,1.5-1.6,2.4-2.5,3.3-3.3,6.8-6.8,10-10.3,1.8-2,3.6-4.1,5.5-6.1,2.2-2.7,4.5-5.2,6.8-7.9,1.7-2,3.4-4.2,5-6.2,2.7-3.3,5.1-6.6,7.7-10,1.1-1.5,2.1-2.9,3.2-4.4,13.1-18.2,24.5-37.7,34-58.6,1.4-3.1,2.6-6.4,4-9.6-1.5-2.8-2.9-5.7-4-8.6-4.2-12.5-.1-26.6,4.7-37.1h0Z"/>
          <path class="st4" d="M161.6,304.4c0-1.7-.1-3.5-.6-5h0c.4,1.8.5,3.4.6,5h0Z"/>
          <path class="st4" d="M651.1,663.2c154.9-81,251.4-297.4,222.6-470.2-.4-.2-.9-.4-1.4-.6l-10,15.4c-3.2,5.2-11.7.7-9.1-4.9,0,0,10-23.1,21.2-49-17.5,7.1-38.7,13.6-63.6,19.3-71.2,16.2-164.6,25.2-263.2,25.2s-183.5-8.2-253-23.1c-28.7-6.1-53-13.1-72.6-21l21,48.5c2.6,5.6-5.9,10.1-9.1,4.9,0,0-2.9-4.4-7.4-11.5-20.3,12.6-36,33.1-47.8,56.7-1.2,19.7-9.8,39.1-17.9,57-.9,3.3-2.5,6.1-4.6,8.4-2.6,11.7-4.4,23-5.6,33.4-3.3,29.6-2.5,59.9,2.1,89.5,8.2,9.9,15.6,20.4,21.5,32.4,9,15.7,7.7,32.3.7,45.7,1.3,3.2,2.5,6.5,4,9.6,9.3,20.4,20.4,39.4,33,57.2,1.9,2.7,3.9,5.2,5.8,7.8,1.5,2,3,4,4.5,5.9,2.2,3,4.7,5.9,7.1,8.8,1.2,1.5,2.5,2.9,3.8,4.3,2.6,3,5.1,6,7.8,8.9,0,0,241.1,130,410.2,41.4ZM245.5,494c.2,11.9,1,28.9-13.1,24.2-14.2-4.6-21.1-37.2-24-49.6s11.2-16.7,11.2-16.7c31.6-8.5,25.5,22.3,25.9,42.1h0ZM210.3,351.2c11.1-91.1,74.6-115.5,74.6-115.5,31.2-21.7,47.9,18.2,38.7,32.8-9.2,14.6-48.8,51-71.8,109.4-23,58.3-52.5,64.4-41.4-26.7h0Z"/>
          <path class="st0" d="M243.1,202.8l-21-48.5c19.6,7.8,43.9,14.9,72.6,21,69.5,14.9,159.4,23.1,253,23.1s192-8.9,263.2-25.2c24.9-5.8,46.1-12.2,63.6-19.3-11.2,25.9-21.2,49-21.2,49-2.6,5.6,5.8,10.1,9.1,4.9l10-15.4,38.5-59.4c9.1-8.4,16.8-19,22.4-31.4,1.1-2.2,1.7-4.6,1.9-7.1,1.6-4.4,1.1-8.5-.6-12,.2.8.2,1.7.3,2.6.1.5.1,1,.2,1.5,0,.7.3,1.3.3,2.1s-.1,1.2-.2,1.8c-.2,2.2-.8,4.3-1.9,6.3-8.6,15.8-22.1,28.4-38,35.5-20.2,9.1-48.6,17.2-84.4,24.1-71.2,13.5-164.6,21-263.2,21s-183.5-6.8-253-19.2c-40.1-7.1-71.6-15.6-93.8-25.5-16.5-7.3-30.4-20.2-39.1-36.3-1.1-1.9-1.6-4-1.9-6.1-.3,3.6.3,7.4,1.9,10.8,6,13.4,14.6,24.9,24.8,33.7,13.9,21.4,30.5,47,39.9,61.5,4.6,7,7.4,11.5,7.4,11.5,3.2,5.2,11.6.7,9.1-4.9h0Z"/>
          <path class="st5" d="M174.3,473.6c-5.9-12-13.3-22.5-21.5-32.4-17.6-21.3-38.7-39.3-56.6-60.5-22.6-27.6-50.3-57.1-59.2-90.6-8.5-45.4,42.5-69.9,82.2-61.1,7.4,1.4,14.1,3.3,17,9.1,5.2,10.8-4.3,35.6-10.5,48-3.6,7.3-7.6,14.8-5.3,23.1,5.3,18.6,26,19.3,36,8.8,2.2-2.3,3.8-5.1,4.6-8.4,8.1-17.9,16.7-37.3,17.9-57,.7-10.9-.8-21.9-5.9-32.8-17.8-33.8-60.5-34.9-93.3-29.4-48.7,7.3-90.2,56.8-77.1,107,12.9,42.9,44.9,71.8,73.9,101.8,17.8,18.6,39.4,34.8,56.7,53.9,11.1,13.6,33.2,38.8,19.7,55-3.9,5.2-12.9,11.9-17.5,8-5.2-7.8,1.5-20.2-.3-29.6-2.5-12-14.2-19.8-26.2-17.3-26.1,6.4-17.4,35.6-8.6,53.8,20.8,38.4,60.2,24.3,74.8-3.9,7-13.4,8.4-30.1-.7-45.7h0ZM161,299.3c.4,1.6.6,3.3.6,5,0-1.6-.2-3.3-.6-5,0-.1,0-.2,0-.4,0,.1,0,.3,0,.4h0Z"/>
          <path class="st5" d="M955,197.5c-22.8,11.9-29.3,33.7-27.6,56.3,1.3,17.6,7.5,35.8,14.8,50.2.7,1.4,2.2,4.8,2.9,6.2.9,2.9,2.3,5.6,4.4,7.9,2.7,3,6.2,5.3,10.4,6.4,16.6,4.7,31.5-13.4,24.6-29-.5-1.3-1.6-3.6-2.2-4.9-6.7-14.6-23.4-47.6-7.7-57.7,40-17.8,103.7,7.1,94.2,57.1-8.9,33.4-36.7,63-59.2,90.6-17.8,21.2-39,39.2-56.6,60.5-8.2,9.9-15.6,20.4-21.5,32.4-4.8,10.5-8.9,24.7-4.7,37.1,1.1,2.9,2.5,5.8,4,8.6,9.8,17.8,28.4,32.2,51,25.7,22.2-7.9,28.7-30.2,32.6-49.5,4.7-35.9-49.9-34.6-43.3,1.2,1.2,4.8,1.7,9.6,1.3,13.1-1.3,6.8-1.2,8.9-8.8,6.9-36.5-17.9,4.3-58.7,22.1-76.8,14.5-12.7,30.2-26.9,43.7-40.5,29-30,61.1-59,73.9-101.8,19-82.1-80.9-132.4-148.3-100.1h0ZM944.2,304c0,.5,0,1,0,1.5,0-.5,0-1,0-1.5Z"/>
          <path class="st0" d="M201.8,69c-4.3,2.8-8,7.5-11.2,12.7.9,1.7,2,3.3,3.2,4.8,1.3-1.4,3.6-3.4,7.5-5.8,45.2-28.6,187.7-48.6,346.4-48.6s321,26.9,351.5,52.2c1.1.9,1.8,1.6,2.4,2.2,1.3-1.8,2.5-3.6,3.6-5.5.1-.2.3-.4.4-.7-1.3-2.2-2.6-4.1-4.1-5.3-40.8-35.7-183.1-58.9-353.9-58.9s-297.8,20.9-345.9,52.9h0Z"/>
          <path class="st7" d="M161.9,96.2c8.7,16.1,22.6,29,39.1,36.3,22.1,9.8,53.7,18.4,93.8,25.5,69.5,12.4,159.4,19.2,253,19.2s192-7.4,263.2-21c35.8-6.9,64.2-15,84.4-24.1,15.9-7.2,29.4-19.8,38-35.5,1.1-2,1.7-4.1,1.9-6.3,0-.6.2-1.2.2-1.8s-.2-1.4-.3-2.1c0-.5,0-1-.2-1.5,0-.9-.2-1.7-.3-2.6-1.7-8.3-6.5-16.1-15-22.9C876.7,23.9,727.3,0,547.7,0S234.7,21.5,184.2,53.6c-15.4,9.6-23.4,20.8-24.1,33.4h0c0,.6-.1,1.1-.1,1.6s0,.7.1,1.1c0,.2,0,.3,0,.5.2,2.1.8,4.1,1.9,6.1h0ZM901.6,75c1.5,1.3,2.8,3.2,4.1,5.3-.1.2-.3.4-.4.7-1,1.9-2.3,3.8-3.6,5.5-5.1,7.1-11.8,12.8-19.5,16.3-17.7,8-44.5,15.5-77.2,21.8-69.2,13.1-160.5,20.4-257.1,20.4s-179.7-6.6-247.4-18.7c-37-6.5-66.9-14.6-86.4-23.2-8-3.6-15-9.4-20.2-16.6-1.1-1.6-2.2-3.2-3.2-4.8,3.1-5.2,6.8-9.9,11.2-12.7,48.1-32,187.2-52.9,345.9-52.9s313.1,23.2,353.9,58.9h0Z"/>
          <path class="st2" d="M284.9,235.8s-63.5,24.3-74.6,115.5,18.4,85.1,41.4,26.7c23-58.3,62.6-94.8,71.8-109.4,9.2-14.6-7.5-54.5-38.7-32.8h0Z"/>
          <path class="st2" d="M219.5,451.9s-14.2,4.2-11.2,16.7,9.8,45,24,49.6c14.2,4.6,13.4-12.4,13.1-24.2-.4-19.8,5.6-50.5-25.9-42.1h0Z"/>
          <path id="pot_liquid" class="st6" d="M899.2,84.3c-30.5-25.3-164.1-52.2-351.5-52.2s-301.2,20-346.4,48.6c-3.9,2.4-6.2,4.4-7.5,5.8,5.2,7.2,12.1,13,20.2,16.6,19.5,8.6,49.4,16.7,86.4,23.2,67.7,12.1,155.6,18.7,247.4,18.7s187.9-7.2,257.1-20.4c32.8-6.3,59.5-13.9,77.2-21.8,7.7-3.5,14.4-9.2,19.5-16.3-.6-.6-1.3-1.3-2.4-2.2h0Z"/>
          <g id="liquid_x5F_light">
            <ellipse class="st1" cx="610.5" cy="80.6" rx="126.3" ry="20.5"/>
            <ellipse class="st1" cx="351.9" cy="108.4" rx="20.8" ry="10.6"/>
            <ellipse class="st1" cx="287.7" cy="86.6" rx="20.8" ry="10.6"/>
          </g>
        </g>
      </g>
    </g>
  </g>
</svg>