<?xml version="1.0" encoding="UTF-8"?>
<svg id="_圖層_2" data-name="圖層 2" xmlns="http://www.w3.org/2000/svg" viewBox="0 0 46.4 70">
  <defs>
    <style>
      .cls-1 {
        fill: #f94e4e;
      }
    </style>
  </defs>
  <g id="_圖層_1-2" data-name=" 圖層 1">
    <path class="cls-1" d="M39.9,4.5c4.4,3.1,6.5,7.5,6.5,13.2s-2.2,9.2-6.7,13.4c-4.5,4.4-9.5,7.6-15.3,9.7l-.6,7.5h-4.3l-3-9.5c3.6-2.3,7.2-5.6,10.7-9.7,3.4-4.2,5.2-7.9,5.2-11.3s-.9-5.6-2.9-7.5-4.8-2.9-8.6-2.9-6.6.9-9.3,2.9c-2.8,1.9-5.2,5-7.1,9.4h-1.6L0,10.2c2.8-3.2,6.1-5.7,9.9-7.5S17.7,0,22,0c7.5,0,13.4,1.5,17.8,4.5h.1ZM27.3,56c1.6,1.5,2.3,3.4,2.3,5.9s-.7,4.4-2.3,5.8c-1.6,1.6-3.5,2.3-5.9,2.3s-4.4-.7-5.9-2.3c-1.6-1.5-2.3-3.4-2.3-5.8s.7-4.5,2.3-5.9c1.5-1.5,3.4-2.2,5.9-2.2s4.4.7,5.9,2.2Z"/>
  </g>
</svg>