<?xml version="1.0" encoding="UTF-8"?>
<svg id="_圖層_2" data-name="圖層 2" xmlns="http://www.w3.org/2000/svg" viewBox="0 0 1801.92 1039.5">
  <defs>
    <style>
      .cls-1, .cls-2 {
        fill: #fff;
      }

      .cls-3 {
        fill: #f3a1a9;
      }

      .cls-4 {
        fill: #e8f6fe;
      }

      .cls-2 {
        opacity: .8;
      }

      .cls-5 {
        fill: #ef7e8f;
      }

      .cls-6 {
        fill: #eb5d75;
      }

      .cls-7 {
        fill: #812b24;
      }
    </style>
  </defs>
  <g id="Capa_1" data-name="Capa 1">
    <g>
      <path class="cls-4" d="M656.24,85.08v-.02s-.03-.02-.03-.02c-11.43-12.53-25.9-23.16-40.95-30.23-11.66-5.47-24.6-8.46-37.52-8.46-6.49,0-12.98.76-19.3,2.33-23.4,5.84-38.01,23.54-47.9,44.51-5.15,10.9-8.53,22.53-10.98,34.28-1.34,6.43-2.2,12.94-2.58,19.49-.34,5.9-2.04,11.06-3.15,16.96-.16.76-.59.98-1.2,1.01-.68,0-1.45-.45-1.67-1.09-2.4-6.51-4.22-11.18-4.25-18.03v-.39c0-5.73.35-11.46,1.02-17.16.43-3.67,1.07-7.31,1.8-10.93l.04-.22-.13-.18c-12.74-17.35-39.79-50-78.08-74.02l-2.45-1.53,1.79,2.27c1.06,1.34,2.13,2.66,3.09,4.05l.07.2-.14.26-.38.15-.19-.04c-19.24-9.76-38.1-20.34-59.13-26.2-13.06-3.63-26.58-5.47-40.07-5.47-23.74,0-47.39,5.69-68.31,17.34-15.68,8.74-29.74,20.38-41.47,33.95-10.94,12.65-21.79,27.99-28.53,43.61.31-1.26.61-2.52.93-3.77l-.96-.26c-5.67,19.5-7.63,39.95-7.63,58.91,0,29.7,4.8,55.73,7.69,68.65l.02.1.06.08c3.51,4.91,6.72,10.08,9.68,15.47l.24.87c0,.89-.83,1.63-1.75,1.63l-1.17-.46c-13.93-12.22-26.8-27.53-43.9-35.83-5.44-2.64-11.79-4.53-18.06-4.53-2.85,0-5.68.39-8.4,1.28-8.68,2.86-13.84,10.89-16.59,19.04-2.11,6.27-3.09,12.84-3.09,19.43,0,12.6,3.55,25.29,9.53,36.18,4.47,8.15,9.9,15.77,16.07,22.7,5.87,6.58,12.87,11.74,16.72,19.55l.09.39c-.02.45-.26.78-.63.78h-.06c-9.16-.66-16.14-6.45-23.13-12.32-1.47-1.24-2.89-2.56-4.31-3.9l-.11-.11-.15-.02c-3.21-.52-6.46-.77-9.72-.77-11.63,0-23.35,3.23-33.47,9.17l-.07.04-.05.06c-10.8,12.06-19.77,24.64-23.82,40.74-1.28,5.08-1.91,10.22-1.91,15.32,0,10.81,2.85,21.46,8.5,31.03,8.71,14.73,22.97,25.18,37.6,33.33,8.01,4.46,16.44,7.69,24.99,10.81,8,2.92,15.17,6.36,22.61,10.45l.3.51-.48.68c-4.97,1.53-9.92,2.21-14.84,2.21-8.23,0-16.36-1.9-24.23-4.9l-.15-.06-.16.04c-34.2,9.16-66.06,33.94-80.27,64.82v.03s-.02.03-.02.03c-2.41,7.64-3.45,16.09-3.45,24.51,0,7.59.85,15.16,2.33,22.06,3.37,15.77,10.49,30.96,21.15,43.14,10.99,12.56,24.11,22.49,39.25,29.56,14.71,6.86,30.48,11.27,45.38,17.43l.73,1.13c-.03.37-.13.61-.65.75-4.58.99-9.24,1.45-13.93,1.45-3.45,0-6.92-.25-10.38-.71l-.15-.02-.13.06c-27.11,12.85-80.14,49.01-80.35,134v4.39s.98-4.28.98-4.28c.77-3.29,1.81-6.53,3.18-9.67h.05s.15.04.15.04h.01s0,.02,0,.02h0c-.55,4.16-.82,8.27-.82,12.33,0,25.93,10.69,49.89,24.55,71.93,23.93,38.07,60.34,70.94,104.88,81.98,12.08,2.99,24.66,4.51,37.28,4.51,11.83,0,23.7-1.33,35.21-4.03h.03s.03-.02.03-.02c34.58-12.81,65.36-35.44,87.26-64.97l.26-.36-.32-.3c-7.17-6.78-13.69-13.54-19.5-20.26l-.37-.43-.38.42c-16.82,18.62-44.3,26.79-71.93,26.78-20.38,0-40.83-4.44-57.08-12.33-6.55-3.18-12.72-7.02-18.56-11.33l-.04-.03-.04-.02c-3.59-1.79-6.82-3.84-8.64-4.95-7.46-4.53-14.31-9.87-20.16-16.32-5.76-6.35-10.87-13.38-15-20.89-2.1-3.8-3.63-7.97-4.99-12.13-.65-1.96-.6-4.01-1-6.19-.42-2.27-1.01-4.48-1.4-6.7v-.06s.13-.3.13-.3l.27-.13.18.15c1.48,3.07,3.29,5.93,5.2,8.72l2.36,3.46-1.48-3.91c-5.41-14.28-8.37-29.47-8.37-44.71,0-3.65.17-7.3.51-10.94,4.83-51.14,43.85-97.36,93.46-110.71l1.53-.41-1.49-.54c-28.77-10.41-57.97-22.43-79.37-44.12-15.5-15.7-25.99-37.78-25.99-59.32,0-8.19,1.51-16.3,4.83-23.96,14.64-33.84,55.94-45.8,92.29-53.7l1.3-.28-1.16-.64c-23.49-13-47.84-26.84-62.39-49.2-6.82-10.48-10.65-23.47-10.65-36.02,0-14.18,4.88-27.76,15.79-36.62,9.36-7.6,20.81-10.36,32.92-10.36,8.88,0,18.1,1.48,27.07,3.62l4.67,1.11-4.34-2.05c-15.35-7.24-26.16-24.49-26.15-41.29,0-5.93,1.34-11.81,4.29-17.19,6.83-12.48,21.09-18.87,35.26-18.87,13.8,0,27.42,6.05,33.96,18.26l1.88,3.5-.95-3.86c-7.43-30.11-14.9-60.66-14.9-91.49,0-3.1.07-6.2.23-9.3,1.73-33.98,14.9-68.97,42.09-89.25,16.48-12.3,36.82-17.99,57.46-17.99,16.94,0,34.07,3.84,49.39,10.99,34,15.86,59.82,45.91,77.44,79.12,12.34,23.26,21.03,48.18,28.63,73.48l.58,1.93.39-1.98c.66-3.34,1.54-6.65,2.55-9.86,2.8-8.85,7.07-17.82,13.88-24.19,6.65-6.2,15.08-9.97,24.2-10.21h.77c5.38-.02,12.71,1.42,16.51,5.31l.04.04.06.03c6.2,3.7,10.86,9.66,11.73,16.38l.99-.06c.14-17.7.75-35.53,6.19-52.23,5.96-18.31,18.77-35.4,36.9-41.55,5.01-1.7,10.12-2.48,15.24-2.48,21.02,0,42.14,13.24,56.02,30.14,2.16,2.63,4.16,5.34,6.07,8.11l.25.37.39-.21c9.1-4.91,18.22-9.73,27.38-14.44l.36-.18-.1-.39c-3.13-11.87-10.44-34.11-25.11-54.1Z"/>
      <path class="cls-1" d="M647.77,145.3c-14.03-17.06-35.35-30.49-56.79-30.5-5.22,0-10.44.8-15.56,2.54-18.54,6.3-31.5,23.66-37.53,42.18-5.09,15.65-5.97,32.21-6.19,48.65-1.88-5.47-6.05-10.17-11.27-13.29l-3.34-1.99,2.73,2.77c1.65,1.68,2.68,3.78,2.69,6.49v.13c0,.85-.78,1.7-1.62,1.69h-.07c-1.72-.07-3.06-.12-4.62-.66-1.66-.58-3.27-1.21-4.93-1.83-2.46-.91-5.01-1.31-7.59-1.31-.66,0-1.32.03-1.98.08-7.17.53-13.22,4.26-17.95,9.41-5.29,5.74-8.97,12.61-11.5,19.94-1.27,3.69-2.2,7.44-3.2,11.16l-.02.06v.06c-.05,1.33-.07,2.67-.07,4.01,0,5.7.41,11.41.89,17.09-.97-3.47-1.94-6.94-2.93-10.41l-.41-1.43-.54,1.39c-.64,1.65-1.31,3.31-1.87,5.03l-.91.62-.75-.59c-.62-2.58-1.38-5.21-1.67-7.78-.09-.84-.13-1.69-.13-2.56,0-1.93.19-3.91.36-5.81.18-1.94.5-3.89.89-5.84l.02-.12-.04-.12c-7.6-25.33-16.32-50.31-28.7-73.66-17.68-33.34-43.63-63.57-77.9-79.56-15.46-7.21-32.72-11.08-49.82-11.08-20.82,0-41.38,5.74-58.06,18.18-27.51,20.54-40.74,55.81-42.49,90-.16,3.12-.24,6.24-.24,9.35,0,30.01,7.03,59.67,14.22,88.85-7.21-10.87-20.14-16.27-33.21-16.27-14.45,0-29.07,6.5-36.13,19.38-3.04,5.54-4.41,11.59-4.41,17.67,0,16.15,9.72,32.45,23.89,40.57-8.02-1.75-16.19-2.96-24.14-2.96-12.26,0-23.97,2.8-33.55,10.58-11.2,9.1-16.16,23-16.16,37.4,0,12.75,3.88,25.91,10.81,36.56,14.5,22.27,38.46,36.07,61.6,48.89-36.05,7.93-76.93,19.96-91.71,53.99-3.38,7.8-4.92,16.05-4.92,24.36,0,21.87,10.61,44.15,26.27,60.02,21.25,21.54,50.02,33.55,78.37,43.86-49.35,13.97-87.94,60.05-92.78,111.14-.35,3.67-.52,7.36-.52,11.03,0,15.37,2.98,30.67,8.43,45.06l.02.06.03.05c2.7,3.94,5.62,7.73,8.37,11.58,4.71,6.59,10.16,12.59,16.27,17.92,5.97,5.2,12.4,10.06,19.26,14.07,3.4,1.98,6.91,3.77,10.51,5.35,1.67.73,3.71,1.7,5.29,2.97,1.59,1.27,2.68,2.78,2.68,4.62v.15s0,.06,0,.06l.02.06.09.71c0,.92-.44,1.77-1.21,2.4l-.06.04-.04.06c-1.09,1.57-2.74,2.18-4.83,2.19-3.18,0-7.26-1.55-10.94-3.4l-.52.85c5.88,4.34,12.11,8.22,18.72,11.43,16.42,7.97,37,12.43,57.52,12.43,27.81,0,55.56-8.19,72.67-27.11l.3-.33-.29-.33c-8.89-10.28-16.22-20.43-21.58-30.21-29.15-53.19-42.07-101.18-42.07-150.5,0-51.45,14.06-104.38,38.48-166.16,57.23-144.82,218.68-277.66,394.27-372.52l.49-.26-.32-.46c-1.92-2.78-3.93-5.52-6.12-8.18Z"/>
      <path class="cls-6" d="M1645.43,115.9C1585.97,45.75,1414.6,0,1215.55,0c-113.88,0-240.46,18.67-370.23,66.36-54.02,19.85-109.8,44.31-164.69,72.51-9.17,4.71-18.3,9.53-27.4,14.45-175.7,94.93-337.32,227.82-394.73,373.03-24.44,61.84-38.55,114.89-38.55,166.53,0,49.5,12.97,97.68,42.19,150.98,5.4,9.86,12.77,20.06,21.7,30.38,5.83,6.74,12.38,13.53,19.57,20.33,76.77,72.56,227.58,144.93,381.95,144.94,23.35,0,46.78-1.66,70.05-5.22,213.56-32.74,277.33-194.12,397.58-260.23,58.4-32.14,131.57-34.96,208.69-41.52l.29-.02.12-.26c3.84-8.2,11.48-13.39,20.14-15.74,3.39-.92,6.85-1.24,10.35-1.24h1.4s-1.08-.89-1.08-.89c-2.4-1.96-4.52-4.17-6.13-6.79-1.65-2.69-2.53-5.98-2.53-9.17,0-2.46.52-4.86,1.61-6.9l.67-1.25-1.3.56c-.61.26-1.23.54-1.83.89l-.5.13-.92-.37-.4-.79.19-.53c2.43-3.23,5.7-5.31,9.57-6.53,1.73-.54,3.49-.78,5.28-.78,2.34,0,4.71.41,7,1.1,1.43.42,2.81.99,4.19,1.61l1.61.73-.99-1.46c-10.17-15.03-19.57-30.65-23.72-48.12-1.28-5.38-1.94-10.99-1.94-16.6,0-4.71.46-9.41,1.42-13.96v-.04s.01-.05.01-.05c.67-23.41,20.32-42.68,43.79-42.68.84,0,1.69.02,2.54.08,12.49.74,24.89,6.3,33.18,15.75.83.94,1.58,1.96,2.33,3l1.16,1.59-.27-1.95c-.91-6.67-1.41-13.39-1.41-20.12,0-2.42.06-4.84.2-7.26.1-1.72.25-3.46.63-5.1l.67-2.93-1.59,2.56-.35.18-.45-.38v-.02c.12-2.84,1.59-4.9,3.72-6.34,2.13-1.43,4.92-2.18,7.53-2.26h.53c7.26-.02,12.9,4.86,17.55,10.21,3.02,3.47,5.83,7.13,8.49,10.9l1.5,2.12-.61-2.53c-4.32-17.91-7.77-36.62-7.77-54.55,0-20.01,4.29-39,16.45-54.84,1.05-1.36,2.19-2.67,3.39-3.95h0c1.17-1.25,2.41-2.44,3.7-3.58l-.59-.8c-1.9,1.13-3.75,2.35-5.5,3.78l-.05.03v-.02s.02-.05.02-.05c4.89-6.21,11.51-10.21,18.72-13.17h0c4.99-2.05,10.25-3.61,15.42-5,3.99-1.08,8.1-1.96,12.13-1.96,2.77,0,5.5.41,8.17,1.47,6.33,2.49,10.66,8.01,14.66,13.47,8.26,11.23,13.72,24.77,16.48,38.42.13.64.23,1.31.35,1.99l.39,2.15.58-2.1c3.26-11.86,8.73-23.12,16.12-32.95,2.6-3.46,5.56-6.81,9.44-8.39l.79-.21.16-.04.59-.71c2.16-1.25,4.2-1.8,6.12-1.8,5.45-.02,10.22,4.43,13.96,10.13,3.74,5.68,6.42,12.53,7.82,17.04.29.94.5,1.94.76,2.94l.32,1.25.61-1.14c9.97-18.73,23.52-36.17,43.55-37.66.83-.06,1.65-.09,2.48-.09,2.27,0,4.52.23,6.72.67h.04s.04,0,.04,0c1.4.04,2.77.18,4.11.4l.52.09.06-.52c2.51-22.52,1.37-45.44,3.72-67.86,9.58-91.53,1.91-159.73-72.38-247.38Z"/>
      <path class="cls-5" d="M1629.31,201.47c-2.03-21.82-11.17-42.01-23-60.12-6-9.17-12.66-17.72-19.69-26.1-6.86-8.18-12.39-17.14-18.79-25.72-.35-.48-.5-.96-.5-1.47,0-.87.47-1.79,1.19-2.47l.48-.45-.56-.34c-26.69-16.28-57.97-26.77-88.08-36.11-83.02-25.74-170.82-36.4-257.26-36.4-187.34,0-368.32,50.09-480.71,105.57-164.16,81.02-292.57,162.1-402.54,299.59-8.93,11.16-17.21,24.09-24.36,38.03l-1.86,3.63,2.68-3.07c2.66-3.05,5.42-6.01,8.39-8.82l.22-.1.36.33-.05.17c-14.3,25-23.98,54.58-24.75,83.56-.02.81-.03,1.61-.03,2.42,0,11.66,2.21,22.89,5.18,34.14,3.08,11.69,6.34,23.12,11.76,34.04,10.67,21.5,26.58,40.24,46.03,54.32,19.65,14.23,41.82,24.85,63.7,35.01,10.82,5.03,21.73,9.81,32.34,15.22,11.34,5.78,21.53,12.43,31.64,20.16.48.37.71.93.71,1.49-.02.87-.5,1.55-1.3,1.56l-.56-.09c-3.02-.96-6.04-1.89-9.06-2.83l-.37.92c59.51,29.08,121.67,50.37,185.07,50.37,16.51,0,33.11-1.45,49.77-4.57,36.37-6.83,69.59-21.1,101.12-39.39l.03-.02.03-.02c22.79-17.74,45-36.25,66.82-55.16,31.13-26.98,62.5-53.39,97.35-75.45,34.59-21.9,71.34-40.24,109.45-55.19,37.93-14.88,77.19-25.96,117.31-33.08,20.41-3.62,41.01-6.69,61.72-7.2,2.39-.06,4.78-.08,7.18-.08,7.83,0,15.72.26,23.54.41,5.16.1,9.9,1.39,15.01,2.47,4.73,1,9.59,1.34,14.28,2.19.94.16,1.45,1.06,1.46,2.06-.01.99-.5,1.84-1.45,1.99-6.75,1.08-13.39,2.5-20.05,3.72l.13.99c30.59-2.51,60.92-6.49,90.44-14.66,42.1-11.65,81.43-32.23,115.62-59.35l.03-.02.03-.03c1.17-1.25,2.41-2.44,3.7-3.58l-.59-.8c-1.9,1.13-3.75,2.35-5.5,3.78l-.05.03v-.02s.02-.05.02-.05c4.89-6.21,11.51-10.21,18.72-13.17l.08-.03.07-.06c14.3-12.89,27.52-26.99,39.46-42.1l.02-.02v-.02c3.93-6.18,7.82-12.37,11.5-18.7,6.36-10.95,11.06-22.22,16.23-33.68,9.39-20.83,16.82-42.66,22.27-64.85,4.73-19.25,8.6-39.52,8.6-59.59,0-4.41-.19-8.82-.59-13.2Z"/>
      <path class="cls-6" d="M1364.16,731.41l-1.17,1,1.53-.13,1.21-.1.24-.02.13-.2c.41-.62.87-1.21,1.35-1.82l1.84-2.37-2.51,1.65c-.92.6-1.8,1.27-2.63,1.99Z"/>
      <path class="cls-4" d="M470.02,240.92l.15-4.3-1.13,4.15c-.16.58-.3,1.15-.46,1.71-.68,2.4-1.08,4.9-1.88,7.16h0c-.22.63-.47,1.25-.72,1.89l-.06.16.05.16c1.46,5.13,2.9,10.26,4.33,15.39l.98-.18c-.67-7.35-1.31-14.79-1.31-22.16,0-1.33.02-2.65.07-3.97Z"/>
      <path class="cls-4" d="M1720.49,555.16c-.37-1.75-.36-3.8-1.06-5.64-.98-2.54-2.12-5.05-3.36-7.5l-.13-.26h-.29c-2.56-.15-4.15-.35-4.16-.35l-.72-.09.17.7s.22.88.43,2.48c.22,1.6.44,3.91.44,6.71,0,8.17-1.87,20.55-11.03,32.15-8.48,10.76-24.32,12.74-34.54,12.73-5.62,0-9.49-.59-9.5-.58l-.78-.12.23.75s.55,1.82,1.1,4.74c.55,2.92,1.1,6.93,1.1,11.26,0,6.69-1.33,14.12-5.92,19.52-9.85,11.58-18.76,14.8-26.36,14.81-1.23,0-2.43-.09-3.59-.23l-1.22-.16.76.96c2.53,3.19,4.87,6.64,7.08,10.23l.06.1.11.06c5.41,3.19,11.69,4.75,17.96,4.75,9.57,0,19.17-3.62,25.75-10.68,6-6.44,9.01-15.2,9.01-23.95,0-6.03-1.43-12.05-4.3-17.32l-.12-.23-.26-.03c-5.52-.66-10.66-2.42-12.71-7.71l-.06-.3.3-.57.75-.26.63.24c1.06,1.06,2.29,1.34,3.47,1.33,1.03,0,2.05-.19,3.06-.24,2.24-.13,4.47-.26,6.71-.36,5.45-.23,10.72-1.08,16-2.36,8.13-1.97,16.27-6.22,20.86-13.61,3.69-5.95,5.02-13.11,5.02-20.07,0-1.83-.09-3.65-.26-5.43-.17-1.81-.29-3.64-.68-5.48Z"/>
      <path class="cls-4" d="M1614.78,644.38l-.09-.12-.14-.05c-1.49-.53-2.89-1.1-4.17-1.62l-1.59-.65,1,1.4c7.07,9.9,11.08,21.96,11.34,34.12v.56c.01,5.25-1.62,11.22-6.28,12.49-.63.18-1.24.26-1.83.26-5,.07-9.2-6.21-11.45-11.66l-.78-1.85-.18,2c-1,11-2.13,22.33-7.66,31.72-4.61,7.85-13.29,13.98-22.01,13.97-1.69,0-3.39-.23-5.07-.72-6.89-2-12.05-7.89-15.94-14.09-6.35-10.11-10.41-21.65-11.78-33.51l-.99.07c.09,3.85.19,7.72.19,11.59,0,11.02-.74,22-4.24,32.32-4.17,12.33-13.19,23.71-25.13,28.06l-.35.13.03.38c.21,2.95.39,5.86.39,8.73,0,4.2-.38,8.31-1.58,12.33l-.09.29.22.21c3.15,3,7.69,4.86,12.18,4.87,2.23,0,4.46-.46,6.48-1.49,7.84-3.99,11.51-12.98,11.51-21.8l-.02-1.25v-.13s-.08-.11-.08-.11c-1.51-2.42-2.89-4.92-3.97-7.6l-.07-.32.35-.65.84-.3.67.27.36-.34-.36.34c11.61,12.33,27.23,22.33,44.64,23.28,1.02.06,2.04.08,3.05.08,15.35,0,30.04-6.33,40.26-17.99,9.86-11.26,13.18-26.14,13.18-40.77,0-3.92-.24-7.83-.65-11.64-2.01-18.53-8.93-35.97-20.17-50.82Z"/>
      <path class="cls-4" d="M1801.78,491.64l-.5.04.5-.04c-.52-6.54-2.62-13.32-7.55-17.82-3.76-3.43-8.62-4.93-13.61-4.93-6.4,0-13.05,2.45-18.08,6.5-6.5,5.24-10.87,12.41-14.55,19.9l-.04.08v.09c-.51,6.02-1.66,11.91-4.66,16.76l-.56.91,1.06-.16c.73-.11,1.44-.17,2.13-.17,1.6,0,3.02.33,4.08,1.13,1.05.8,1.81,2.07,2.05,4.15.12,1.05.17,2.05.17,3.01-.01,8.27-4.15,13.21-9.86,16.28-5.71,3.05-13,4.12-19.06,4.38l-1.3.06,1.01.83c2.99,2.45,5.26,5.94,6.77,9.66l.12.3h.33c.91.03,1.83.05,2.74.05,15.49,0,31.04-3.78,43.82-12.47,14.76-10.05,25.14-27.16,25.15-44.96,0-1.19-.05-2.38-.14-3.58Z"/>
      <path class="cls-4" d="M1498.55,750.45c-13.05,0-26.34-9.91-26.34-22.8v-3.56s-.98,3.43-.98,3.43c-1.95,6.93-4.1,14.11-9.16,18.98-2.84,2.74-6.99,4.42-10.87,4.42-2.97,0-5.76-.96-7.78-3.12-2.27-2.43-3.05-5.61-3.05-9.07,0-3.17.67-6.55,1.41-9.66l.45-1.91-1.31,1.46c-2.84,3.16-6.96,4.64-11.18,4.64-4.36,0-8.81-1.58-11.98-4.45l-.22-.2-.28.1c-.77.28-1.6.43-2.45.43l-.92-.06c-5.04-.69-9.93-2.49-15.05-3.51-4.31-.86-8.73-1.25-13.12-1.25h-1.22c-6.12.11-12.51,1.71-17.71,5.12l-.07.05-.05.07c-.47.61-.95,1.22-1.39,1.88-2.68,4.07-4.33,8.77-4.33,13.78v.17c.1,12.59,8.47,24.81,20.09,33.9,11.63,9.08,26.54,15.06,39.91,15.07,13.08.02,24.75-5.8,30.1-20.02l.05-.13-.02-.13c-.64-3.84-.7-7.84-.76-11.81h0s.59-.6.59-.6l.7.48h0c.31.84.65,1.63.96,2.42l.69,1.76v-.09c.94,2.26,1.94,4.49,3.24,6.62,1.88,3.08,3.52,6.43,6.4,8.96,2.85,2.5,6.29,3.54,9.77,3.54,2.67,0,5.37-.61,7.9-1.62,6.53-2.63,11.1-7.22,14.27-13.43,3.18-6.21,6.18-12.77,8.3-19.5l.24-.77-.8.13c-1.33.22-2.68.33-4.03.33Z"/>
      <path class="cls-4" d="M1654.29,506.88l.74,2.86.24-2.94s.03-.43.1-1.11l.22-2.34-1.3,2.29-.07.08-.18.2.07.26.18.7Z"/>
      <path class="cls-4" d="M1657.72,485v.78s-.04,4.33-.04,4.33l1.02-4.21c2.09-8.64,5.37-18,10.32-23.9,9.15-10.94,22.02-20.95,35.6-20.93,1.85,0,3.72.18,5.59.58,11.87,2.47,22.25,12.64,24.71,24.49,1.3,6.24,1.79,12.53,1.79,18.45,0,8.72-1.06,16.61-2.12,22.33-1.06,5.71-2.11,9.22-2.11,9.23l-.35,1.16,1.07-.58s1.58-.86,3.83-1.78l.3-.12v-.32c.32-7.51,1.6-14.94,1.76-22.58.01-.75.02-1.5.02-2.25,0-7.74-.78-15.58-2.38-23.14-3.41-16.06-14.29-30.26-30.54-35.03l-.09-.09.15-.16c.73-.05,1.44-.08,2.15-.08h1s.11-.97.11-.97c-2.27-.45-4.58-.69-6.92-.69-.85,0-1.7.03-2.55.1-20.64,1.57-34.35,19.4-44.36,38.18l-.09.17.05.19c1.4,5.48,2.08,11.19,2.08,16.86Z"/>
      <path class="cls-4" d="M1402.23,691.5c-2.96-1.22-6.15-1.62-9.23-1.9-.51-.05-1.01-.07-1.52-.07-2.18,0-4.29.44-6.28,1.29l-.16.07-.08.16c-1.17,2.2-1.72,4.76-1.72,7.36,0,3.38.93,6.83,2.68,9.69,1.68,2.75,3.89,5.04,6.35,7.05l.14.11h.18s.15,0,.15,0c2.13,0,4.27.09,6.4.31,4.48.46,9.12,1.01,13.51,2.14l.56.14.06-.57c.49-4.65,3.14-9.16,6.9-12.08l.72-.56-.86-.3c-3.31-1.15-5.81-4.44-8.6-6.87-2.73-2.35-5.81-4.56-9.2-5.96Z"/>
      <path class="cls-4" d="M1600.3,493.29l.09,1.56.83-1.33c6.04-9.75,14.5-19.53,23.57-19.48.64,0,1.29.05,1.94.15l.08-.49-.07.49c9.46,1.43,16.04,8.45,20.41,15.67l.78,1.29.14-1.5c.19-2.07.29-4.16.29-6.25,0-3.87-.35-7.74-1.08-11.53-1.23-6.31-3.14-12.44-6.19-18.15-2.47-4.54-7.15-11.82-13.32-11.89h-.35s-.05,0-.05,0c-.59,0-.9-.46-.92-1.04l.11-.49.45-.96-1.86.49h-.03s-.03.02-.03.02c-4.18,1.71-7.24,5.22-9.88,8.73-7.47,9.94-12.99,21.31-16.28,33.29l-.03.11.02.11c.67,3.65,1.16,7.41,1.39,11.2Z"/>
      <path class="cls-4" d="M1502.37,561.19l.06.08c2.11,2.97,4.14,5.99,6,9.11,1.39,2.34,2.56,4.81,3.67,7.31l1.31,2.95-.36-3.21c-1.45-12.96-3.27-33.46-3.27-54.38,0-15.2.96-30.63,3.73-43.53,1.69-7.9,7.93-16.59,15.72-23.25,7.79-6.67,17.13-11.31,24.87-11.3,1.59,0,3.12.19,4.55.6,3.33.91,7.19,5.52,10.88,11.96,5.56,9.65,10.88,23.32,14.81,34.56,1.96,5.62,3.58,10.64,4.71,14.25,1.12,3.61,1.75,5.81,1.76,5.81l.4,1.4.54-1.36s.21-.53.54-1.33l.04-.11v-.12c-.53-8.87-.76-17.78-2.46-26.63-2.27-11.78-6.66-22.69-12.72-33-2.86-4.86-6.06-10.73-10.94-14.12-3.35-2.32-7.51-2.94-11.59-2.95-2.34,0-4.66.21-6.8.44-10.11,1.09-20.49,3.46-29.33,8.73l-.04.02-.04.03c-1.31,1.16-2.57,2.37-3.76,3.65-1.21,1.29-2.38,2.62-3.45,4.02-12.33,16.07-16.66,35.31-16.66,55.45,0,18.05,3.47,36.83,7.8,54.78l.02.09Z"/>
      <path class="cls-4" d="M1465.93,582.09l.07.1c2.15,2.94,3.97,6.11,5.45,9.45l1.12,2.52-.16-2.75c-.07-1.14-.11-2.29-.11-3.42,0-7.13,1.51-13.75,6.14-16.66l-.27-.42.27.42c1.34-.85,2.84-1.23,4.47-1.23,5.93-.03,13.6,5.13,19.76,10.44l2.03,1.74-1.26-2.35c-.9-1.68-1.8-3.36-2.69-5.05-3.01-5.69-6.44-11.17-10.26-16.37-1.77-2.42-3.63-4.81-5.68-7.03-1.89-2.03-3.69-4.39-6.22-5.94-1.55-.95-3.28-1.41-4.98-1.41-3.23,0-6.36,1.67-8.11,4.71h0s-.13.11-.13.11l-.04.16c-.4,1.73-.56,3.53-.65,5.27-.14,2.44-.2,4.87-.2,7.31,0,6.77.5,13.54,1.42,20.25l.02.12Z"/>
      <path class="cls-4" d="M1407.56,685.37l.08.12.13.06c2.8,1.27,5.47,2.87,7.94,4.7,3.78,2.77,8.81,6.02,9.63,10.63l-.04.94-.03.67.65-.17c1.11-.29,2.26-.45,3.42-.45l1.02.04,1.81.16-1.47-1.06c-13.39-9.64-22.3-24.74-26.45-40.76-2.23-8.61-3.17-17.47-3.17-26.38,0-7.68.7-15.38,1.86-22.97,1.11-7.25,2.86-14.76,7.86-19.88,4.69-4.81,11.36-6.66,18.3-6.66,3.93,0,7.95.6,11.7,1.57,9.1,2.36,18.87,10.3,25.64,16.8l1.87,1.8-1.07-2.36c-2.29-5.05-4.48-10.16-7.6-14.86-6.02-9.08-16.18-15.01-26.81-16.78-2.03-.34-4.05-.5-6.04-.5-20.79.01-38.86,17.66-41.17,38.37-.06.53-.44.75-.83.76-.38-.03-.65-.16-.68-.72v-.32c0-.67.05-1.35.07-2.05l-.99-.12c-.97,4.62-1.44,9.39-1.44,14.16,0,5.68.67,11.37,1.96,16.83,4.19,17.67,13.68,33.39,23.86,48.45Z"/>
      <path class="cls-4" d="M356.63,198.25v.5s0-.5,0-.5c-7.12,0-14.34,2.07-20.28,6.62-4.09,3.15-6.9,7.34-9,11.65-2.36,4.88-3.81,9.99-4.8,14.56-1.23-1.08-2.55-2.14-4.09-3.06-2.9-1.73-6.45-3.08-10.48-3.08h-.07c-3.35,0-6.88,1-10.14,3.04-3.52,2.17-6.12,5.13-7.66,8.35-1.55,3.21-2.08,6.54-2.08,9.61,0,2.97.52,5.68,1.17,8.14-.54-.06-1.07-.13-1.69-.13-1.64,0-3.36.14-5.14.59-1.77.45-3.66,1.25-5.36,2.69-5.79,5.01-8.15,12.26-8.16,19.1,0,1.41.1,2.81.3,4.19,1.18,7.97,5.09,14.67,9.21,20.34,1.17,1.6,2.98,2.45,4.82,2.45,1.22,0,2.45-.37,3.51-1.15,1.6-1.17,2.45-2.98,2.45-4.82,0-1.22-.37-2.45-1.15-3.51h0c-3.6-4.91-6.34-10.03-7.04-15.02-.12-.82-.18-1.65-.18-2.48v-.04c0-4.12,1.53-7.94,3.98-9.99l.56-.21c.47-.12,1.25-.22,2.15-.22h0s.02,0,.02,0h.02s.05,0,.05,0c1.9,0,4.33.41,6.15.85.93.22,1.72.44,2.26.61l.61.19.14.04h.02s15.37,5.32,15.37,5.32l-8.29-13.99s-1.06-1.84-2.02-4.36c-.98-2.5-1.84-5.76-1.84-8.53v-.05s0-.01,0-.01h0c0-1.73.3-3.21.89-4.43.62-1.24,1.46-2.3,3.21-3.41,1.63-.99,2.77-1.23,3.91-1.25,1.32,0,2.76.44,4.35,1.39,2.36,1.39,4.79,3.91,6.44,6.07.84,1.08,1.5,2.07,1.94,2.76l.49.79.11.18.02.03,10.21,18.58.96-21.19v-.21c.08-1.21.55-7.55,2.3-14.31.87-3.38,2.06-6.86,3.57-9.82,1.5-2.97,3.33-5.35,5.23-6.79,3.58-2.75,8.19-4.16,13.03-4.16h.05c5.88,0,11.92,2.16,16.17,5.95,5.82,5.12,9.1,13.28,9.1,21.53v.04s0,0,0,0c0,3.02-.43,6.02-1.29,8.86-.17.57-.26,1.16-.26,1.73,0,2.56,1.66,4.92,4.24,5.7.58.17,1.16.26,1.73.26,2.56,0,4.92-1.66,5.71-4.24,1.21-4.01,1.8-8.16,1.8-12.31-.01-11.3-4.35-22.69-13.12-30.5-6.71-5.92-15.43-8.94-24.13-8.95Z"/>
      <path class="cls-4" d="M213.02,467.55h0c0-1.27.13-2.45.39-3.51,1.56-6.22,3.9-9.05,6.05-10.67,2.16-1.59,4.58-2.11,6.84-2.12.97,0,1.88.11,2.57.24l.87.21.26.08.07.02h0s.02.01.02.01c7.46,3.16,13.76,9.53,16.84,17.03,1.05,2.54,3.51,4.08,6.1,4.08.84,0,1.7-.16,2.52-.5,2.54-1.05,4.08-3.51,4.08-6.1,0-.84-.16-1.7-.5-2.52-4.48-10.78-13.13-19.52-23.85-24.12l-.2.46.19-.46c-1.15-.49-2.39-.85-3.88-1.14-1.49-.29-3.2-.48-5.1-.49h-.04c-4.28,0-9.68,1.05-14.62,4.69-4.97,3.63-9,9.68-11.04,18.15-.55,2.25-.77,4.49-.77,6.65.02,5.42,1.34,10.28,2.79,14.27-2.58.45-5.38,1.22-8.23,2.66-2.76,1.4-5.51,3.45-7.78,6.3-2.28,2.84-4.01,6.44-4.93,10.65-.28,1.26-.4,2.53-.4,3.77.02,4.54,1.64,8.75,4.29,12.14,2.65,3.38,6.47,6.08,11.19,6.95l1.19.11c3.13,0,5.9-2.23,6.48-5.42l.11-1.19c0-3.06-2.15-5.75-5.22-6.41l-.05-.05-.16-.03c-.98-.16-2.2-.88-3.15-2.1-.94-1.17-1.49-2.75-1.48-3.95v-.02l.1-.99c.54-2.43,1.38-4.01,2.35-5.23,1.44-1.8,3.35-2.92,5.62-3.66,2.2-.71,4.66-.94,6.47-.94h.05s.02,0,.02,0c.88,0,1.6.05,2.07.09l.51.05h.09s14.13,2.25,14.13,2.25l-7.52-12.21c-.05-.08-1.47-2.45-2.8-5.77-1.34-3.29-2.53-7.55-2.53-11.19v-.07s0-.01,0-.01Z"/>
      <path class="cls-3" d="M1592.41,209.48c-.65,0-1.37-.1-2.15-.33l-1.3-.37c-2.9-.84-4.33-3.33-4.34-5.87,0-2.54,1.44-5.03,4.34-5.87l1.3-.37c.79-.23,1.52-.33,2.17-.33,1.18,0,2.15.33,2.95.86l.79.53-.02-.95c-.07-4.46-.25-8.91-.58-13.37-2.33-31.26-14.11-66.08-43.12-78.59-8.92-3.84-17.48-5.58-25.67-5.58-29.84.02-54.54,23.07-74.52,51.3-19.98,28.25-35.28,61.77-46.18,82.94-34.21,66.45-99.4,109.17-169.84,130.4-72.9,21.97-150.31,26.12-223.43,47.91-32.52,9.7-65.81,24.19-85.51,52-8.98,12.68-13.82,28.71-13.82,44.3,0,18.66,6.96,36.73,22.2,47.52,10.27,7.28,22.67,10.28,35.28,10.28,9.32,0,18.76-1.64,27.58-4.42,20.75-6.55,39.16-18.59,58.31-28.66,74.68-39.29,160.79-49.07,243.86-64.79,26.18-4.96,52.68-10.82,78.54-18.42l.4-.12-.05-.42-.02-.28c.01-.9.44-1.74,1.7-2.22l-.17-.47.17.47c6.03-2.24,11.48-5.57,17.32-8.03,5.78-2.44,11.8-4.42,17.67-6.77,11.33-4.54,22.39-9.74,33.35-15.06,37.61-18.27,73.31-43.97,97.34-78.74,12.1-17.51,20.64-35.98,27.48-56.03,3.29-9.65,5.85-19.62,7.3-29.72.75-5.25,1.03-10.5,1.28-15.76.22-4.75.07-9.24,3.39-12.54.89-.9,2.33-1.48,3.7-1.47.85,0,1.65.21,2.31.67.61.43,1.15.9,1.63,1.41l.75.78.11-1.07c.52-5.02.92-10.05,1.11-15.1l.04-.95-.8.5c-.78.49-1.71.79-2.84.79Z"/>
      <path class="cls-2" d="M1585.86,115.89c7.01,8.36,13.65,16.88,19.62,26,11.78,18.03,20.84,38.07,22.84,59.67.4,4.35.59,8.72.59,13.11,0,19.94-3.85,40.14-8.57,59.35-5.44,22.13-12.85,43.9-22.21,64.67-5.17,11.47-9.86,22.71-16.18,33.59-3.67,6.31-7.55,12.49-11.47,18.67-3.09,4.86-6.2,9.72-9.23,14.62l-.31,1.04c.02,1.18,1.04,2.05,2.15,2.06.48,0,1-.19,1.4-.59,16.89-16.77,29.29-37.28,41.68-57.36,12.42-20.13,20.97-43.83,27.23-66.5,6.34-22.94,11.33-47.38,11.33-71.38,0-1.36-.02-2.73-.05-4.09-.58-24-8.13-46.91-20.1-67.56-6.46-11.15-14.23-21.49-22.49-31.33-4.22-5.02-8.68-9.58-13.52-14-4.87-4.44-10.5-7.74-15.7-11.59-.64-.47-1.36-.69-2.06-.69-1.12,0-2.17.52-2.98,1.28-.88.83-1.5,1.97-1.5,3.19,0,.7.22,1.42.7,2.07,6.37,8.53,11.9,17.51,18.83,25.76Z"/>
      <path class="cls-2" d="M1418.11,446.54c11.04-2.99,22.19-6.23,32.81-10.57,21.57-8.8,42.74-19.34,61.65-33.09,37.13-27,66.62-63.36,80.91-107.4,3.94-12.16,5.6-25.42,6.12-38.13.09-2.11.13-4.21.13-6.32,0-3.88-.15-7.77-.45-11.64-.43-5.43-.57-11.43-4.52-15.56-.52-.54-1.11-1.06-1.78-1.53-.85-.59-1.87-.85-2.88-.85-1.64,0-3.29.66-4.41,1.76-3.68,3.69-3.45,8.55-3.69,13.2-.26,5.26-.53,10.48-1.27,15.66-1.44,10.04-3.98,19.95-7.26,29.54-6.82,19.98-15.31,38.36-27.35,55.78-23.89,34.58-59.45,60.2-96.95,78.41-10.95,5.32-21.99,10.51-33.28,15.03-5.83,2.34-11.85,4.31-17.69,6.77-5.93,2.5-11.36,5.83-17.28,8.02-1.61.58-2.37,1.89-2.35,3.16l.02.4c.17,1.6,1.5,3.1,3.53,3.1l.6-.04c5.74-.79,11.53-.71,17.39-1.52,6.11-.84,12.09-2.59,17.99-4.18Z"/>
      <path class="cls-1" d="M1588.68,196.08c-3.36.96-5.07,3.92-5.06,6.83,0,2.9,1.69,5.86,5.06,6.83l1.3.37c.87.25,1.68.37,2.43.37,1.31,0,2.44-.35,3.37-.94,2.19-1.39,3.24-4.04,3.24-6.64,0-2.54-1-5.12-3.1-6.52-.96-.64-2.13-1.03-3.5-1.03-.76,0-1.57.12-2.45.37h0s-1.3.37-1.3.37Z"/>
      <path class="cls-2" d="M491.7,725.7c-10.15-7.76-20.4-14.45-31.79-20.26-10.64-5.43-21.57-10.21-32.37-15.23-21.87-10.16-43.99-20.76-63.54-34.91-19.32-13.98-35.12-32.6-45.72-53.95-5.37-10.81-8.61-22.17-11.69-33.85-2.96-11.21-5.14-22.36-5.14-33.89,0-.8.01-1.59.03-2.39.77-28.78,10.39-58.22,24.62-83.1l.18-.66c-.02-.77-.65-1.32-1.36-1.33l-.91.37c-3,2.84-5.78,5.83-8.45,8.89-15.19,17.4-25.24,38.34-29.62,61.29-2.12,11.13-3.34,22.35-3.34,33.51,0,16.11,2.53,32.09,8.5,47.48,9.66,24.91,24.76,47.35,45.32,64.59,20.63,17.29,44.32,29.36,69.16,39.26,13.52,5.39,27.22,10.47,40.98,15.22,11.3,3.9,22.66,7.33,34.03,10.84,3.02.93,6.04,1.87,9.05,2.82l.86.14c.72,0,1.33-.33,1.72-.82.39-.49.58-1.11.58-1.74,0-.82-.34-1.7-1.1-2.28h0Z"/>
      <path class="cls-2" d="M415.22,749.51c-2.19-1.27-4.2-2.46-6.8-3.03-.99-.22-1.99-.34-2.96-.46l-.39-.05-.27-.04c-1.07-.18-2.14-.37-3.2-.61-2.35-.52-4.67-1.2-6.93-2.03-1.96-.72-3.08-1.22-5.32-2.4-3.69-1.95-7.81-4.67-10.8-7.01-1.95-1.53-3.99-3.1-6.12-4.43-1.95-1.22-3.18-2.56-4.59-4.47-.83-1.13-1.98-1.66-3.07-1.65-1.87,0-3.59,1.49-3.6,3.57,0,.56.13,1.15.4,1.75,1.06,2.34,2.23,4.48,3.07,6.82.96,2.69,2.62,5.25,4.45,7.39,3.67,4.28,8.15,7.71,13.03,10.47,4.76,2.69,9.94,4.82,15.23,6.19,2.77.72,5.83,1.45,8.76,1.52h.36c3.31,0,6.04-1.12,8.77-2.79,1.62-.99,2.46-2.72,2.46-4.43,0-1.67-.81-3.36-2.47-4.32Z"/>
      <path class="cls-7" d="M653.59,69.01c-5.1-6.95-11.67-12.71-18.54-17.79-14.08-10.4-31.08-16.26-48.37-18.15-3.39-.37-6.84-.56-10.31-.56-15.89,0-32.26,3.94-45.44,12.63-17.2,11.34-27.87,29.52-35.31,48.18-3.09,7.74-5.42,15.69-7.07,23.81-.74,3.63-1.38,7.3-1.82,11.01-.68,5.73-1.03,11.5-1.03,17.28v.39h0c.02,7.04,1.92,11.88,4.31,18.37.43,1.11,1.54,1.73,2.61,1.74.95.03,1.97-.6,2.18-1.82,1.09-5.81,2.8-11.02,3.16-17.09.38-6.51,1.24-12.96,2.56-19.35,2.43-11.7,5.8-23.25,10.9-34.06,9.84-20.84,24.24-38.22,47.24-43.97,6.23-1.56,12.64-2.3,19.06-2.3,12.76,0,25.57,2.96,37.1,8.37,14.93,7.01,29.31,17.56,40.64,30,2.13,2.34,4.19,4.71,6.08,7.17l1.05.51.81-.28.4-.86-.05-.37c-2.25-7.96-5.21-16.11-10.17-22.86Z"/>
      <path class="cls-7" d="M503.31,189.34h-.8c-9.38.25-18.05,4.13-24.85,10.48-7.01,6.54-11.32,15.67-14.15,24.61-1.02,3.23-1.92,6.59-2.58,9.97-.39,1.97-.72,3.95-.9,5.95-.18,1.9-.37,3.91-.37,5.9,0,.9.04,1.8.14,2.68h0c.3,2.68,1.07,5.35,1.69,7.9.2.89,1,1.37,1.72,1.35.77,0,1.57-.45,1.86-1.31.55-1.68,1.2-3.32,1.85-4.98.24-.63.5-1.26.73-1.92.84-2.37,1.24-4.89,1.9-7.22.16-.58.31-1.15.46-1.72,1.01-3.74,1.93-7.47,3.18-11.1,2.5-7.22,6.11-13.97,11.29-19.59,4.62-5.01,10.43-8.58,17.29-9.09.64-.05,1.27-.07,1.9-.07,2.48,0,4.91.38,7.24,1.24,1.65.61,3.27,1.25,4.95,1.83,1.72.6,3.2.65,4.92.72h.09c1.48-.02,2.59-1.3,2.62-2.69v-.14c0-2.98-1.17-5.37-2.97-7.19-4.18-4.22-11.68-5.61-17.22-5.62Z"/>
      <path class="cls-7" d="M106.3,316.22c1.42,1.34,2.85,2.68,4.35,3.94,6.99,5.86,14.13,11.85,23.71,12.55l.04-.5-.04.5h.12c1.06,0,1.63-.95,1.63-1.78l-.19-.83c-4-8.08-11.11-13.29-16.87-19.77-6.12-6.88-11.51-14.44-15.94-22.51-5.9-10.76-9.41-23.29-9.41-35.7,0-6.49.96-12.95,3.03-19.11,2.69-8,7.72-15.72,15.96-18.41,2.6-.86,5.33-1.23,8.09-1.23,6.06,0,12.28,1.83,17.62,4.43,16.85,8.17,29.67,23.38,43.67,35.68.55.49,1.21.71,1.83.71,1.43,0,2.73-1.11,2.75-2.63l-.36-1.35c-2.98-5.42-6.21-10.63-9.75-15.57-6.74-9.42-14.65-17.84-24.51-24.65-9.19-6.34-20.7-10.75-32.09-10.75-5.54,0-11.06,1.05-16.24,3.43-16.03,7.4-23.16,25.78-25.07,42.06-.33,2.82-.49,5.66-.49,8.48,0,15.47,4.79,30.81,12.71,44.05,4.19,7.01,9.51,13.35,15.45,18.96Z"/>
      <path class="cls-7" d="M411.49,43.04c-21.59-27.29-61.08-39.1-95.52-39.11-3.65,0-7.25.13-10.76.4-39.87,2.98-77.73,22.15-103.56,52.74-6.7,7.93-13.34,16.65-17.76,26.14-3.68,7.91-6.15,15.98-8.28,24.27-.61,2.39-1.2,4.78-1.78,7.21l-.11.47.87.24.43.12.16-.42c6.51-16.57,18.1-33.09,29.75-46.55,11.66-13.48,25.63-25.05,41.2-33.73,20.76-11.56,44.25-17.22,67.82-17.22,13.4,0,26.83,1.83,39.8,5.44,20.88,5.81,39.68,16.35,58.94,26.13l.65.15c.76-.01,1.49-.55,1.52-1.41l-.25-.76c-.98-1.44-2.07-2.77-3.13-4.11Z"/>
      <path class="cls-7" d="M71.99,455.22c6.31,3.72,12.95,7.14,19.81,9.75,7.95,3.03,16.19,4.96,24.58,4.96,5.01,0,10.07-.69,15.13-2.25.76-.24,1.18-.94,1.18-1.63,0-.52-.26-1.08-.81-1.38-7.47-4.1-14.7-7.57-22.75-10.51-8.54-3.12-16.92-6.33-24.85-10.74-14.56-8.11-28.67-18.47-37.23-32.97-5.56-9.42-8.36-19.89-8.37-30.52,0-5.02.63-10.08,1.88-15.08,3.99-15.87,12.84-28.31,23.6-40.32l.82-.93.44-1.17c0-.92-.67-1.82-1.69-1.84l-.93.3c-21.06,14-34.99,40.89-35,66.81,0,8.96,1.67,17.81,5.3,25.96,7.8,17.52,22.55,31.94,38.87,41.58Z"/>
      <path class="cls-7" d="M91.85,669.21c3.5.47,7.01.72,10.51.72,4.75,0,9.48-.46,14.14-1.47.94-.18,1.46-.98,1.43-1.72,0-.84-.5-1.68-1.35-2.05-14.97-6.19-30.73-10.59-45.34-17.42-15.01-7.01-28.02-16.85-38.92-29.31-10.54-12.04-17.59-27.08-20.93-42.7-1.46-6.84-2.3-14.33-2.3-21.85,0-8.33,1.04-16.69,3.41-24.21.32-1.01.59-2.02.93-2.95l.07-.38c-.03-.71-.63-1.08-1.17-1.08l-.95.56C4.16,538.76,0,551.85,0,566.51c0,3.01.17,6.08.53,9.23,2.06,18.13,8.98,35.49,19.95,50.08,16.11,21.4,43.43,39.65,71.37,43.39Z"/>
      <path class="cls-7" d="M154.18,874.51v-.16c0-2.27-1.35-4.05-3.06-5.41-1.71-1.36-3.81-2.36-5.51-3.1-3.57-1.56-7.04-3.33-10.41-5.3-6.79-3.96-13.17-8.78-19.1-13.96-6.05-5.28-11.45-11.21-16.12-17.74-2.77-3.87-5.69-7.66-8.36-11.57-1.9-2.77-3.68-5.59-5.13-8.59-.2-.45-.66-.73-1.08-.71-.74.02-1.39.6-1.41,1.42l.02.24c.41,2.27.99,4.48,1.4,6.7.38,2.05.33,4.14,1.03,6.32,1.36,4.18,2.92,8.41,5.06,12.3,4.18,7.58,9.33,14.67,15.14,21.08,5.93,6.54,12.86,11.94,20.39,16.5,1.81,1.1,5.07,3.17,8.71,4.99,3.75,1.87,7.9,3.5,11.39,3.5,2.28,0,4.34-.73,5.65-2.62h0c.91-.79,1.5-1.87,1.5-3.07l-.1-.83Z"/>
      <path class="cls-7" d="M125.22,891.25l-.08-.07-.59-.49c-1.24-.99-2.45-1.54-3.94-1.93-1.46-.39-2.9-.87-4.32-1.42l-.42-.17-.78-.35c-.65-.3-1.3-.62-1.95-.96-1.34-.71-2.65-1.48-3.92-2.32-.6-.4-1.18-.82-1.77-1.25h0s-.1-.07-.1-.07l-.17-.14c-.47-.37-.94-.76-1.45-1.13-1.04-.74-2.5-1.66-3.27-2.24-1.26-.95-2.56-1.54-3.59-2.51-1.14-1.06-2.21-2.18-3.22-3.36l-1.26-.59c-.99.02-1.91.78-1.94,1.87l.08.51c.51,1.62,1.12,3.2,1.8,4.75.62,1.4,1.03,3.05,1.87,4.51,1.8,3.14,4.15,5.71,6.96,7.93,2.75,2.18,5.66,4.15,8.84,5.7,1.73.85,3.51,1.6,5.32,2.27,1.08.4,2.12.55,3.15.55,1.3,0,2.56-.24,3.87-.54,1.81-.43,3.11-2.1,3.32-3.84l.04-.61c0-1.67-.88-2.98-2.19-3.94l-.3.4.29-.41-.25-.18Z"/>
      <path class="cls-7" d="M28.29,601.18c1.22,1.84,2.56,3.61,3.97,5.3,1.45,1.75,3.16,2.97,5.06,4.09,3.49,2.06,7.07,4.08,10.84,5.66l.65.13c1.15-.04,1.88-1.08,1.89-2.1,0-.47-.18-.97-.6-1.32-2.82-2.37-5.29-4.88-7.09-8.05-.88-1.56-1.75-3.14-2.83-4.55-1.13-1.48-2.15-3.06-3.1-4.67-1.87-3.2-3.06-5.89-4.12-9.37-.54-1.79-.98-3.62-1.31-5.46-.35-1.99-.61-3.81-2.04-6.05-1-1.56-2.52-2.31-4.02-2.31-2,0-3.95,1.28-4.79,3.43-.48,1.23-.67,2.53-.67,3.84,0,3.38,1.27,6.87,2.34,9.79,1.5,4.07,3.4,8,5.8,11.63Z"/>
      <path class="cls-7" d="M38.51,584.59c.27,1.08.62,2.13,1.04,3.16.49,1.19,1.01,2.37,1.66,3.51.8,1.38,2.13,2.28,3.25,3.12.42.31.92.43,1.39.43.69,0,1.37-.24,1.88-.62.72-.56,1.14-1.41,1.14-2.31l-.1-.74c-.19-.7-.32-1.44-.49-2.2v-.04s-.67-1.65-.67-1.65h0s-.24-.64-.24-.64c-.51-1.41-.85-2.88-1.07-4.38l-.06-.59-.03-.57c-.08-1.21-.51-2.12-1.29-3-.73-.84-1.74-1.21-2.73-1.21-1.43,0-2.86.74-3.62,1.99l-.02.03-.46,1.04-.02.03v.04s-.13.96-.13.96l.11,1.19.12.78.49-.08-.49.09c.1.56.22,1.12.36,1.67Z"/>
      <path class="cls-7" d="M56.43,383.52c-.02-1.3-1.19-2.04-2.25-2.04-.69,0-1.45.33-1.82,1.09-1.53,3.09-2.7,6.63-2.81,10.15v.6c0,3.35.86,6.89,2.03,9.94,1.39,3.6,3.22,6.91,5.95,9.73,2.82,2.9,6.54,6.03,10.88,6.38h.37c1.38.02,2.51-.61,3.25-1.53.74-.92,1.13-2.11,1.13-3.31,0-1.21-.4-2.45-1.27-3.4-1.3-1.4-2.89-2.12-4.28-3.1l-.41-.29-.63-.52c-.57-.49-1.13-1.02-1.67-1.57-.97-1-1.85-2.1-2.8-3.19l-.14-.15-.04-.06h0s-.63-.89-.63-.89c-.43-.63-.84-1.28-1.23-1.96-1.36-2.39-2.05-4.51-2.72-7.49-.54-2.39-.97-4.57-.97-6.92l.05-1.33v-.15Z"/>
      <path class="cls-7" d="M64.47,391.15c0,.51.13,1.02.4,1.49.58,1.02,1.17,2.02,1.71,3.03l.13.38c.18.52.34,1.24.71,1.82.55.85,1.27,1.58,1.87,2.28.44.52.88,1.04,1.32,1.56.4.47.81,1.04,1.53,1.41.6.32,1.17.46,1.78.55h0s.04.01.04.01c0,0,.02,0,.02,0h0s.97.13.97.13l1.03-.14h.05s1.2-.65,1.2-.65l.04-.02.03-.03c.97-.74,1.5-1.82,1.53-3.04v-.36c0-.49-.03-.99-.14-1.5-.26-1.1-1.03-1.84-1.59-2.51l-.38.32.38-.32c-.46-.54-.92-1.08-1.38-1.62-.61-.71-1.23-1.63-2.2-2.21-.6-.35-1.2-.58-1.65-.9-.77-.62-1.55-1.24-2.32-1.86-.52-.41-1.16-.84-2-.85h-.11s0,0,0,0c0,0,0,0,0,0h-.01c-.64.03-1.26.23-1.79.64-.76.59-1.17,1.47-1.17,2.38Z"/>
      <path class="cls-7" d="M112.88,246.11c.65-1.56,1.97-2.99,2.58-4.84.26-.82.36-1.65.36-2.46,0-.91-.12-1.81-.25-2.68-.18-.95-.99-1.66-1.85-1.87-.61-.13-1.23-.19-1.85-.19-1.47,0-2.94.38-4.22,1.21-2.1,1.37-3.34,4.03-4.28,6.08-1.87,4.16-3.04,8.78-3.04,13.39v.43c.08,4.94,1.14,9.86,2.7,14.51,1.7,5.06,4.34,9.54,6.99,14.07.66,1.13,1.77,1.65,2.84,1.64,1.75,0,3.54-1.32,3.55-3.33l-.13-.95c-1.2-4.27-2.24-8.58-3.44-12.87-1.05-3.75-1.79-7.54-1.79-11.41v-.61c.08-3.47.49-6.94,1.83-10.1Z"/>
      <path class="cls-7" d="M124.59,243.94l-.96.14h-.01s0,0,0,0l-.57.19c-.71.03-1.44.19-2.07.62-1,.68-1.79,1.37-2.47,2.43v.02s-.75,1.3-.75,1.3h0s0,.02,0,.02c-.59,1.14-1.09,2.35-1.5,3.57-.31.94-.54,1.9-.69,2.88-.07.5-.23,1.06-.23,1.68v.03s0,0,0,0c0,0,0,0,0,0v.04s0,0,0,0c.01.63.15,1.15.3,1.67h0s.47,1.34.47,1.34h0s0,.02,0,.02c.51,1.33,1.5,2.43,3.09,2.63l.48.03c1.25,0,2.61-.61,3.24-1.84h0s.64-1.17.64-1.17h0c.41-.69.69-1.4.88-2.16.17-.7.42-1.38.69-2.09.37-.79.75-1.55,1.21-2.25l.41-.6h0s0,0,0,0c.37-.52.61-1.04.82-1.6.17-.44.28-.83.35-1.32v-.06s-.04-.5-.04-.5l.11-.55h0l.11-.86c0-1.94-1.56-3.61-3.54-3.62Z"/>
      <path class="cls-4" d="M1509.04,640.5c1.7-1.31,3.9-1.98,6.22-1.98h.02s0,0,0,0c2.82,0,5.72,1.04,7.75,2.85,2.79,2.45,4.37,6.38,4.37,10.35v.02s0,0,0,0c0,1.45-.21,2.9-.62,4.26l-.14.92c0,1.36.88,2.62,2.26,3.04l.92.14c1.36,0,2.62-.88,3.04-2.25.6-1.99.89-4.05.89-6.1,0-5.59-2.15-11.24-6.51-15.12-3.34-2.94-7.67-4.44-11.98-4.45-3.54,0-7.13,1.03-10.09,3.29-4.04,3.2-5.69,8.16-6.69,12.22h0s-.08.39-.08.39c-.53-.45-1.05-.9-1.7-1.29-1.44-.86-3.22-1.54-5.25-1.54h0s-.01,0-.01,0h-.03c-1.69,0-3.47.51-5.1,1.53-1.76,1.09-3.07,2.57-3.84,4.19-.78,1.61-1.04,3.28-1.04,4.81.02,1.34.23,2.57.51,3.7l-.47-.04h-.02s-.02,0-.02,0c-1.58.02-3.53.22-5.29,1.66h0c-2.9,2.52-4.08,6.15-4.08,9.55,0,.7.05,1.4.15,2.09.59,3.96,2.53,7.28,4.56,10.07l.4-.29-.4.29c.62.85,1.59,1.3,2.57,1.3.65,0,1.31-.2,1.87-.61.85-.62,1.3-1.59,1.3-2.57,0-.65-.2-1.31-.61-1.87h0c-1.75-2.38-3.06-4.86-3.4-7.23l-.09-1.21c0-1.93.72-3.71,1.82-4.65l.23-.09.96-.1h0s.04,0,.04,0h.01c.9,0,2.07.2,2.95.41.45.11.83.21,1.09.29l.3.09.07.02,8.18,2.83-4.42-7.45h0s-.01-.03-.01-.03l-.02-.02s-.53-.95-.96-2.11c-.45-1.18-.87-2.67-.86-3.93v-.09h0v-.02c0-.81.14-1.5.41-2.05.29-.57.65-1.04,1.48-1.56.77-.46,1.26-.56,1.78-.57.59,0,1.25.2,2,.64,1.11.65,2.29,1.87,3.08,2.91.4.52.73,1,.94,1.33l.23.38h0l.05.09h0s5.44,9.9,5.44,9.9l.51-11.28.03-.47c.08-1.12.4-4.17,1.27-7.25.83-3.09,2.37-6.13,4.03-7.33h0Z"/>
      <path class="cls-4" d="M1649.73,560.55c2.06,3.44,5.12,5.76,8.07,7.56.51.31,1.09.46,1.65.46,1.07,0,2.12-.54,2.71-1.52.31-.51.46-1.09.46-1.65,0-1.03-.53-2.02-1.44-2.63h.01s0-.01,0-.01l-.04-.04-.05-.03c-2.53-1.53-4.7-3.32-5.91-5.38-.71-1.17-1.12-2.6-1.12-3.85h0v-.02c0-.84.17-1.58.5-2.23l.08-.09c.08-.1.54-.37,1.11-.58.57-.22,1.26-.43,1.9-.55.66-.14,1.28-.23,1.72-.28l.5-.05h.15s8.63-.53,8.63-.53l-6.93-5.19h-.02c-.19-.16-1.47-1.19-2.57-2.57-1.11-1.35-1.94-3.05-1.92-4.24v-.04h0s0-.03,0-.03c.02-.72.16-1.32.77-2.21,1-1.26,1.51-1.37,2.74-1.45h.04c1.23,0,2.99.62,4.31,1.35.68.37,1.26.74,1.66,1.01l.45.32.1.08h.02s8.81,7.07,8.81,7.07l-3.85-10.62-.07-.2c-.36-1.02-1.88-5.95-1.88-10.32v-.05h0v-.09c0-2.13.39-4.07,1.11-5.27,1.76-3.12,5.7-5.16,9.62-5.15h0s.01,0,.01,0h.02c1.24,0,2.47.19,3.6.59,4.81,1.6,8.58,6.77,9.07,12.08.16,1.64,1.54,2.86,3.16,2.86h.31c1.64-.18,2.87-1.56,2.87-3.17v-.31c-.8-7.67-5.81-14.82-13.33-17.46l-.17.47.16-.47c-1.84-.64-3.76-.93-5.67-.93-5.96.01-11.98,2.88-15.16,8.32-1.55,2.7-1.95,5.71-1.96,8.53,0,2.02.25,3.94.55,5.7-1.16-.36-2.41-.65-3.8-.66h-.18c-2.67,0-5.73,1.25-7.7,4.09h0s0,0,0,0c0,0,0,0,0,0h0c-1.33,1.84-1.96,3.91-1.96,5.85v.07c.03,3.13,1.4,5.61,2.8,7.51-.51.19-1.02.36-1.55.63-1.14.62-2.4,1.52-3.21,3.08-.84,1.65-1.19,3.42-1.19,5.14,0,2.55.76,5.01,2.01,7.12Z"/>
      <path class="cls-7" d="M1417.04,718.01c-1.35-.5-2.74-.91-4.15-1.27-4.48-1.15-9.17-1.7-13.66-2.16-2.17-.22-4.34-.32-6.5-.32h-.17c-3.55,0-7.1.33-10.6,1.28-8.85,2.39-16.77,7.74-20.77,16.25h0s-.16.3-.16.3h0s0,.03,0,.03l-.12.57c.01.74.55,1.39,1.33,1.41l.93-.42c.51-.53,1.07-1.03,1.65-1.52.8-.69,1.64-1.33,2.52-1.91,5-3.28,11.21-4.85,17.18-4.94v-.5s0,.5,0,.5h1.2c4.34-.01,8.69.37,12.93,1.22,5.02,1,9.92,2.81,15.11,3.52l1.06.07c.98,0,1.92-.18,2.79-.49,1.71-.6,3.21-1.86,3.77-3.96.16-.57.23-1.12.23-1.67,0-2.79-1.95-5.05-4.55-6Z"/>
      <path class="cls-7" d="M1416.3,689.44c-2.52-1.86-5.24-3.5-8.12-4.8-1.4-.63-2.83-1.22-4.32-1.66-2.37-.7-4.82-1.14-7.28-1.14-1.87,0-3.74.25-5.58.83-4.03,1.26-7.5,3.47-10.07,6.88l-.4,1.13c.04,1.23,1.15,2.14,2.33,2.16l1.01-.27c.55-.32,1.13-.58,1.72-.84,1.87-.8,3.85-1.21,5.89-1.21.47,0,.95.02,1.42.07l.05-.5-.05.5c3.06.28,6.15.68,8.94,1.83,3.25,1.34,6.25,3.48,8.93,5.79,2.69,2.3,5.23,5.74,8.92,7.05.54.19,1.1.33,1.69.42l.77.06c2.29.02,4.03-1.61,4.13-3.89l.04-1.01v-.05s0-.05,0-.05c-.97-5.25-6.31-8.52-10.02-11.29Z"/>
      <path class="cls-7" d="M1458.8,587.84c3.05,4.6,5.23,9.66,7.52,14.72l.6,1.32c2.37,5.13,4.4,12.42,9.2,16.22.43.34.94.51,1.44.51,1.01.02,1.99-.76,2.04-1.99l.02-.73c0-3.63-1.34-7.4-2.2-10.71-.93-3.55-1.76-7.2-2.98-10.72-.61-1.78-1.31-3.52-2.07-5.24-1.51-3.4-3.36-6.64-5.55-9.64-.76-1.03-1.52-2.08-2.39-3.07-8.5-9.67-21.13-15.33-33.87-16.08-.87-.05-1.74-.08-2.6-.08-24.02,0-44.09,19.69-44.79,43.65-.02.67-.07,1.36-.07,2.08v.35c.01,1.07.88,1.71,1.69,1.69.82.01,1.71-.59,1.82-1.65l-.5-.06.5.05c2.23-20.21,19.96-37.5,40.17-37.48,1.94,0,3.9.16,5.88.49,10.37,1.73,20.3,7.54,26.14,16.35Z"/>
      <path class="cls-7" d="M1513.01,577.29c-1.12-2.52-2.31-5.02-3.73-7.41-1.87-3.15-3.92-6.19-6.04-9.18-2.68-3.78-5.51-7.47-8.56-10.97-4.7-5.4-10.55-10.56-18.3-10.56h-.56c-2.77.1-5.72.88-8.05,2.44-2.33,1.55-4.03,3.94-4.16,7.13v.06c0,.88.77,1.37,1.45,1.38l1.06-.58.04.04.03-.03.07-.06.04-.08c1.55-2.8,4.39-4.31,7.32-4.32,1.52,0,3.06.41,4.46,1.26,2.32,1.41,4.08,3.68,6.01,5.77,2.01,2.17,3.84,4.54,5.61,6.94,3.79,5.15,7.19,10.59,10.18,16.24.89,1.69,1.79,3.37,2.69,5.05.55,1.02,1.11,2.04,1.63,3.06,1.55,3.04,2.97,5.49,6.05,7,.89,1.26,1.73,2.57,2.94,3.71l.77.32c.61,0,1.06-.48,1.14-1.06.07-.52.1-.98.1-1.44,0-.51-.04-1.02-.12-1.58l-.06-.77c0-.58.14-.91.35-1.78.19-.84.29-1.64.29-2.43,0-1.39-.3-2.73-.87-4.1-.57-1.36-1.17-2.71-1.76-4.04Z"/>
      <path class="cls-7" d="M1554.63,434.97c3.98,0,7.93.63,11.02,2.77,4.6,3.18,7.78,8.92,10.65,13.8,6,10.22,10.35,21.03,12.6,32.68,1.68,8.74,1.92,17.61,2.44,26.5.17,2.87.36,5.74.65,8.61.17,1.46,1.48,2.54,2.83,2.56.78.01,1.59-.44,2.01-1.34,3.37-7,4.62-14.78,4.62-22.56,0-1.59-.05-3.18-.15-4.76-.24-3.84-.73-7.64-1.4-11.32-.12-.65-.22-1.33-.36-2.01-2.79-13.77-8.29-27.44-16.65-38.81-4.02-5.46-8.44-11.17-15.1-13.81-2.8-1.1-5.67-1.54-8.53-1.54-4.18,0-8.36.91-12.39,2-5.19,1.4-10.49,2.97-15.54,5.04-7.3,2.99-14.08,7.07-19.12,13.47h0l-.24.67c0,.56.44,1.01,1.01,1.01l.68-.25c1.69-1.39,3.51-2.58,5.38-3.7,8.66-5.16,18.9-7.51,28.93-8.59,2.12-.23,4.41-.43,6.69-.43Z"/>
    </g>
  </g>
</svg>