<?xml version="1.0" encoding="UTF-8"?>
<svg id="_圖層_2" data-name="圖層 2" xmlns="http://www.w3.org/2000/svg" viewBox="0 0 60.93 71.98">
  <defs>
    <style>
      .cls-1 {
        fill: #e04636;
      }

      .cls-2 {
        fill: #6fcd22;
      }

      .cls-3 {
        fill: #f9fbf0;
      }

      .cls-4 {
        fill: #be152c;
      }

      .cls-5 {
        fill: #47b818;
      }

      .cls-6 {
        fill: #ebedec;
      }
    </style>
  </defs>
  <g id="Layer_1" data-name="Layer 1">
    <path class="cls-4" d="M45.99,54.3c1.67,6.18-3.58,13.61-8.81,16.13-7.55,3.63-14.9.57-19.06-5.65-4.34-6.49-3.67-13.84,2.06-19.32,2.36-2.26,4.98-4.17,8.87-4.2,2.06.12,3.75.15,4.72,1.84-.9,1.68-3.47,1.52-3.73,4.11.91.05,1.73.18,2.52.1.7-.07,1.36-.41,2.05-.59,1.6-.42,2.06-.1,2.33,1.54.14.82-.37,2.16.81,2.25,1.53.12,1.25-1.39,1.39-2.38.16-1.17.82-1.55,1.88-1.16.84.3,1.63.73,2.54,1.25.77,1.61,1.43,3.08,2.09,4.54.05.2.1.4.1.87-.04.47.05.6.22.69M21.81,50.34c.88,1.75,2.38,2.09,4.11,1.69,1.39-.32,2.06-1.4,2.31-2.71.23-1.24-.5-2.07-1.48-2.63-1.39-.8-2.8-.54-4.1.25-1.14.7-1.49,1.75-.84,3.41Z"/>
    <path class="cls-1" d="M28.3,9.94c1.5,2.92,2.37,5.98,2.22,9.31-.39,8.81-9.22,16.18-17.87,14.55C6.21,32.58,1.11,26.86.18,20.76-1.11,12.24,4.48,4.57,13.04,3.12c.44-.08.88-.16,1.74-.21,1.1.25,1.81.42,2.46.73,1.3.62,1.4,1.58.27,2.48-.49.39-1.14.6-1.56,1.05-.38.4-.87,1.16-.71,1.46.22.43.99.83,1.5.81.86-.05,1.71-.44,2.56-.69,1.48-.45,2.21-.05,2.55,1.45.08.35-.06.77.09,1.06.25.49.66.9,1,1.34.36-.43.9-.8,1.07-1.3,1.06-3.22,1.03-3.22,4.07-1.52.08.04.15.1.22.15M10.98,15.79c1.18-.84,2.17-1.99,1.16-3.32-.75-.98-2.06-1.68-3.26-2.12-1.14-.42-3.22,1.27-3.61,2.62-.35,1.19.19,2.17,1.58,3.05,1.28.81,2.52.71,4.13-.23Z"/>
    <path class="cls-1" d="M45.88,52.66c-.87-1.39-1.54-2.86-2.19-4.62.68-1.75-.58-2.15-1.36-2.76-2.16-1.68-2.22-1.8-1.37-4.44.29-.89.52-1.73-.76-2.53-.66.48-1.47.95-2.15,1.58-1.15,1.07-2.3,1.15-3.64.36-1.22-.72-2.49-1.35-3.74-2.02,0-6.9,3.05-11.88,9.29-14.87.72-.35,1.46-.65,2.59-.98,1.87.3,3.42.45,4.25,1.91-.05.28-.03.5-.13.62-.45.55-1.01,1.03-1.37,1.63-.29.47-.34,1.09-.5,1.64.64.13,1.3.42,1.91.35.58-.07,1.12-.54,1.68-.8,1.69-.79,1.8-.74,2.77.8.34.54.74,1.03,1.3,1.82.37-.7.6-.98.67-1.3.71-3.15.77-3.19,3.83-1.96.16.07.3.19.45.29.57,1.01,1.15,2.02,1.71,3.04,5.39,9.89-2.34,21.61-12.27,22.08-.27.01-.53.06-1.01.17M39.08,28.16c-1.76-.53-2.99.25-3.81,1.7-.85,1.51-.38,2.76,1.18,3.53,1.96.97,4.04.43,4.93-1.27.71-1.35.15-2.44-2.31-3.96Z"/>
    <path class="cls-5" d="M28.43,9.85c-.2.04-.27-.02-.35-.07-3.04-1.71-3.02-1.7-4.07,1.52-.16.5-.7.87-1.07,1.3-.34-.44-.74-.85-1-1.34-.15-.29-.01-.72-.09-1.06-.35-1.51-1.07-1.9-2.55-1.45-.85.26-1.7.65-2.56.69-.51.03-1.29-.38-1.5-.81-.15-.3.34-1.07.71-1.46.42-.44,1.07-.66,1.56-1.05,1.13-.9,1.03-1.86-.27-2.48-.65-.31-1.36-.48-2.24-.79-.29-.85-.38-1.62-.53-2.86,1.8.85,3.3,1.53,4.78,2.25,2.48,1.2,2.48,1.21,4.35-.64.25-.25.45-.65.74-.75.53-.16,1.12-.15,1.68-.2.01.49.16,1.03.02,1.47-1.19,3.64-1.21,3.63,1.99,5.84.43.29.84.6,1.4,1.01-.39.35-.64.57-1.01.87Z"/>
    <path class="cls-2" d="M30.56,38.36c1.36.54,2.64,1.17,3.85,1.89,1.33.79,2.48.71,3.64-.36.67-.63,1.49-1.11,2.15-1.58,1.28.8,1.05,1.64.76,2.53-.85,2.64-.79,2.76,1.37,4.44.78.61,2.05,1.02,1.26,2.62-.92-.22-1.71-.65-2.55-.95-1.06-.38-1.72-.01-1.88,1.16-.14,1,.14,2.5-1.39,2.38-1.17-.09-.67-1.43-.81-2.25-.27-1.64-.73-1.95-2.33-1.54-.69.18-1.36.52-2.05.59-.79.08-1.61-.05-2.52-.1.26-2.58,2.83-2.43,3.73-4.11-.97-1.68-2.66-1.71-4.45-1.84-.21-.37-.46-.81-.34-.99.41-.63.96-1.18,1.57-1.89Z"/>
    <path class="cls-5" d="M57.62,27.32c-.32-.04-.46-.17-.62-.23-3.07-1.23-3.12-1.2-3.83,1.96-.07.31-.3.59-.67,1.3-.57-.79-.97-1.28-1.3-1.82-.97-1.54-1.08-1.59-2.77-.8-.57.26-1.1.73-1.68.8-.61.07-1.27-.22-1.91-.35.16-.55.21-1.16.5-1.64.36-.6.92-1.08,1.37-1.63.1-.12.07-.34.13-.62-.83-1.46-2.38-1.62-4.05-1.97-.06-.64.08-1.24.23-1.87,1.78.32,3.46.56,5.11.95,1.51.35,2.59.03,3.41-1.36.47-.79,1.21-1.43,1.93-2.26,1.82,2.07-.12,3.82.22,5.78,1.55.86,3.24,1.8,5.11,2.83-.47.42-.73.65-1.15.94Z"/>
    <path class="cls-1" d="M46.02,54.17c-.21.04-.3-.09-.27-.41.2-.04.29.1.27.41Z"/>
    <path class="cls-6" d="M21.73,50.15c-.58-1.47-.22-2.52.92-3.22,1.29-.79,2.7-1.05,4.1-.25.98.56,1.71,1.39,1.48,2.63-.25,1.31-.92,2.39-2.31,2.71-1.73.4-3.23.06-4.19-1.88Z"/>
    <path class="cls-3" d="M10.8,15.89c-1.43.84-2.67.94-3.95.12-1.38-.88-1.93-1.86-1.58-3.05.4-1.36,2.47-3.05,3.61-2.62,1.2.44,2.51,1.14,3.26,2.12,1.01,1.33.02,2.48-1.34,3.42Z"/>
    <path class="cls-3" d="M39.27,28.24c2.27,1.43,2.83,2.52,2.12,3.87-.89,1.7-2.97,2.24-4.93,1.27-1.56-.77-2.04-2.03-1.18-3.53.82-1.45,2.05-2.23,3.99-1.61Z"/>
  </g>
</svg>