<?xml version="1.0" encoding="UTF-8"?>
<svg id="_圖層_2" data-name="圖層 2" xmlns="http://www.w3.org/2000/svg" viewBox="0 0 53.16 161.51">
  <defs>
    <style>
      .cls-1 {
        fill: #98f0f9;
      }

      .cls-2 {
        fill: #bae4e0;
      }

      .cls-3 {
        fill: #99f5c9;
      }

      .cls-4 {
        fill: #4786e5;
      }

      .cls-5 {
        fill: #e6f9f2;
      }

      .cls-6 {
        fill: #5bb3e1;
      }

      .cls-7 {
        fill: #bad3d6;
      }

      .cls-8 {
        fill: #d4e7ec;
      }

      .cls-9 {
        fill: #d6f2f3;
      }

      .cls-10 {
        fill: #61eccb;
      }

      .cls-11 {
        fill: #f9fbf0;
      }

      .cls-12 {
        fill: #3a85e9;
      }

      .cls-13 {
        fill: #d9e6f3;
      }

      .cls-14 {
        fill: #3479e9;
      }

      .cls-15 {
        fill: #f4f8fa;
      }
    </style>
  </defs>
  <g id="Layer_1" data-name="Layer 1">
    <path class="cls-9" d="M34.61,15.83c2.76,3.14,5.45,6.33,8.3,9.39,1.46,1.56,3.25,2.81,4.76,4.33,1.51,1.52,2.88,3.18,4.28,4.81,1.45,1.69.93,3.74.7,5.91-7.26.24-14.25.24-21.48.22-2.98.14-5.73.34-8.48.47-1.34.06-2.68-.04-4.02.03-2.2.13-4.78,2.05-4.4,3.79.41,1.87-.47,3.25-.71,4.87,0,.01-.03.01-.15.04-.26.11-.36.22-.6.44-.88.47-1.56.92-2.28,1.27-3.39,1.62-5.6,4.44-7.46,7.55-.53.88-.81,2.01-.88,3.04-.29,4.3,1.84,7.55,4.81,10.37.54.52,1.12,1.01,1.89,1.71-1.22.42-2.05.7-2.98,1.01-.15.08-.24.17-.24.18.08.1.18.19.48.28.62,0,1.03.02,1.48.12.19.03.33-.03.71-.11,2.14-.17,3.94.16,5.66,1.04,2.56,1.3,5.33,1.84,8.1,2.45-.32.4-.58.74-.87.76-2.63.22-5.27.41-7.91.54-.49.02-1-.3-1.49-.68-.23-2.39-.54-2.67-3.19-2.88-.29.32-.41.6-.56,1.11q.25,2.83,2.75,3.12c.43,1.69,1.66,2.04,2.93,2.09,5.34.21,10.67.34,16.26.51,4.03.01,7.81.02,11.66.15.39.04.7-.04,1.25-.11,3.43-.09,6.53.32,9.47,1.62.18,2.41.36,4.81.54,7.22.1,1.39-.14,2.67-1.03,3.81-.81,1.04-.86,2.14-.08,3.23,1.96,2.71,1.43,5.66.47,8.43-.55,1.61-.79,2.75-.06,4.45,1.18,2.75,1.27,5.79-.18,8.59-.78,1.52-1.09,2.82.37,4.11.29.26.48.81.46,1.22-.16,2.54.66,5.17-.91,7.6-.67,1.03-1.01,2.34.28,3.4.31.26.6.76.6,1.16-.01,3.19.76,6.5-1.43,9.3,2.24,3.56,2.08,7.15.5,10.76-.7,1.58-1.93,2.28-3.81,2.43-13.29,1.04-26.59.2-39.88.44-1.59.03-3.21-.29-4.78-.59-.55-.11-1.19-.55-1.49-1.03-1.35-2.16-2.33-4.45-1.66-7.1.41-1.59.86-3.16,1.38-5.08-1.28-.87-1.28-2.62-1.19-4.43.07-1.35-.07-2.71.06-4.04.07-.73.38-1.52.8-2.12,1.07-1.52,1.14-2.1-.23-3.36-.8-.74-1.17-1.52-1.13-2.59.08-2.57-.38-5.23,1.71-7.39.3-.31.2-1.42-.12-1.88-1.73-2.45-1.67-5.22-1.5-7.97.04-.69.72-1.38,1.2-2.01,1.13-1.47,1.12-1.7,0-3.23-.34-.47-.75-1.09-.71-1.61.24-2.89-.84-5.92.9-8.69.27-.42.21-1.44-.11-1.78-1.12-1.15-.81-2.51-.82-3.82-.03-4.14.04-8.28-.04-12.41-.04-2.23-.59-4.47-.44-6.68.81-12.3.33-24.61.47-36.91.02-1.58.78-2.7,1.84-3.75,3.96-3.93,7.84-7.94,11.87-11.79,1.49-1.43,2.31-2.91,2.17-5.23,4.41.17,8.6.58,13.03-.34,1.89.08,3.54.16,5.18.24M17.8,96.09l-1.88.3c0,.2-.01.39-.02.59.92.24,1.84.68,2.76.68,8.99.05,17.98.04,26.97,0,.43,0,.87-.37,1.72-.75-.84-.4-1.26-.76-1.69-.79-3.84-.22-7.69-.55-11.53-.53-5.28.02-10.57.32-16.33.49M46.47,110.14c-8.88,0-17.76,0-26.64.02-.75,0-1.74-.4-2.33.83,3,.26,5.82.64,8.65.73,3.76.13,7.53.04,11.3.04,2.78,0,5.56,0,8.34-.01,1.05,0,2.08-.05,2.63-1.42-.63-.08-1.06-.14-1.95-.19Z"/>
    <path class="cls-3" d="M52.49,85.07c-3.04-1.1-6.14-1.51-9.65-1.54-.63-.05-.94.03-1.25.11-3.78,0-7.56-.01-11.59-.24-.21-1.89.97-1.85,2.18-1.92,2.28-.12,2.55-.41,3.08-2.94,1.3-.6,2.46-1.09,3.83-1.54,1.39-.28,2.6-.53,3.74-.95.39-.14.62-.71.93-1.06,0,.02-.04.02.1.01.22-.23.3-.46.48-.84,1.17-1.23,2.32-2.25,3.32-3.4,1.35-1.55,2.84-3.1,3.01-5.28.19-2.59.39-5.22-1.01-7.78-.21-.28-.37-.41-.51-.54.02,0,.02.04-.04-.08-.22-.24-.37-.35-.5-.45.02,0,.01.04,0-.15-.56-.61-1.1-1.04-1.62-1.47.02,0,.02.03-.04-.1-.21-.24-.37-.34-.5-.45.02,0,.02.04-.04-.09-.21-.23-.36-.34-.5-.44.01,0,0,.03,0-.16-1.1-1.06-2.11-2.06-3.3-2.77-3.61-2.16-7.76-2.63-11.78-3.76-1.04-2.3-1.12-4.32.43-6.22.1-.12.09-.34.13-.51,6.99,0,13.99-.01,21.22,0,.27,11.13.3,22.25.32,33.37,0,2.78.02,5.56-.02,8.34-.01.88-.21,1.76-.42,2.84M48.88,74.36c.79.82,1.53.57,1.79-.37.14-.52-.17-1.61-.54-1.75-.87-.32-1.47.25-1.48,1.25,0,.17.04.35.24.87Z"/>
    <path class="cls-3" d="M29.18,15.59c-4.18.93-8.37.51-12.8.12-1.49,0-1.89-.69-1.86-1.9.06-2.6.05-5.2,0-7.8-.02-1.24-.19-2.49-.3-3.73C14.1.76,14.61,0,16.07,0c3.49-.01,6.97.1,10.71.47.78,1.3,1.5,2.25,1.8,3.31.46,1.61.64,3.29.91,4.95.1.61.19,1.23.15,1.84-.11,1.68-.3,3.35-.46,5.02Z"/>
    <path class="cls-10" d="M29.42,15.6c-.09-1.68.1-3.35.22-5.02.04-.61-.05-1.23-.15-1.84-.27-1.66-.45-3.34-.91-4.95-.3-1.06-1.02-2-1.61-3.2,1.26-.31,2.58-.43,4.23-.41.81.05,1.28-.03,1.75-.11,1.63,0,3.26-.02,5.19.09.42.23.55.31.7.35v14.98c-1.34.1-2.56.18-4.01.31-1.88-.03-3.53-.11-5.42-.19Z"/>
    <path class="cls-3" d="M32.75,0c-.27.13-.74.21-1.32.18.3-.15.71-.19,1.32-.18Z"/>
    <path class="cls-3" d="M38.83.36c-.13.09-.26.01-.43-.2.14-.16.29-.11.43.2Z"/>
    <path class="cls-6" d="M30.85,47.46c4,.93,8.15,1.4,11.75,3.56,1.19.71,2.2,1.71,3.1,2.75-5.84-2.93-11.84-4.66-18.33-4.68-3.89-.01-7.72.46-11.34,1.74-3.96,1.4-7.87,3.07-10.57,6.62-1.01,1.33-1.64,2.7-1.82,4.39-.44,4.05,1.21,7.14,4.11,9.75.52.46.96,1.01,1.5,1.73.96,1.76,2.51.93,3.86,1.38,4.37,1.86,8.64,3.49,13.48,3.07.26.16.36.29.26.62-1.68.25-3.2.35-4.72.45-2.81-.4-5.59-.94-8.14-2.24-1.72-.87-3.52-1.2-5.79-1.06-.36,0-.62.04-.62.04-.41-.01-.82-.03-1.41-.16-.18-.12-.16-.36-.16-.36.83-.28,1.66-.57,2.88-.98-.78-.7-1.35-1.19-1.89-1.71-2.97-2.83-5.09-6.07-4.81-10.37.07-1.04.36-2.16.88-3.04,1.86-3.11,4.06-5.92,7.46-7.55.73-.35,1.4-.8,2.4-1.28.47-.15.56-.28.59-.45,0,0,.03,0,.24-.03,4.1-1.4,8.09-2.28,12.35-2.22.11.02.32-.02.56,0,1.56.02,2.88.03,4.19.03Z"/>
    <path class="cls-2" d="M25.99,47.41c-4.16-.04-8.14.84-12.24,2.23.03-1.59.91-2.97.5-4.84-.38-1.74,2.2-3.66,4.4-3.79,1.34-.08,2.68.03,4.02-.03,2.75-.13,5.49-.33,8.48-.47.2.2.21.41.11.53-1.55,1.9-1.47,3.92-.43,6.22-1.29.2-2.61.2-4.2.1-.28-.1-.5-.14-.5-.14l-.14.2Z"/>
    <path class="cls-2" d="M22.08,79.05c1.57-.31,3.09-.41,4.99-.63,1.1-.09,1.83-.06,2.7.09.61.14,1.09.18,1.79.23,1.35,0,2.46-.04,3.56-.07-.4,2.41-.67,2.71-2.95,2.83-1.21.06-2.39.03-2.43,1.91-5.33.05-10.67-.09-16.01-.3-1.27-.05-2.5-.39-2.86-2.2.34-.56.63-.79.92-1.02.5.17,1.01.49,1.51.47,2.64-.12,5.27-.32,7.91-.54.29-.02.55-.36.87-.76Z"/>
    <path class="cls-15" d="M18.04,96.09c5.52-.18,10.81-.47,16.09-.49,3.84-.02,7.69.31,11.53.53.44.03.85.39,1.69.79-.85.39-1.28.75-1.72.75-8.99.03-17.98.05-26.97,0-.92,0-1.84-.45-2.76-.68,0-.2.01-.39.02-.59.63-.1,1.25-.2,2.12-.3Z"/>
    <path class="cls-15" d="M46.7,110.14c.66.06,1.09.11,1.72.19-.55,1.37-1.58,1.41-2.63,1.42-2.78,0-5.56,0-8.34.01-3.77,0-7.54.09-11.3-.04-2.83-.09-5.65-.47-8.65-.73.59-1.23,1.58-.83,2.33-.83,8.88-.03,17.76-.02,26.87-.02Z"/>
    <path class="cls-6" d="M11.81,79.68c-.31.44-.6.66-.96,1.01q-2.55.04-2.66-2.85c.3-.55.44-.81.58-1.08,2.49.25,2.81.53,3.03,2.92Z"/>
    <path class="cls-2" d="M41.66,83.77c.23-.2.54-.28.93-.24-.23.2-.54.28-.93.24Z"/>
    <path class="cls-1" d="M8.62,76.79c.02.23-.12.49-.4.82-.01-.22.11-.5.4-.82Z"/>
    <path class="cls-2" d="M13.39,49.71c.08.15-.01.27-.3.36-.06-.14.04-.25.3-.36Z"/>
    <path class="cls-2" d="M5.89,75.09c.11-.02.09.22.06.35-.12.03-.22-.06-.3-.17,0-.01.08-.1.24-.18Z"/>
    <path class="cls-2" d="M7.61,75.68c-.04-.09.21-.13.34-.11-.01.08-.16.14-.34.11Z"/>
    <path class="cls-15" d="M9.19,73.1c-.48-.51-.92-1.05-1.44-1.51-2.9-2.61-4.54-5.7-4.11-9.75.18-1.69.81-3.06,1.82-4.39,2.7-3.55,6.61-5.22,10.57-6.62,3.62-1.28,7.45-1.75,11.34-1.74,6.5.02,12.49,1.75,18.34,4.87.19.02.2,0,.23.13.19.23.35.33.52.43,0,0,0-.04.04.09.19.23.35.34.5.45,0,0,0-.03.06.12.56.6,1.06,1.05,1.56,1.5,0,0,0-.04.05.09.2.23.35.34.5.45,0,0,0-.04.04.1.19.27.35.41.5.54,1.34,2.42,1.15,5.05.96,7.64-.16,2.18-1.66,3.73-3.01,5.28-1,1.15-2.15,2.17-3.44,3.49-.31.41-.4.58-.5.75,0,0,.04,0-.17,0-.61.01-1.01.03-1.42-.16-.06-.5-.12-.78-.12-1.26.54-1.8-.24-2.81-1.57-3.65-.19-.17-.33-.14-.61.12-2.04,2.36-1.98,2.8.61,5.26,0,0-.01,0-.13.04-.3.17-.49.3-.89.48-1.23-.08-2.24-.21-3.36-.49-3.91-2.39-8.06-3.42-12.43-3.74,1.76.74,3.62,1.2,5.43,1.79,2.08.68,4.32,1.13,5.38,3.28-.42.02-.66.01-1.04-.04-.23-.04-.33-.04-.63-.06-2.6-.73-5.08-1.21-7.35-2.19-2.61-1.13-5.2-1.8-8.03-1.53-1.5.14-3.01.36-4.51.41-1.23.04-2.46-.12-3.69-.19M40.18,67.46s.23,0,.41.28c.16.15.32.29.58.56l.21.05s.18-.13.53-.36c.15-.38.3-.76.66-1.46.01-.65.03-1.29.35-2.18.9-.13,1.32.34,1.45,1.17.12.78.23,1.56.35,2.3,2.21.13,2.53-.17,1.93-1.81-.3-.83-.75-1.6-1.17-2.48.28-.45.59-.87.84-1.33.91-1.69.42-3.29-1.31-3.9-1.53-.54-3.13-.9-4.84.51-.36,0-.72,0-1.26-.32-.18-.17-.35-.34-.69-.87-1.21-.12-2.44-.41-3.63-.31-2.58.23-5.1-.17-7.64-.42-.04,0-.05-.31-.08-.54,3.95-.3,7.91-.6,11.8-.89.28-1.41-.29-1.88-1.18-2.07-1.83-.38-3.66-.94-5.51-1.02-3.68-.16-7.38-.05-11.07-.05-2.74,0-5.26.43-6.65,3.21.34.81.68,1.63.96,2.61,0,0-.13.12-.37.33-.05.21-.1.41-.04,1.06-.13,1.35.1,2.77-.84,4.03-.51-1.25-.78-2.51-.98-3.79-.12-.78.07-1.77-1.1-1.8-1.19-.02-1.39.93-1.48,1.86-.06.62.07,1.29-.11,1.87-.26.9-.71,1.75-1.28,2.21-.19-1.42-.37-2.85-.57-4.27-.14-.95-.36-1.83-1.98-1.33.06,3.06.72,6.09,1.59,9.07.1.34.8.5,1.41.86.41-1.3.76-2.38,1.28-3.77.21-.41.42-.82.86-1.7.57,2.17,1.01,3.81,1.41,5.35,1.51.16,2.05-.4,2.28-1.57.51-2.61,1.12-5.21,1.81-7.92.06-.17,0-.31-.32-.6,0,0-.08-.24-.06-.64.28-.37.5-1.01.83-1.07,1.01-.18,2.07-.24,3.1-.17,1.59.12,3.17.34,4.73.67.26.06.35.89.48,1.75-.01.25-.02.5-.17.92.16.09.33.18.91.29,1.14.09,1.46.76,1.44,1.82-.05,2.04-.01,4.09-.01,6.34h2.11v-7.64c1.12-.62,1.96-1.08,3.11-1.54.1,0,.2,0,.33.51v8.61c1.98.03,3.8.78,5.79-.49.19,0,.39,0,.81,0M23.65,59.89c-.13-.17-.25-.35-.54-.79-.31-.41-.62-.82-1.14-1.57-.97-.51-1.76-.57-2.03,1.07-.05.08-.1.16-.32.42-.1.15-.14.31-.11.91-.44,2.75-1.49,5.42-1.23,8.4.78-.34,1.39-.77,1.75-1.35,1.06-1.77,1.67-1.85,2.67-.07.52.92,1.04,1.35,2.19.99-.42-2.62-.82-5.16-1.23-8.02Z"/>
    <path class="cls-4" d="M9.26,73.32c1.17-.15,2.4.01,3.62-.03,1.51-.05,3.01-.27,4.51-.41,2.82-.27,5.42.4,8.03,1.53,2.27.98,4.75,1.46,7.39,2.27.41.08.57.05.72.01.24,0,.48.02,1.05.01.75-.41,1.17-.81,1.59-1.2,1.01.13,2.02.26,3.16.51-.06.4-.26.68-.45.96-1.16.49-2.33.97-3.63,1.57-1.25.15-2.35.18-3.83.06-.85-.17-1.33-.2-1.8-.22-.73-.03-1.45-.07-2.4-.12-.27-.2-.36-.34-.69-.67-2.16-2.12-4.73-2.69-7.26-3.04-2.05-.28-4.19-1.26-6.27-.01-1.24-.3-2.79.54-3.75-1.22Z"/>
    <path class="cls-6" d="M48.79,74.19c-.11-.35-.16-.52-.15-.7.01-1,.62-1.57,1.48-1.25.37.14.69,1.23.54,1.75-.26.93-1,1.18-1.87.19Z"/>
    <path class="cls-6" d="M39.08,77.01c0-.32.18-.6.47-1.04.28-.29.47-.42.95-.54.74-.11,1.19-.24,1.64-.36.4-.02.81-.04,1.41-.07-.1.36-.34.93-.72,1.07-1.15.42-2.36.67-3.74.95Z"/>
    <path class="cls-6" d="M48.6,56.5c-.48-.26-.98-.71-1.56-1.31.46.27,1,.7,1.56,1.31Z"/>
    <path class="cls-6" d="M43.86,75.02c-.04-.17.06-.33.27-.59.03.14-.05.36-.27.59Z"/>
    <path class="cls-6" d="M49.65,57.72c-.1.01-.25-.12-.47-.4.1-.01.25.12.47.4Z"/>
    <path class="cls-6" d="M49.1,57.1c-.09.02-.24-.09-.45-.33.09-.02.24.09.45.33Z"/>
    <path class="cls-6" d="M46.94,54.93c-.1.02-.25-.08-.46-.32.1-.02.25.08.46.32Z"/>
    <path class="cls-6" d="M46.41,54.39c-.11.03-.27-.07-.47-.31.11-.03.26.07.47.31Z"/>
    <path class="cls-9" d="M13.11,74.7c1.97-1.4,4.11-.42,6.16-.14,2.53.35,5.1.92,7.14,2.99-4.66.65-8.93-.99-13.3-2.85Z"/>
    <path class="cls-3" d="M26.1,47.43c-.11-.02.03-.21.03-.21,0,0,.22.04.25.12s-.18.11-.28.09Z"/>
    <path class="cls-6" d="M29.76,78.5c.34-.09.82-.06,1.43.08-.34.09-.81.06-1.43-.08Z"/>
    <path class="cls-5" d="M15.25,57.99c-.34-.81-.68-1.63-1.02-2.44,1.39-2.79,3.92-3.22,6.65-3.21,3.69,0,7.38-.11,11.07.05,1.85.08,3.68.64,5.51,1.02.89.18,1.46.65,1.18,2.07-3.89.29-7.85.59-11.8.89.03.23.04.54.08.54,2.54.25,5.06.65,7.64.42,1.19-.11,2.42.19,3.48.53-1.6.44-3.2-.15-4.49.98-.1,0-.2,0-.6-.19-2.54-.26-4.79-.33-7.04-.4-.17-.48-.26-1.32-.52-1.37-1.55-.33-3.14-.55-4.73-.67-1.03-.08-2.09-.02-3.1.17-.33.06-.56.7-1.03,1.26-.56.25-.92.3-1.28.36Z"/>
    <path class="cls-4" d="M41.08,68.18c-.16-.15-.32-.29-.54-.8-.08-1.11-.1-1.85-.08-2.82.02-.81,0-1.4.01-2.21,0-.96-.02-1.7,0-2.62.05-.43.05-.68.05-.93,1.35-1.41,2.96-1.05,4.48-.51,1.74.62,2.22,2.22,1.31,3.9-.25.46-.55.88-.84,1.33.42.88.87,1.65,1.17,2.48.6,1.64.27,1.94-1.93,1.81-.11-.75-.23-1.53-.35-2.3-.13-.83-.55-1.29-1.75-.9-.28.92-.27,1.58-.26,2.24-.15.38-.3.76-.74,1.21-.29.07-.53.11-.53.11M42.94,62.54c1.57.11,1.83-.94,1.63-2.09-.07-.41-.85-1.03-1.24-.99-1.33.14-1.34,1.22-1.18,2.25.04.24.26.45.79.83Z"/>
    <path class="cls-4" d="M15.22,58.08c.39-.14.75-.2,1.3-.24.18.01.27.25.33.48.07.23.14.48.14.48-.57,2.6-1.19,5.19-1.7,7.81-.23,1.17-.77,1.73-2.28,1.57-.41-1.54-.84-3.19-1.41-5.35-.44.88-.65,1.29-1.14,1.83-.6,0-.93-.16-1.25-.3.37-.87.81-1.71,1.08-2.61.17-.58.05-1.25.11-1.87.09-.93.29-1.89,1.48-1.86,1.16.02.98,1.02,1.1,1.8.2,1.27.47,2.53.98,3.79.95-1.26.72-2.68.91-4.36.12-.53.17-.74.22-.94,0,0,.13-.12.16-.21Z"/>
    <path class="cls-4" d="M19.79,58.85c.05-.08.1-.16.36-.43.82-.31,1.43-.43,2.03-.55.31.41.62.82,1.01,1.53.21.48.34.65.47.82.4,2.53.8,5.06,1.22,7.69-1.15.36-1.67-.07-2.19-.99-1-1.78-1.6-1.7-2.67.07-.35.58-.96,1.01-1.75,1.35-.26-2.98.79-5.65,1.32-8.7.2-.45.24-.61.2-.79M20.44,62.91c0,1.06.47,1.4,1.56,1.06.18-1.17.4-2.23-1.14-2.91-.17.61-.27,1.02-.42,1.85Z"/>
    <path class="cls-4" d="M33.57,59.09c1.28-1.39,2.87-.8,4.56-1.05.41.13.58.3.73.79-.91.57-1.78.83-2.8,1.1-.21.18-.28.35-.39.69,0,.41.04.65.17,1.07.9.25,1.71.32,2.64.52.48.87.27,1.35-.53,1.52-.6.13-1.22.2-2.02.35-1.05,1.06-.59,1.82.41,2.22.61.24,1.36.13,2.15.29.27.36.43.62.6.87-1.7,1.27-3.53.52-5.5.49,0-2.97,0-5.79-.01-8.86Z"/>
    <path class="cls-12" d="M25.89,58.43c2.27-.11,4.52-.04,6.91.21-.7.64-1.54,1.11-2.66,1.73v7.64h-2.11c0-2.26-.03-4.3.01-6.34.03-1.06-.29-1.74-1.71-1.96-.35-.2-.42-.26-.49-.33.01-.25.02-.5.05-.94Z"/>
    <path class="cls-11" d="M36.19,59.91c.88-.25,1.76-.51,2.75-.92.48-.16.84-.16,1.38-.17.18.25.18.49,0,1.05-.08,1.11,0,1.91.09,2.7.02.59.05,1.18-.1,2.14-.24,1.16-.3,1.95-.37,2.74-.19,0-.39,0-.72,0-.31-.25-.48-.5-.87-1.03-1.28-.62-2.43-.87-2.25-2.39.61-.1,1.23-.17,1.83-.3.8-.17,1.01-.65.4-1.67-1.03-.38-1.81-.46-2.6-.55-.04-.24-.09-.47.02-.95.29-.34.38-.48.42-.65Z"/>
    <path class="cls-14" d="M9.1,64.15c.43.35.75.5,1.26.66-.16,1.1-.5,2.18-.91,3.48-.62-.36-1.31-.53-1.41-.86-.87-2.98-1.52-6.01-1.59-9.07,1.61-.51,1.84.37,1.98,1.33.2,1.42.38,2.85.67,4.47Z"/>
    <path class="cls-6" d="M40.44,75.34c-2.58-2.47-2.64-2.91-.48-5.23.29-.07.53-.09.53-.09,1.28.77,2.06,1.78,1.35,3.65-.61.74-1.01,1.21-1.41,1.67Z"/>
    <path class="cls-7" d="M36.06,75.37c-.31.54-.73.93-1.3,1.32-1.39-2.14-3.63-2.59-5.7-3.27-1.81-.59-3.67-1.04-5.43-1.79,4.37.32,8.52,1.36,12.43,3.74Z"/>
    <path class="cls-2" d="M40.45,75.33c.39-.46.78-.92,1.35-1.46.22.21.28.49.34.98-.44.34-.89.46-1.52.53-.18-.06-.16-.06-.17-.06Z"/>
    <path class="cls-5" d="M22.07,57.7c-.5.29-1.1.41-1.89.58.02-1.32.81-1.26,1.89-.58Z"/>
    <path class="cls-5" d="M40.07,67.46c-.05-.8.01-1.59.21-2.53.15.6.18,1.35.17,2.32-.03.22-.26.22-.38.21Z"/>
    <path class="cls-5" d="M42.45,66.7c-.12-.5-.13-1.16,0-1.96.13.51.12,1.15,0,1.96Z"/>
    <path class="cls-5" d="M25.77,59.46c.14-.02.21.04.35.23-.1.04-.26-.05-.35-.23Z"/>
    <path class="cls-9" d="M17.05,58.74c-.06.06-.13-.19-.12-.32.18-.04.24.09.12.32Z"/>
    <path class="cls-5" d="M41.12,68.25c-.04-.06.2-.1.31-.06.12.04-.06.17-.06.17,0,0-.21-.05-.25-.11Z"/>
    <path class="cls-5" d="M23.65,60.06c-.12,0-.25-.18-.38-.52.13,0,.25.18.38.52Z"/>
    <path class="cls-5" d="M19.7,58.94c.13.09.09.25-.11.49-.12-.09-.08-.25.11-.49Z"/>
    <path class="cls-5" d="M14.94,58.39c.07.1.02.31-.15.62-.07-.1-.02-.31.15-.62Z"/>
    <path class="cls-7" d="M33.4,76.66c-.02.07-.18.1-.38.05.05-.09.15-.09.38-.05Z"/>
    <path class="cls-5" d="M40.44,69.95c.04.07-.2.09-.32.05,0-.19.13-.22.32-.05Z"/>
    <path class="cls-13" d="M42.74,62.47c-.34-.3-.55-.51-.59-.75-.16-1.03-.15-2.11,1.18-2.25.39-.04,1.17.58,1.24.99.2,1.15-.06,2.2-1.83,2.02Z"/>
    <path class="cls-5" d="M40.46,62.36c-.13-.58-.22-1.38-.18-2.3.16.61.19,1.35.18,2.3Z"/>
    <path class="cls-8" d="M20.46,62.7c.13-.62.24-1.03.4-1.64,1.54.68,1.32,1.74,1.14,2.91-1.09.34-1.57,0-1.54-1.27Z"/>
    <path class="cls-5" d="M35.93,64.08c0,1.48,1.15,1.73,2.33,2.23-.56.12-1.31.23-1.92-.01-1-.4-1.46-1.15-.41-2.22Z"/>
    <path class="cls-5" d="M35.83,61.69c.7-.1,1.49,0,2.4.23-.69.09-1.5.02-2.4-.23Z"/>
    <path class="cls-5" d="M36.05,59.92c.1.15,0,.29-.23.45-.04-.11.03-.27.23-.45Z"/>
  </g>
</svg>