<?xml version="1.0" encoding="utf-8"?>
<!-- Generator: Adobe Illustrator 25.0.0, SVG Export Plug-In . SVG Version: 6.00 Build 0)  -->
<svg version="1.1" id="圖層_1" xmlns="http://www.w3.org/2000/svg" xmlns:xlink="http://www.w3.org/1999/xlink" x="0px" y="0px"
	 viewBox="0 0 300 38" style="enable-background:new 0 0 300 38;" xml:space="preserve">
<style type="text/css">
	.st0{fill:#231815;}
</style>
<g>
	<g>
		<path d="M12.2,32.3H9.7l-1.5-2.5h4c0.2,0,0.4-0.2,0.4-0.4v-3.5L5.4,27v-2.6l7.2-1.2v-7H4.2v2.1l7.1,1.1v2.5l0,0.1l-0.1,0l-7-1.1
			v1.8c0,3.7-0.6,7.2-1.1,9.5l0,0H0.5l0-0.1c0.4-1.9,1.2-5.5,1.2-9.4v-9h13.4v15.5C15.1,30.9,13.8,32.3,12.2,32.3z"/>
	</g>
	<g>
		<path d="M15.6,12.1H1.1V9.6h3.2l-1-4.4H1.1V2.7h6V0.8h2.5v1.9h6v2.5h-2.2l-1,4.4h3.2V12.1z M6.9,9.6h3l1-4.4h-5L6.9,9.6z"/>
	</g>
	<g>
		<path d="M28.9,32.2h-8.7c-1.6,0-3-1.3-3-3v-18h11.4V9.5H17.2V0.8h2.5v1.9h7.1l3.7-2.3L31.8,2l-3,3.2l0,0l0,0h-9v1.7h11.4v6.8H19.7
			v2.1h11.4v2.6H19.7v1.5h11.4v2.6H19.7V24h11.4v2.6H19.7v2.7c0,0.2,0.2,0.4,0.4,0.4h8.7c0.2,0,0.4-0.2,0.4-0.4v-1.3h2.5v1.3
			C31.9,30.9,30.5,32.2,28.9,32.2z"/>
	</g>
	<path d="M96.6,7.9h2.1l3,0V5l-4.3,0h-9.8V0.9h-3.1V5h-14v2.9h23c-0.4,1.9-2.2,9-7.4,13.5c-4.1-3.6-6.1-8.8-6.9-11.7L76,10.3
		c0.9,3.2,3,8.8,7.5,13c-4.9,3.3-10.6,5-13,5.7v3.2c2-0.5,9.4-2.5,15.6-6.9c6.3,4.4,13.8,6.4,15.7,6.9V29c-2.4-0.6-8.1-2.4-13.1-5.7
		C95,17.3,96.5,8.4,96.6,7.9z"/>
	<g>
		<path d="M115.6,0.9H113h-0.3c-0.9,3.7-3.1,10.6-8.6,15.3l-0.1,0.1v3.9l0.3-0.2c2.2-1.5,4.1-3.5,5.8-5.8v18.1h3.1l0-23.3
			c1.5-3.1,2.2-6,2.6-8H115.6z"/>
		<path d="M132.3,24.8v4c0,0.3-0.3,0.4-0.5,0.4h-8.7c-0.3,0-0.5-0.2-0.5-0.5V15.1l9.7-0.4l3.1-3.3l-1.2-1.6l-3.5,2l-8.1,0.3V0.9
			h-0.3h-2.5h-0.3v27.7c0,2,1.6,3.6,3.6,3.6h8.7c2,0,3.6-1.6,3.6-3.6v-3.8H132.3z"/>
	</g>
	<g>
		<g>
			<path d="M49.5,31.7H47l0.9-4.9h2.6L49.5,31.7z"/>
		</g>
		<g>
			<path d="M58.7,31.7h-2.6l-0.9-4.9h2.6L58.7,31.7z"/>
		</g>
		<g>
			<path d="M54.1,31.7h-2.5v-4.9h2.5V31.7z"/>
		</g>
		<path d="M66.8,15.3c-2.2-1.7-3.8-3.3-4.7-4.5h3.7V8.3H55.6c0.3-0.5,0.5-0.9,0.7-1.4h9.6V4.4h-4.3l2-3.4h-2.9l-1.6,2.7l1.3,0.7h-3
			c0.5-1.5,0.8-2.7,0.9-3.4h-2.6c-0.2,0.7-0.5,1.9-1,3.4h-0.2h-2.2l1.3-0.7L51.9,1H49l2,3.4h-4.2v2.5h6.5h0.2
			c-0.2,0.5-0.5,0.9-0.8,1.4l-5.8,0v2.5h4c-1.3,1.5-2.8,3-4.8,4.4v-0.1V2h-9.3v23.5c0,3-0.8,5.5-1.2,6.7l0,0.1h2.7l0,0
			c0.5-1.5,1.1-3.9,1.1-6.7v-4.9h4.2v8.7c0,0.2-0.2,0.4-0.4,0.4h-2.8l1.5,2.5h1.3c1.6,0,3-1.3,3-3v-11c0.7-0.4,1.4-0.9,2-1.4v8.6
			h15.2v4.1c0,0,0,0.1,0,0.1h-0.7l-0.9-2.9h-2.7l1.7,5.4h3.3c1.1,0,1.8-1,1.8-2.6v-6.5H58v-1.2H64v-2.4H58v-1.2H64v-2
			c0.9,0.7,1.8,1.4,2.7,2l0.1,0.1L66.8,15.3L66.8,15.3z M43.4,18h-4.2v-5.5h4.2V18z M43.4,9.9h-4.2V4.5h4.2V9.9z M55.4,23.1h-5v-1.2
			h5V23.1z M55.4,19.5h-5v-1.2h5V19.5z M55.4,15.9h-5v-1.2h0.1h4.9V15.9z M52.8,12.3c0.4-0.5,0.8-1,1.2-1.5h5.1
			c0.3,0.4,0.7,1,1.1,1.5H52.8z M58,15.9v-1.2h4.3c0.4,0.4,0.9,0.8,1.3,1.2H58z"/>
	</g>
</g>
<g>
	<path class="st0" d="M141.2,23.7h1.5v7.2h4.3v1.3h-5.8V23.7z"/>
	<path class="st0" d="M147.5,29.1c0-1.9,1.1-3.2,3.1-3.2s3.1,1.3,3.1,3.2c0,1.9-1.1,3.2-3.1,3.2S147.5,31,147.5,29.1z M152.3,29.1
		c0-1.1-0.5-2.1-1.7-2.1c-1.2,0-1.7,1.1-1.7,2.1c0,1.1,0.5,2.2,1.7,2.2C151.8,31.3,152.3,30.2,152.3,29.1z"/>
	<path class="st0" d="M154.8,26.1h1.3V27l0,0c0.4-0.7,1.1-1.1,1.9-1.1c1.3,0,2.2,0.7,2.2,2.1v4.2h-1.3v-3.8c0-1-0.4-1.4-1.2-1.4
		c-0.9,0-1.5,0.7-1.5,1.6v3.6h-1.3V26.1z"/>
	<path class="st0" d="M167.2,31.9c0,1.8-1.1,2.7-3,2.7c-1.2,0-2.6-0.5-2.7-1.9h1.3c0.2,0.8,0.8,0.9,1.5,0.9c1.1,0,1.6-0.6,1.6-1.6
		v-0.9h0c-0.4,0.7-1.1,1.1-1.8,1.1c-1.9,0-2.7-1.5-2.7-3.2c0-1.6,1-3.1,2.8-3.1c0.8,0,1.5,0.3,1.8,1h0v-0.8h1.3V31.9z M165.9,29
		c0-1.1-0.5-2-1.6-2c-1.2,0-1.6,1.1-1.6,2.1c0,1,0.5,2,1.6,2C165.4,31.1,165.9,30,165.9,29z"/>
	<path class="st0" d="M168,26.1h1v-1.8h1.3v1.8h1.2v1h-1.2v3.3c0,0.6,0,0.8,0.6,0.8c0.2,0,0.4,0,0.6,0v1c-0.3,0-0.6,0.1-0.9,0.1
		c-1.4,0-1.7-0.5-1.7-1.6v-3.6h-1V26.1z"/>
	<path class="st0" d="M173.6,29.5c0,1,0.5,1.8,1.6,1.8c0.8,0,1.3-0.3,1.5-1h1.3c-0.3,1.3-1.4,2.1-2.8,2.1c-1.9,0-3-1.3-3-3.2
		c0-1.7,1.1-3.2,3-3.2c1.9,0,3.1,1.7,2.9,3.6H173.6z M176.7,28.6c0-0.9-0.6-1.6-1.5-1.6c-0.9,0-1.6,0.7-1.6,1.6H176.7z"/>
	<path class="st0" d="M179.1,26.1h1.3V27l0,0c0.4-0.7,1.1-1.1,1.9-1.1c1.3,0,2.2,0.7,2.2,2.1v4.2h-1.3v-3.8c0-1-0.4-1.4-1.2-1.4
		c-0.9,0-1.5,0.7-1.5,1.6v3.6h-1.3V26.1z"/>
	<path class="st0" d="M191.5,31.9c0,1.8-1.1,2.7-3,2.7c-1.2,0-2.6-0.5-2.7-1.9h1.3c0.2,0.8,0.8,0.9,1.5,0.9c1.1,0,1.6-0.6,1.6-1.6
		v-0.9h0c-0.4,0.7-1.1,1.1-1.8,1.1c-1.9,0-2.7-1.5-2.7-3.2c0-1.6,1-3.1,2.8-3.1c0.8,0,1.5,0.3,1.8,1h0v-0.8h1.3V31.9z M190.2,29
		c0-1.1-0.5-2-1.6-2c-1.2,0-1.6,1.1-1.6,2.1c0,1,0.5,2,1.6,2C189.7,31.1,190.2,30,190.2,29z"/>
	<path class="st0" d="M196.4,23.7h6.1V25h-4.6v2.2h4.3v1.2h-4.3v2.5h4.7v1.3h-6.2V23.7z"/>
	<path class="st0" d="M209.4,32.2h-1.3v-0.8h0c-0.4,0.7-1.1,1-1.9,1c-1.9,0-2.9-1.4-2.9-3.3c0-2.2,1.3-3.2,2.6-3.2
		c0.8,0,1.6,0.3,2,1h0v-3.1h1.3V32.2z M206.3,31.3c1.2,0,1.7-1.1,1.7-2.2c0-1.3-0.6-2.1-1.7-2.1c-1.3,0-1.7,1.1-1.7,2.2
		C204.7,30.2,205.2,31.3,206.3,31.3z"/>
	<path class="st0" d="M216.2,32.2h-1.3v-0.9h0c-0.3,0.6-1.1,1-1.7,1c-1.6,0-2.3-0.8-2.3-2.4v-3.9h1.3v3.7c0,1.1,0.4,1.5,1.2,1.5
		c1.1,0,1.5-0.7,1.5-1.7v-3.5h1.3V32.2z"/>
	<path class="st0" d="M221.7,28.1c-0.1-0.7-0.6-1.1-1.4-1.1c-0.7,0-1.7,0.4-1.7,2.2c0,1,0.4,2.1,1.6,2.1c0.8,0,1.3-0.5,1.5-1.4h1.3
		c-0.2,1.6-1.2,2.5-2.8,2.5c-1.9,0-3-1.4-3-3.2c0-1.8,1-3.3,3-3.3c1.4,0,2.6,0.7,2.8,2.2H221.7z"/>
	<path class="st0" d="M229.3,30.8c0,0.3,0.1,0.5,0.3,0.5c0.1,0,0.2,0,0.3,0v0.9c-0.2,0.1-0.6,0.2-0.8,0.2c-0.5,0-0.9-0.2-1-0.7
		c-0.5,0.5-1.4,0.7-2.1,0.7c-1.1,0-2.1-0.6-2.1-1.8c0-1.5,1.2-1.8,2.3-1.9c1-0.2,1.8-0.1,1.8-0.9c0-0.7-0.7-0.8-1.3-0.8
		c-0.8,0-1.3,0.3-1.3,1h-1.3c0.1-1.6,1.4-2,2.8-2c1.2,0,2.4,0.5,2.4,1.8V30.8z M227.9,29.1c-0.4,0.3-1.1,0.3-1.7,0.4
		c-0.6,0.1-1.1,0.3-1.1,1c0,0.6,0.8,0.8,1.2,0.8c0.6,0,1.5-0.3,1.5-1.2V29.1z"/>
	<path class="st0" d="M230.1,26.1h1v-1.8h1.3v1.8h1.2v1h-1.2v3.3c0,0.6,0,0.8,0.6,0.8c0.2,0,0.4,0,0.6,0v1c-0.3,0-0.6,0.1-0.9,0.1
		c-1.4,0-1.7-0.5-1.7-1.6v-3.6h-1V26.1z"/>
	<path class="st0" d="M234.7,23.7h1.3V25h-1.3V23.7z M234.7,26.1h1.3v6.1h-1.3V26.1z"/>
	<path class="st0" d="M237.2,29.1c0-1.9,1.1-3.2,3.1-3.2s3.1,1.3,3.1,3.2c0,1.9-1.1,3.2-3.1,3.2S237.2,31,237.2,29.1z M242,29.1
		c0-1.1-0.5-2.1-1.7-2.1c-1.2,0-1.7,1.1-1.7,2.1c0,1.1,0.5,2.2,1.7,2.2C241.5,31.3,242,30.2,242,29.1z"/>
	<path class="st0" d="M244.5,26.1h1.3V27l0,0c0.4-0.7,1.1-1.1,1.9-1.1c1.3,0,2.2,0.7,2.2,2.1v4.2h-1.3v-3.8c0-1-0.4-1.4-1.2-1.4
		c-0.9,0-1.5,0.7-1.5,1.6v3.6h-1.3V26.1z"/>
	<path class="st0" d="M260.5,26.4c-0.2-1-0.9-1.7-2.1-1.7c-1.8,0-2.6,1.6-2.6,3.2c0,1.6,0.8,3.2,2.6,3.2c1.3,0,2-1,2.1-2.2h1.4
		c-0.1,2-1.5,3.4-3.6,3.4c-2.5,0-4-2-4-4.4c0-2.4,1.5-4.4,4-4.4c1.9,0,3.4,1.1,3.6,2.9H260.5z"/>
	<path class="st0" d="M262.8,29.1c0-1.9,1.1-3.2,3.1-3.2c2,0,3.1,1.3,3.1,3.2c0,1.9-1.1,3.2-3.1,3.2C263.9,32.3,262.8,31,262.8,29.1
		z M267.6,29.1c0-1.1-0.5-2.1-1.7-2.1s-1.7,1.1-1.7,2.1c0,1.1,0.5,2.2,1.7,2.2S267.6,30.2,267.6,29.1z"/>
	<path class="st0" d="M270.2,30.6h1.6v1.6h-1.6V30.6z"/>
	<path class="st0" d="M273.5,30.6h1.6v1.6c0,1-0.7,1.7-1.6,1.9v-0.7c0.5-0.1,0.8-0.6,0.8-1.1h-0.8V30.6z"/>
	<path class="st0" d="M280.1,23.7h1.5v7.2h4.3v1.3h-5.8V23.7z"/>
	<path class="st0" d="M286.1,26.1h1v-1.8h1.3v1.8h1.2v1h-1.2v3.3c0,0.6,0,0.8,0.6,0.8c0.2,0,0.4,0,0.6,0v1c-0.3,0-0.6,0.1-0.9,0.1
		c-1.4,0-1.7-0.5-1.7-1.6v-3.6h-1V26.1z"/>
	<path class="st0" d="M296.4,32.2h-1.3v-0.8h0c-0.4,0.7-1.1,1-1.9,1c-1.9,0-2.9-1.4-2.9-3.3c0-2.2,1.3-3.2,2.6-3.2
		c0.8,0,1.6,0.3,2,1h0v-3.1h1.3V32.2z M293.4,31.3c1.2,0,1.7-1.1,1.7-2.2c0-1.3-0.6-2.1-1.7-2.1c-1.3,0-1.7,1.1-1.7,2.2
		C291.7,30.2,292.2,31.3,293.4,31.3z"/>
	<path class="st0" d="M298,30.6h1.6v1.6H298V30.6z"/>
</g>
<g>
	<g>
		<path class="st0" d="M179.1,6.1V4.5h-3.5l1.5-2.4h-1.8l-1.3,2l0.6,0.4h-2V1.2h-1.6v3.3h-1.8V1.2h-1.6v3.3h-2l0.6-0.4l-1.3-2h-1.8
			l1.5,2.4h-4v1.6h5l0.9,1.3h-5.1v0v1.5v0h7.7v1.3h-7.7v0v1.5v0h7.7v1.3h-8.4v0v1.5v0h8.4v4.9h0h1.5h0v-4.9h8.4v0v-1.5v0h-8.4v-1.3
			h7.7v0v-1.5v0h-7.7V8.9h7.7v0V7.4v0h-4.6l0.9-1.3H179.1z M172,7.4h-3.5l-0.9-1.3h5.2L172,7.4z"/>
		<polygon class="st0" points="160.8,18.8 163.3,18.8 167.5,15.4 165,15.4 		"/>
		<polygon class="st0" points="172.4,15.4 176.6,18.8 179.1,18.8 174.9,15.4 		"/>
	</g>
	<g>
		<path class="st0" d="M182.1,1.2v14.4c0,1.8-0.4,3.2-0.7,3.9l0,0h1.6l0,0c0.3-0.9,0.6-2.3,0.6-4V7.2V7.1l2.6,0.4l0,0l0,0V6
			l-2.6-0.4V2.7h3.1v7.2l-2.6,0.4v1.5l0,0l0,0l2.6-0.4v6.4c0,0.1-0.1,0.3-0.3,0.3h-1.6l0.9,1.5h0.8c1,0,1.7-0.8,1.7-1.7v-10V3.3V1.2
			H182.1z"/>
		<path class="st0" d="M197.2,7.2V4.9V1.2h-6.5v5.1c0,0.9-0.6,1.8-1.4,2.5h2c0.5-0.8,0.9-1.6,0.9-2.5V2.8h3.4v2.1v2.3
			c0,0.8,0.6,1.4,1.3,1.6h2.7V7.2H197.2z"/>
	</g>
	<g>
		<path class="st0" d="M205.2,1.2c-0.4,1.8-1.5,5.1-4.1,7.7v2.3c1-0.9,1.9-1.8,2.6-2.8v11.2h1.6V5.7c0.9-1.8,1.3-3.4,1.5-4.5H205.2z
			"/>
		<path class="st0" d="M210.5,1.2h-1.7c-0.3,1.6-1,4-2.5,6v2.4C209,7.1,210.1,3.3,210.5,1.2z"/>
		<path class="st0" d="M216.1,1.8L216,1.2h-4.4v1.6h3.1c0.4,1.4,1.6,4.5,4.8,6.7V7.4C216.8,5,216.1,1.9,216.1,1.8z"/>
		<path class="st0" d="M207.5,10.3h2.9c-0.1,0.9-0.5,3.7-1.7,6c-0.9,1.6-1.7,2.7-2.2,3.2h2.1c0.5-0.6,1-1.4,1.6-2.4
			c1.5-2.7,1.9-6,2-6.8h4v3.7l0,3.9h-3.2l0.9,1.6h2.3c0.9,0,1.6-0.7,1.6-1.6v-3.9V8.7h-10.2V10.3z"/>
	</g>
	<g>
		<path class="st0" d="M241.5,1.2v18.4h1.6V2.8h3l-1.1,4.7l-0.2,0.6l0.6,0.2c0,0,1,0.6,1,3.4v1.3c0,0.9-0.1,1.3-0.1,1.4h-2.7v0.1
			l0.8,1.4h2c1.5,0,1.6-1.4,1.6-3v-1.3c0-2.7-0.8-3.9-1.4-4.5l1.5-6.2H241.5z"/>
		<path class="st0" d="M250.6,12.9V9.8h7.9V5.4V1.2H249v11.7v5.2c0,0.5,0.2,0.9,0.6,1.1c0.2,0.1,0.4,0.2,0.6,0.2
			c0.2,0,0.4-0.1,0.6-0.2l3.4-1.7v-1.7l-3.7,1.8V12.9z M250.6,8.2v-2h6.3v2H250.6z M256.9,2.8v1.9h-6.3V2.8H256.9z"/>
		<path class="st0" d="M259.9,10.6l-4.9,2.5c-0.6-0.9-1.1-1.8-1.3-2.5H252c0.8,3.2,4.9,7.8,7.9,8.9v-1.7c-1.2-0.6-2.7-1.9-3.9-3.4
			l3.9-2V10.6z"/>
	</g>
	<g>
		<path class="st0" d="M265.9,1.2c-0.4,1.4-1.5,4.4-4.6,7.2v2.2c4.7-3.7,6-7.9,6.4-9.4H265.9z"/>
		<path class="st0" d="M275,1.7l-0.2-0.5h-6.1v1.7h4.9c0.6,1.4,2.5,5,6,7.9V8.4C276.5,5.4,275,1.7,275,1.7z"/>
		<path class="st0" d="M273.7,13l1.5,2.8l-9.7,1.1l5.7-9.3h-2l-5.7,9.2c-0.3,0.5-0.3,1-0.1,1.4c0.2,0.3,0.6,0.5,1.1,0.5
			c0.1,0,0.1,0,0.2,0l11.3-1.2l1.1,2.1h1.9l-3.5-6.6H273.7z"/>
	</g>
	<path class="st0" d="M158.6,4.1V2.5h-8.4V1.2h-1.6l0,1.3h-8.4v1.6h8.4l0,1h-7v4.1h7l0,1h-7v1.6h7l0,0.9h-8.3v1.6h8.3l0,0.9h-7v1.6
		h7l0,1.5h-3l0.9,1.6h2.1c0.9,0,1.6-0.7,1.6-1.6v-1.4h5.7c0.9,0,1.6-0.7,1.6-1.6v-0.9h1.1v-1.6h-1.1v-2.4h-7.3v-1h7V5.1h-7v-1H158.6
		z M155.8,15.1h-5.7v-0.9h5.7L155.8,15.1z M155.9,11.7v0.9h-5.7v-0.9H155.9z M143.2,7.7v-1h5.4l0,1H143.2z M155.6,6.7v1h-5.5v-1
		H155.6z"/>
	<rect x="282.1" y="4.8" class="st0" width="13.1" height="1.7"/>
	<path class="st0" d="M282.1,8.4V16h13.1V8.4H282.1z M293.5,14.3h-9.7v-4.3h9.7V14.3z"/>
	<path class="st0" d="M281.1,1.2v1.7h16.7v4.6v0.2v10.2h-3.7v0l0.9,1.7h2.8c0.9,0,1.7-0.7,1.7-1.7V1.2H281.1z"/>
	<path class="st0" d="M239.3,4.6V3H229c0.2-0.7,0.4-1.3,0.5-1.8h-1.7c-0.1,0.5-0.3,1.1-0.6,1.8H221v1.6h5.5c-1.1,2-2.8,4.3-5.6,6.4
		v2c1.4-1,2.6-2,3.6-3v4.9c0,1.9-0.7,3.6-1.2,4.7h1.8c0.5-1.1,1-2.7,1-4.3h10l0,2.7h-3.5l0.9,1.6h2.6c0.9,0,1.6-0.7,1.6-1.6v-7.4v-4
		h-10.5c0.4-0.7,0.8-1.3,1.1-1.9H239.3z M236.1,13.6h-10v-1.9h10L236.1,13.6z M236.1,8.2v1.9h-10V8.2H236.1z"/>
	<path class="st0" d="M195.5,15.8c2.7-2.5,3.2-5,3.2-5.2c0.1-0.3,0.1-0.6,0.1-0.9h-9.7v1.6h0.9c0.2,0.8,0.9,2.7,3,4.5
		c-1.3,0.8-2.8,1.5-4,2v1.7c1.4-0.5,3.6-1.4,5.2-2.6c1.3,1,3.1,1.9,5.4,2.7v-1.7C198,17.3,196.6,16.6,195.5,15.8z M194.2,14.9
		c-1.7-1.4-2.3-2.8-2.6-3.6h5.2C196.5,12.2,195.7,13.5,194.2,14.9z"/>
</g>
</svg>
