<?xml version="1.0" encoding="UTF-8"?>
<svg id="_圖層_1" data-name="圖層_1" xmlns="http://www.w3.org/2000/svg" version="1.1" viewBox="0 0 300 38">
  <!-- Generator: Adobe Illustrator 29.8.3, SVG Export Plug-In . SVG Version: 2.1.1 Build 3)  -->
  <defs>
    <style>
      .st0 {
        fill: #fff;
      }
    </style>
  </defs>
  <g>
    <path class="st0" d="M12.2,32.3h-2.5l-1.5-2.5h4c.2,0,.4-.2.4-.4v-3.5l-7.2,1.1v-2.6l7.2-1.2v-7H4.2v2.1l7.1,1.1v2.6h-.1l-7-1.1v1.8c0,3.7-.6,7.2-1.1,9.5H.5v-.1c.4-1.9,1.2-5.5,1.2-9.4v-9h13.4v15.5c0,1.7-1.3,3.1-2.9,3.1Z"/>
    <path class="st0" d="M15.6,12.1H1.1v-2.5h3.2l-1-4.4H1.1v-2.5h6V.8h2.5v1.9h6v2.5h-2.2l-1,4.4h3.2v2.5ZM6.9,9.6h3l1-4.4h-5l1,4.4Z"/>
    <path class="st0" d="M28.9,32.2h-8.7c-1.6,0-3-1.3-3-3V11.2h11.4v-1.7h-11.4V.8h2.5v1.9h7.1l3.7-2.3,1.3,1.6-3,3.2h-9v1.7h11.4v6.8h-11.5v2.1h11.4v2.6h-11.4v1.5h11.4v2.6h-11.4v1.5h11.4v2.6h-11.4v2.7c0,.2.2.4.4.4h8.7c.2,0,.4-.2.4-.4v-1.3h2.5v1.3c.2,1.6-1.2,2.9-2.8,2.9Z"/>
    <path class="st0" d="M96.6,7.9h5.1v-2.9h-14.1V.9h-3.1v4.1h-14v2.9h23c-.4,1.9-2.2,9-7.4,13.5-4.1-3.6-6.1-8.8-6.9-11.7l-3.2.6c.9,3.2,3,8.8,7.5,13-4.9,3.3-10.6,5-13,5.7v3.2c2-.5,9.4-2.5,15.6-6.9,6.3,4.4,13.8,6.4,15.7,6.9v-3.2c-2.4-.6-8.1-2.4-13.1-5.7,6.3-6,7.8-14.9,7.9-15.4Z"/>
    <g>
      <path class="st0" d="M115.6.9h-2.9c-.9,3.7-3.1,10.6-8.6,15.3l-.1.1v3.9l.3-.2c2.2-1.5,4.1-3.5,5.8-5.8v18.1h3.1V9c1.5-3.1,2.2-6,2.6-8h-.2v-.1Z"/>
      <path class="st0" d="M132.3,24.8v4c0,.3-.3.4-.5.4h-8.7c-.3,0-.5-.2-.5-.5v-13.6l9.7-.4,3.1-3.3-1.2-1.6-3.5,2-8.1.3V.9h-3.1v27.7c0,2,1.6,3.6,3.6,3.6h8.7c2,0,3.6-1.6,3.6-3.6v-3.8s-3.1,0-3.1,0Z"/>
    </g>
    <g>
      <path class="st0" d="M49.5,31.7h-2.5l.9-4.9h2.6l-1,4.9Z"/>
      <path class="st0" d="M58.7,31.7h-2.6l-.9-4.9h2.6l.9,4.9Z"/>
      <path class="st0" d="M54.1,31.7h-2.5v-4.9h2.5v4.9Z"/>
      <path class="st0" d="M66.8,15.3c-2.2-1.7-3.8-3.3-4.7-4.5h3.7v-2.5h-10.2c.3-.5.5-.9.7-1.4h9.6v-2.5h-4.3l2-3.4h-2.9l-1.6,2.7,1.3.7h-3c.5-1.5.8-2.7.9-3.4h-2.6c-.2.7-.5,1.9-1,3.4h-2.4l1.3-.7-1.7-2.7h-2.9l2,3.4h-4.2v2.5h6.7c-.2.5-.5.9-.8,1.4h-5.8v2.5h4c-1.3,1.5-2.8,3-4.8,4.4V2h-9.3v23.5c0,3-.8,5.5-1.2,6.7v.1h2.7c.5-1.5,1.1-3.9,1.1-6.7v-4.9h4.2v8.7c0,.2-.2.4-.4.4h-2.8l1.5,2.5h1.3c1.6,0,3-1.3,3-3v-11c.7-.4,1.4-.9,2-1.4v8.6h15.2v4.2h-.7l-.9-2.9h-2.7l1.7,5.4h3.3c1.1,0,1.8-1,1.8-2.6v-6.5h-7.9v-1.2h6v-2.4h-6v-1.2h6v-2c.9.7,1.8,1.4,2.7,2l.1.1v-3.1h0ZM43.4,18h-4.2v-5.5h4.2v5.5ZM43.4,9.9h-4.2v-5.4h4.2v5.4ZM55.4,23.1h-5v-1.2h5v1.2ZM55.4,19.5h-5v-1.2h5v1.2ZM55.4,15.9h-5v-1.2h5v1.2ZM52.8,12.3c.4-.5.8-1,1.2-1.5h5.1c.3.4.7,1,1.1,1.5h-7.4ZM58,15.9v-1.2h4.3c.4.4.9.8,1.3,1.2h-5.6Z"/>
    </g>
  </g>
  <g>
    <path class="st0" d="M141.2,23.7h1.5v7.2h4.3v1.3h-5.8v-8.5Z"/>
    <path class="st0" d="M147.5,29.1c0-1.9,1.1-3.2,3.1-3.2s3.1,1.3,3.1,3.2-1.1,3.2-3.1,3.2-3.1-1.3-3.1-3.2ZM152.3,29.1c0-1.1-.5-2.1-1.7-2.1s-1.7,1.1-1.7,2.1c0,1.1.5,2.2,1.7,2.2,1.2,0,1.7-1.1,1.7-2.2Z"/>
    <path class="st0" d="M154.8,26.1h1.3v.9h0c.4-.7,1.1-1.1,1.9-1.1,1.3,0,2.2.7,2.2,2.1v4.2h-1.3v-3.8c0-1-.4-1.4-1.2-1.4-.9,0-1.5.7-1.5,1.6v3.6h-1.3v-6.1h-.1Z"/>
    <path class="st0" d="M167.2,31.9c0,1.8-1.1,2.7-3,2.7-1.2,0-2.6-.5-2.7-1.9h1.3c.2.8.8.9,1.5.9,1.1,0,1.6-.6,1.6-1.6v-.9h0c-.4.7-1.1,1.1-1.8,1.1-1.9,0-2.7-1.5-2.7-3.2,0-1.6,1-3.1,2.8-3.1.8,0,1.5.3,1.8,1h0v-.8h1.3v5.8h-.1ZM165.9,29c0-1.1-.5-2-1.6-2-1.2,0-1.6,1.1-1.6,2.1s.5,2,1.6,2,1.6-1.1,1.6-2.1Z"/>
    <path class="st0" d="M168,26.1h1v-1.8h1.3v1.8h1.2v1h-1.2v3.3c0,.6,0,.8.6.8h.6v1c-.3,0-.6.1-.9.1-1.4,0-1.7-.5-1.7-1.6v-3.6h-1v-1h.1Z"/>
    <path class="st0" d="M173.6,29.5c0,1,.5,1.8,1.6,1.8.8,0,1.3-.3,1.5-1h1.3c-.3,1.3-1.4,2.1-2.8,2.1-1.9,0-3-1.3-3-3.2,0-1.7,1.1-3.2,3-3.2s3.1,1.7,2.9,3.6h-4.5v-.1ZM176.7,28.6c0-.9-.6-1.6-1.5-1.6s-1.6.7-1.6,1.6h3.1Z"/>
    <path class="st0" d="M179.1,26.1h1.3v.9h0c.4-.7,1.1-1.1,1.9-1.1,1.3,0,2.2.7,2.2,2.1v4.2h-1.3v-3.8c0-1-.4-1.4-1.2-1.4-.9,0-1.5.7-1.5,1.6v3.6h-1.3v-6.1h-.1Z"/>
    <path class="st0" d="M191.5,31.9c0,1.8-1.1,2.7-3,2.7-1.2,0-2.6-.5-2.7-1.9h1.3c.2.8.8.9,1.5.9,1.1,0,1.6-.6,1.6-1.6v-.9h0c-.4.7-1.1,1.1-1.8,1.1-1.9,0-2.7-1.5-2.7-3.2,0-1.6,1-3.1,2.8-3.1.8,0,1.5.3,1.8,1h0v-.8h1.3v5.8h-.1ZM190.2,29c0-1.1-.5-2-1.6-2-1.2,0-1.6,1.1-1.6,2.1s.5,2,1.6,2,1.6-1.1,1.6-2.1Z"/>
    <path class="st0" d="M196.4,23.7h6.1v1.3h-4.6v2.2h4.3v1.2h-4.3v2.5h4.7v1.3h-6.2v-8.5Z"/>
    <path class="st0" d="M209.4,32.2h-1.3v-.8h0c-.4.7-1.1,1-1.9,1-1.9,0-2.9-1.4-2.9-3.3,0-2.2,1.3-3.2,2.6-3.2.8,0,1.6.3,2,1h0v-3.1h1.3v8.4h.2ZM206.3,31.3c1.2,0,1.7-1.1,1.7-2.2,0-1.3-.6-2.1-1.7-2.1-1.3,0-1.7,1.1-1.7,2.2.1,1,.6,2.1,1.7,2.1Z"/>
    <path class="st0" d="M216.2,32.2h-1.3v-.9h0c-.3.6-1.1,1-1.7,1-1.6,0-2.3-.8-2.3-2.4v-3.9h1.3v3.7c0,1.1.4,1.5,1.2,1.5,1.1,0,1.5-.7,1.5-1.7v-3.5h1.3v6.2Z"/>
    <path class="st0" d="M221.7,28.1c-.1-.7-.6-1.1-1.4-1.1-.7,0-1.7.4-1.7,2.2,0,1,.4,2.1,1.6,2.1.8,0,1.3-.5,1.5-1.4h1.3c-.2,1.6-1.2,2.5-2.8,2.5-1.9,0-3-1.4-3-3.2s1-3.3,3-3.3c1.4,0,2.6.7,2.8,2.2,0,0-1.3,0-1.3,0Z"/>
    <path class="st0" d="M229.3,30.8c0,.3.1.5.3.5h.3v.9c-.2.1-.6.2-.8.2-.5,0-.9-.2-1-.7-.5.5-1.4.7-2.1.7-1.1,0-2.1-.6-2.1-1.8,0-1.5,1.2-1.8,2.3-1.9,1-.2,1.8-.1,1.8-.9,0-.7-.7-.8-1.3-.8-.8,0-1.3.3-1.3,1h-1.3c.1-1.6,1.4-2,2.8-2,1.2,0,2.4.5,2.4,1.8v3h0ZM227.9,29.1c-.4.3-1.1.3-1.7.4-.6.1-1.1.3-1.1,1,0,.6.8.8,1.2.8.6,0,1.5-.3,1.5-1.2v-1h.1Z"/>
    <path class="st0" d="M230.1,26.1h1v-1.8h1.3v1.8h1.2v1h-1.2v3.3c0,.6,0,.8.6.8h.6v1c-.3,0-.6.1-.9.1-1.4,0-1.7-.5-1.7-1.6v-3.6h-1v-1h.1Z"/>
    <path class="st0" d="M234.7,23.7h1.3v1.3h-1.3v-1.3ZM234.7,26.1h1.3v6.1h-1.3v-6.1Z"/>
    <path class="st0" d="M237.2,29.1c0-1.9,1.1-3.2,3.1-3.2s3.1,1.3,3.1,3.2-1.1,3.2-3.1,3.2-3.1-1.3-3.1-3.2ZM242,29.1c0-1.1-.5-2.1-1.7-2.1s-1.7,1.1-1.7,2.1c0,1.1.5,2.2,1.7,2.2,1.2,0,1.7-1.1,1.7-2.2Z"/>
    <path class="st0" d="M244.5,26.1h1.3v.9h0c.4-.7,1.1-1.1,1.9-1.1,1.3,0,2.2.7,2.2,2.1v4.2h-1.3v-3.8c0-1-.4-1.4-1.2-1.4-.9,0-1.5.7-1.5,1.6v3.6h-1.3v-6.1h-.1Z"/>
    <path class="st0" d="M260.5,26.4c-.2-1-.9-1.7-2.1-1.7-1.8,0-2.6,1.6-2.6,3.2s.8,3.2,2.6,3.2c1.3,0,2-1,2.1-2.2h1.4c-.1,2-1.5,3.4-3.6,3.4-2.5,0-4-2-4-4.4s1.5-4.4,4-4.4c1.9,0,3.4,1.1,3.6,2.9h-1.4Z"/>
    <path class="st0" d="M262.8,29.1c0-1.9,1.1-3.2,3.1-3.2s3.1,1.3,3.1,3.2-1.1,3.2-3.1,3.2-3.1-1.3-3.1-3.2ZM267.6,29.1c0-1.1-.5-2.1-1.7-2.1s-1.7,1.1-1.7,2.1c0,1.1.5,2.2,1.7,2.2s1.7-1.1,1.7-2.2Z"/>
    <path class="st0" d="M270.2,30.6h1.6v1.6h-1.6v-1.6Z"/>
    <path class="st0" d="M273.5,30.6h1.6v1.6c0,1-.7,1.7-1.6,1.9v-.7c.5-.1.8-.6.8-1.1h-.8v-1.7Z"/>
    <path class="st0" d="M280.1,23.7h1.5v7.2h4.3v1.3h-5.8v-8.5Z"/>
    <path class="st0" d="M286.1,26.1h1v-1.8h1.3v1.8h1.2v1h-1.2v3.3c0,.6,0,.8.6.8h.6v1c-.3,0-.6.1-.9.1-1.4,0-1.7-.5-1.7-1.6v-3.6h-1v-1h.1Z"/>
    <path class="st0" d="M296.4,32.2h-1.3v-.8h0c-.4.7-1.1,1-1.9,1-1.9,0-2.9-1.4-2.9-3.3,0-2.2,1.3-3.2,2.6-3.2.8,0,1.6.3,2,1h0v-3.1h1.3v8.4h.2ZM293.4,31.3c1.2,0,1.7-1.1,1.7-2.2,0-1.3-.6-2.1-1.7-2.1-1.3,0-1.7,1.1-1.7,2.2,0,1,.5,2.1,1.7,2.1Z"/>
    <path class="st0" d="M298,30.6h1.6v1.6h-1.6v-1.6Z"/>
  </g>
  <g>
    <g>
      <path class="st0" d="M179.1,6.1v-1.6h-3.5l1.5-2.4h-1.8l-1.3,2,.6.4h-2V1.2h-1.6v3.3h-1.8V1.2h-1.6v3.3h-2l.6-.4-1.3-2h-1.8l1.5,2.4h-4v1.6h5l.9,1.3h-5.1v1.5h7.7v1.3h-7.7v1.5h7.7v1.3h-8.4v1.5h8.4v4.9h1.5v-4.9h8.4v-1.5h-8.4v-1.3h7.7v-1.5h-7.7v-1.3h7.7v-1.5h-4.6l.9-1.3s4.5,0,4.5,0ZM172,7.4h-3.5l-.9-1.3h5.2l-.8,1.3Z"/>
      <polygon class="st0" points="160.8 18.8 163.3 18.8 167.5 15.4 165 15.4 160.8 18.8"/>
      <polygon class="st0" points="172.4 15.4 176.6 18.8 179.1 18.8 174.9 15.4 172.4 15.4"/>
    </g>
    <g>
      <path class="st0" d="M182.1,1.2v14.4c0,1.8-.4,3.2-.7,3.9h1.6c.3-.9.6-2.3.6-4V7.1l2.6.4h0v-1.5l-2.6-.4v-2.9h3.1v7.2l-2.6.4v1.5h0l2.6-.4v6.4c0,.1-.1.3-.3.3h-1.6l.9,1.5h.8c1,0,1.7-.8,1.7-1.7V1.2h-6.1Z"/>
      <path class="st0" d="M197.2,7.2V1.2h-6.5v5.1c0,.9-.6,1.8-1.4,2.5h2c.5-.8.9-1.6.9-2.5v-3.5h3.4v4.4c0,.8.6,1.4,1.3,1.6h2.7v-1.6h-2.4Z"/>
    </g>
    <g>
      <path class="st0" d="M205.2,1.2c-.4,1.8-1.5,5.1-4.1,7.7v2.3c1-.9,1.9-1.8,2.6-2.8v11.2h1.6V5.7c.9-1.8,1.3-3.4,1.5-4.5,0,0-1.6,0-1.6,0Z"/>
      <path class="st0" d="M210.5,1.2h-1.7c-.3,1.6-1,4-2.5,6v2.4c2.7-2.5,3.8-6.3,4.2-8.4Z"/>
      <path class="st0" d="M216.1,1.8l-.1-.6h-4.4v1.6h3.1c.4,1.4,1.6,4.5,4.8,6.7v-2.1c-2.7-2.4-3.4-5.5-3.4-5.6Z"/>
      <path class="st0" d="M207.5,10.3h2.9c-.1.9-.5,3.7-1.7,6-.9,1.6-1.7,2.7-2.2,3.2h2.1c.5-.6,1-1.4,1.6-2.4,1.5-2.7,1.9-6,2-6.8h4v7.6h-3.2l.9,1.6h2.3c.9,0,1.6-.7,1.6-1.6v-9.2h-10.2v1.6h-.1Z"/>
    </g>
    <g>
      <path class="st0" d="M241.5,1.2v18.4h1.6V2.8h3l-1.1,4.7-.2.6.6.2s1,.6,1,3.4v1.3c0,.9-.1,1.3-.1,1.4h-2.7v.1l.8,1.4h2c1.5,0,1.6-1.4,1.6-3v-1.3c0-2.7-.8-3.9-1.4-4.5l1.5-6.2h-6.6v.3Z"/>
      <path class="st0" d="M250.6,12.9v-3.1h7.9V1.2h-9.5v16.9c0,.5.2.9.6,1.1.2.1.4.2.6.2s.4-.1.6-.2l3.4-1.7v-1.7l-3.7,1.8v-4.7h.1ZM250.6,8.2v-2h6.3v2h-6.3ZM256.9,2.8v1.9h-6.3v-1.9h6.3Z"/>
      <path class="st0" d="M259.9,10.6l-4.9,2.5c-.6-.9-1.1-1.8-1.3-2.5h-1.7c.8,3.2,4.9,7.8,7.9,8.9v-1.7c-1.2-.6-2.7-1.9-3.9-3.4l3.9-2v-1.8Z"/>
    </g>
    <g>
      <path class="st0" d="M265.9,1.2c-.4,1.4-1.5,4.4-4.6,7.2v2.2c4.7-3.7,6-7.9,6.4-9.4,0,0-1.8,0-1.8,0Z"/>
      <path class="st0" d="M275,1.7l-.2-.5h-6.1v1.7h4.9c.6,1.4,2.5,5,6,7.9v-2.4c-3.1-3-4.6-6.7-4.6-6.7Z"/>
      <path class="st0" d="M273.7,13l1.5,2.8-9.7,1.1,5.7-9.3h-2l-5.7,9.2c-.3.5-.3,1-.1,1.4.2.3.6.5,1.1.5h.2l11.3-1.2,1.1,2.1h1.9l-3.5-6.6s-1.8,0-1.8,0Z"/>
    </g>
    <path class="st0" d="M158.6,4.1v-1.6h-8.4v-1.3h-1.6v1.3h-8.4v1.6h8.4v1h-7v4.1h7v1h-7v1.6h7v.9h-8.3v1.6h8.3v.9h-7v1.6h7v1.5h-3l.9,1.6h2.1c.9,0,1.6-.7,1.6-1.6v-1.4h5.7c.9,0,1.6-.7,1.6-1.6v-.9h1.1v-1.6h-1.1v-2.4h-7.3v-1h7v-4.3h-7v-1h8.4ZM155.8,15.1h-5.7v-.9h5.7v.9ZM155.9,11.7v.9h-5.7v-.9h5.7ZM143.2,7.7v-1h5.4v1h-5.4ZM155.6,6.7v1h-5.5v-1h5.5Z"/>
    <rect class="st0" x="282.1" y="4.8" width="13.1" height="1.7"/>
    <path class="st0" d="M282.1,8.4v7.6h13.1v-7.6h-13.1ZM293.5,14.3h-9.7v-4.3h9.7v4.3Z"/>
    <path class="st0" d="M281.1,1.2v1.7h16.7v15h-3.7l.9,1.7h2.8c.9,0,1.7-.7,1.7-1.7V1.2h-18.4Z"/>
    <path class="st0" d="M239.3,4.6v-1.6h-10.3c.2-.7.4-1.3.5-1.8h-1.7c-.1.5-.3,1.1-.6,1.8h-6.2v1.6h5.5c-1.1,2-2.8,4.3-5.6,6.4v2c1.4-1,2.6-2,3.6-3v4.9c0,1.9-.7,3.6-1.2,4.7h1.8c.5-1.1,1-2.7,1-4.3h10v2.7h-3.5l.9,1.6h2.6c.9,0,1.6-.7,1.6-1.6V6.6h-10.5c.4-.7.8-1.3,1.1-1.9h11v-.1ZM236.1,13.6h-10v-1.9h10v1.9ZM236.1,8.2v1.9h-10v-1.9h10Z"/>
    <path class="st0" d="M195.5,15.8c2.7-2.5,3.2-5,3.2-5.2.1-.3.1-.6.1-.9h-9.7v1.6h.9c.2.8.9,2.7,3,4.5-1.3.8-2.8,1.5-4,2v1.7c1.4-.5,3.6-1.4,5.2-2.6,1.3,1,3.1,1.9,5.4,2.7v-1.7c-1.6-.6-3-1.3-4.1-2.1ZM194.2,14.9c-1.7-1.4-2.3-2.8-2.6-3.6h5.2c-.3.9-1.1,2.2-2.6,3.6Z"/>
  </g>
</svg>